<svg id="Layer_4" data-name="Layer 4" xmlns="http://www.w3.org/2000/svg" viewBox="0 0 145 145"><defs><style>.cls-1{fill:#5c5463;}</style></defs><title>confidence2</title><path class="cls-1" d="M82.54,37.85A9,9,0,0,0,79.33,31a11.19,11.19,0,0,0-6.81-2.67,9.43,9.43,0,0,0-7,2.51,9,9,0,0,0-2.72,7,10.07,10.07,0,0,0,3,6.64,9.7,9.7,0,0,0,6.64,2.65,10.43,10.43,0,0,0,6.79-2.51A9,9,0,0,0,82.54,37.85Zm.15,0A11.42,11.42,0,0,1,80,45.33a9.92,9.92,0,0,1-7.49,3.41,10.57,10.57,0,0,1-7.64-3.26A10.22,10.22,0,0,1,62,37.85a11.34,11.34,0,0,1,3.19-7.31,11.55,11.55,0,0,1,3.29-2.41,10.45,10.45,0,0,1,4-1A9.49,9.49,0,0,1,80,30.37,11.35,11.35,0,0,1,82.69,37.85Z"/><path class="cls-1" d="M88.36,37.67a13.89,13.89,0,0,0-1.35-6,15.45,15.45,0,0,0-3.66-4.83,17.31,17.31,0,0,0-10.83-4.28,15,15,0,0,0-11,4.06,14.34,14.34,0,0,0-3.37,5.08,14.74,14.74,0,0,0-1,6,15.85,15.85,0,0,0,4.78,10.61,15.43,15.43,0,0,0,10.61,4.26,16.42,16.42,0,0,0,10.81-4.06A14.45,14.45,0,0,0,88.36,37.67Zm.21,0a17.71,17.71,0,0,1-4.31,11.74A15.27,15.27,0,0,1,79,53.29a16.2,16.2,0,0,1-13,.07,17.08,17.08,0,0,1-5.44-3.75A16.18,16.18,0,0,1,56,37.67a17.64,17.64,0,0,1,5-11.5,18,18,0,0,1,5.19-3.75,16.49,16.49,0,0,1,6.31-1.53A15.12,15.12,0,0,1,84.24,26,17.69,17.69,0,0,1,88.57,37.67Z"/><path class="cls-1" d="M56.08,65.86c3.64-4.92,2.85-12,4-17.64.14-.69-.9-1-1.05-.3-1.37,6.06-.6,12-3.13,17.84a.1.1,0,0,0,.17.1Z"/><path class="cls-1" d="M56.38,66.2c1.15-1.19,2.27-2.4,3.39-3.62,1.36-1.49,1.9-2.88,2.54-.3a32.55,32.55,0,0,0,3,7.66.33.33,0,0,0,.6-.16c0-5.7,3.06-10.89,1.86-16.65-.11-.53-1-.42-1,.14.46,4.61-.64,8.93-1.24,13.47-.27,2,0,2.46-1.14,0a20.86,20.86,0,0,1-2.07-7.18.39.39,0,0,0-.65-.27q-3,3.19-5.73,6.52c-.24.28.14.68.4.41Z"/><path class="cls-1" d="M75.08,53.72a36.26,36.26,0,0,0,6.16,15.77.55.55,0,0,0,1-.42c-.73-2.93-.13-5.6.09-8.53a.27.27,0,0,0-.52-.08c-.75,2.86-.43,5.83-.64,8.76l1-.28a40.32,40.32,0,0,1-6.7-15.27c0-.21-.42-.17-.39,0Z"/><path class="cls-1" d="M81.79,60.62A39.57,39.57,0,0,0,87.2,67a.07.07,0,0,0,.11-.09,40.56,40.56,0,0,0-5.22-6.49c-.15-.15-.43.06-.3.23Z"/><path class="cls-1" d="M87.62,67c.56-5.21-2-11.8-4.78-16.15a.57.57,0,0,0-1,.57,79.79,79.79,0,0,1,3.46,8.08c.82,2.47,1.09,5.12,2,7.54a.15.15,0,0,0,.3,0Z"/><path class="cls-1" d="M60,48.48c-.21,1.75,0,3.54-.16,5.3-.17,2-.6,4-.95,6,0,.2.26.36.35.15,1.4-3.29,2.19-8,1-11.45a.14.14,0,0,0-.27,0Z"/><path class="cls-1" d="M60.38,49.5c0,1.49.28,3,.17,4.46a26.57,26.57,0,0,1-1,4.91.16.16,0,0,0,.29.13,11.55,11.55,0,0,0,.85-9.58c-.07-.16-.31-.07-.31.08Z"/><path class="cls-1" d="M61.15,49.92a16.26,16.26,0,0,1-.26,7.9.18.18,0,0,0,.32.14,8.73,8.73,0,0,0,.22-8.16c-.07-.16-.32,0-.28.12Z"/><path class="cls-1" d="M76.28,55.08a29.34,29.34,0,0,0,3.58,9.43c.19.28.73.11.59-.25-1.24-3.11-2.86-6.06-3.94-9.25a.12.12,0,0,0-.23.07Z"/><path class="cls-1" d="M78.56,58.63c.27,1.28.71,3.08,1.89,3.85a.25.25,0,0,0,.36-.28,12.91,12.91,0,0,0-1-1.61,11.86,11.86,0,0,1-1-2,.16.16,0,0,0-.3.08Z"/><path class="cls-1" d="M80,60.06a3.32,3.32,0,0,0,.63,1.39c.1.08.28,0,.27-.11a3.28,3.28,0,0,0-.63-1.4c-.08-.14-.33,0-.27.12Z"/><path class="cls-1" d="M80.29,66.71l.19.42c0,.09.17,0,.18,0,.1-2,.4-4,.34-6a.15.15,0,0,0-.3,0,9.89,9.89,0,0,0-.43,3,6.22,6.22,0,0,0,.14,2.56.07.07,0,0,0-.12.07Z"/><path class="cls-1" d="M58.25,31.7a11.59,11.59,0,0,0-.5,2.81c0,.18.24.2.31,0a12.22,12.22,0,0,0,.57-2.75c0-.24-.31-.35-.38-.1Z"/><path class="cls-1" d="M57.71,42.12a2,2,0,0,0,1.64-.2.07.07,0,1,0-.07-.13,2.25,2.25,0,0,1-1.53.17.08.08,0,0,0,0,.16Z"/><path class="cls-1" d="M58.08,43a2.19,2.19,0,0,0,2.06-.58.18.18,0,0,0-.17-.3c-.65.15-1.27.53-1.92.62-.16,0-.11.25,0,.26Z"/><path class="cls-1" d="M58.49,44.05a2.27,2.27,0,0,0,2.39-1.28.19.19,0,0,0-.27-.21,5.52,5.52,0,0,1-2.16,1.15c-.21,0-.14.33,0,.34Z"/><path class="cls-1" d="M59.12,45.7a3.76,3.76,0,0,0,1.51-.64c.38-.29.88-.7.89-1.21a.16.16,0,0,0-.24-.14c-.36.18-.59.61-.9.89a4.38,4.38,0,0,1-1.33.83.14.14,0,0,0,.07.27Z"/><path class="cls-1" d="M60.21,47.22c.84-.28,2-1,2.09-2A.2.2,0,0,0,62,45a4.37,4.37,0,0,0-.92.95c-.32.35-.67.69-1,1a.15.15,0,0,0,.14.24Z"/><path class="cls-1" d="M61,47.9c.64,1.15,2-1.32,2.17-1.8a.15.15,0,0,0-.22-.16,3.43,3.43,0,0,0-.87.91c-.13.17-.64,1.2-.92.92a.1.1,0,0,0-.16.13Z"/><path class="cls-1" d="M60.72,51.29c.57,1.16,2,2.73,3.45,2.43a.15.15,0,0,0,0-.28c-.56-.3-1.2-.39-1.75-.71a3.85,3.85,0,0,1-1.54-1.56c-.07-.12-.26,0-.19.12Z"/><path class="cls-1" d="M64.65,64.88c.37-2.3.69-4.61,1-6.91.3-1.89.78-3.64.13-5.5-.09-.24-.48-.22-.47.07a89.05,89.05,0,0,1-1.08,12.29c0,.2.33.25.37,0Z"/><path class="cls-1" d="M63.91,52.23a87.52,87.52,0,0,1-.18,9.85c0,.15.23.18.27,0a22.44,22.44,0,0,0,.12-9.92c0-.11-.22-.09-.21,0Z"/><path class="cls-1" d="M65.33,64.48l-.14-.1c-.22-.18-.54.11-.46.35.24.79,1.71.37,1.46-.44a.22.22,0,0,0-.26-.15,2.67,2.67,0,0,1-.46.2,4.51,4.51,0,0,0-.52,0l.3.53.11-.13a.18.18,0,0,0,0-.26Z"/><path class="cls-1" d="M65.05,63.65c.32.46,1.43.48,1.36-.25a.17.17,0,0,0-.21-.16c-.33.13-.55.38-.94.2-.12-.06-.3.07-.21.21Z"/><path class="cls-1" d="M65.2,62.91a.85.85,0,0,0,1.06.16.7.7,0,0,0,.33-.93.16.16,0,0,0-.26,0c-.25.33-.41.74-.92.5-.17-.08-.37.13-.21.27Z"/><path class="cls-1" d="M65.53,62.1c.48.5,1.46-.17,1.28-.8a.16.16,0,0,0-.27-.07,2,2,0,0,1-.48.44c-.16.07-.33.08-.49.16a.18.18,0,0,0,0,.27Z"/><path class="cls-1" d="M65.55,61.09A1,1,0,0,0,66.86,60a.15.15,0,0,0-.28,0,.85.85,0,0,1-1,.75c-.24,0-.25.32-.06.39Z"/><path class="cls-1" d="M65.74,60a1.22,1.22,0,0,0,1.68-1.18.14.14,0,0,0-.26-.08,2.09,2.09,0,0,1-1.37.93.18.18,0,0,0-.05.33Z"/><path class="cls-1" d="M65.75,58.66a1.16,1.16,0,0,0,1.81-1.17c0-.14-.21-.1-.25,0a1.34,1.34,0,0,1-1.47.84c-.19,0-.21.24-.09.33Z"/><path class="cls-1" d="M65.15,57.31a1.53,1.53,0,0,0,2.2-1c0-.14-.13-.31-.27-.21a4.66,4.66,0,0,1-1.89.9.16.16,0,0,0,0,.28Z"/><path class="cls-1" d="M64.14,55.6a2.25,2.25,0,0,0,2,.71A2.17,2.17,0,0,0,67.78,55a.16.16,0,0,0-.25-.19,3.05,3.05,0,0,1-3.2.55c-.15-.08-.33.11-.19.24Z"/><path class="cls-1" d="M63.25,53.5c.72,1.6,3.36,1.57,4.37.29.11-.14,0-.42-.21-.34a5.74,5.74,0,0,1-2,.44,8.11,8.11,0,0,1-2-.54c-.1,0-.15.07-.12.15Z"/><path class="cls-1" d="M61.06,52.5a5.24,5.24,0,0,0,4.9,2,.26.26,0,0,0,0-.5,10.58,10.58,0,0,1-4.67-1.72.16.16,0,0,0-.23.23Z"/><path class="cls-1" d="M62.18,51.79A3.8,3.8,0,0,0,66.84,53a.26.26,0,0,0-.13-.48,6.84,6.84,0,0,1-4.38-.88c-.12-.08-.23.09-.15.2Z"/><path class="cls-1" d="M75.88,54.62c1.71-.12,3.79-.69,4.68-2.34.1-.19-.12-.45-.31-.31-.67.46-1.23,1.05-2,1.46a8.17,8.17,0,0,1-2.45,1c-.1,0-.08.2,0,.19Z"/><path class="cls-1" d="M76.56,55.3c1.68.05,4.17-1.08,4.93-2.66a.19.19,0,0,0-.25-.26c-.84.39-1.49,1.08-2.28,1.54s-1.65.79-2.44,1.25a.07.07,0,0,0,0,.13Z"/><path class="cls-1" d="M77.85,56.1c1.5-.29,3.67-1.12,4.22-2.72a.2.2,0,0,0-.29-.22c-.64.41-1.11,1.07-1.75,1.51a7.55,7.55,0,0,1-2.28,1.07c-.23.06-.13.4.1.36Z"/><path class="cls-1" d="M79.5,57.15c1.36,0,3.08-1,3-2.61a.18.18,0,0,0-.33-.09,11.06,11.06,0,0,1-1.1,1.45,4.26,4.26,0,0,1-1.63,1c-.13,0-.12.25,0,.24Z"/><path class="cls-1" d="M83.41,58.28a46.22,46.22,0,0,1,3.67,7.39c.14.3.62.09.54-.23a23.48,23.48,0,0,0-4-7.3c-.1-.15-.34,0-.24.14Z"/><path class="cls-1" d="M84,60.78a31,31,0,0,0,3.15,5.1c.23.27.58-.07.45-.35a31.63,31.63,0,0,0-3.34-4.9.15.15,0,0,0-.26.15Z"/><path class="cls-1" d="M84.6,60.8a3.85,3.85,0,0,0,.86-.31c.17-.1.05-.32-.13-.3a4,4,0,0,0-.86.31c-.16.08,0,.34.13.3Z"/><path class="cls-1" d="M63.48,47.75a2.52,2.52,0,0,1-.84,1c-.21.18-.47.35-.44.66a.24.24,0,0,0,.11.19c.87.38,1.25-1.19,1.41-1.74a.13.13,0,0,0-.24-.07Z"/><path class="cls-1" d="M64.46,47.63a6.94,6.94,0,0,0-.53,1.14A2.6,2.6,0,0,0,63.58,50a.34.34,0,0,0,.57.24,2.34,2.34,0,0,0,.52-1,8.25,8.25,0,0,0,.4-1.28.34.34,0,0,0-.61-.26Z"/><path class="cls-1" d="M65.54,48.47a5.78,5.78,0,0,1-.47,1.28c-.17.35-.44.61-.34,1A.3.3,0,0,0,65,51c.48-.06.66-.48.83-.9a4,4,0,0,0,.25-1.53c0-.32-.51-.41-.57-.08Z"/><path class="cls-1" d="M66.43,49.13a4.07,4.07,0,0,1-.27,1.29c-.14.36-.42.62-.32,1a.31.31,0,0,0,.29.22c.52,0,.73-.58.88-1a2.68,2.68,0,0,0,.07-1.61c-.09-.38-.62-.27-.65.08Z"/><path class="cls-1" d="M67.87,49.78a11.57,11.57,0,0,1-.67,2.09c-.11.34.38.66.62.37a3.88,3.88,0,0,0,.68-2.46c0-.41-.58-.39-.63,0Z"/><path class="cls-1" d="M68.77,50.81c-.09.56-.4,1.45-.08,2a.23.23,0,0,0,.36,0c.44-.43.34-1.35.4-1.93,0-.38-.62-.48-.68-.09Z"/><path class="cls-1" d="M70.33,50.41a3.08,3.08,0,0,1,0,1.35,3.8,3.8,0,0,0-.19,1.11.23.23,0,0,0,.34.19c.9-.53.74-2,.52-2.83a.34.34,0,0,0-.66.18Z"/><path class="cls-1" d="M71.44,50.34c-.1.51,0,1-.06,1.57a3.93,3.93,0,0,0-.11,1.52.27.27,0,0,0,.44.12A2.13,2.13,0,0,0,72.22,52,3.36,3.36,0,0,0,72,50.26a.33.33,0,0,0-.6.08Z"/><path class="cls-1" d="M72.9,50.57A4.12,4.12,0,0,1,73.21,52a4.09,4.09,0,0,0,0,1.26.27.27,0,0,0,.44.11,1.85,1.85,0,0,0,.28-1.46,5.14,5.14,0,0,0-.43-1.59c-.15-.34-.75-.1-.61.25Z"/><path class="cls-1" d="M74.34,51.21c.2.59.29,1.47.8,1.87a.29.29,0,0,0,.42-.17c.15-.58-.33-1.35-.53-1.89s-.83-.26-.69.19Z"/><path class="cls-1" d="M76,51.09a3.78,3.78,0,0,0,.32,1.15.23.23,0,0,0,.42-.11,3.84,3.84,0,0,0-.18-1.2c-.07-.36-.64-.21-.56.16Z"/><path class="cls-1" d="M77.58,52.55a3.59,3.59,0,0,0-.19-2.4.19.19,0,0,0-.31,0,3.59,3.59,0,0,0,0,2.4c.06.24.48.26.51,0Z"/><path class="cls-1" d="M77.68,49a9.58,9.58,0,0,0,.43,1.38c.13.52,0,1.07.16,1.57.06.18.35.25.44,0a2.66,2.66,0,0,0,0-1.58,2.72,2.72,0,0,0-.62-1.59c-.15-.14-.46-.06-.43.17Z"/><path class="cls-1" d="M79,48.8a7.23,7.23,0,0,1,.68,2.74.27.27,0,0,0,.53,0,4.75,4.75,0,0,0-.9-2.93.18.18,0,0,0-.31.19Z"/><path class="cls-1" d="M80.36,48.22a2.28,2.28,0,0,1,.82,1c.11.37,0,.75.16,1.11a.23.23,0,0,0,.44,0,1.69,1.69,0,0,0-.32-1.31A3.28,3.28,0,0,0,80.52,48c-.13-.08-.28.11-.16.21Z"/><path class="cls-1" d="M81.7,47.06c.26.54.45,1.34,1,1.65a.14.14,0,0,0,.22-.12c0-.63-.52-1.25-.81-1.77-.15-.27-.54,0-.41.24Z"/><path class="cls-1" d="M82.72,48.2a21.27,21.27,0,0,0-2.38,1.21c-.12.08,0,.29.1.24A22.88,22.88,0,0,0,82.9,48.5c.2-.1,0-.4-.18-.3Z"/><path class="cls-1" d="M71.94,51.13c3,.27,6.85-.06,9.29-2.07.13-.1,0-.33-.16-.28-1.41.48-2.69,1.2-4.15,1.56a16,16,0,0,1-5,.39c-.26,0-.26.37,0,.4Z"/><path class="cls-1" d="M80.42,48.77a19.08,19.08,0,0,1-6.71,2.12c-.18,0-.12.29,0,.31a11.44,11.44,0,0,0,6.93-2,.26.26,0,0,0-.26-.44Z"/><path class="cls-1" d="M60.94,43c-2.6-5-1.51-9.46.88-14.2.13-.27-.21-.57-.43-.33-3.77,4-3.33,10.24-.79,14.72.12.22.45,0,.34-.19Z"/><path class="cls-1" d="M59.19,30.68a9.1,9.1,0,0,0-1.59,6.17c0,.14.27.14.28,0A15,15,0,0,1,59.67,31c.19-.31-.29-.58-.48-.28Z"/><path class="cls-1" d="M57.59,32.52A40.2,40.2,0,0,0,57,37.27a.17.17,0,0,0,.34,0,40.73,40.73,0,0,0,.66-4.8c0-.29-.41-.28-.44,0Z"/><path class="cls-1" d="M63.06,27.4A8.14,8.14,0,0,0,65,25.79c.07-.11-.06-.2-.15-.16a8.33,8.33,0,0,0-1.9,1.61c-.11.11.05.25.16.16Z"/><path class="cls-1" d="M82.54,28.91a8,8,0,0,1,1.1,1.36c.29.46.46,1,.78,1.43.07.09.25.07.25-.07a4.66,4.66,0,0,0-1.9-2.95c-.16-.13-.38.08-.23.23Z"/><path class="cls-1" d="M85.36,34.67a22.7,22.7,0,0,1,.83,4.77.18.18,0,0,0,.34,0,8.89,8.89,0,0,0-.9-4.88c-.06-.16-.32-.05-.27.11Z"/><path class="cls-1" d="M81.22,49.23a7.93,7.93,0,0,0,3.66-4.81.14.14,0,0,0-.25-.1A18.46,18.46,0,0,1,81,48.91c-.18.14,0,.45.25.32Z"/><path class="cls-1" d="M87,32.47a7.2,7.2,0,0,1-2.08,1.32A.09.09,0,0,0,85,34a3.73,3.73,0,0,0,2.26-1.26c.14-.16-.08-.38-.23-.23Z"/><path class="cls-1" d="M85.76,32.8c.4-.4.95-.67,1.24-1.17a.15.15,0,0,0-.2-.2c-.5.29-.77.83-1.17,1.23-.09.09.05.22.13.14Z"/><path class="cls-1" d="M86.34,30.44A4.15,4.15,0,0,1,85,31.59a.12.12,0,0,0,.06.23,1.89,1.89,0,0,0,1.64-1.19.19.19,0,0,0-.32-.19Z"/><path class="cls-1" d="M84.81,31.18c.68-.48,1.62-1.29,1.69-2.18a.14.14,0,0,0-.23-.1c-.27.3-.41.7-.65,1a5.14,5.14,0,0,1-1,1.06c-.12.09,0,.29.16.2Z"/><path class="cls-1" d="M85.29,28.8a7.8,7.8,0,0,0-1.85,1.32c-.09.11,0,.33.16.27a8.21,8.21,0,0,0,1.91-1.31c.16-.12-.05-.39-.22-.28Z"/><path class="cls-1" d="M83.17,29.61a5.58,5.58,0,0,0,1.08-1.54c0-.11-.1-.23-.2-.16a5.75,5.75,0,0,0-1.13,1.5c-.1.15.14.35.25.2Z"/><path class="cls-1" d="M83.64,26.67a5.6,5.6,0,0,0-1.3,1.8.15.15,0,0,0,.22.16A5.72,5.72,0,0,0,84,26.91c.12-.19-.17-.42-.32-.24Z"/><path class="cls-1" d="M81.35,27.85a3,3,0,0,0,1.24-2.13.14.14,0,0,0-.26-.07,10,10,0,0,0-.5,1,3.83,3.83,0,0,1-.77.94c-.19.17.1.45.29.28Z"/><path class="cls-1" d="M81.07,24.68A5.46,5.46,0,0,1,80.42,26c-.24.39-.6.69-.84,1.07a.18.18,0,0,0,.2.26,2.43,2.43,0,0,0,1.11-1,3.51,3.51,0,0,0,.54-1.59c0-.24-.3-.35-.36-.1Z"/><path class="cls-1" d="M79.11,26.77c.5-.68,1.25-1.91.93-2.79a.13.13,0,0,0-.24,0,4.09,4.09,0,0,0-.43,1.2,7.68,7.68,0,0,1-.63,1.4c-.15.24.21.44.37.22Z"/><path class="cls-1" d="M78.17,23.39a7.32,7.32,0,0,0-1.08,2.21c0,.16.16.31.3.17a7.12,7.12,0,0,0,1.09-2.25c.07-.17-.22-.29-.31-.13Z"/><path class="cls-1" d="M76,25.11c.1-.45.24-.87.37-1.31a2.55,2.55,0,0,0,.12-1.06.16.16,0,0,0-.29,0A6.24,6.24,0,0,0,75.63,25c0,.21.27.29.32.09Z"/><path class="cls-1" d="M74.61,22.26a6.67,6.67,0,0,0-.47,2.27c0,.15.22.24.31.09a6.67,6.67,0,0,0,.48-2.27c0-.21-.27-.3-.32-.09Z"/><path class="cls-1" d="M72.94,23.9a7.43,7.43,0,0,0-.09-1.15c0-.11-.18-.07-.19,0a7,7,0,0,0,0,1.12c0,.15.25.15.25,0Z"/><path class="cls-1" d="M71.15,23a40.47,40.47,0,0,1,6.42,0,.14.14,0,0,0,0-.28,13.4,13.4,0,0,0-6.54,0c-.21.05-.12.35.09.32Z"/><path class="cls-1" d="M75.6,23A14.93,14.93,0,0,1,80,24.93c1.22.8,2.27,1.86,3.52,2.6.24.14.55-.15.39-.39-1.66-2.53-5.46-3.79-8.26-4.44a.16.16,0,0,0-.08.31Z"/><path class="cls-1" d="M87.94,36.87c0,3.55-1.17,6.25-2.36,9.49-.09.25.26.43.44.25,2.41-2.5,2.82-6.54,2.21-9.78,0-.16-.29-.12-.29,0Z"/><path class="cls-1" d="M62.59,40.86A12.5,12.5,0,0,0,64,43.33c.14.17.41,0,.35-.21a11.79,11.79,0,0,0-1.28-2.56c-.19-.34-.7,0-.52.3Z"/><path class="cls-1" d="M63.69,64.62c-.83.93-1.71,1.84-2.48,2.84-.08.1,0,.24.14.14.9-.88,1.7-1.86,2.53-2.79.11-.13-.07-.32-.19-.19Z"/><path class="cls-1" d="M83.46,65.13a41.33,41.33,0,0,0-3.54,3c-.09.1,0,.27.15.19a38.18,38.18,0,0,0,3.55-3.06c.11-.1-.05-.26-.16-.17Z"/><path class="cls-1" d="M81.92,49l9.83-.25c3.28-.08,6.55-.15,9.83-.19,6.55-.08,13.1-.23,19.65-.24H122v.78l.1,15.59c.06,5.19,0,10.39,0,15.58s-.12,10.4-.19,15.59l-.24,15.59v.42h-.42c-8.12,0-16.25-.15-24.38-.08s-16.26.14-24.38.24-16.26.23-24.39.3l-24.38.14h-1v-1c0-5.2-.05-10.39,0-15.59l0-15.59c0-10.39.18-20.78.25-31.17v-.78l.76,0,17.69.27L59.07,49v.2l-17.68.39-17.69.28.76-.77c.08,10.39.26,20.78.25,31.17l0,15.59q0,7.8,0,15.59l-1-1,24.38.15q12.2.1,24.39.29c8.12.11,16.25.23,24.38.24s16.26,0,24.38-.08l-.41.42-.25-15.59c-.07-5.19-.18-10.39-.18-15.59s-.09-10.39,0-15.58l.09-15.59.78.78c-6.55,0-13.1-.16-19.65-.24-3.28,0-6.55-.11-9.83-.19l-9.83-.25Z"/><path class="cls-1" d="M34.81,77.84c3-.27,5.94-.42,8.9-.51s5.94-.13,8.91,0,5.93.32,8.9.38,5.93,0,8.9-.17,5.93-.25,8.9-.29,5.94-.12,8.9-.1c5.94.08,11.87.25,17.81.73V78c-5.94.47-11.87.65-17.81.72-3,0-5.93,0-8.9-.09s-5.93-.15-8.9-.3-5.94-.22-8.9-.16-5.94.27-8.9.38-5.94,0-8.91-.05-5.93-.23-8.9-.5Z"/><path class="cls-1" d="M34.81,93.18c3-.27,5.94-.43,8.9-.51s5.94-.13,8.91,0,5.93.32,8.9.38,5.93,0,8.9-.17,5.93-.25,8.9-.29,5.94-.12,8.9-.1c5.94.08,11.87.25,17.81.73v.15c-5.94.47-11.87.65-17.81.72-3,0-5.93,0-8.9-.09s-5.93-.15-8.9-.3-5.94-.22-8.9-.17-5.94.28-8.9.39-5.94,0-8.91,0-5.93-.23-8.9-.5Z"/><path class="cls-1" d="M25.11,66.61a41.85,41.85,0,0,0,5-.07.13.13,0,0,0,0-.26,41.85,41.85,0,0,0-5-.07.2.2,0,0,0,0,.4Z"/><path class="cls-1" d="M25.34,65.56a.09.09,0,1,0,0-.18.09.09,0,0,0,0,.18Z"/><path class="cls-1" d="M24.17,65.08c-.61,14.85-.59,29.9-.2,44.76a.46.46,0,0,0,.91,0c.36-14.86.36-29.91-.28-44.76a.22.22,0,0,0-.43,0Z"/><path class="cls-1" d="M24.85,110.44a14.07,14.07,0,0,0,6.42.76c.3,0,.19-.46-.06-.48a34,34,0,0,1-6.19-.91c-.4-.12-.57.5-.17.63Z"/><path class="cls-1" d="M23.88,111.08a75.84,75.84,0,0,0,9-1,.19.19,0,0,0,0-.37,76.19,76.19,0,0,0-9,1.12c-.13,0-.1.25,0,.24Z"/><path class="cls-1" d="M28.39,109.65a112,112,0,0,0,11.27,1c.19,0,.25-.31.05-.34-3.74-.63-7.55-.73-11.32-1-.23,0-.22.33,0,.35Z"/><path class="cls-1" d="M24.33,49.63A32.42,32.42,0,0,0,24.24,58a.18.18,0,0,0,.35,0,32.43,32.43,0,0,0,0-8.41c0-.12-.21-.11-.24,0Z"/><path class="cls-1" d="M25.33,49.4a17.58,17.58,0,0,0-.07,4.41,28.66,28.66,0,0,0,.43,4.44c.06.26.4.17.43-.06a28.63,28.63,0,0,0-.06-4.72,16.86,16.86,0,0,0-.5-4.07c0-.11-.21-.13-.23,0Z"/><path class="cls-1" d="M27.76,49.27A77,77,0,0,0,27.93,57a.22.22,0,0,0,.44,0,77.09,77.09,0,0,0-.14-7.75.24.24,0,0,0-.47,0Z"/><path class="cls-1" d="M24.72,54.62a38.21,38.21,0,0,0,4.54.06.26.26,0,0,0,0-.51,40.48,40.48,0,0,0-4.54-.1.28.28,0,0,0,0,.55Z"/><path class="cls-1" d="M23.85,52.82a26.6,26.6,0,0,0,4.54.26c.21,0,.29-.33.06-.38a27.27,27.27,0,0,0-4.6-.37c-.32,0-.31.47,0,.49Z"/><path class="cls-1" d="M24.48,52.2a29.63,29.63,0,0,0,5.95.2c.31,0,.44-.54.08-.6a29.66,29.66,0,0,0-6-.27.34.34,0,0,0,0,.67Z"/><path class="cls-1" d="M24.17,51.19a26.83,26.83,0,0,0,7.74.52c.4,0,.55-.66.1-.74a27.49,27.49,0,0,0-7.84-.31c-.28,0-.25.47,0,.53Z"/><path class="cls-1" d="M23.78,50c4.19.13,8.4.41,12.6.16a.34.34,0,0,0,0-.68c-4.19-.34-8.41-.14-12.6-.09a.31.31,0,0,0,0,.61Z"/><path class="cls-1" d="M30.66,55.6l3.13-.21c.22,0,.23-.35,0-.34l-3.13.1c-.28,0-.28.47,0,.45Z"/><path class="cls-1" d="M43.7,51c-3,2-6.13,3.92-9,6.12-.1.08,0,.26.11.19,3.12-1.82,6.07-4,9.06-6,.18-.12,0-.42-.17-.3Z"/><path class="cls-1" d="M46.67,50.41c-3.07,2.13-6.17,4.22-9.2,6.4a.09.09,0,1,0,.1.16c3.12-2,6.18-4.17,9.27-6.26.18-.13,0-.42-.17-.3Z"/><path class="cls-1" d="M67,59.28c-1.58,1.55-3.18,3.09-4.72,4.68-.08.08,0,.2.13.12,1.6-1.52,3.16-3.1,4.73-4.66a.1.1,0,0,0-.14-.14Z"/><path class="cls-1" d="M68.57,59.64l.31-.23c.06,0,0-.13,0-.09l-.31.24s0,.12,0,.08Z"/><path class="cls-1" d="M55.46,50.59c-1.92,1.81-3.89,3.57-5.73,5.46,0,.05,0,.13.08.08,2-1.73,3.86-3.6,5.77-5.42.08-.07,0-.19-.12-.12Z"/><path class="cls-1" d="M88.86,52.14c-8.55,8.39-17.27,16.43-26.42,24.17-.07.06,0,.18.1.13,1-.71,1.92-1.4,2.89-2.08.06,0,0-.12,0-.09-3.85,2.69,2.19-1.93,3-2.63,2.4-2,4.71-4.15,7-6.29,4.61-4.29,9.21-8.52,13.52-13.13a.06.06,0,0,0-.08-.08Z"/><path class="cls-1" d="M44.2,50.32l2.36,0a5.26,5.26,0,0,0,2.06-.15.15.15,0,0,0,0-.28,5.26,5.26,0,0,0-2.06-.14l-2.36,0a.27.27,0,0,0,0,.53Z"/><path class="cls-1" d="M49.37,50.13c3.24-.15,6.46-.1,9.7-.44.79-.08.82-1.31,0-1.26-3.28.21-6.46.9-9.7,1.29-.25,0-.27.42,0,.41Z"/><path class="cls-1" d="M81.92,49.92A12.86,12.86,0,0,0,86,49.53c.13-.05.17-.27,0-.31a12.93,12.93,0,0,0-4.11.22c-.31,0-.32.5,0,.48Z"/><path class="cls-1" d="M88,49.68l1.94,0a4.92,4.92,0,0,0,1.71-.18.18.18,0,0,0,0-.35,4.91,4.91,0,0,0-1.71,0L88,49.23a.23.23,0,0,0,0,.45Z"/><path class="cls-1" d="M101.17,49.87c6.25,0,12.78.83,19-.14.24,0,.14-.35,0-.37-6.21-.83-12.7.17-18.94.3a.11.11,0,0,0,0,.21Z"/><path class="cls-1" d="M25,89.19c-.3,3.69-.8,7.39-.8,11.1,0,.12.19.15.2,0,.55-3.68.62-7.42.88-11.13,0-.18-.27-.18-.28,0Z"/><path class="cls-1" d="M25.43,85.58c0,6.63-.49,13.43.12,20a.16.16,0,0,0,.31,0c.69-6.6.31-13.4.34-20a.39.39,0,0,0-.77,0Z"/><path class="cls-1" d="M32.79,50.52c0,1.36-.11,2.72,0,4.07a.19.19,0,0,0,.38,0c.17-1.35.21-2.71.27-4.07,0-.38-.58-.38-.6,0Z"/><path class="cls-1" d="M31.45,49.58c-.14,7.88.07,15.76.25,23.64a.14.14,0,0,0,.27,0c.09-7.88.23-15.76,0-23.64a.26.26,0,0,0-.52,0Z"/><path class="cls-1" d="M119.94,49.43c-.15,6.45-.44,13-.14,19.41a.21.21,0,0,0,.42,0c.44-6.45.28-13,.26-19.41a.27.27,0,0,0-.54,0Z"/><path class="cls-1" d="M117.58,50.83c.2,5.85.36,11.7.86,17.53a.23.23,0,0,0,.46,0c0-5.85-.42-11.69-.77-17.53,0-.34-.56-.35-.55,0Z"/><path class="cls-1" d="M108.47,49.27c.09,2.87.15,5.74.37,8.61a.21.21,0,0,0,.41,0c0-2.87-.15-5.74-.26-8.61,0-.34-.54-.34-.52,0Z"/><path class="cls-1" d="M110.39,107a44.27,44.27,0,0,0,.19,4.75c0,.2.32.13.33,0a46.17,46.17,0,0,0-.12-4.7c0-.25-.41-.25-.4,0Z"/><path class="cls-1" d="M107.32,109.22a8.38,8.38,0,0,0,.26,2.7.18.18,0,0,0,.34,0,8.75,8.75,0,0,0,0-2.7c0-.35-.57-.36-.55,0Z"/><path class="cls-1" d="M102.27,111.3a.05.05,0,0,0,0-.1.05.05,0,0,0,0,.1Z"/><path class="cls-1" d="M119.17,111.08a.15.15,0,0,0,0-.29.15.15,0,0,0,0,.29Z"/><path class="cls-1" d="M120.44,107.89c-1.83.82-3.66,1.63-5.42,2.6a.21.21,0,0,0,.16.38c1.91-.72,3.73-1.58,5.58-2.44.37-.17,0-.71-.32-.54Z"/><path class="cls-1" d="M118.34,107.15c-2.31.89-4.62,1.77-6.9,2.74-.12,0,0,.26.09.21,2.33-.8,4.61-1.7,6.91-2.59.22-.08.13-.45-.1-.36Z"/><path class="cls-1" d="M119.67,94.6c-2.17,1.47-4.44,2.86-6.54,4.44a.2.2,0,0,0,.21.35c2.26-1.34,4.41-2.89,6.6-4.33.28-.19,0-.65-.27-.46Z"/><path class="cls-1" d="M116.65,56.87c-5,3.76-10.09,7.47-15,11.36-.13.1.05.33.18.23,5.1-3.62,10.07-7.44,15.07-11.19.24-.18,0-.58-.23-.4Z"/><path class="cls-1" d="M112.48,55.65c-4.07,2.92-8.16,5.82-12.17,8.82-.15.11,0,.35.14.25,4.12-2.86,8.16-5.81,12.22-8.74.2-.14,0-.48-.19-.33Z"/><path class="cls-1" d="M108.37,53.33c-2.41,2.19-4.83,4.35-7.14,6.64-.14.14.07.35.22.22,2.49-2.09,4.87-4.31,7.26-6.51.23-.21-.11-.56-.34-.35Z"/><path class="cls-1" d="M109.16,109.91h2.5a.07.07,0,0,0,0-.13h-2.5a.07.07,0,1,0,0,.13Z"/><path class="cls-1" d="M92.72,108.69c9.29.11,18.58.31,27.86.28a.17.17,0,0,0,0-.33c-9.28-.24-18.57-.27-27.86-.37-.27,0-.27.42,0,.42Z"/><path class="cls-1" d="M80.67,106.86c13.41.09,26.82.26,40.22.15a.12.12,0,0,0,0-.23c-13.4-.28-26.81-.27-40.22-.34a.21.21,0,0,0,0,.42Z"/><path class="cls-1" d="M100.55,99.44c5.47,0,11,.11,16.43,0a.19.19,0,0,0,0-.38c-5.47-.16-11-.05-16.43-.05a.24.24,0,0,0,0,.48Z"/><path class="cls-1" d="M118.79,61.32c1.69,16.06.69,31.69.28,47.76,0,.28.46.36.51.07,2.78-15.54,1.74-32.23,0-47.83-.06-.52-.88-.53-.83,0Z"/><path class="cls-1" d="M115.11,48.33c1.47-.16,3-.24,4.44-.53a.21.21,0,0,0-.06-.41c-1.45,0-2.93.31-4.38.47-.29,0-.3.5,0,.47Z"/><path class="cls-1" d="M118.44,70.56c-.69,12-1.67,24.41-1.26,36.47a.25.25,0,0,0,.49,0c1.21-12,1.07-24.43,1.18-36.47a.21.21,0,0,0-.41,0Z"/><path class="cls-1" d="M114.8,86.52c-.26,7.28,0,14.67-.47,21.92,0,.39.62.39.61,0-.24-7.27.29-14.64.28-21.92a.21.21,0,0,0-.42,0Z"/><path class="cls-1" d="M112.15,95.76a131.57,131.57,0,0,0-.54,13.46.29.29,0,0,0,.57,0,131.36,131.36,0,0,0,.37-13.46.2.2,0,0,0-.4,0Z"/><path class="cls-1" d="M110.5,99.21a62.75,62.75,0,0,0-.94,8.3.17.17,0,0,0,.33,0,62.82,62.82,0,0,0,1.25-8.34c0-.4-.58-.4-.64,0Z"/><path class="cls-1" d="M116.72,67.43c-.16,11-.35,22,0,33a.16.16,0,0,0,.32,0c.33-11,.15-22,0-33a.15.15,0,0,0-.29,0Z"/><path class="cls-1" d="M119.26,50.2c-.39,4.55-1.07,9.22-.87,13.78,0,.3.48.39.54.07.88-4.51.9-9.27,1.2-13.85,0-.56-.83-.55-.87,0Z"/><path class="cls-1" d="M114.7,62.58c.07,5.09-.17,10.26.45,15.33a.15.15,0,0,0,.29,0c.37-5.09-.12-10.24-.31-15.33a.22.22,0,0,0-.43,0Z"/><path class="cls-1" d="M115.39,82.14c-.14,6.09-.78,12.22-.33,18.31a.26.26,0,0,0,.52,0c.58-6.08.08-12.22.08-18.31a.14.14,0,0,0-.27,0Z"/><path class="cls-1" d="M112.05,82.76c-.22,5.69-.4,11.38-.1,17.06a.15.15,0,0,0,.29,0c.47-5.67.46-11.37.41-17.06a.3.3,0,0,0-.6,0Z"/><path class="cls-1" d="M112.11,105.77a26.3,26.3,0,0,0-.12,2.66c0,.15.25.2.28,0a26.8,26.8,0,0,0,.19-2.7c0-.22-.33-.22-.35,0Z"/><path class="cls-1" d="M117.78,101.55c0,.83,0,1.67,0,2.5a.13.13,0,0,0,.26,0c0-.83,0-1.67,0-2.5a.14.14,0,1,0-.28,0Z"/><path class="cls-1" d="M115.42,105.15c-1.77.13-3.54.28-5.32.36v.36a15.92,15.92,0,0,0,6.64-2.17.15.15,0,0,0-.15-.26,18.82,18.82,0,0,1-6.49,2.07c-.22,0-.23.38,0,.36,1.77-.18,3.55-.28,5.32-.41.19,0,.19-.32,0-.31Z"/><path class="cls-1" d="M115.82,86.18c-2.45,3.24-4.94,6.44-7.31,9.73-.08.1.09.23.16.13,2.54-3.18,5-6.46,7.42-9.7.12-.16-.15-.31-.27-.16Z"/><path class="cls-1" d="M113.69,83.22C111.45,86,109,88.78,107,91.79c-.11.16.14.35.27.21,2.45-2.61,4.55-5.61,6.77-8.41.2-.26-.16-.63-.36-.37Z"/><path class="cls-1" d="M110.89,82.62c-1.87,2.14-3.83,4.23-5.6,6.45-.12.15.07.35.21.21,2-2,3.79-4.25,5.67-6.38.16-.19-.11-.47-.28-.28Z"/><path class="cls-1" d="M27.31,94.82c0,4.89-.14,9.83.15,14.71a.25.25,0,0,0,.49,0c.17-4.89-.09-9.82-.22-14.71a.21.21,0,0,0-.42,0Z"/><path class="cls-1" d="M24.48,108.16a11.05,11.05,0,0,0,3.22,1.52c.2,0,.4-.22.21-.37a11,11,0,0,0-3.22-1.65c-.31-.11-.47.34-.21.5Z"/><path class="cls-1" d="M25.92,105.07c2.66,1.33,5.3,2.75,8.06,3.87.22.09.35-.25.16-.36-2.56-1.5-5.28-2.7-7.95-4-.31-.15-.59.31-.27.47Z"/><path class="cls-1" d="M25.89,104.56c3.22,1.66,6.41,3.51,9.75,4.9.27.11.43-.31.19-.45-3.09-1.84-6.47-3.27-9.7-4.85-.27-.13-.51.26-.24.4Z"/><path class="cls-1" d="M24.9,95.57c2.29,1.26,4.56,2.57,7,3.65a.17.17,0,0,0,.17-.3c-2.2-1.42-4.52-2.61-6.82-3.86-.34-.18-.63.33-.3.51Z"/><path class="cls-1" d="M25.24,93.33c1.82,1,3.61,2.07,5.52,2.9a.18.18,0,0,0,.18-.31c-1.72-1.16-3.59-2.09-5.41-3.08-.33-.18-.62.31-.29.49Z"/><path class="cls-1" d="M26.79,91.1a.2.2,0,0,0,0-.39.2.2,0,0,0,0,.39Z"/><path class="cls-1" d="M25,88.43c1.76,1.15,3.51,2.35,5.35,3.39a.15.15,0,0,0,.15-.26c-1.71-1.25-3.51-2.35-5.29-3.49-.23-.15-.44.21-.21.36Z"/><path class="cls-1" d="M25.26,85.47c1.61.94,3.22,1.9,4.89,2.75a.16.16,0,0,0,.16-.27c-1.56-1-3.2-1.94-4.82-2.88a.23.23,0,0,0-.23.4Z"/><path class="cls-1" d="M24.33,83.41c1.46.89,2.91,1.81,4.41,2.62a.18.18,0,0,0,.18-.3c-1.42-1-2.9-1.81-4.36-2.7a.22.22,0,0,0-.23.38Z"/><path class="cls-1" d="M28.35,82.66a.05.05,0,0,0,0-.1.05.05,0,0,0,0,.1Z"/><path class="cls-1" d="M33.43,102.32c4.77,2.72,9.51,5.49,14.39,8a.09.09,0,0,0,.09-.16c-4.69-2.86-9.51-5.47-14.31-8.14-.19-.11-.37.18-.17.29Z"/><path class="cls-1" d="M35,107c2.29,1.25,4.57,2.55,6.93,3.66.2.1.37-.18.18-.29-2.24-1.36-4.58-2.54-6.89-3.76-.25-.14-.48.25-.22.39Z"/><path class="cls-1" d="M33.32,87.22c2,1.31,4,2.64,6,3.91.1.06.19-.1.09-.16-2-1.34-4-2.62-5.94-3.93-.11-.07-.22.11-.1.18Z"/><path class="cls-1" d="M32.54,90.18c1,.68,2.07,1.39,3.13,2,.1.06.18-.09.09-.15-1-.7-2.09-1.35-3.14-2-.08-.06-.16.07-.08.13Z"/><path class="cls-1" d="M38.89,109.22l0,1.37h.19c-.06-.82-.1-1.65-.18-2.47,0-.1-.17-.1-.17,0,0,.83.1,1.65.16,2.47a.1.1,0,0,0,.19,0l0-1.37c0-.13-.19-.13-.2,0Z"/><path class="cls-1" d="M37.73,100.14c.26,2.42.4,4.84.88,7.23a.13.13,0,0,0,.26,0c-.11-2.43-.55-4.81-.88-7.22,0-.15-.28-.12-.26,0Z"/><path class="cls-1" d="M40.74,103.27a40.11,40.11,0,0,0,.5,4.89c0,.15.27.11.27,0a39.38,39.38,0,0,0-.45-4.85c0-.21-.34-.21-.32,0Z"/><path class="cls-1" d="M24.82,78.52q7,4.45,14,8.81c.09.06.18-.1.09-.16q-7-4.42-14-8.77c-.07-.05-.15.07-.07.12Z"/><path class="cls-1" d="M24,73.38c2.57,2.24,5.2,4.47,8,6.47.1.07.22-.08.13-.16-2.52-2.3-5.25-4.42-8-6.46-.09-.07-.2.08-.12.15Z"/><path class="cls-1" d="M31.32,76.56a.06.06,0,1,0,0-.11.06.06,0,0,0,0,.11Z"/><path class="cls-1" d="M29.22,74.85l4.53,3.93c.06,0,.15,0,.09-.09l-4.53-3.92c-.06,0-.15,0-.09.08Z"/><path class="cls-1" d="M25.24,70.4a61.14,61.14,0,0,0,8.44,6.95c.16.11.35-.14.21-.26a61.49,61.49,0,0,0-8.55-6.82.08.08,0,0,0-.1.13Z"/><path class="cls-1" d="M29.4,70.75a54.37,54.37,0,0,0,4.23,3.66c.13.09.28-.12.17-.23a52.21,52.21,0,0,0-4.25-3.58c-.1-.08-.25.06-.15.15Z"/><path class="cls-1" d="M28.4,60.23c-.26,5.74-.6,11.48-.64,17.22a.12.12,0,0,0,.24,0c.37-5.73.43-11.48.57-17.22,0-.11-.16-.1-.17,0Z"/><path class="cls-1" d="M115.06,100.76a.16.16,0,0,0,0-.31.16.16,0,0,0,0,.31Z"/><path class="cls-1" d="M53.86,108.48a.05.05,0,1,0,0-.1.05.05,0,0,0,0,.1Z"/><path class="cls-1" d="M34,57.57c-.52,7.6-1.08,15.23-1.36,22.84,0,.24.35.23.37,0,.61-7.59,1-15.23,1.32-22.84,0-.22-.32-.22-.33,0Z"/><path class="cls-1" d="M35.33,66.8c-.08,3.5-.12,7-.15,10.49a.11.11,0,0,0,.22,0c.05-3.5.11-7,.12-10.49,0-.13-.19-.13-.19,0Z"/><path class="cls-1" d="M37.55,70.09a54.47,54.47,0,0,0,0,6.26c0,.12.21.17.23,0A50.73,50.73,0,0,0,38,70.09c0-.28-.43-.28-.44,0Z"/><path class="cls-1" d="M40.25,74.94a16.82,16.82,0,0,0-.09,3.47.11.11,0,0,0,.22,0,16,16,0,0,0,.22-3.47c0-.23-.34-.22-.35,0Z"/><path class="cls-1" d="M43.14,74.94v1.88c0,.09.15.09.15,0V74.94a.08.08,0,1,0-.16,0Z"/><path class="cls-1" d="M30,93.88c-.08,5.64-.35,11.26-.42,16.9a.29.29,0,0,0,.58,0c.07-5.64-.08-11.26,0-16.9a.07.07,0,0,0-.14,0Z"/><path class="cls-1" d="M32,94.65c.21,5.12.39,10.22.65,15.34,0,.39.64.39.61,0-.33-5.13-.75-10.22-1.13-15.34a.07.07,0,0,0-.13,0Z"/><path class="cls-1" d="M35,98.89c.2,3.67.1,7.51.64,11.14,0,.18.31.13.31,0,.08-3.67-.51-7.44-.77-11.1,0-.12-.19-.12-.18,0Z"/><path class="cls-1" d="M32,112.87a.05.05,0,0,0,0-.1.05.05,0,0,0,0,.1Z"/><path class="cls-1" d="M35.8,97.32c-.06,1.61-.2,3.25-.19,4.86,0,2.53.06-.39.08-.89.1-3.16,0-6.35-.07-9.51-.07-6.35-.2-12.69-.26-19a.07.07,0,0,0-.14,0c.1,10.79.08,21.57.27,32.36a.1.1,0,0,0,.19,0l.24-7.78c0-.08-.11-.08-.12,0Z"/><path class="cls-1" d="M29.47,76c-.25,7-.58,14-.56,21a.08.08,0,1,0,.16,0c.41-7,.48-14,.62-21a.11.11,0,0,0-.22,0Z"/><path class="cls-1" d="M28.56,94l-.31-2.66c0-.07-.12-.07-.11,0L28.45,94c0,.07.12.08.11,0Z"/><path class="cls-1" d="M25.9,66.33c-.16,7.13-.35,14.26-.47,21.39a.12.12,0,1,0,.24,0c.19-8.12.5-16.25.72-24.37a.07.07,0,0,0-.14,0c-.25,7-1.36,14.62-.71,21.56.23,2.37.17-.5.22-1.08.16-1.91.08-3.92.11-5.83q.09-5.84.19-11.67c0-.1-.15-.1-.16,0Z"/><path class="cls-1" d="M26.06,55.84c-.13,7.42-.45,14.81-.33,22.23a.15.15,0,0,0,.29,0c.29-7.41.14-14.81.17-22.23,0-.08-.12-.08-.13,0Z"/><path class="cls-1" d="M39.19,85.27C39.1,93.84,39,102.4,39,111c0,.14.21.14.23,0,.43-4,.89-8,1.28-11.94,0-.12-.17-.12-.18,0q-.47,3.82-.87,7.67c-.61,5.67-.09-.86,0-2.65.15-6.26,0-12.52,0-18.78a.1.1,0,0,0-.2,0Z"/><path class="cls-1" d="M41.38,92.16c0,6.24-.31,12.54.1,18.78a.17.17,0,0,0,.34,0c.29-6.25-.18-12.54-.26-18.78,0-.12-.19-.12-.18,0Z"/><path class="cls-1" d="M44.47,100.92c-.16,3.12-.49,6.29-.4,9.4a.07.07,0,0,0,.13,0c.36-3.09.32-6.28.44-9.4,0-.11-.17-.11-.17,0Z"/><path class="cls-1" d="M47.54,108.12l0,2.63c0,.09.12.08.13,0l.06-.58a2.53,2.53,0,0,1,.07-.68c0-.11,0-.13.11-.06a1,1,0,0,1,.13.3,1.05,1.05,0,0,1-.05.7c0,.08.1.12.13,0a1.19,1.19,0,0,0-.3-1.31.06.06,0,0,0-.1,0l-.18,1.55h.13v-2.63a.06.06,0,1,0-.12,0Z"/><path class="cls-1" d="M48.78,109.06V110a.07.07,0,0,0,.13,0v-.94a.08.08,0,0,0-.15,0Z"/><path class="cls-1" d="M31.93,96.73c3.82,2.35,7.52,5.12,11.57,7.06a.15.15,0,0,0,.15-.25c-3.61-2.68-7.78-4.67-11.64-7a.08.08,0,0,0-.08.14Z"/><path class="cls-1" d="M36.91,96.78c2,1.27,4,2.65,6.09,3.78a.12.12,0,0,0,.12-.21C41.16,99,39,97.87,37,96.62a.09.09,0,0,0-.09.16Z"/><path class="cls-1" d="M35.87,106.2c4,.2,7.93.77,11.9.55.11,0,.15-.19,0-.21-3.95-.56-8-.34-11.93-.49-.1,0-.1.15,0,.15Z"/><path class="cls-1" d="M50.35,104c2.52,1.62,5,3.19,7.6,4.72.1.06.19-.09.09-.16-2.51-1.62-5-3.17-7.61-4.7-.08,0-.16.08-.08.14Z"/><path class="cls-1" d="M55.1,105.05c2,1.15,3.92,2.39,6,3.44a.07.07,0,0,0,.07-.13c-1.91-1.24-4-2.32-5.94-3.45a.08.08,0,1,0-.09.14Z"/><path class="cls-1" d="M59.16,104.81c2.08,1.25,4.13,2.53,6.28,3.68.07,0,.13-.07.06-.11-2-1.31-4.16-2.48-6.27-3.69-.08,0-.15.08-.07.12Z"/><path class="cls-1" d="M51.83,107.37c7.06.21,14.22.36,21.28.11a.11.11,0,1,0,0-.22c-7.06-.29-14.22-.19-21.28,0a.07.07,0,0,0,0,.14Z"/></svg>