<svg id="Layer_4" data-name="Layer 4" xmlns="http://www.w3.org/2000/svg" viewBox="0 0 145 145"><defs><style>.cls-1{fill:#5c5463;}</style></defs><title>confidence4</title><path class="cls-1" d="M85.12,100c.13,1.63.18,3.25.26,4.88s.12,3.26.16,4.89c.07,3.25.11,6.52.09,9.76V120l-.36.26a36.34,36.34,0,0,1-8.68,4.55,62.69,62.69,0,0,1-9.38,2.5A131.27,131.27,0,0,1,48,129.43a78.31,78.31,0,0,1-19.3-1.62,45.58,45.58,0,0,1-18-7.56l-.38-.28v-.46c0-3.29.08-6.59.19-9.89s.2-6.59.39-9.89h.2c.27,3.29.48,6.58.65,9.88s.33,6.58.44,9.88l-.39-.74A41.84,41.84,0,0,0,20.18,123a69.63,69.63,0,0,0,9,2.83A101.8,101.8,0,0,0,48,128.34a64.14,64.14,0,0,0,19-2,63.23,63.23,0,0,0,9-3.15,50.18,50.18,0,0,0,8.27-4.45l-.37.71c.07-3.27.2-6.52.36-9.77.08-1.63.17-3.26.29-4.89s.22-3.25.38-4.88Z"/><path class="cls-1" d="M80.26,95.88A12.83,12.83,0,0,1,83,97a4.61,4.61,0,0,1,2.2,2.24,2.68,2.68,0,0,1,0,1.81,4.43,4.43,0,0,1-1,1.39,10,10,0,0,1-2.54,1.77,28.91,28.91,0,0,1-5.56,2.06,45.23,45.23,0,0,1-5.74,1.16c-3.86.52-7.74.64-11.59.83s-7.71.43-11.58.58a104.6,104.6,0,0,1-11.61-.09A88.85,88.85,0,0,1,24,107.35a50.27,50.27,0,0,1-5.7-1.48,20.89,20.89,0,0,1-5.44-2.56,4.9,4.9,0,0,1-2.05-2.6A2.61,2.61,0,0,1,11,98.88a4.13,4.13,0,0,1,1.05-1.27,9.64,9.64,0,0,1,2.63-1.46,20.47,20.47,0,0,1,2.79-.88l.07.19a16,16,0,0,0-4.8,2.9,1.91,1.91,0,0,0-.7,2A3.86,3.86,0,0,0,13.71,102a22,22,0,0,0,5.13,2c1.82.49,3.66.91,5.53,1.24,3.74.69,7.52,1.24,11.33,1.62s7.63.67,11.47.88a85.17,85.17,0,0,0,11.52-.13,98.09,98.09,0,0,0,11.36-1.83,57.63,57.63,0,0,0,10.9-3,9.61,9.61,0,0,0,2.3-1.35,3.39,3.39,0,0,0,.77-.9,1.53,1.53,0,0,0,.14-1,4,4,0,0,0-1.56-2,17.87,17.87,0,0,0-2.42-1.5Z"/><path class="cls-1" d="M76.27,91.26a1.11,1.11,0,0,1-.45.8,3.38,3.38,0,0,1-.75.5,12.34,12.34,0,0,1-1.65.66c-1.12.38-2.27.65-3.42.92-2.31.52-4.65.89-7,1.21a92.89,92.89,0,0,1-14.14.76c-4.73-.12-9.44-.5-14.13-1-2.34-.25-4.69-.51-7-.91-1.16-.22-2.32-.46-3.48-.78a11.34,11.34,0,0,1-1.71-.62,3.93,3.93,0,0,1-.83-.52,1.39,1.39,0,0,1-.58-1,1.47,1.47,0,0,1,.55-1.07,4.26,4.26,0,0,1,.82-.56,11,11,0,0,1,1.7-.72A28.16,28.16,0,0,1,27.66,88c2.33-.48,4.68-.8,7-1a136.91,136.91,0,0,1,14.17-.7A107.94,107.94,0,0,1,63,87.15c2.34.33,4.68.7,7,1.22,1.15.28,2.3.54,3.43.92a12.83,12.83,0,0,1,1.64.67,3.17,3.17,0,0,1,.75.5A1.06,1.06,0,0,1,76.27,91.26Zm-.15,0a1,1,0,0,0-.4-.68,3.91,3.91,0,0,0-.73-.46,11.41,11.41,0,0,0-1.63-.62,28.78,28.78,0,0,0-3.44-.72c-2.32-.34-4.66-.52-7-.64-4.69-.21-9.37-.33-14.05-.3s-9.38.13-14,.51c-2.33.2-4.66.43-6.95.81-1.15.2-2.28.43-3.39.73a10.19,10.19,0,0,0-1.58.56c-.47.21-1,.59-1,.81s.46.66.93.9a10.56,10.56,0,0,0,1.57.66,25.37,25.37,0,0,0,3.38.87,65.21,65.21,0,0,0,7,1,140.69,140.69,0,0,0,14.08.22c4.69-.1,9.37-.23,14.05-.45,2.34-.13,4.68-.32,7-.66A26.59,26.59,0,0,0,73.36,93,11.41,11.41,0,0,0,75,92.41a3.65,3.65,0,0,0,.73-.47A1,1,0,0,0,76.12,91.26Z"/><path class="cls-1" d="M75.88,91.86a13.67,13.67,0,0,1,2.31.71,4.38,4.38,0,0,1,2.08,1.51,1.6,1.6,0,0,1,.09,1.52,3.11,3.11,0,0,1-.88,1.09,8.82,8.82,0,0,1-2.2,1.25,27.15,27.15,0,0,1-4.66,1.42,42.62,42.62,0,0,1-4.76.81c-3.19.34-6.39.41-9.58.55l-9.56.44c-3.2.14-6.4.16-9.6,0a90.68,90.68,0,0,1-9.57-.85,40.32,40.32,0,0,1-9.39-2.43A8,8,0,0,1,18,96.59a2.62,2.62,0,0,1-.83-1.15A1.62,1.62,0,0,1,17.39,94a4.74,4.74,0,0,1,2.11-1.42,14,14,0,0,1,2.31-.71l.05.14a19.17,19.17,0,0,0-2.15,1A4.8,4.8,0,0,0,18,94.36c-.35.55,0,1,.57,1.47a8.66,8.66,0,0,0,2,1A29.25,29.25,0,0,0,25.11,98c1.55.29,3.1.56,4.66.76,6.26.89,12.6,1.3,19,1.6a79.75,79.75,0,0,0,9.53-.11c3.17-.24,6.32-.75,9.44-1.3a60.28,60.28,0,0,0,9.16-2.07,9.74,9.74,0,0,0,2-1c.59-.41,1-.91.7-1.44A4.28,4.28,0,0,0,78,93a22,22,0,0,0-2.13-1Z"/><path class="cls-1" d="M12,103.69l.33-.34c.05-.06,0-.15-.1-.09l-.33.32c-.08.07,0,.18.1.11Z"/><path class="cls-1" d="M12.37,103.36l.34-.32a.08.08,0,0,0-.11-.11c-.1.12-.21.23-.32.34s0,.15.09.09Z"/><path class="cls-1" d="M12.42,103.41c-.78.75-.31,5.82-.34,7a84.09,84.09,0,0,0,.35,8.54l.89-.37-.37-.36c-.36-.36-.83.09-.65.51l.2.48c.21.47,1,.23,1-.26-.45-5.29-.38-10.59-.73-15.87,0-.11-.16-.19-.24-.1l-.26.3a.13.13,0,0,0,.18.18Z"/><path class="cls-1" d="M14.15,105.62c-.12,2.38-.33,4.78-.31,7.16s-.55,4.8-.28,7.17c0,.38.67.56.75.1.36-2.22,0-4.49,0-6.72.08-2.57.06-5.14.05-7.71,0-.16-.25-.16-.26,0Z"/><path class="cls-1" d="M15.41,106.28c-.06,4.76-.44,9.54-.41,14.28l.9-.51-.43-.24c-.21-.11-.57,0-.53.3l.06.45c.1.74,1.19.8,1.2,0,.05-4.74-.31-9.52-.35-14.28a.22.22,0,0,0-.44,0Z"/><path class="cls-1" d="M17.18,108.42c0,2.09-.06,4.17-.11,6.26s-.49,4.23-.22,6.25c0,.39.69.58.76.11a37.32,37.32,0,0,0-.18-5.88c-.05-2.25-.09-4.49-.09-6.74a.08.08,0,1,0-.16,0Z"/><path class="cls-1" d="M18.53,108.43A85.8,85.8,0,0,1,18,122.76c-.07.76,1.13.77,1.19,0a90.28,90.28,0,0,0-.39-14.33c0-.18-.3-.18-.28,0Z"/><path class="cls-1" d="M20.8,109.74c0,4.35-.39,8.67-.45,13a.64.64,0,0,0,1.27,0c-.05-4.34-.39-8.66-.4-13a.21.21,0,0,0-.42,0Z"/><path class="cls-1" d="M22.33,114.51c-.13,3.06-.33,6.17-.18,9.22a.39.39,0,0,0,.78,0c.21-3,.07-6.16,0-9.22a.3.3,0,0,0-.6,0Z"/><path class="cls-1" d="M24.52,119.29c-.05.62-.13,1.23-.16,1.86a4.92,4.92,0,0,0,.05,1.67.28.28,0,0,0,.54,0,4.92,4.92,0,0,0,0-1.67c0-.63-.11-1.24-.15-1.86a.16.16,0,0,0-.32,0Z"/><path class="cls-1" d="M26.25,121.76c0,.82,0,1.65.06,2.47a.18.18,0,0,0,.35,0,22.63,22.63,0,0,0,.06-2.47.24.24,0,0,0-.47,0Z"/><path class="cls-1" d="M82.66,105.29c-.07,1.27-.44,15.48-.79,15.47a.34.34,0,0,0-.09.67l.58.22a.45.45,0,0,0,.56-.43c0-5.31,0-10.63-.12-15.93a.07.07,0,0,0-.14,0Z"/><path class="cls-1" d="M79.78,112.92A20.4,20.4,0,0,1,80,118a31.93,31.93,0,0,0-.49,4.43.26.26,0,0,0,.48.13c1.72-2.71.77-6.84.09-9.75,0-.16-.28-.09-.25.07Z"/><path class="cls-1" d="M78.65,115.8c-.19,1.19-.39,2.37-.49,3.58a10,10,0,0,0,0,3.61c.06.2.39.29.48.06a8.61,8.61,0,0,0,.39-3.13c0-1.37,0-2.71-.09-4.08,0-.15-.25-.21-.28,0Z"/><path class="cls-1" d="M75.41,119.45c0,.71-.09,1.42-.14,2.13a5.21,5.21,0,0,0,.08,1.89.26.26,0,0,0,.49,0,5,5,0,0,0,.22-1.89c0-.71,0-1.42,0-2.13a.34.34,0,0,0-.67,0Z"/><path class="cls-1" d="M73.81,120.77a18.71,18.71,0,0,0,.1,3.51c0,.23.37.15.39,0a19,19,0,0,0-.22-3.46c0-.17-.27-.18-.27,0Z"/><path class="cls-1" d="M83.85,103.38a13.42,13.42,0,0,1-8.95,4.46c-.14,0-.15.23,0,.23A12.31,12.31,0,0,0,84,103.56c.1-.12-.07-.3-.18-.18Z"/><path class="cls-1" d="M71.27,123.87a8.35,8.35,0,0,0,5.76-2c.2-.18,0-.48-.28-.36a13.14,13.14,0,0,1-5.48,1.73.3.3,0,0,0,0,.59Z"/><path class="cls-1" d="M79.13,109.63c1.44-.5,3.24-.8,4.49-1.7.15-.11.12-.4-.11-.39-1.53.12-3.1,1-4.52,1.58-.31.12-.18.62.14.51Z"/><path class="cls-1" d="M58.75,123.46a85.38,85.38,0,0,0,24.65-7c.3-.13.09-.66-.23-.54a138.8,138.8,0,0,1-24.46,7.24c-.16,0-.12.3,0,.28Z"/><path class="cls-1" d="M68.66,119.67a30.23,30.23,0,0,0,3-.55c.26-.07.15-.43-.11-.39-1,.15-2,.54-2.93.78a.08.08,0,0,0,0,.16Z"/><path class="cls-1" d="M53.49,126.29a68.92,68.92,0,0,0,26.36-6.17c.42-.2.12-.92-.31-.75-8.53,3.34-16.88,5.8-26.05,6.57-.23,0-.23.36,0,.35Z"/><path class="cls-1" d="M72,118.26c4-1.65,8-3.23,12-5,.37-.16.1-.81-.27-.65-4,1.67-7.92,3.48-11.88,5.24-.2.09-.05.45.16.37Z"/><path class="cls-1" d="M75.88,113.71a15,15,0,0,0,7.62-2.64c.36-.26,0-.84-.36-.61a24.94,24.94,0,0,1-7.31,2.83.21.21,0,0,0,0,.42Z"/><path class="cls-1" d="M83.56,109.24v.66a.07.07,0,0,0,.13,0v-.66a.07.07,0,0,0-.13,0Z"/><path class="cls-1" d="M13.66,99.77a4.94,4.94,0,0,0,3.39-.11c.81-.34,2.3-1.17,2.28-2.18a.18.18,0,0,0-.27-.15c-.35.17-.45.39-.69.7a4,4,0,0,1-1.29,1.08,5.08,5.08,0,0,1-3.39.56c-.06,0-.09.08,0,.1Z"/><path class="cls-1" d="M14.47,98.71A3.41,3.41,0,0,0,16.75,98c.48-.39,1.17-1.31.65-1.89a.17.17,0,0,0-.21,0c-.46.29-.52.94-.82,1.39a2.24,2.24,0,0,1-1.9,1.11.06.06,0,0,0,0,.11Z"/><path class="cls-1" d="M16.44,101.23a4.88,4.88,0,0,0,2.81-1.07c.49-.39,1.68-1.35,1.23-2.06a.23.23,0,0,0-.24-.1c-.36.1-.4.3-.55.63a3.94,3.94,0,0,1-3.27,2.47c-.07,0-.05.14,0,.13Z"/><path class="cls-1" d="M18.21,102.32a8.91,8.91,0,0,0,2.19-1.13,11,11,0,0,0,1.81-1.73.39.39,0,0,0,.06-.47l-.05-.1a.18.18,0,0,0-.16-.09h-.13a.41.41,0,0,0-.34.2,7.41,7.41,0,0,1-3.42,3.22c-.07,0,0,.13,0,.11Z"/><path class="cls-1" d="M21.2,102.42a4.21,4.21,0,0,0,2.15-1.14c.43-.45,1.13-1.31.82-2a.19.19,0,0,0-.26-.07c-.46.35-.55,1.1-.88,1.57a3.9,3.9,0,0,1-1.86,1.47.07.07,0,0,0,0,.13Z"/><path class="cls-1" d="M79.86,95.57a4.43,4.43,0,0,0-.17,2.25,3.32,3.32,0,0,0,1.37,1.81c.51.36,1-.49.49-.83A3.28,3.28,0,0,1,80,95.61a.07.07,0,0,0-.14,0Z"/><path class="cls-1" d="M78,97.11c0,1.45,0,3.28,1.51,4.09.35.19.8-.21.57-.56-.35-.52-.81-.93-1.15-1.47a4.3,4.3,0,0,1-.81-2.06.06.06,0,0,0-.12,0Z"/><path class="cls-1" d="M79.18,96.5a2.84,2.84,0,0,0,.67,3.52.33.33,0,0,0,.48-.37c-.12-.5-.52-.92-.69-1.42a8.86,8.86,0,0,1-.33-1.69c0-.06-.09-.1-.13,0Z"/><path class="cls-1" d="M77.24,97.89a3.6,3.6,0,0,0,.38,2c.24.51.63,1.32,1.22,1.47a.3.3,0,0,0,.36-.36c-.08-.54-.65-1-.92-1.5s-.56-1.1-.86-1.64a.1.1,0,0,0-.18,0Z"/><path class="cls-1" d="M75.94,98.36a2.37,2.37,0,0,0,.89,3.07c.42.28.8-.38.39-.67a2.46,2.46,0,0,1-1-2.31c0-.18-.24-.24-.32-.09Z"/><path class="cls-1" d="M74.43,99a2.35,2.35,0,0,0-.12,1.67c.16.51.56,1.16,1.12,1.24.25,0,.53-.2.36-.46s-.57-.56-.76-.93a1.93,1.93,0,0,1-.19-1.35c0-.23-.3-.41-.41-.17Z"/><path class="cls-1" d="M73.2,100.17a.09.09,0,0,0,0-.18.09.09,0,0,0,0,.18Z"/><path class="cls-1" d="M83,99a2.65,2.65,0,0,1-1.35,2,.19.19,0,0,0,.15.34A2.07,2.07,0,0,0,83.35,99,.18.18,0,0,0,83,99Z"/><path class="cls-1" d="M14.89,97.75c-1.54.27-1,2-.18,2.75a9.18,9.18,0,0,0,5.47,2.25c.19,0,.21-.26,0-.32-1-.32-7.53-2.64-5.21-4.47.11-.09,0-.23-.12-.21Z"/><path class="cls-1" d="M25.9,100.39a5,5,0,0,1-.37-.85.1.1,0,0,0-.2,0,5.37,5.37,0,0,1-.94,2.88c-.07.08.06.16.13.1a2.73,2.73,0,0,0,1-1.34,2.65,2.65,0,0,0,0-1.67l-.17.11a5.67,5.67,0,0,1,.45.8c0,.06.12,0,.09-.06Z"/><path class="cls-1" d="M26.83,100.26a10.62,10.62,0,0,0-.5,1.14c-.15.27-.41.49-.44.81a.14.14,0,0,0,.14.14c.42.06.75-.43.92-.76a1.23,1.23,0,0,0,0-1.33.08.08,0,0,0-.15,0Z"/><path class="cls-1" d="M28.49,100.24c-.15.33-.18.7-.31,1.05a6.15,6.15,0,0,0-.51,1.11c0,.1.06.22.18.18a2.11,2.11,0,0,0,.86-2.32c0-.08-.17-.13-.22,0Z"/><path class="cls-1" d="M30.19,100.89a6.09,6.09,0,0,0-.47,1.08c-.1.29-.24.55-.07.82a.07.07,0,0,0,.1,0c.29-.1.35-.35.45-.63a6.45,6.45,0,0,0,.32-1.22c0-.18-.24-.22-.33-.09Z"/><path class="cls-1" d="M31.45,101.25c-.1.3-.14.61-.24.91a10.45,10.45,0,0,1-.44,1l.37.1a4.38,4.38,0,0,1,0-.51.11.11,0,0,0-.21,0,3.94,3.94,0,0,1-.14.49.2.2,0,0,0,.33.19,2.51,2.51,0,0,0,.61-2.11.13.13,0,0,0-.24,0Z"/><path class="cls-1" d="M32.85,101.82a2.48,2.48,0,0,1-.38,1.34.21.21,0,0,0,.19.32l.2,0a.11.11,0,0,0,.1-.18l-.12-.17,0,.26a1.71,1.71,0,0,0,.27-1.63.12.12,0,0,0-.23,0Z"/><path class="cls-1" d="M34.55,102.39a.85.85,0,0,0-.37.88.18.18,0,0,0,.3.12.87.87,0,0,0,.29-.91.15.15,0,0,0-.22-.09Z"/><path class="cls-1" d="M42.13,104.91a26.51,26.51,0,0,0,5.63,0c.12,0,.11-.2,0-.23a26.45,26.45,0,0,0-5.63-.15.17.17,0,0,0,0,.33Z"/><path class="cls-1" d="M53.55,104.44a21.1,21.1,0,0,0,3.18,0,.08.08,0,0,0,0-.16,22.5,22.5,0,0,0-3.18,0,.09.09,0,0,0,0,.17Z"/><path class="cls-1" d="M57.28,104.43l2.52-.12c.08,0,.08-.13,0-.12l-2.52.13c-.07,0-.07.12,0,.11Z"/><path class="cls-1" d="M19.91,93.91l1.89-1.39c.06,0,0-.16-.07-.11l-1.88,1.41c-.05,0,0,.13.06.09Z"/><path class="cls-1" d="M19.94,94.91c.74-.65,1.53-1.26,2.22-2,.12-.12-.05-.29-.18-.19-.75.63-1.43,1.37-2.14,2a.07.07,0,1,0,.1.11Z"/><path class="cls-1" d="M20.52,95.3a3.5,3.5,0,0,0,2.72-2.22c0-.1-.1-.18-.17-.1-.39.4-.67.88-1.09,1.25a5.69,5.69,0,0,1-1.51,1c-.06,0,0,.13.05.11Z"/><path class="cls-1" d="M30.47,95.76c3.85.9,8.63,2,12.5.87a.24.24,0,0,0-.07-.47c-1.9-.21-3.86.12-5.78.09a38.57,38.57,0,0,1-6.6-.67c-.11,0-.17.16-.05.18Z"/><path class="cls-1" d="M76.16,92.6c1,1.05-3.45,1.9-3.72,2-1.24.31-2.48.61-3.73.87-.42.09-.31.72.1.73,2.36,0,5.7-.1,7.7-1.55.86-.63,1-2.06-.29-2.17-.08,0-.11.1-.06.15Z"/><path class="cls-1" d="M74.91,93.53c-.33-.4-.66-.8-1-1.18-.06-.07-.18,0-.13.1.32.43.66.83,1,1.24.09.11.24,0,.15-.16Z"/><path class="cls-1" d="M75.42,94.46a10.31,10.31,0,0,0-2.09-1.81c-.15-.09-.29.11-.18.24a10.76,10.76,0,0,0,2.15,1.72c.09.06.2-.08.12-.15Z"/><path class="cls-1" d="M73.53,94.26a12.63,12.63,0,0,0-2-1.77c-.19-.12-.36.14-.23.3a12.78,12.78,0,0,0,2,1.71c.16.13.4-.09.24-.24Z"/><path class="cls-1" d="M72.17,95.23a23.23,23.23,0,0,0-2.41-1.64c-.12-.06-.25.09-.15.18a25,25,0,0,0,2.45,1.65c.12.08.23-.11.11-.19Z"/><path class="cls-1" d="M70.35,95.36a7.77,7.77,0,0,0-1.82-1.42c-.12,0-.31.07-.21.21a7.88,7.88,0,0,0,1.78,1.52c.19.14.42-.16.25-.31Z"/><path class="cls-1" d="M69,96.28a7.71,7.71,0,0,0-2.46-1.2c-.16,0-.31.16-.17.29a7.43,7.43,0,0,0,2.44,1.25c.22.1.42-.21.19-.34Z"/><path class="cls-1" d="M67.48,97.23a14.85,14.85,0,0,0-2.35-1.76.13.13,0,0,0-.16.21,14.56,14.56,0,0,0,2.33,1.79c.13.1.31-.13.18-.24Z"/><path class="cls-1" d="M74.84,92.73a.23.23,0,0,0,0-.45.23.23,0,0,0,0,.45Z"/><path class="cls-1" d="M67.76,94.1c1.84-.37,4.37-.9,5.59-2.49.1-.12-.06-.3-.19-.26a21.57,21.57,0,0,0-2.38,1.25,14.82,14.82,0,0,1-3.12,1.15c-.23,0-.14.4.1.35Z"/><path class="cls-1" d="M24.75,91.32c1.61-.74,3.3-1.4,4.84-2.28.1-.05,0-.22-.07-.18-1.67.63-3.27,1.51-4.87,2.29-.12,0,0,.22.1.17Z"/><path class="cls-1" d="M25.83,91.78a27.06,27.06,0,0,0,2.73-1.27A12.59,12.59,0,0,0,31.14,89a.12.12,0,0,0-.12-.21A12,12,0,0,0,28.48,90a28.76,28.76,0,0,0-2.72,1.63c-.08,0,0,.21.07.17Z"/><path class="cls-1" d="M27.48,91.35l-.43.39a.09.09,0,0,0,.09.15,23.91,23.91,0,0,0,3.52-1.54,23.28,23.28,0,0,0,3.86-2.11c.08,0,0-.2-.07-.17a20.55,20.55,0,0,0-3.53,1.55,13.71,13.71,0,0,0-3.34,1.84.07.07,0,0,0-.1-.11Z"/><path class="cls-1" d="M30.47,91.47l-.28.16c-.07,0,0,.18.07.15A30.55,30.55,0,0,0,37,88.26c.1-.07,0-.27-.1-.22a32.5,32.5,0,0,0-3.19,1.57c-.59.31-1.18.62-1.77,1l-.87.5a.51.51,0,0,0-.48.5c.05,0,0-.13-.07-.09Z"/><path class="cls-1" d="M25.14,90.14C23.6,94,38.74,94,40.87,93.59c.27,0,.17-.42-.06-.44-2-.23-16,.09-15.55-3a.06.06,0,0,0-.12,0Z"/><path class="cls-1" d="M59.8,93.61a7.25,7.25,0,0,0,1.92,0,.18.18,0,0,0,0-.35,6.85,6.85,0,0,0-1.92-.06.23.23,0,0,0,0,.46Z"/><path class="cls-1" d="M66.57,92.64a13.64,13.64,0,0,0,3-1c.16-.09,0-.3-.12-.28a13.64,13.64,0,0,0-3,1c-.19.07-.12.38.09.32Z"/><path class="cls-1" d="M72.59,90a9,9,0,0,1-4.51,1.64c-.22,0-.22.41,0,.45a5.56,5.56,0,0,0,4.77-1.76c.16-.16-.06-.48-.26-.33Z"/><path class="cls-1" d="M14.42,112.24a35.32,35.32,0,0,0,3.52,1.8c.13,0,.2-.15.09-.21a36,36,0,0,0-3.53-1.73c-.09,0-.17.09-.08.14Z"/><path class="cls-1" d="M21.44,115.41a21.56,21.56,0,0,0,5.32,1.75c.19,0,.24-.26.1-.34a21,21,0,0,0-5.32-1.76.18.18,0,0,0-.1.35Z"/><path class="cls-1" d="M61.23,117.7h2a.06.06,0,0,0,0-.11h-2a.06.06,0,0,0,0,.12Z"/><path class="cls-1" d="M12.58,103.85a43.51,43.51,0,0,0,4.69,2.45,19,19,0,0,0,4.35,1.77c.23.05.5-.27.26-.45a20.22,20.22,0,0,0-4.49-2.23,41.11,41.11,0,0,0-4.71-1.79.14.14,0,0,0-.1.25Z"/><path class="cls-1" d="M13,105.15a34.64,34.64,0,0,0,5.19,2.16,36.52,36.52,0,0,0,6.06,2c.31,0,.52-.36.22-.53a31.2,31.2,0,0,0-5.25-2,39.49,39.49,0,0,0-6.1-1.89c-.16,0-.28.19-.12.28Z"/><path class="cls-1" d="M12.52,103.54A2.47,2.47,0,0,0,14,104.67a.18.18,0,0,0,.2-.25,2.45,2.45,0,0,0-1.48-1.07.13.13,0,0,0-.15.19Z"/><path class="cls-1" d="M13.1,103.86l.44.44c.06.07.17,0,.1-.1l-.44-.44c-.06-.07-.17,0-.1.1Z"/><path class="cls-1" d="M12.72,103.72a1.2,1.2,0,0,1-1.09-.77l-.3.23c.56.52,1.14,1,1.68,1.55l.13-.16c-.08-.06-.79-.68-.85-.5a4.57,4.57,0,0,0,.58.42.09.09,0,0,0,.13-.08,2.11,2.11,0,0,0-.63-1.69.09.09,0,0,0-.15,0,7.41,7.41,0,0,0-.3,3.95c.05.19.28.16.35,0a7.45,7.45,0,0,0,.13-3.95l-.16.1c.12.11.9,1.18.6,1.33-.15.07-.54-.29-.67-.37s-.15.06-.08.11c.31.26.62.52.92.8.1.08.24,0,.15-.15-.54-.54-1-1.11-1.56-1.66-.16-.17-.38,0-.3.22a1.56,1.56,0,0,0,1.42.93c.22,0,.22-.34,0-.35Z"/><path class="cls-1" d="M12.21,106.49a12.87,12.87,0,0,0,.35-2.68.07.07,0,0,0-.14,0,13.42,13.42,0,0,0-.53,2.61c0,.21.29.3.32.09Z"/><path class="cls-1" d="M12.77,104.43q1.74,1.47,3.57,2.82c.09.07.21-.08.12-.15-1.12-1-2.29-2-3.48-2.88-.15-.12-.36.08-.21.21Z"/><path class="cls-1" d="M17.72,107.49c3.5.81,7,1.91,10.53,2.38.16,0,.18-.23,0-.27-3.43-1.06-7-1.51-10.54-2.23-.07,0-.11.1,0,.12Z"/><path class="cls-1" d="M12.64,107a13.14,13.14,0,0,0,2.51,1.48,7,7,0,0,0,2.38,1,.18.18,0,0,0,.13-.3,7.38,7.38,0,0,0-2.4-1.32,12.44,12.44,0,0,0-2.53-1.06c-.08,0-.16.09-.09.15Z"/><path class="cls-1" d="M12.37,104.07a2.69,2.69,0,0,1-.8-.58c-.18-.21-.45,0-.41.23.17,1.08.42,2.14.67,3.2a11.77,11.77,0,0,0,.78,2.74.22.22,0,0,0,.41-.11,11.85,11.85,0,0,0-.55-2.81c-.25-1-.5-2.11-.84-3.15l-.24.31a3.05,3.05,0,0,1,.89.32c.1,0,.19-.09.09-.15Z"/><path class="cls-1" d="M14.38,110.55c1,.5,2,1,3,1.5l0-.33a4,4,0,0,1-.58.12.11.11,0,0,0,0,.22,4.15,4.15,0,0,1,.61,0c.18,0,.24-.26.09-.34-1-.54-2-1-3-1.5-.21-.1-.39.21-.18.31Z"/><path class="cls-1" d="M14.47,110.79a.4.4,0,0,0,0-.79.4.4,0,0,0,0,.79Z"/><path class="cls-1" d="M26.27,123.31c1,.23,2,.51,3.07.67.25,0,.37-.32.11-.39-1-.27-2.05-.43-3.08-.65-.24,0-.34.32-.1.37Z"/><path class="cls-1" d="M30.11,94.84c-.19.22-.44.36-.65.56a6.19,6.19,0,0,0-.58.67,14,14,0,0,0-1,1.44.14.14,0,0,0,.21.16,12.93,12.93,0,0,0,1.22-1.34c.36-.44.55-1,.88-1.41,0-.06-.06-.14-.11-.08Z"/><path class="cls-1" d="M30.32,95.59a4.68,4.68,0,0,0-.69,1.57c0,.15.17.33.3.17a4.84,4.84,0,0,0,.7-1.61.17.17,0,0,0-.31-.13Z"/><path class="cls-1" d="M31.65,95.74a4.44,4.44,0,0,0-1.08,1.44.15.15,0,0,0,.22.17A4.33,4.33,0,0,0,32,96c.15-.21-.18-.46-.36-.28Z"/><path class="cls-1" d="M33.39,96a4,4,0,0,0-.88,1.64.18.18,0,0,0,.27.15,3.77,3.77,0,0,0,1-1.58.2.2,0,0,0-.35-.21Z"/><path class="cls-1" d="M35,96.48a10.78,10.78,0,0,0-.89,1.13c-.07.11.09.22.18.13a11.64,11.64,0,0,0,.88-1.09c.09-.12-.07-.28-.17-.17Z"/><path class="cls-1" d="M35.73,96.85l.64.46c.1.07.21-.1.1-.17l-.67-.42c-.08,0-.15.07-.07.13Z"/><path class="cls-1" d="M35.37,97.27a5.47,5.47,0,0,0,.51,1.33c.06.09.23.07.22-.06a5.14,5.14,0,0,0-.39-1.36c-.07-.22-.41-.13-.34.09Z"/><path class="cls-1" d="M39.06,97.35a.13.13,0,0,0,0-.25.13.13,0,1,0,0,.25Z"/><path class="cls-1" d="M55.3,98.65a44.92,44.92,0,0,0,21.43-4c.15-.07,0-.33-.11-.27A62.12,62.12,0,0,1,55.3,98.43a.11.11,0,0,0,0,.22Z"/><path class="cls-1" d="M72,100.13a8.94,8.94,0,0,0,.61,2.24.12.12,0,0,0,.23-.06,9.22,9.22,0,0,0-.69-2.22c0-.09-.18-.06-.15,0Z"/><path class="cls-1" d="M65,102.2a3.26,3.26,0,0,0,.93,1.15.15.15,0,0,0,.21-.17,3,3,0,0,0-.92-1.15.14.14,0,0,0-.22.17Z"/><path class="cls-1" d="M66.08,102.25a2.49,2.49,0,0,0,.79.66.19.19,0,0,0,.23-.23,2.49,2.49,0,0,0-.65-.8.26.26,0,0,0-.37.37Z"/><path class="cls-1" d="M67.19,100.24a2.16,2.16,0,0,0,.24,1.68c.25.42.73,1,1.27.94a.16.16,0,0,0,.13-.23c-.22-.36-.63-.57-.87-.94a2.8,2.8,0,0,1-.39-1.39c0-.22-.33-.28-.38-.06Z"/><path class="cls-1" d="M68.11,100.21a9,9,0,0,0,1.4,3.09.17.17,0,0,0,.3-.13,9,9,0,0,0-1.38-3.09.18.18,0,0,0-.32.13Z"/><path class="cls-1" d="M69.79,100.08a2.23,2.23,0,0,0,1.28,2.35c.14,0,.3-.13.2-.26-.21-.3-.49-.54-.69-.86a2.85,2.85,0,0,1-.38-1.23.21.21,0,0,0-.41,0Z"/><path class="cls-1" d="M71.42,99.55a2.06,2.06,0,0,0,.65,2.71.19.19,0,0,0,.26-.26,3.45,3.45,0,0,1-.53-2.29c0-.22-.28-.39-.38-.16Z"/><path class="cls-1" d="M68.55,103c2-.41,4.09-.78,6.11-1.27.17,0,.1-.29-.08-.27-2,.33-4.09.78-6.13,1.2-.22,0-.13.38.1.34Z"/><path class="cls-1" d="M74.63,101.64c-1.1.29-2.21.55-3.3.86-.08,0,0,.15,0,.13,1.1-.26,2.2-.56,3.3-.84.1,0,.06-.17,0-.15Z"/><path class="cls-1" d="M66.28,103.79a28.85,28.85,0,0,0,13.21-3.21c.12-.07,0-.29-.1-.24a36.43,36.43,0,0,1-13.11,3.2c-.16,0-.16.26,0,.25Z"/><path class="cls-1" d="M79.83,100a28.73,28.73,0,0,1-10.7,3.48c-.12,0-.13.2,0,.2A23.3,23.3,0,0,0,80,100.32a.2.2,0,0,0-.2-.34Z"/><path class="cls-1" d="M68.26,103.72A25.2,25.2,0,0,0,81.53,100a.17.17,0,0,0-.17-.29,28.74,28.74,0,0,1-13.1,3.68.15.15,0,0,0,0,.3Z"/><path class="cls-1" d="M81.62,99.61c-1.71.76-3.44,1.47-5.07,2.37-.18.1-.06.41.14.34,1.76-.68,3.42-1.57,5.11-2.39.22-.1,0-.42-.18-.32Z"/><path class="cls-1" d="M49.36,105c-1.16-.08-11.86-.88-11.86-.74,0,.56,11,.94,12.08,1,.18,0,.17-.25,0-.27-4.35-.51-8.71-.62-13.08-.88-.15,0-.15.22,0,.23,4.28.36,8.57.62,12.86.93.14,0,.14-.22,0-.23Z"/><path class="cls-1" d="M47.63,104.93c3.31-.25,6.62-.45,9.91-.9.11,0,.09-.21,0-.21-3.31.16-6.59.56-9.88.91-.12,0-.13.21,0,.2Z"/><path class="cls-1" d="M47.18,104.49c4.6.26,9.22.66,13.83.55.12,0,.11-.17,0-.18-4.59-.46-9.22-.41-13.83-.5a.07.07,0,0,0,0,.13Z"/><path class="cls-1" d="M48.72,105.34a112,112,0,0,0,13.83-.63.13.13,0,0,0,0-.25,114.16,114.16,0,0,0-13.83.67c-.13,0-.14.21,0,.21Z"/><path class="cls-1" d="M57.72,104.33c3.06-.1,6.17,0,9.22-.4.15,0,.16-.25,0-.25-3.07-.07-6.16.28-9.22.47-.12,0-.12.19,0,.18Z"/><path class="cls-1" d="M62.77,104l-2.26.22c-.07,0-1.33.09-1.35.14-.09.3.51,0,.67,0l4.71-.54c.08,0,.08-.13,0-.12l-5.83.67c-.08,0-.08.13,0,.12l4.06-.4c.07,0,.08-.13,0-.12Z"/><path class="cls-1" d="M64.3,103.24l1.76-.23c.09,0,.1-.16,0-.15l-1.76.21c-.1,0-.1.18,0,.17Z"/><path class="cls-1" d="M38.37,102.91a2.89,2.89,0,0,0-.51.88.13.13,0,0,0,.21.12,2.67,2.67,0,0,0,.45-.91c0-.1-.09-.19-.15-.09Z"/><path class="cls-1" d="M39.26,101.13a6.07,6.07,0,0,0-.63,2.28.12.12,0,0,0,.22.06,5.77,5.77,0,0,0,.7-2.22c0-.16-.2-.3-.29-.12Z"/><path class="cls-1" d="M39.84,101.58a7.5,7.5,0,0,0-.32,1.26,2,2,0,0,0,0,1,.17.17,0,0,0,.29.07,4.06,4.06,0,0,0,.42-2.32.18.18,0,0,0-.35,0Z"/><path class="cls-1" d="M40.57,102.27a7,7,0,0,0,.29,2.24.18.18,0,0,0,.35,0,6.87,6.87,0,0,0-.17-2.26c0-.27-.46-.2-.47.06Z"/><path class="cls-1" d="M42.34,102.05a7.64,7.64,0,0,0,0,2.48.22.22,0,0,0,.42,0,7.64,7.64,0,0,0,0-2.48.23.23,0,0,0-.46,0Z"/><path class="cls-1" d="M43.44,102.55a16.42,16.42,0,0,0,.47,2.19c.05.14.3.13.28,0a17,17,0,0,0-.41-2.24c-.05-.22-.38-.13-.34.09Z"/><path class="cls-1" d="M44.71,102.87a8.37,8.37,0,0,0,1.18,2,.14.14,0,0,0,.23-.14,8.08,8.08,0,0,0-1-2.06.23.23,0,0,0-.39.23Z"/><path class="cls-1" d="M46.07,102.94a2.08,2.08,0,0,0,2,1.86c.16,0,.17-.21,0-.26a2.87,2.87,0,0,1-1.64-1.65c-.07-.19-.42-.19-.39,0Z"/><path class="cls-1" d="M48.86,103.61c.07.22.15.44.23.66s.16,0,.13,0-.14-.44-.21-.66a.08.08,0,1,0-.15,0Z"/><path class="cls-1" d="M37,104a5.86,5.86,0,0,0,1.55-1.14c.06-.09,0-.25-.12-.21a5.75,5.75,0,0,0-1.61,1.12c-.13.11,0,.31.18.23Z"/><path class="cls-1" d="M37.52,103.37l.77-.71a.09.09,0,0,0,0-.15,13.62,13.62,0,0,0-3.63-1.06.11.11,0,0,0-.06.21,8.66,8.66,0,0,0,2.07.68c.34.09.72.11,1,.22s.29,0,.2.24-.39.36-.48.45,0,.19.12.12Z"/><path class="cls-1" d="M34.81,101.68c1.93.3,3.84.56,5.77.77a.1.1,0,0,0,0-.2c-1.89-.39-3.77-.71-5.68-1-.28,0-.4.39-.12.43Z"/><path class="cls-1" d="M41.26,102.38c1.53.07,3.07,0,4.61,0a17.28,17.28,0,0,0,4-.27.24.24,0,0,0,0-.46,16.79,16.79,0,0,0-4-.08c-1.54,0-3.08.06-4.61.21a.32.32,0,0,0,0,.63Z"/><path class="cls-1" d="M12.26,105.42c12.39,5.34,26.4,6.66,39.75,6.28a.08.08,0,0,0,0-.15c-13.7.06-26.43-3-39.5-6.71-.34-.09-.59.44-.25.58Z"/><path class="cls-1" d="M11.56,106.29c4.6,2.91,11,4.45,16.42,4.63.2,0,.26-.32.05-.36a69.93,69.93,0,0,1-8.34-1.67c-2.71-.83-5.25-2.13-7.92-3.09-.3-.11-.46.33-.21.49Z"/><path class="cls-1" d="M12.58,109.23a94.66,94.66,0,0,0,10.23,2.35.17.17,0,0,0,.09-.32,91.82,91.82,0,0,0-10.22-2.39.19.19,0,0,0-.1.36Z"/><path class="cls-1" d="M19,109.28c2.74.55,5.48,1.14,8.24,1.59.16,0,.24-.21.07-.25-2.72-.64-5.47-1.15-8.22-1.7-.23,0-.33.31-.09.36Z"/><path class="cls-1" d="M48.55,118.45A71.39,71.39,0,0,0,83.81,112c.58-.28.16-1.29-.44-1-5.19,2.15-10.59,4.46-16.07,5.75C61,118.2,54.92,118,48.55,118.13c-.21,0-.2.3,0,.32Z"/><path class="cls-1" d="M28.8,115.5a64.65,64.65,0,0,0-.17,8.23.19.19,0,0,0,.38,0,61.06,61.06,0,0,0,.16-8.23.19.19,0,0,0-.37,0Z"/><path class="cls-1" d="M30.94,115.34c-.09,3.66-.31,7.36-.15,11a.2.2,0,0,0,.39,0c.26-3.66.14-7.37.14-11,0-.25-.37-.25-.38,0Z"/><path class="cls-1" d="M32.68,116.82c0,3.38-.22,6.83,0,10.21a.19.19,0,0,0,.38,0c.26-3.38.07-6.83,0-10.21a.23.23,0,0,0-.46,0Z"/><path class="cls-1" d="M34.57,119.62a56.85,56.85,0,0,0,.31,7.61c0,.18.27.11.29,0a59.76,59.76,0,0,0,0-7.57.29.29,0,0,0-.58,0Z"/><path class="cls-1" d="M36.9,122.58a39.42,39.42,0,0,0,.33,4.35c.05.27.46.2.47-.06,0-1.42-.21-2.87-.33-4.29,0-.29-.49-.3-.47,0Z"/><path class="cls-1" d="M39,124.89a14.25,14.25,0,0,0,.24,1.84.13.13,0,0,0,.26,0,12.13,12.13,0,0,0-.09-1.81c0-.26-.43-.26-.41,0Z"/><path class="cls-1" d="M26.88,118A21,21,0,0,0,38,120.2a.17.17,0,0,0,0-.34,33.15,33.15,0,0,1-11-2.15c-.16-.06-.28.21-.12.28Z"/><path class="cls-1" d="M28.72,120.9a60.31,60.31,0,0,0,7.13,1.41.12.12,0,0,0,0-.24,57.12,57.12,0,0,0-7.1-1.4c-.15,0-.22.2-.07.23Z"/><path class="cls-1" d="M26.09,122.33c3.83.81,7.84,1.92,11.76,2.1.24,0,.27-.34.06-.41-3.7-1.26-7.81-1.69-11.65-2.32-.41-.07-.59.54-.17.63Z"/><path class="cls-1" d="M26.73,124.3c3.56.62,7.31,1.53,10.93,1.57a.18.18,0,0,0,.05-.36c-3.48-1-7.33-1.21-10.92-1.64-.24,0-.3.39-.06.43Z"/><path class="cls-1" d="M24.51,111c3.67.06,7.62.52,11.25,0a.21.21,0,0,0,0-.4c-3.61-.63-7.58-.26-11.25-.3a.36.36,0,0,0,0,.71Z"/><path class="cls-1" d="M26.88,110c2.87.55,5.76,1.2,8.66,1.55.33,0,.39-.48.08-.56-2.8-.75-5.69-1.2-8.53-1.75-.5-.09-.71.66-.21.76Z"/><path class="cls-1" d="M23.82,123.36a1.16,1.16,0,0,0,.24.34c.14.16.37,0,.33-.19a1.14,1.14,0,0,0-.15-.4c-.14-.28-.56,0-.42.25Z"/><path class="cls-1" d="M24.57,115.43a10.4,10.4,0,0,0-.23,2.79,8.46,8.46,0,0,0,.19,2.75.14.14,0,0,0,.27,0,8.77,8.77,0,0,0,.35-2.75,10,10,0,0,0-.07-2.79.27.27,0,0,0-.51,0Z"/><path class="cls-1" d="M24.31,121.21a31.54,31.54,0,0,0-.29,3.51.5.5,0,0,0,1,0,31.55,31.55,0,0,0-.3-3.51.21.21,0,0,0-.4,0Z"/><path class="cls-1" d="M25.5,119.12c.08,2,.05,4.07.22,6.09,0,.58.93.6.91,0-.08-2-.35-4.06-.52-6.09,0-.38-.62-.39-.61,0Z"/><path class="cls-1" d="M22.2,113.64c-.05.4-.13.8-.15,1.2,0,.15.23.18.27,0,.08-.37.12-.76.18-1.14,0-.2-.27-.28-.3-.09Z"/><path class="cls-1" d="M47.23,124.44c-5.06.36-9.81-.87-14.75-1.59a.22.22,0,0,0-.12.43c4.63,1.93,10,1.69,14.87,1.29.08,0,.08-.13,0-.13Z"/><path class="cls-1" d="M43.82,120.11a46.57,46.57,0,0,0,.77,7.29.16.16,0,0,0,.32,0,46.82,46.82,0,0,0-.84-7.25c0-.15-.26-.16-.25,0Z"/><path class="cls-1" d="M51,122.74c.16,1.33.23,2.7.49,4,0,.25.46.19.45-.06-.08-1.34-.34-2.69-.52-4,0-.24-.45-.19-.42,0Z"/><path class="cls-1" d="M52.69,124.23l.18,1.52a1.68,1.68,0,0,0,.28,1.06.15.15,0,0,0,.22,0c.21-.34.07-.75,0-1.12l-.18-1.43c0-.32-.56-.33-.53,0Z"/><path class="cls-1" d="M55.93,125.6a7.56,7.56,0,0,0,.39,1.83c.07.15.28.06.29-.07a7.92,7.92,0,0,0-.29-1.87c0-.26-.44-.15-.39.11Z"/><path class="cls-1" d="M41,120.27a33.86,33.86,0,0,0,.77,5.3.15.15,0,0,0,.29,0,34.17,34.17,0,0,0-.63-5.32c0-.24-.46-.19-.43.06Z"/><path class="cls-1" d="M39.06,117.31a92.54,92.54,0,0,0,.82,9.42c0,.17.29.13.29,0,0-3.11-.57-6.28-.86-9.38,0-.16-.26-.16-.25,0Z"/><path class="cls-1" d="M37.35,117.31c0,1.59,0,3.19,0,4.78a.13.13,0,0,0,.26,0c.08-1.59,0-3.19,0-4.78a.17.17,0,0,0-.34,0Z"/><path class="cls-1" d="M28.89,124a101.72,101.72,0,0,0,27.91,1.66c.14,0,.15-.24,0-.24A166.19,166.19,0,0,1,29,123.75c-.18,0-.26.24-.08.27Z"/><path class="cls-1" d="M27.87,124.42a65.19,65.19,0,0,0,25.9,2.19c.49-.07.36-.86-.11-.85A117.93,117.93,0,0,1,28,123.88a.28.28,0,0,0-.15.54Z"/><path class="cls-1" d="M25.71,124.57c4.5.71,9.21,1.89,13.77,2a.25.25,0,0,0,.07-.49c-4.36-1.25-9.17-1.5-13.66-2.14-.42-.06-.61.58-.18.65Z"/><path class="cls-1" d="M27.2,125.67c5.48.86,11.16,2.24,16.7,2.4a.25.25,0,0,0,.06-.49c-5.31-1.47-11.12-1.79-16.58-2.57-.43-.06-.62.59-.18.66Z"/><path class="cls-1" d="M14.68,119.39c5.56,1.44,11.15,3.28,16.82,4.18a.34.34,0,0,0,.18-.66c-5.43-1.87-11.23-2.86-16.82-4.19a.35.35,0,0,0-.18.67Z"/><path class="cls-1" d="M13.84,120.64c4.44,1,8.87,2.13,13.38,2.78a.21.21,0,0,0,.11-.4c-4.36-1.3-8.85-2.14-13.29-3.1-.47-.11-.68.61-.2.72Z"/><path class="cls-1" d="M11.85,115.91a18.39,18.39,0,0,0,8,2.36.3.3,0,0,0,.08-.59,38.21,38.21,0,0,1-7.84-2.26c-.33-.15-.62.32-.29.49Z"/><path class="cls-1" d="M12.05,112.77a36.84,36.84,0,0,0,6.45,2c.21,0,.38-.26.16-.38a36.43,36.43,0,0,0-6.44-2.26c-.4-.13-.55.48-.17.61Z"/><path class="cls-1" d="M11.54,110.69a51,51,0,0,0,7.76,2.37c.31,0,.55-.38.23-.53A51.48,51.48,0,0,0,11.74,110a.38.38,0,0,0-.2.73Z"/><path class="cls-1" d="M11.55,108.86c2.68.77,5.36,1.66,8.1,2.19a.26.26,0,0,0,.14-.5c-2.62-1-5.36-1.64-8-2.4a.37.37,0,0,0-.19.71Z"/><path class="cls-1" d="M14,112.91c3,1.11,6,2.27,9.09,3.17.25.08.43-.32.18-.43-3-1.29-6-2.34-9.07-3.44-.44-.15-.63.54-.2.7Z"/><path class="cls-1" d="M16.13,96.05c.25,2.3,2.25,3,4.25,3.56a33,33,0,0,0,11.18,1.61c.45,0,.6-.71.11-.83-4-1-12.3-.68-14.62-4.59-.23-.39-1-.26-.92.25Z"/><path class="cls-1" d="M15,98c.18,1.6,1.24,3.73,3,4,.32,0,.67-.35.36-.61a12.17,12.17,0,0,1-1.67-1.37,4.73,4.73,0,0,1-1-2.12c-.07-.38-.73-.3-.68.09Z"/><path class="cls-1" d="M34.71,101.87c5.21.64,10.9,1.48,16.14.94.32,0,.45-.54.08-.62-5.18-1.09-11-.86-16.22-.76a.22.22,0,0,0,0,.44Z"/><path class="cls-1" d="M79.81,96.12a1.76,1.76,0,0,0-.11,1.42,2.07,2.07,0,0,0,.93,1.18.38.38,0,0,0,.46-.6,2.48,2.48,0,0,1-.82-1.88c0-.23-.36-.35-.46-.12Z"/><path class="cls-1" d="M79.91,96.49a1.69,1.69,0,0,0,1.83,2.14l-.24-.57c-.79.4-1.37,1.22-2.14,1.7a11.7,11.7,0,0,1-2.72,1.17.25.25,0,0,0,.07.48,5.72,5.72,0,0,0,3.15-.8c.79-.46,1.9-1.25,2.1-2.2a.32.32,0,0,0-.22-.38,1.44,1.44,0,0,1-1.32-1.47c0-.29-.46-.36-.51-.07Z"/><path class="cls-1" d="M79.7,99.36a40.49,40.49,0,0,1-10,3.61c-.31.06-.23.56.08.55A15.44,15.44,0,0,0,80,99.79c.24-.22-.06-.56-.33-.43Z"/><path class="cls-1" d="M77.72,97.14a33.46,33.46,0,0,1-8.82,2.8c-.28,0-.21.51.07.5a18,18,0,0,0,9-2.8.29.29,0,0,0-.29-.5Z"/><path class="cls-1" d="M48.92,102.48c1.15-.18,2.31-.34,3.45-.53.13,0,.1-.25,0-.23-1.17.13-2.33.3-3.5.46-.19,0-.11.33.08.3Z"/><path class="cls-1" d="M20.92,92C19,96.77,37.71,95.93,40.06,95.57c.34,0,.26-.6-.08-.59a69.61,69.61,0,0,1-8.78-.35C29.91,94.5,21.93,94,21.51,92c-.07-.32-.49-.25-.59,0Z"/><path class="cls-1" d="M20.57,93.83a24,24,0,0,0,14.81,3.38c.25,0,.26-.4,0-.4a33.54,33.54,0,0,1-14.49-3.53.32.32,0,0,0-.32.55Z"/><path class="cls-1" d="M35.65,96.43a43.39,43.39,0,0,0,14.11.22c.22,0,.17-.4,0-.38a63.45,63.45,0,0,1-13.91-.4c-.37-.06-.53.5-.15.56Z"/><path class="cls-1" d="M74.76,92.29c-1,2.49-9.22,2.42-11.39,2.68-2.73.34-5.42.75-8.12,1.26-.36.06-.27.63.08.62a105.76,105.76,0,0,0,16.09-1.46c2-.38,3.59-.83,3.75-3,0-.26-.33-.26-.41-.06Z"/><path class="cls-1" d="M46.25,96.51c2.7-.27,5.38-.58,8.07-.91.15,0,.16-.25,0-.23-2.69.21-5.38.43-8.07.7-.28,0-.28.47,0,.44Z"/><path class="cls-1" d="M38.43,88.22c-4-.93-9.92-.54-13.6,1.42a.32.32,0,0,0,.16.59c2.22-.09,4.4-.74,6.61-1s4.51-.16,6.74-.41c.33,0,.46-.54.09-.62Z"/><path class="cls-1" d="M40.73,88.2c-4.66-1-10.42.19-14.81,1.82a.33.33,0,0,0,.17.64c2.73-.53,5.44-1.11,8.21-1.4,2.14-.23,4.31-.16,6.43-.51.27,0,.26-.49,0-.55Z"/><path class="cls-1" d="M41.8,89.37c-4.66-2.8-12.28-2.09-16.94.38-.54.29-.16,1.1.41,1A39.64,39.64,0,0,1,33.9,89.2c2.62,0,5.15.63,7.74.72a.3.3,0,0,0,.16-.55Z"/><path class="cls-1" d="M34.05,89.54c2.83-.06,5.66-.08,8.49,0,.69,0,.64-1,0-1a28.44,28.44,0,0,0-11.35.93c-.33.09-.29.66.08.62a111.56,111.56,0,0,1,11.27-.51v-1c-2.83.21-5.65.36-8.49.47-.39,0-.39.62,0,.61Z"/><path class="cls-1" d="M44.56,88.55c-5.66-1.78-14-1.41-19.66.38a.4.4,0,0,0,.11.79c3.24,0,6.46-.47,9.7-.53s6.52.47,9.73.23a.45.45,0,0,0,.12-.87Z"/><path class="cls-1" d="M33.05,89.77c4.71-.36,9.49,0,14.18-.4.29,0,.41-.48.07-.55-4.62-.88-9.62-.25-14.25.32-.39,0-.41.66,0,.63Z"/><path class="cls-1" d="M66,92a17.3,17.3,0,0,0,5.1-.61c.77-.19.43-1.28-.32-1.16a17.12,17.12,0,0,0-4.88,1.42c-.18.08-.07.34.1.35Z"/><path class="cls-1" d="M61.11,116.76c.07,3.82-.26,7.93.42,11.69,0,.27.41.18.44,0,.39-3.79-.25-7.84-.47-11.64a.2.2,0,0,0-.39,0Z"/><path class="cls-1" d="M62.94,110.81c.12,5,.58,10.12.91,15.17,0,.35.56.35.54,0-.35-5-.57-10.14-1.13-15.17,0-.19-.32-.2-.32,0Z"/><path class="cls-1" d="M65.8,113.91c.1,4.1.19,8.21.4,12.3a.23.23,0,0,0,.45,0c-.07-4.09-.26-8.2-.45-12.3a.2.2,0,0,0-.4,0Z"/><path class="cls-1" d="M68.86,117.86c.29,3,.25,6.17,1,9a.15.15,0,0,0,.3,0c.18-3-.52-6.07-.84-9,0-.31-.52-.31-.49,0Z"/><path class="cls-1" d="M72.21,119.84c0,1.17-.14,2.34-.11,3.51,0,.16.27.22.3,0,.18-1.17.23-2.37.32-3.55,0-.33-.5-.34-.51,0Z"/><path class="cls-1" d="M54.82,128.72a21.41,21.41,0,0,0,14.7-2.45c.23-.13,0-.45-.2-.34a26.13,26.13,0,0,1-14.44,2.34c-.25,0-.31.41-.06.45Z"/><path class="cls-1" d="M91.14,64.45c.32-.21.46-.29.58-.36s.16-.08.07,0l-.39.33c-.05.06,0,0,.21-.09l.35-.2c.07,0,.14-.06.12,0a4.61,4.61,0,0,1-.73.64l-.16.11a4.43,4.43,0,0,1-.84.49s0,0,.07-.1a2.38,2.38,0,0,1,.3-.27c.14-.12.22-.2.16-.17s-.33.2-.45.26-.05,0,0-.07a6.09,6.09,0,0,1,.53-.43Z"/><path class="cls-1" d="M79.42,48.22a9.42,9.42,0,0,1,1.85-1.15,3.78,3.78,0,0,1,1.08-.33,1.72,1.72,0,0,1,.63,0,.92.92,0,0,1,.33.19,1.79,1.79,0,0,1,.22.25,1.74,1.74,0,0,1,.09,1.23c0,.16,0,.22,0,.25a.72.72,0,0,0,.3.16,7.74,7.74,0,0,0,1,0,1.73,1.73,0,0,1,1.24.52,1.67,1.67,0,0,1,.37.63,1.49,1.49,0,0,1,0,.72c-.07.42-.19.75-.22,1a.65.65,0,0,0,.19.58c.16.16.21.15.68.2a1.76,1.76,0,0,1,.71.26,1.79,1.79,0,0,1,.54.52,2.56,2.56,0,0,1,.36,1.32,4.19,4.19,0,0,0,.18,1.8l0-.05c1.5,2,3,4,4.51,6l-.84-.29a4,4,0,0,1,1.9-.12,2.61,2.61,0,0,1,1.81,1.17,2.69,2.69,0,0,1,.19,2.16A5.19,5.19,0,0,1,95.73,67V66c3.57,4.57,7.16,9.14,10.64,13.78s6.9,9.33,10.34,14,6.92,9.32,10.5,13.89l5.36,6.85c.46.58.9,1.09,1.37,1.74a4.83,4.83,0,0,1,.79,2.24,4.91,4.91,0,0,1-1.85,4.29l-.64-.89.06,0,.63.89a4.94,4.94,0,0,1-4.72.53,5.16,5.16,0,0,1-2-1.46c-.27-.34-.46-.63-.67-.93l-.62-.89L120,112.79l-9.77-14.41q-4.9-7.18-9.68-14.47T91.05,69.32l1,.34a5.2,5.2,0,0,1-1.83.27,2.7,2.7,0,0,1-2-.88,2.66,2.66,0,0,1-.53-2.11,4.19,4.19,0,0,1,.73-1.76v.9C87,64,85.59,61.93,84.17,59.86l0,0c-.23-.32-.91-.48-1.65-.75a2.55,2.55,0,0,1-1.11-.77,1.83,1.83,0,0,1-.33-.67,1.59,1.59,0,0,1,0-.75c.1-.45.13-.51,0-.72a.69.69,0,0,0-.5-.38c-.27-.06-.62,0-1-.11a1.75,1.75,0,0,1-.67-.26,1.59,1.59,0,0,1-.47-.55,1.75,1.75,0,0,1-.1-1.32,7.79,7.79,0,0,0,.31-1,.63.63,0,0,0-.06-.34c0-.05-.07-.09-.23-.13a1.62,1.62,0,0,1-1.12-.47,1.53,1.53,0,0,1-.18-.29.92.92,0,0,1-.07-.36,1.45,1.45,0,0,1,.16-.61,3.63,3.63,0,0,1,.65-.92,9.27,9.27,0,0,1,1.68-1.39l.12.17-.07,0Zm0,0,.07,0,.12.17A9.09,9.09,0,0,0,78.1,49.8a3.7,3.7,0,0,0-.53.86,1.38,1.38,0,0,0-.09.42.33.33,0,0,0,0,.15.71.71,0,0,0,.11.17c.16.18.43.19.83.23a.9.9,0,0,1,.67.39,1.42,1.42,0,0,1,.18.69,6.79,6.79,0,0,1-.26,1.11.89.89,0,0,0,.09.74.63.63,0,0,0,.56.34c.29,0,.66,0,1.09.06a1.65,1.65,0,0,1,1.19.82,1.59,1.59,0,0,1,.2.76,3.23,3.23,0,0,1-.08.6.61.61,0,0,0,0,.31.81.81,0,0,0,.15.27,1.57,1.57,0,0,0,.66.38,4.62,4.62,0,0,1,2.2,1h0l0,0c1.5,2,3,4,4.52,6l.31.43-.3.46a2.6,2.6,0,0,0-.43,1.1,1,1,0,0,0,.2.82,1.07,1.07,0,0,0,.8.26A3.62,3.62,0,0,0,91.49,68l.62-.21.38.55q4.94,7.17,9.8,14.39t9.61,14.51l9.52,14.57,4.71,7.32.59.92c.19.3.39.63.56.86a3.69,3.69,0,0,0,1.43,1.13,3.77,3.77,0,0,0,3.58-.24l.64.89-.05,0-.63-.88a3.92,3.92,0,0,0,1.55-3.33,4,4,0,0,0-.57-1.85c-.36-.55-.85-1.16-1.26-1.73L126.7,108q-5.26-6.93-10.77-13.68c-3.64-4.52-7.31-9-10.92-13.56S97.91,71.61,94.39,67L94,66.48l.38-.51A3.62,3.62,0,0,0,95,64.88,1.08,1.08,0,0,0,95,64a1,1,0,0,0-.72-.46,2.81,2.81,0,0,0-1.18.06l-.53.14-.3-.43c-1.45-2-2.85-4.14-4.27-6.2l0,0h0a4.65,4.65,0,0,1-.26-2.4,1.5,1.5,0,0,0-.14-.74.78.78,0,0,0-.21-.23.48.48,0,0,0-.28-.11,4.78,4.78,0,0,1-.6-.12,1.6,1.6,0,0,1-.66-.44,1.69,1.69,0,0,1-.4-1.4c.07-.44.23-.77.29-1a.61.61,0,0,0-.13-.63.93.93,0,0,0-.67-.32,6.54,6.54,0,0,1-1.13-.11,1.33,1.33,0,0,1-.6-.39.93.93,0,0,1-.16-.77c.09-.4.17-.65,0-.86-.18-.48-1-.28-1.65-.08a9.14,9.14,0,0,0-1.87,1Z"/><path class="cls-1" d="M78.68,52.05c-1.14,1-2.32,1.94-3.49,2.89l-.21.17-.26-.18a37.2,37.2,0,0,1-5.26-4.53A40.25,40.25,0,0,1,65.07,45a49.16,49.16,0,0,1-3.42-6c-1-2.08-1.93-4.18-2.72-6.34l-.06-.17.15-.1c1.75-1.3,3.45-2.64,5.17-4s3.44-2.66,5.17-4l.71-.54.32.87a42.94,42.94,0,0,0,2.85,6.11,66.76,66.76,0,0,0,3.56,5.74,57.57,57.57,0,0,0,8.9,10.21l.26.23-.26.16c-.68.43-1.35.85-2,1.25l-.09-.12c.6-.52,1.22-1,1.83-1.52v.39a38.18,38.18,0,0,1-5.31-4.45,48.3,48.3,0,0,1-4.53-5.26,44,44,0,0,1-6.45-12.29l1,.32c-1.8,1.22-3.6,2.44-5.43,3.62s-3.64,2.38-5.42,3.62l.09-.27a31.22,31.22,0,0,0,2.86,6.18,58.43,58.43,0,0,0,3.85,5.6c1.38,1.8,2.77,3.58,4.29,5.25a54.13,54.13,0,0,0,4.81,4.77h-.47c1.28-.8,2.56-1.61,3.86-2.37Z"/><path class="cls-1" d="M68.29,54c.82.55,1.6,1.13,2.38,1.71l.57.44a4.12,4.12,0,0,0,.54.39,1.44,1.44,0,0,0,1,.11,1.37,1.37,0,0,0,.66-2.34l-1-1c-1.38-1.41-2.58-3-3.82-4.49l-3.76-4.52a37.71,37.71,0,0,1-3.4-4.82,39.13,39.13,0,0,1-2.69-5.28c-.21-.55-.27-.72-.52-.94A1.35,1.35,0,0,0,57.4,33a1.4,1.4,0,0,0-1.33,1.7c0,.21.13.46.2.68l.45,1.38,1,2.76-.13.07A29.3,29.3,0,0,1,56,37l-.66-1.32c-.11-.23-.21-.43-.32-.68a2.29,2.29,0,0,1-.17-.93,2.66,2.66,0,0,1,4.33-2,2.87,2.87,0,0,1,.66.77c.18.33.25.52.35.74.76,1.76,1.55,3.5,2.45,5.21s1.85,3.37,2.84,5A30.28,30.28,0,0,0,69,48.51a41.7,41.7,0,0,0,4.31,3.89c.37.32.72.58,1.12,1a2.51,2.51,0,0,1,.82,1.72,2.59,2.59,0,0,1-.57,1.81A2.62,2.62,0,0,1,73,57.8a2.39,2.39,0,0,1-1.78-.4,4,4,0,0,1-.59-.54l-.5-.54c-.68-.72-1.34-1.45-2-2.2Z"/><path class="cls-1" d="M87.85,43.72a2.1,2.1,0,0,1,.86,2.46,2.47,2.47,0,0,1-2.37,1.67,2.58,2.58,0,0,1-1.5-.53c-.34-.25-.67-.52-1-.78A20,20,0,0,1,82,44.81c-1.14-1.23-2.11-2.6-3.17-3.88L77.25,39c-.26-.31-.54-.63-.82-.93l-.81-1a30.15,30.15,0,0,1-3-4,33.76,33.76,0,0,1-2.41-4.42,24.79,24.79,0,0,1-.91-2.35l-.41-1.19a2.52,2.52,0,0,1,2.35-3.3,2.15,2.15,0,0,1,2.06,1.59l-.14,0a1.83,1.83,0,0,0-1.87-.88A1.58,1.58,0,0,0,70,23.86a1.32,1.32,0,0,0,.12.83l.5,1.12c.33.74.64,1.49,1,2.21s.68,1.48,1,2.2.71,1.47,1.12,2.17.78,1.43,1.2,2.13.8,1.44,1.24,2.13a23.72,23.72,0,0,0,2.93,4,39.36,39.36,0,0,0,3.66,3.3q.93.8,1.83,1.62l.92.79a1.31,1.31,0,0,0,.77.36A1.6,1.6,0,0,0,88,45.87a1.83,1.83,0,0,0-.22-2Z"/><path class="cls-1" d="M53.85,38.83a1.58,1.58,0,0,0-2-.71,3.5,3.5,0,0,0-1.82,1.22,2.57,2.57,0,0,0-.49.9,1.86,1.86,0,0,0-.06.45,1.67,1.67,0,0,0,.09.45c.24.84.43,1.64.69,2.39l.18.52-.44.27c-.19.11-.38.2-.56.31s-.29.13-.4.27a1,1,0,0,0-.32.76,1.85,1.85,0,0,0,.15.52l.21.62c.15.41.3.83.47,1.24a19.39,19.39,0,0,0,2.59,4.56,30,30,0,0,0,3.53,3.84c.64.59,1.29,1.14,2,1.66l.51.39.07,0h0l.12,0a.91.91,0,0,0,.65-.25l.51-.47.54.51c.83.79,1.7,1.54,2.57,2.29.44.37.89.72,1.34,1.08l.68.53.34.25a.86.86,0,0,0,.23.13A2.94,2.94,0,0,0,68,61.9a2.69,2.69,0,0,0,.84-1.28,1.4,1.4,0,0,0-.35-1.45l.08-.12a1.66,1.66,0,0,1,.82,1.66,3.15,3.15,0,0,1-.77,1.79,3.77,3.77,0,0,1-3.7,1.4,2.14,2.14,0,0,1-.56-.25l-.39-.24-.75-.49c-.5-.33-1-.69-1.45-1.05A27.72,27.72,0,0,1,59,59.49l1.05,0a2.49,2.49,0,0,1-1.81.54,2.69,2.69,0,0,1-.52-.14l-.25-.13-.12-.09-.07-.06-.53-.43a17.59,17.59,0,0,1-1.95-1.91,26.7,26.7,0,0,1-3.13-4.38c-.93-1.52-1.79-3.07-2.69-4.62-.23-.38-.44-.77-.66-1.16l-.31-.6a3,3,0,0,1-.3-.71,2.1,2.1,0,0,1,.38-1.72,2,2,0,0,1,.62-.55c.19-.13.38-.26.58-.37l-.27.79a20.29,20.29,0,0,1-.69-2.52,2.64,2.64,0,0,1-.11-.81,3,3,0,0,1,.17-.8,3.71,3.71,0,0,1,.82-1.27,4.15,4.15,0,0,1,2.55-1.22,2.47,2.47,0,0,1,1.4.3,1.56,1.56,0,0,1,.8,1.11Z"/><path class="cls-1" d="M81.62,16.12a1.68,1.68,0,0,0-2.06-.71,3.66,3.66,0,0,0-1.84,1.34,2.17,2.17,0,0,0-.41,1,1.52,1.52,0,0,0,.18,1l1,2.45A39,39,0,0,0,80.57,26a25.87,25.87,0,0,0,3.07,4.35l1.76,2,1.79,2L89,36.2c.65.6,1.27,1.23,1.9,1.85l1.91,1.82c.4.38.43.48.75.53a2.15,2.15,0,0,0,1-.08A3.59,3.59,0,0,0,96.5,39a1.66,1.66,0,0,0,0-2.18l.09-.13a1.65,1.65,0,0,1,.82,1.18,2.54,2.54,0,0,1-.22,1.49A4.31,4.31,0,0,1,95,41.43a3.51,3.51,0,0,1-1.61.3,2.17,2.17,0,0,1-.92-.28l-.21-.15-.14-.11L91.89,41c-.7-.57-1.38-1.17-2.06-1.76s-1.3-1.27-1.92-1.92l-1.78-2c-.57-.71-1.13-1.42-1.67-2.14s-1-1.5-1.49-2.26l-2.82-4.6c-1-1.51-2-3-2.84-4.61a18.15,18.15,0,0,1-1.07-2.52,6.18,6.18,0,0,1-.21-.75,2.46,2.46,0,0,1,0-.9A3.49,3.49,0,0,1,76.8,16a4.12,4.12,0,0,1,2.63-1.41,2.67,2.67,0,0,1,1.49.28,1.64,1.64,0,0,1,.84,1.17Z"/><path class="cls-1" d="M97.21,36.16a47.05,47.05,0,0,1-4.51-4.42,54.84,54.84,0,0,1-4-4.91c-1.21-1.72-2.26-3.55-3.36-5.34S83.13,18,82,16.2l-.31-.45.59-.08.85-.12a3.22,3.22,0,0,1,1,.06A3.15,3.15,0,0,1,85,16c.25.14.51.29.75.45a24.34,24.34,0,0,1,2.74,2.11,32.08,32.08,0,0,1,4.61,5.13,36.93,36.93,0,0,1,3.41,5.95c.49,1,.89,2.1,1.28,3.16a4,4,0,0,1,.28.86,3.23,3.23,0,0,1,0,.93,2.92,2.92,0,0,1-.26.87,1.5,1.5,0,0,1-.22.39l-.13.18-.07.08,0,0,0,0h-.13Zm.11-.1h-.11v0l0,0,0-.09c0-.07.06-.13.08-.19a2.84,2.84,0,0,0,.13-.38,2.58,2.58,0,0,0,.07-.78,3.25,3.25,0,0,0-.51-1.45l-.81-1.48c-.28-.48-.57-1-.84-1.45a63.38,63.38,0,0,0-3.65-5.56,40.39,40.39,0,0,0-4.24-5.07,29.85,29.85,0,0,0-2.45-2.2c-.21-.18-.43-.34-.65-.51a2.4,2.4,0,0,0-.61-.33,2.07,2.07,0,0,0-.7-.13l-.83,0,.28-.54a37.4,37.4,0,0,0,3.25,5.35c1.25,1.68,2.61,3.26,3.94,4.87s2.56,3.29,3.82,5S96.09,34.35,97.32,36.06Z"/><path class="cls-1" d="M65.13,37.93A15.54,15.54,0,0,0,67,36.6,21.51,21.51,0,0,1,70,35.1c1.09-.59,2.48-1.34,3-2.52a.42.42,0,0,0-.41-.53c-1.3,0-2.59,1.23-3.5,2.12A21.72,21.72,0,0,1,67.25,36c-.77.6-1.63,1-2.36,1.64-.17.16,0,.42.24.31Z"/><path class="cls-1" d="M65.57,36.35c.61-.36,1.21-.73,1.79-1.15A4,4,0,0,0,68.71,34a.22.22,0,0,0-.25-.32,4.37,4.37,0,0,0-1.66,1c-.54.39-1,.81-1.54,1.24-.22.19.06.54.31.4Z"/><path class="cls-1" d="M69.3,33.68a17.18,17.18,0,0,0,3-1.93.6.6,0,0,0-.72-.93,16.81,16.81,0,0,0-2.71,2.35c-.29.24.08.71.39.51Z"/><path class="cls-1" d="M65.15,34.64c1.94-1.33,4-2.58,5.95-3.83.46-.29,0-1-.42-.71C68.81,31.54,66.93,33,65,34.37c-.16.12,0,.39.16.27Z"/><path class="cls-1" d="M63.39,34.69c2.44-1.71,4.88-3.43,7.23-5.27.34-.26-.1-.84-.45-.59-2.42,1.75-4.75,3.61-7.08,5.47-.21.18.07.55.3.39Z"/><path class="cls-1" d="M67.84,30c.38-.28.79-.51,1.16-.8s.68-.44.7-.88a.26.26,0,0,0-.25-.26c-.4-.05-.67.26-1,.51s-.66.66-1,1,.08.64.35.45Z"/><path class="cls-1" d="M78.34,51c.74-.5,1.47-.95,2.2-1.49.32-.23.65-.47,1-.69s.84-.69,1.13-.67a.45.45,0,0,0,.43-.33l0-.2a.71.71,0,0,0-1-.79,17.57,17.57,0,0,0-2.4,1.6,8.2,8.2,0,0,0-1.81,2.13.33.33,0,0,0,.45.44Z"/><path class="cls-1" d="M80.85,51.56A11.74,11.74,0,0,0,83,50a.26.26,0,0,0-.31-.41,12.1,12.1,0,0,0-2.07,1.65c-.19.15.06.49.27.34Z"/><path class="cls-1" d="M80.18,54.49c.49.19,1.07.57,1.61.4a.21.21,0,0,0,.09-.35c-.37-.42-1.07-.39-1.58-.48a.22.22,0,0,0-.12.43Z"/><path class="cls-1" d="M81.23,54.05a2.18,2.18,0,0,0,1.23.28.22.22,0,0,0,.1-.38,2.22,2.22,0,0,0-1.2-.38.25.25,0,0,0-.13.48Z"/><path class="cls-1" d="M82.33,53.35a1,1,0,0,0,.72.11.18.18,0,0,0,.08-.31,1,1,0,0,0-.68-.25.23.23,0,0,0-.12.45Z"/><path class="cls-1" d="M83.41,52.73a.86.86,0,0,0,.63,0,.21.21,0,0,0,.09-.35,1,1,0,0,0-.56-.29c-.38-.12-.55.5-.16.6Z"/><path class="cls-1" d="M82.51,57.92a9.88,9.88,0,0,0,1.33-.31,10.09,10.09,0,0,0,1.54-.86,5.52,5.52,0,0,0,2.12-1.94.28.28,0,0,0-.38-.39,18.5,18.5,0,0,0-2.28,1.73c-.36.24-.73.44-1.1.65s-.87.65-1.33.88a.13.13,0,0,0,.1.24Z"/><path class="cls-1" d="M89.25,65.7c.6-.53,1.73-.91,1.84-1.82,0-.27-.28-.43-.5-.38-.44.1-.6.46-.86.81s-.43.83-.71,1.22c-.1.14.12.28.23.17Z"/><path class="cls-1" d="M89.74,65.13a2.12,2.12,0,0,0-.93,1,1.83,1.83,0,0,0,0,1.36.18.18,0,0,0,.35,0,6.29,6.29,0,0,1,.86-2c.13-.17-.12-.41-.29-.3Z"/><path class="cls-1" d="M89.65,66.58c-.06.53.47.8.91.86l-.31-.13,0,.06a.37.37,0,0,0,.52,0l.05-.06a.44.44,0,0,0-.31-.75c-.14,0-.27-.2-.39-.28s-.49.07-.52.3Z"/><path class="cls-1" d="M89.62,66.49c-.16.36-.21.72.16,1,.58.44,1.15,0,1.72-.18.11,0,.13-.22,0-.24-.28,0-1.8,0-1.68-.49,0-.11-.15-.2-.2-.08Z"/><path class="cls-1" d="M92.24,66.66l.34,0c.07,0,.09-.12,0-.13l-.34-.07a.08.08,0,1,0,0,.15Z"/><path class="cls-1" d="M91.94,65.34c.33-.22.57.12.58.38s-.08.27-.07.42a.16.16,0,0,0,.12.16c.57.1.81-.71.58-1.13s-1-.41-1.39-.06c-.12.11,0,.33.18.23Z"/><path class="cls-1" d="M93,64.88a.46.46,0,0,1,.28.41.23.23,0,0,0,.34.14c.64-.5.12-1.32-.62-1.18-.33.07-.28.54,0,.63Z"/><path class="cls-1" d="M93.79,64.5c.07,0,.11.06.11.15a.28.28,0,0,0,.4.16c.84-.56-.34-1.67-1-.76-.19.27.18.62.46.45Z"/><path class="cls-1" d="M95.86,74.16a.05.05,0,0,0,0-.1.05.05,0,1,0,0,.1Z"/><path class="cls-1" d="M96.93,75.39a7.49,7.49,0,0,1-.09-1.64,5.91,5.91,0,0,0,.06-1.39c-.06-.28-.41-.25-.55-.07-.64.83-.4,2.36-.22,3.32.11.53.89.3.8-.22Z"/><path class="cls-1" d="M97.55,76.41a8.59,8.59,0,0,0,0-2.32.31.31,0,0,0-.58,0,8.58,8.58,0,0,0-.13,2.32.34.34,0,0,0,.68,0Z"/><path class="cls-1" d="M98.71,78.27a10.51,10.51,0,0,0-.07-3.22.27.27,0,0,0-.51,0,10.2,10.2,0,0,0-.22,3.22c0,.52.78.52.8,0Z"/><path class="cls-1" d="M99.68,79.47a9.69,9.69,0,0,0,.12-3.08.27.27,0,0,0-.48-.07,10.1,10.1,0,0,0-.47,3.15c0,.53.78.53.83,0Z"/><path class="cls-1" d="M100.6,82a12.07,12.07,0,0,0,0-3.29.27.27,0,0,0-.52,0A11.67,11.67,0,0,0,99.84,82a.38.38,0,0,0,.76,0Z"/><path class="cls-1" d="M102.09,83.34a13.76,13.76,0,0,0,.15-3.62c0-.3-.47-.24-.55,0a13.7,13.7,0,0,0-.36,3.62c0,.49.71.48.76,0Z"/><path class="cls-1" d="M103.62,86.57a13.9,13.9,0,0,0,.38-4.35.29.29,0,0,0-.56-.07,13.76,13.76,0,0,0-.43,4.34c0,.33.54.43.61.08Z"/><path class="cls-1" d="M105.6,87.65a11.13,11.13,0,0,0,.32-4.06.22.22,0,0,0-.44-.06,11.47,11.47,0,0,0-.56,4,.35.35,0,0,0,.68.09Z"/><path class="cls-1" d="M107,90.6a15.23,15.23,0,0,0,.47-3.42.26.26,0,0,0-.51-.07,14.75,14.75,0,0,0-.74,3.27c-.07.5.67.74.78.22Z"/><path class="cls-1" d="M120.63,105.67c1.51,1.93,2.93,3.94,4.41,5.88,1.08,1.41,2.09,3.17,3.56,4.17.46.32.86-.27.69-.68-.77-1.78-2.56-3.29-3.85-4.73-1.49-1.65-3-3.26-4.51-4.94-.18-.21-.46.09-.3.3Z"/><path class="cls-1" d="M123.21,118.71a11.75,11.75,0,0,0,5.39-2.17,14.63,14.63,0,0,0,3.18-3.8c.3-.41-.39-.82-.67-.4a16.61,16.61,0,0,1-3.87,3.41,23.53,23.53,0,0,1-4.28,2.37c-.37.15-.08.64.25.59Z"/><path class="cls-1" d="M124.19,120.13a7.56,7.56,0,0,0,3.22-.81,12.13,12.13,0,0,0,3.21-1.91,5.77,5.77,0,0,0,1.39-1.8c.42-.69.8-.79.6-1.65a.3.3,0,0,0-.54-.07c-.4.59-.45,1.21-1,1.63s-1.41.9-2.05,1.34c-.84.56-1.7,1.1-2.54,1.65a10.6,10.6,0,0,0-2.35,1.43c0,.06,0,.18,0,.19Z"/><path class="cls-1" d="M125.51,121.77a3.17,3.17,0,0,1-.66.16c-.27,0-.17.41.05.43,1.79.17,3.63-.93,5.22-1.65,1.24-.55,3.19-1.12,3.56-2.57a.37.37,0,0,0-.35-.46c-1.27-.16-2.36,1.14-3.28,1.89-1.6,1.3-3.51,1.46-5.26,2.38l.27.34.5-.39c.07,0,0-.16,0-.13Z"/><path class="cls-1" d="M133.61,118.26A4.84,4.84,0,0,0,135,116c.22-.53-.69-.92-.94-.39a4.82,4.82,0,0,0-.76,2.44c0,.16.19.32.35.2Z"/><path class="cls-1" d="M128.82,122.74c.32-.56,1.12-.57,1.63-.9a.29.29,0,0,0,0-.49,1,1,0,0,0-1.17.19,2.31,2.31,0,0,0-.63,1.13c0,.1.12.16.17.07Z"/><path class="cls-1" d="M124.31,116.19H124l0,.21a.81.81,0,0,0,.22-.07.1.1,0,0,0,0-.19l-.23,0a.11.11,0,1,0,.06.21l.33-.06c.09,0,.07-.16,0-.16Z"/><path class="cls-1" d="M112.83,95.92a2.35,2.35,0,0,0,0,2,.14.14,0,0,0,.18,0c.5-.36.57-1.31.54-1.88a.38.38,0,0,0-.75-.1Z"/><path class="cls-1" d="M112.68,98.12c0,.38-.05.73,0,1.11a.45.45,0,0,0,.32.43.5.5,0,0,0,.34,0,.45.45,0,0,0,.2-.5c0-.37-.19-.7-.25-1.07s-.61-.26-.59.08Z"/><path class="cls-1" d="M114.45,96.82a14.45,14.45,0,0,0-.47,1.83,2.12,2.12,0,0,0,0,1.47.34.34,0,0,0,.52.07,2.41,2.41,0,0,0,.55-1.49,17.39,17.39,0,0,0,.18-1.77c0-.47-.67-.53-.8-.11Z"/><path class="cls-1" d="M114,100.65c0,.59-.28,1.19-.07,1.77a.37.37,0,0,0,.7,0,5,5,0,0,0-.1-1.77.27.27,0,0,0-.53,0Z"/><path class="cls-1" d="M115.77,99.3c-.35,1-.81,2.42-.37,3.41a.23.23,0,0,0,.37.05c.69-.81.67-2.36.61-3.38a.31.31,0,0,0-.61-.08Z"/><path class="cls-1" d="M115.3,103.13a2,2,0,0,0,0,.72c.08.39.59.31.7,0a1.92,1.92,0,0,0,.06-.72c0-.48-.68-.46-.73,0Z"/><path class="cls-1" d="M117.16,101.11a4.6,4.6,0,0,0-.54,1.79,2.56,2.56,0,0,0,0,1.5.19.19,0,0,0,.3,0,2.86,2.86,0,0,0,.67-1.5,4.49,4.49,0,0,0,.19-1.74c-.06-.33-.5-.31-.66-.08Z"/><path class="cls-1" d="M116.59,104.52c-.07.43-.24.8-.27,1.24a.4.4,0,0,0,.21.37.38.38,0,0,0,.43,0,.42.42,0,0,0,.21-.37c0-.41-.08-.77-.08-1.17s-.45-.36-.5-.07Z"/><path class="cls-1" d="M118.34,103.06a24.56,24.56,0,0,0-.37,3.06,14.22,14.22,0,0,0-.25,2.6.27.27,0,0,0,.49.07,14,14,0,0,0,.47-2.57,23.88,23.88,0,0,0,.47-3c.06-.45-.74-.56-.81-.11Z"/><path class="cls-1" d="M120.17,105.06a9,9,0,0,0-.51,2.9c0,1.12-.38,2.18-.47,3.3-.06.82,1.31.77,1.18-.16a9.78,9.78,0,0,1-.14-3.28c.17-.87.37-1.73.51-2.6a.3.3,0,0,0-.57-.16Z"/><path class="cls-1" d="M122,107.7a12,12,0,0,0-.43,2.72c-.06,1-.59,1.85-.71,2.81l.76-.58a.5.5,0,0,0-.46.06c-1,.69.66,1.7.88.68s0-2,.29-2.92a11.4,11.4,0,0,0,.46-2.66.41.41,0,0,0-.79-.11Z"/><path class="cls-1" d="M123.64,110.74c-.07.62-.13,1.22-.16,1.85a6.18,6.18,0,0,1-.34,1.73,3.57,3.57,0,0,0-.15,2.6.35.35,0,0,0,.55.07,3.56,3.56,0,0,0,.45-2.56,10.44,10.44,0,0,1,.17-2.22c.08-.48.12-1,.18-1.47s-.65-.44-.7,0Z"/><path class="cls-1" d="M125.75,113.13a5.54,5.54,0,0,0-.49,1.64,2.61,2.61,0,0,1-.2,1.25c-.34.72-.65,1.5-.11,2.17a.39.39,0,0,0,.53,0c.59-.53.39-1.36.3-2.07a1.81,1.81,0,0,1,.27-1.14,9.12,9.12,0,0,0,.39-1.66.36.36,0,0,0-.69-.19Z"/><path class="cls-1" d="M126.86,114.8a12.08,12.08,0,0,0-.38,1.34,1.66,1.66,0,0,0,0,1.18.43.43,0,0,0,.66.08c.35-.26.37-.75.46-1.15a12,12,0,0,0,.24-1.33c.07-.57-.77-.6-.94-.12Z"/><path class="cls-1" d="M127.83,117.85c-.22.6-.86,1.59-.5,2.21a.18.18,0,0,0,.26.07c.64-.33.62-1.53.75-2.14a.26.26,0,0,0-.51-.14Z"/><path class="cls-1" d="M129.15,119.9l0-.18-.27.11a4.69,4.69,0,0,0,1.51,1.11c.23.08.35-.21.22-.37a4.76,4.76,0,0,0-1.54-1,.16.16,0,0,0-.23.17,1.41,1.41,0,0,1,.06.22c0,.18.29.1.27-.08Z"/><path class="cls-1" d="M109.37,90.13c-.18,1.32-.44,2.64-.59,4,0,.22.31.24.37,0,.27-.85.59-1.7.78-2.58,0-.11-.14-.19-.2-.08-.38.82-.65,1.7-1,2.56l.37.1c.18-1.32.26-2.66.41-4,0-.11-.18-.13-.19,0Z"/><path class="cls-1" d="M110.3,90.79a44.12,44.12,0,0,0-.61,5.26c0,.25.41.32.45.06a46.67,46.67,0,0,0,.49-5.28c0-.18-.3-.23-.33,0Z"/><path class="cls-1" d="M110.77,93.51a20.45,20.45,0,0,0-.3,3.48.15.15,0,0,0,.29,0,20.56,20.56,0,0,0,.29-3.52c0-.18-.26-.17-.28,0Z"/><path class="cls-1" d="M111.37,97a.05.05,0,1,0,0-.1.05.05,0,0,0,0,.1Z"/><path class="cls-1" d="M74.26,53l1,.4a4.06,4.06,0,0,0,1,.4c.15,0,.23-.14.1-.23a3.19,3.19,0,0,0-.92-.35l-1.06-.42c-.13,0-.18.15-.06.2Z"/><path class="cls-1" d="M73.67,51.57c.54.27,1,.59,1.6.84s1,.47,1.51.65c.23.08.38-.28.16-.4-.48-.25-1-.44-1.5-.65s-1.14-.38-1.7-.59c-.09,0-.15.11-.07.15Z"/><path class="cls-1" d="M73.67,50.64a33.34,33.34,0,0,0,3.69,1.71c.24.09.39-.29.17-.41a33.19,33.19,0,0,0-3.72-1.62c-.19-.08-.32.23-.14.32Z"/><path class="cls-1" d="M74.25,49.85c.52.24,1,.48,1.58.7a3.42,3.42,0,0,0,1.34.41.15.15,0,0,0,.1-.25A3.24,3.24,0,0,0,76,50.06c-.54-.22-1.08-.42-1.62-.62-.24-.09-.4.3-.17.41Z"/><path class="cls-1" d="M76.34,49.44a5.45,5.45,0,0,0,1.43.71c.17,0,.33-.17.18-.31a5.93,5.93,0,0,0-1.42-.72c-.21-.1-.4.21-.19.32Z"/><path class="cls-1" d="M77.94,48.82a5.54,5.54,0,0,0,.88.26c.18,0,.34-.23.14-.32a5.79,5.79,0,0,0-.92-.29.18.18,0,0,0-.1.35Z"/><path class="cls-1" d="M71.54,56.8a2.08,2.08,0,0,0,1.57-.07c.34-.13,1.06-.45,1-.92s-.58-.22-.84-.06a7.13,7.13,0,0,1-1.68.65.21.21,0,0,0,0,.4Z"/><path class="cls-1" d="M71.09,56.33c.37-.15,2-.65,1.6-1.32s-1.59.61-1.86.87,0,.55.26.45Z"/><path class="cls-1" d="M70.32,55.48c.54,0,1.44-.13,1.41-.83a.23.23,0,0,0-.29-.22c-.42.08-.65.5-1.12.53a.26.26,0,0,0,0,.52Z"/><path class="cls-1" d="M69.08,54.86c.53.16,1.71-.17,1.48-.92a.2.2,0,0,0-.16-.15.72.72,0,0,0-.53.11,5.07,5.07,0,0,1-.79.36.31.31,0,0,0,0,.6Z"/><path class="cls-1" d="M68.6,54.1c.56-.1,1.21-.41,1.11-1.07a.22.22,0,0,0-.27-.15c-.41.14-.59.53-1,.69a.27.27,0,0,0,.14.53Z"/><path class="cls-1" d="M67.57,53.38a2.59,2.59,0,0,0,1.13-.61.26.26,0,0,0-.18-.44,2.42,2.42,0,0,0-1.18.5c-.28.17-.09.67.23.55Z"/><path class="cls-1" d="M67.32,52.6c-.59-.67-1.19-1.32-1.8-2-.06-.06-.14,0-.09.1.56.69,1.12,1.38,1.7,2.07.11.13.31-.07.19-.2Z"/><path class="cls-1" d="M64.19,49.37c.25-.16,1.26-.63,1-1.08s-1.08.32-1.32.49,0,.85.35.59Z"/><path class="cls-1" d="M63.26,48.23a2.8,2.8,0,0,0,1.17-.68.17.17,0,0,0-.12-.28,3,3,0,0,0-1.34.45c-.35.16,0,.66.29.51Z"/><path class="cls-1" d="M62.64,47.07c.34-.2.76-.34,1-.7a.27.27,0,0,0-.22-.4,2.19,2.19,0,0,0-1.07.52.34.34,0,0,0,.34.58Z"/><path class="cls-1" d="M61.16,44.72a2,2,0,0,0,.45-.31c.19-.17,0-.42-.22-.39a1.86,1.86,0,0,0-.53.19c-.34.16,0,.68.3.51Z"/><path class="cls-1" d="M56.31,36.22a5.32,5.32,0,0,1,.67-.89c.23-.24.56-.39.7-.7a.31.31,0,0,0-.27-.47c-.91-.06-1.49,1.19-1.58,1.93,0,.27.36.33.48.13Z"/><path class="cls-1" d="M58.23,35.56c-.82.26-1.76.8-1.92,1.7a.42.42,0,0,0,.81.23l-.41.31a.44.44,0,0,0,.41-.31c.21-.75.35-1.43,1.16-1.75.11,0,.07-.22-.05-.18Z"/><path class="cls-1" d="M59.07,36.84a2.23,2.23,0,0,0-.89,0,2.18,2.18,0,0,0-.7.42,1.49,1.49,0,0,0-.67,1.43c0,.17.25.19.36.1.33-.28.51-.64.81-.94a3.65,3.65,0,0,1,.43-.35A4,4,0,0,1,59.1,37a.1.1,0,0,0,0-.2Z"/><path class="cls-1" d="M59.52,38a2.52,2.52,0,0,0-.88.28,2.7,2.7,0,0,0-.65.61c-.35.43-.71.94-.46,1.49a.21.21,0,0,0,.3.08c.41-.25.51-.71.78-1.09a6,6,0,0,1,1-1.11c.12-.1.06-.3-.11-.26Z"/><path class="cls-1" d="M60,39.2a2.12,2.12,0,0,0-.89.25,2.56,2.56,0,0,0-.62.69c-.26.4-.65,1.17-.18,1.56a.23.23,0,0,0,.24,0c.37-.23.37-.71.56-1.06a2.27,2.27,0,0,1,.43-.54c.18-.18.38-.51.59-.63a.17.17,0,0,0-.13-.3Z"/><path class="cls-1" d="M59,42.36c.17.44.27.89.44,1.33A10,10,0,0,0,60,44.84a.16.16,0,0,0,.29-.12,10.09,10.09,0,0,0-.46-1.19c-.2-.42-.47-.81-.67-1.23a.08.08,0,0,0-.14.06Z"/><path class="cls-1" d="M70.19,25.15a2.49,2.49,0,0,1,1.37-.86,4.5,4.5,0,0,1,1.37-.09.21.21,0,0,0,.11-.39c-1.15-.6-2.43.29-3,1.25a.09.09,0,0,0,.15.09Z"/><path class="cls-1" d="M70.21,24.3a5.82,5.82,0,0,0,1-.35c.28-.13.65-.47,1-.36a.15.15,0,0,0,.18-.17l-.15-.35a.29.29,0,0,0-.38-.1,6.34,6.34,0,0,0-1.7,1.14c-.09.07,0,.22.11.19Z"/><path class="cls-1" d="M71.1,27.43a1.65,1.65,0,0,1,1.2-1.28c.44-.08,1.08.24,1.41-.15a.37.37,0,0,0,.09-.36l0-.05a.51.51,0,0,0-.46-.36,2.73,2.73,0,0,0-2.48,2.13c0,.17.22.24.26.07Z"/><path class="cls-1" d="M71.85,29.39a2.12,2.12,0,0,1,1.23-1.24c.45-.2,1-.14,1.37-.43a.18.18,0,0,0,0-.28c-1.1-1-2.62.93-2.89,1.88,0,.17.2.23.26.07Z"/><path class="cls-1" d="M73.35,32.18a2.74,2.74,0,0,1,2.48-1.68c.12,0,.09-.18,0-.21a2.26,2.26,0,0,0-2.68,1.84.1.1,0,0,0,.2,0Z"/><path class="cls-1" d="M74.35,33.62c.25-.86,1.13-1.36,1.85-1.8.11-.07.1-.28,0-.3-1.24-.19-2,1-2,2.08,0,.12.18.14.21,0Z"/><path class="cls-1" d="M75,34.22a6.28,6.28,0,0,0,.86-.93c.07-.09-.06-.23-.16-.16a6.8,6.8,0,0,0-.9.88c-.13.14.07.34.2.21Z"/><path class="cls-1" d="M80.51,42.57a3.19,3.19,0,0,0,2-.26,1.79,1.79,0,0,0,1-1.55.19.19,0,0,0-.28-.17c-.87.61-1.54,1.81-2.74,1.79a.1.1,0,1,0,0,.19Z"/><path class="cls-1" d="M82,43.87c1.38-.17,3.1-1.08,3-2.7a.22.22,0,0,0-.4-.11c-.7,1.07-1.3,2.24-2.66,2.58-.12,0-.1.25,0,.23Z"/><path class="cls-1" d="M83.32,45.13a2.05,2.05,0,0,0,1.76-.56,1.76,1.76,0,0,0,.61-1.7.26.26,0,0,0-.47-.06,6.89,6.89,0,0,1-.71,1.2,3,3,0,0,1-1.23.84.14.14,0,0,0,0,.28Z"/><path class="cls-1" d="M84.69,46.46a2.44,2.44,0,0,0,1.17.07,2.38,2.38,0,0,0,1-.69c.46-.53.93-1.57.33-2.17a.24.24,0,0,0-.37,0c-.3.43-.28,1-.59,1.45a2.06,2.06,0,0,1-.6.54,2.67,2.67,0,0,1-1,.45c-.16,0-.23.27,0,.3Z"/><path class="cls-1" d="M87.29,46.73a16.35,16.35,0,0,0,1.26-1.62.15.15,0,0,0-.24-.18,16.25,16.25,0,0,0-1.25,1.62c-.1.14.13.32.23.18Z"/><path class="cls-1" d="M74.09,22.58C76.55,29.27,80.59,36,86,40.78a.19.19,0,0,0,.27-.26c-4.82-5.65-8.92-11.2-12-18,0-.07-.16,0-.13,0Z"/><path class="cls-1" d="M74.7,23c.63.17.91.83,1.5,1.09a.17.17,0,0,0,.25-.15c0-.94-1-1.08-1.73-1.08a.07.07,0,0,0,0,.14Z"/><path class="cls-1" d="M76.64,24c.52.07.86,0,1.06-.52a1.12,1.12,0,0,0-.5-1.3c-.71-.52-1.11,1.16-.12.9.38-.09.34.76.35.94s.16.17.22.06a.84.84,0,0,0,.08-.58c0-.3-.3-.59-.29-.89L76.7,23a.59.59,0,0,1-.07.82s-.06.14,0,.15Z"/><path class="cls-1" d="M77.56,24.29a.82.82,0,0,0,.66-1.17l-.15.1c.31.61-.25,1.07-.46,1.59a.16.16,0,0,0,.11.19c.46.09.76-.3.86-.71a1.25,1.25,0,0,0-.37-1.18c-.08-.08-.18,0-.14.11a.62.62,0,0,1-.51.87c-.13,0-.13.22,0,.2Z"/><path class="cls-1" d="M77.89,24.82a.81.81,0,0,0,.9-1l-.27.16c.36.4-.33,1.18-.36,1.61a.26.26,0,0,0,.34.26.93.93,0,0,0,.6-.83c.08-.5-.22-.74-.31-1.2,0-.15-.28-.15-.31,0,0,.34-.17.72-.59.76-.14,0-.15.22,0,.22Z"/><path class="cls-1" d="M78.67,25.81c.49.08.94-.11.92-.68a.3.3,0,0,0-.59-.08c0,.1-.15.35-.28.36s-.3.36,0,.4Z"/><path class="cls-1" d="M78.54,25.19a8.69,8.69,0,0,0,3.35,4.7c.19.13.39-.12.3-.3a18.57,18.57,0,0,0-1.7-2.43A14.7,14.7,0,0,0,78.7,25.1c-.07-.06-.19,0-.16.09Z"/><path class="cls-1" d="M79.9,27.14a25.62,25.62,0,0,0,7.21,9.21c.16.12.32-.13.2-.27a106.65,106.65,0,0,1-7.24-9,.1.1,0,0,0-.17.11Z"/><path class="cls-1" d="M79.87,25.91,79,24.7l-.5.14a28.1,28.1,0,0,0,7.21,10.81c.2.18.57-.07.39-.31-2.58-3.46-4.78-7.08-7.12-10.7a.26.26,0,0,0-.45.26,2.06,2.06,0,0,0,1.29,1.21c.12.05.18-.14.08-.2Z"/><path class="cls-1" d="M88.66,43.23a.78.78,0,0,0,.73-.83c0-.5-.31-.78-.12-1.3a1.14,1.14,0,0,1,1.09-.89.68.68,0,0,0,0-1.36,2.06,2.06,0,0,0-2,1.37,1.37,1.37,0,0,0,.11,1.1c.2.37,1,1.44.2,1.66a.13.13,0,0,0,0,.25Z"/><path class="cls-1" d="M88.33,39.47a3.39,3.39,0,0,1,1.19,0c.61.25,1.15-.63.53-.91s-1.88-.26-1.88.7a.17.17,0,0,0,.16.17Z"/><path class="cls-1" d="M88,38.9a.76.76,0,0,0,.51-.06c.24-.08.48-.08.72-.17a.38.38,0,0,0,0-.73,1.16,1.16,0,0,0-1.21.34c-.12.13-.3.55,0,.62Z"/><path class="cls-1" d="M87.23,38a1.8,1.8,0,0,0,1.27-.22.18.18,0,0,0,0-.32,1.81,1.81,0,0,0-1.29.11.22.22,0,0,0,.06.43Z"/><path class="cls-1" d="M88.29,37.52a1.86,1.86,0,0,0-1.37.17A1.41,1.41,0,0,0,86.31,39a.23.23,0,0,0,.42.11c.29-.5.94-1.32,1.56-1.32.16,0,.15-.22,0-.24Z"/><path class="cls-1" d="M87.55,36.38c-.5.06-.87-.09-1.29.25a1.46,1.46,0,0,0-.59,1,.2.2,0,0,0,.3.18,9.3,9.3,0,0,0,.81-.59c.27-.18.48-.52.8-.59.14,0,.11-.28,0-.26Z"/><path class="cls-1" d="M86.72,35.73a1.09,1.09,0,0,0-1.58.73.25.25,0,0,0,.45.19A1.36,1.36,0,0,1,86.65,36a.13.13,0,0,0,.07-.25Z"/><path class="cls-1" d="M55,39c.64.23,1.11.7,1.81.41a.45.45,0,0,0,.09-.71c-.53-.5-1.19-.2-1.83-.21A.26.26,0,0,0,55,39Z"/><path class="cls-1" d="M69.74,58.24c.06-.19.2-.36.28-.55a1.47,1.47,0,0,1,.44-.6l-.56-1a2.74,2.74,0,0,0-1.17,1.19.41.41,0,0,0,.45.58,2.71,2.71,0,0,0,1.4-.9c.38-.45-.11-1.25-.68-.87a2,2,0,0,0-.82,1,1.2,1.2,0,0,0,.22,1.15.24.24,0,0,0,.44-.06Z"/><path class="cls-1" d="M61.37,59.73a21,21,0,0,0-3.65-3.95c-.11-.08-.24.08-.18.19A20.69,20.69,0,0,0,61.06,60c.2.21.49-.09.31-.31Z"/><path class="cls-1" d="M57.48,55.7a13.91,13.91,0,0,0,8.79,7.2c.13,0,.22-.16.09-.22a21.8,21.8,0,0,1-8.62-7.13.15.15,0,0,0-.26.15Z"/><path class="cls-1" d="M61.73,59.54c1.18,1.4,3,3,5,2.7a.22.22,0,0,0,0-.39,21.8,21.8,0,0,0-2.37-1,13.06,13.06,0,0,1-2.46-1.48.15.15,0,0,0-.21.21Z"/><path class="cls-1" d="M64.61,60.56a4.1,4.1,0,0,0,1.29,1.09,2.34,2.34,0,0,0,1.6.17.26.26,0,0,0,0-.5,7.73,7.73,0,0,1-2.71-.94.13.13,0,0,0-.18.18Z"/><path class="cls-1" d="M57.05,58.39c.29-.06.55,0,.86-.06a2.31,2.31,0,0,0,.8-.4.17.17,0,0,0-.09-.32,2.19,2.19,0,0,0-.88.12c-.3.11-.49.34-.77.47-.11,0,0,.2.08.19Z"/><path class="cls-1" d="M56.1,57.27A4,4,0,0,0,57.47,57c.09,0,0-.17,0-.18a4.14,4.14,0,0,0-1.35.21c-.13,0-.11.25,0,.24Z"/><path class="cls-1" d="M55.78,56.93a1,1,0,0,0,1.54-.52.19.19,0,0,0-.27-.21,2.67,2.67,0,0,1-1.19.43.16.16,0,0,0-.08.3Z"/><path class="cls-1" d="M55.17,56a3.29,3.29,0,0,0,1.12-.32.17.17,0,0,0-.08-.31,3.71,3.71,0,0,0-1.13.3.17.17,0,0,0,.09.33Z"/><path class="cls-1" d="M49.77,44.5a3.36,3.36,0,0,0-.85.58.21.21,0,0,0,.2.35A3.31,3.31,0,0,0,50,45a.27.27,0,0,0-.27-.47Z"/><path class="cls-1" d="M50.28,44.9c-.65,0-1.21.49-1.05,1.17a.19.19,0,0,0,.32.08,2.47,2.47,0,0,1,.86-.78c.22-.1.11-.48-.13-.47Z"/><path class="cls-1" d="M49.56,47.16a5.24,5.24,0,0,0,1.17-1.57.2.2,0,0,0-.28-.22,5.22,5.22,0,0,0-1.22,1.53c-.14.2.17.44.33.26Z"/><path class="cls-1" d="M50.11,48A4.37,4.37,0,0,0,51,47c0-.1-.05-.23-.16-.16a4.18,4.18,0,0,0-.92,1c-.13.16.09.4.24.23Z"/><path class="cls-1" d="M49.89,41.37a16.47,16.47,0,0,0,1.83.37c.15,0,.16-.21,0-.25A14.82,14.82,0,0,0,50,41c-.21,0-.31.29-.09.34Z"/><path class="cls-1" d="M49.17,40.82a12.44,12.44,0,0,0,3.22.74.17.17,0,0,0,.09-.31,12.84,12.84,0,0,0-3.17-.93.26.26,0,0,0-.14.5Z"/><path class="cls-1" d="M49.85,40.15a11.15,11.15,0,0,0,2.12.46.17.17,0,0,0,.08-.31A10.42,10.42,0,0,0,50,39.68a.25.25,0,0,0-.14.47Z"/><path class="cls-1" d="M50.45,39.3a13.38,13.38,0,0,0,2.61-.06c.21-.05.22-.42,0-.45a13.42,13.42,0,0,0-2.61.11.2.2,0,0,0,0,.4Z"/><path class="cls-1" d="M53.88,40.4C56.54,48.83,63.46,53.71,69,60.1c.25.28.6,0,.56-.33a3.14,3.14,0,0,0-1.47-2.42c-2.34-2-4.65-3.19-6.71-5.61a52.79,52.79,0,0,1-7.1-11.51.22.22,0,0,0-.39.17Z"/><path class="cls-1" d="M56.66,39.32a2.48,2.48,0,0,0-1.24,1,.28.28,0,0,0,.32.41,2.42,2.42,0,0,0,1.28-1,.3.3,0,0,0-.36-.47Z"/><path class="cls-1" d="M56.38,39.44c-.37.3-.76,0-1.1-.19a.22.22,0,0,0-.33.19c0,.92,1.27.8,1.71.28a.2.2,0,1,0-.28-.28Z"/><path class="cls-1" d="M57.08,39.89c-.46.33-1.55.89-1.48,1.57a.18.18,0,0,0,.13.17c.67.19,1.38-.77,1.79-1.17s-.1-.83-.44-.57Z"/><path class="cls-1" d="M56.4,39.69a17.27,17.27,0,0,0,1,2,4.58,4.58,0,0,0,1.14,1.47.32.32,0,0,0,.47-.28,4.74,4.74,0,0,0-.82-1.8,20.06,20.06,0,0,0-1.26-1.76c-.25-.31-.66.09-.52.4Z"/><path class="cls-1" d="M56.51,39.21A10,10,0,0,0,60,45c.3.21.59-.18.46-.46-.48-1-1.21-1.79-1.78-2.71s-1-1.9-1.57-2.85a.3.3,0,0,0-.55.24Z"/><path class="cls-1" d="M56.73,39.24c.58,2.56,2.53,5.93,4.9,7.2a.29.29,0,0,0,.39-.39c-.7-1.22-1.74-2.22-2.52-3.39s-1.39-2.47-2.1-3.7a.37.37,0,0,0-.67.28Z"/><path class="cls-1" d="M56.65,39.58A5.6,5.6,0,0,1,55.46,39c-.32-.19-.58-.47-1-.49a.29.29,0,0,0-.29.28c0,.48.48.8.87,1a2.94,2.94,0,0,0,.69.28,2.39,2.39,0,0,0,.8,0,.27.27,0,0,0,.08-.53Z"/><path class="cls-1" d="M55.93,42.13c.65.23,1.86.33,2.14-.48a.23.23,0,0,0-.16-.27,1.58,1.58,0,0,0-.74.09,1.88,1.88,0,0,1-1.05,0c-.45-.14-.63.55-.19.7Z"/><path class="cls-1" d="M56.12,42.18c.61.48,1.83.87,2.36.07a.3.3,0,0,0-.26-.44,4.17,4.17,0,0,0-.78.1,1.57,1.57,0,0,1-.95-.21c-.29-.18-.66.26-.37.48Z"/><path class="cls-1" d="M57.77,43.94A1.09,1.09,0,0,0,59,43.52a.2.2,0,0,0-.22-.28,2.07,2.07,0,0,1-.89.12c-.38-.07-.54.49-.16.58Z"/><path class="cls-1" d="M59.16,45.13A1.47,1.47,0,0,0,60,45a.2.2,0,0,0,0-.34,1.45,1.45,0,0,0-.8-.14.32.32,0,0,0,0,.63Z"/><path class="cls-1" d="M60.4,45.77l0-.06a.14.14,0,0,0-.13-.17h-.07c-.46-.05.08.72.18.24Z"/><path class="cls-1" d="M61,46.78l.06-.06c.09-.07,0-.2-.12-.15l-.06,0c-.13.08,0,.27.12.17Z"/><path class="cls-1" d="M69.07,56.24c-.11,0-.24,0-.36,0a.82.82,0,0,0-.35.34.74.74,0,0,0,.13.86.21.21,0,0,0,.33,0,5,5,0,0,0,.27-.51c0-.1.1-.38.15-.41s0-.36-.17-.28Z"/><path class="cls-1" d="M69,56.35a.13.13,0,0,0,0-.26.13.13,0,0,0,0,.26Z"/><path class="cls-1" d="M85.26,19.87a11.12,11.12,0,0,0,0-2c0-.09-.18-.1-.19,0a10.3,10.3,0,0,0,0,2,.09.09,0,0,0,.18,0Z"/><path class="cls-1" d="M86,20.83a5,5,0,0,0-.23-1.54.2.2,0,0,0-.4.05,5.1,5.1,0,0,0,.28,1.54.18.18,0,0,0,.35-.05Z"/><path class="cls-1" d="M86.84,22.36A5,5,0,0,0,86.5,20a.13.13,0,0,0-.25,0,5,5,0,0,0,.37,2.38.13.13,0,0,0,.22,0Z"/><path class="cls-1" d="M87.83,23.43a10.84,10.84,0,0,0-.49-2.83.18.18,0,0,0-.35,0,10.94,10.94,0,0,0,.33,2.85.26.26,0,0,0,.51-.07Z"/><path class="cls-1" d="M88.4,25.05a8.38,8.38,0,0,0-.22-3.49.19.19,0,0,0-.36,0A8.57,8.57,0,0,0,88,25.05c0,.17.34.2.37,0Z"/><path class="cls-1" d="M89.36,26.28A6.68,6.68,0,0,0,89,23.73a.15.15,0,0,0-.28,0,6.59,6.59,0,0,0,.24,2.57.22.22,0,0,0,.43-.06Z"/><path class="cls-1" d="M90.33,26.79a7.73,7.73,0,0,0-.39-2.08.15.15,0,0,0-.28,0,7.38,7.38,0,0,0,.13,2c0,.34.58.34.54,0Z"/><path class="cls-1" d="M91.52,28.2a9.83,9.83,0,0,0-.19-1.34.18.18,0,0,0-.36.05,11.18,11.18,0,0,0,.09,1.29c0,.3.5.29.46,0Z"/><path class="cls-1" d="M96.06,37.92a2.67,2.67,0,0,1-4.42,1.21.08.08,0,1,0-.12.12A2.8,2.8,0,0,0,96.24,38a.09.09,0,1,0-.18,0Z"/><path class="cls-1" d="M92.28,39.82a3.38,3.38,0,0,0,3.38-1.35,3.28,3.28,0,0,0-.06-3.64c-.07-.1-.21,0-.16.1a3.28,3.28,0,0,1-3.16,4.73c-.11,0-.11.15,0,.16Z"/><path class="cls-1" d="M95,35.7a2.19,2.19,0,0,1-1.6,2.74c-1.11.27-1.95-.31-2.91-.73-.09-.05-.22,0-.15.15,1.5,2.49,5.74.57,4.85-2.22,0-.11-.23-.06-.19.06Z"/><path class="cls-1" d="M91.29,38.29a3.27,3.27,0,0,0,3.28-4.17c0-.17-.33-.15-.32,0a3.46,3.46,0,0,1-3,3.76c-.22,0-.24.37,0,.37Z"/><path class="cls-1" d="M93.41,34.38c-.4,2.33-2.6,2.59-4.53,2.14a.23.23,0,0,0-.22.39c2,1.85,4.63-.3,4.92-2.51,0-.1-.16-.12-.17,0Z"/><path class="cls-1" d="M89.25,36.67A2.68,2.68,0,0,0,91.78,34a.19.19,0,0,0-.37-.05,2.82,2.82,0,0,1-2.23,2.2c-.27,0-.21.51.07.49Z"/><path class="cls-1" d="M81,18.05c-1.38.09-3.44,1-3.21,2.71a.22.22,0,0,0,.41.11,9.81,9.81,0,0,1,1-1.57A2.71,2.71,0,0,1,81,18.25c.12,0,.13-.21,0-.2Z"/><path class="cls-1" d="M78.09,19.65a3.34,3.34,0,0,1,1.18-2.12,11.43,11.43,0,0,1,1.86-1.06c.14-.08.13-.33,0-.36a2.64,2.64,0,0,0-2.32,1.05,4,4,0,0,0-.93,2.49c0,.16.23.15.25,0Z"/><path class="cls-1" d="M79.56,16.34c-1.4.31-3.52,1.5-3.17,3.26,0,.18.27.16.36,0,.4-.52.64-1.16,1-1.7a3.24,3.24,0,0,1,1.85-1.37c.14,0,.08-.26-.07-.23Z"/><path class="cls-1" d="M77.4,18.53c.26-1.43,1.68-1.9,2.83-2.44a.29.29,0,0,0-.07-.52,1.55,1.55,0,0,0-1,.12,2.77,2.77,0,0,0-1,.72,4.27,4.27,0,0,0-.87,2.09c0,.06.09.09.1,0Z"/><path class="cls-1" d="M78.61,20.07c1,3.48,2.3,6.85,4.91,9.48a.21.21,0,0,0,.32-.25c-1.67-3.09-3.7-6-5-9.28-.05-.1-.21-.06-.18.05Z"/><path class="cls-1" d="M64.15,61a2.38,2.38,0,0,0,2.18-1.13c0-.09-.07-.19-.14-.11a2.75,2.75,0,0,1-2,1.12.06.06,0,0,0,0,.12Z"/><path class="cls-1" d="M62.61,60a3.36,3.36,0,0,0,2.64-2c0-.14-.14-.19-.21-.09a4.32,4.32,0,0,1-2.49,1.85c-.16,0-.09.27.06.24Z"/><path class="cls-1" d="M60,58.69c1.75.44,4-.76,4-2.72a.09.09,0,0,0-.18,0,3.31,3.31,0,0,1-3.69,2.42.17.17,0,0,0-.09.33Z"/><path class="cls-1" d="M59.4,57.93c.73-.5,1.43-1,2.11-1.57.09-.07,0-.2-.11-.15-.75.44-1.47.91-2.19,1.41-.19.13,0,.45.19.31Z"/><path class="cls-1" d="M58.84,56.33a9,9,0,0,0,1.92-1.06c.1-.08,0-.23-.11-.2a8.9,8.9,0,0,0-2,1c-.2.1,0,.39.18.3Z"/><path class="cls-1" d="M58.33,55.24A1.7,1.7,0,0,0,59.94,54a.12.12,0,0,0-.22-.09,2.19,2.19,0,0,1-1.43,1c-.19,0-.15.35,0,.33Z"/><path class="cls-1" d="M57.71,53.8a2,2,0,0,0,1.48-1.6.11.11,0,0,0-.22-.06,2.14,2.14,0,0,1-1.38,1.23.22.22,0,0,0,.12.43Z"/><path class="cls-1" d="M56.18,49.32a6.37,6.37,0,0,0-1.42,1.22c-.08.11.06.27.18.23a6.45,6.45,0,0,0,1.55-.93c.31-.23,0-.75-.31-.52Z"/><path class="cls-1" d="M55.2,47.85a5.63,5.63,0,0,0-1.91.74c-.11.09-.09.3.08.29a5.43,5.43,0,0,0,2-.71c.18-.08,0-.38-.14-.32Z"/><path class="cls-1" d="M54.94,46.37a2.6,2.6,0,0,0-1.41.14,1.93,1.93,0,0,0-1,1c-.07.13.08.35.24.24a4,4,0,0,1,2.15-1c.26,0,.25-.38,0-.4Z"/><path class="cls-1" d="M53.1,50.69c1.33,1.8,2.62,3.55,4.12,5.21.08.09.23,0,.16-.12a66.32,66.32,0,0,0-4-5.32c-.13-.17-.43.06-.3.23Z"/><path class="cls-1" d="M54.83,53.56a44,44,0,0,0,4,5.75c.11.11.27,0,.21-.16a43.24,43.24,0,0,0-4-5.69c-.07-.09-.23,0-.16.1Z"/><path class="cls-1" d="M54,52.27c1.64,2.22,3.16,4.75,5.21,6.61a.13.13,0,0,0,.2-.15c-1.27-2.47-3.31-4.59-5-6.75-.17-.21-.54.07-.38.29Z"/><path class="cls-1" d="M58.33,57.43c-.94-1.41-1.87-2.84-2.83-4.24-.06-.09-.2,0-.14.08.91,1.44,1.85,2.85,2.78,4.28.08.12.27,0,.19-.12Z"/><path class="cls-1" d="M53.74,51.68a79.29,79.29,0,0,0,4.1,6.87.17.17,0,0,0,.29-.18,78.17,78.17,0,0,0-4-6.93.23.23,0,0,0-.4.24Z"/><path class="cls-1" d="M53.18,52.18c1.07,1.52,2.1,3.07,3.28,4.51.08.11.25,0,.18-.14-1-1.55-2.16-3-3.27-4.48-.09-.11-.28,0-.19.11Z"/><path class="cls-1" d="M56.76,55.62A20.36,20.36,0,0,0,61,60.37c1.38,1.1,3.05,2.43,4.83,2.67a.33.33,0,0,0,.23-.56c-1.4-1.16-3.26-1.78-4.74-2.89A23.17,23.17,0,0,1,57,55.4c-.12-.17-.4.05-.28.22Z"/><path class="cls-1" d="M55.74,54.69c1.5,1.62,3.17,3,4.75,4.57A14.59,14.59,0,0,0,64,62.18c1.4.69,3.9.74,4.27-1.16a.44.44,0,0,0-.63-.49c-2.66,1.45-4.16-.11-6.21-1.7-1.86-1.44-3.62-3-5.56-4.3-.1-.07-.2.08-.12.16Z"/><path class="cls-1" d="M55.32,55c-1-1.77-1.93-3.59-3-5.3a.09.09,0,0,0-.16.1c.9,1.82,2,3.56,3,5.32.07.13.28,0,.2-.12Z"/><path class="cls-1" d="M56.05,56.4c-1.17-2.71-2.2-5.44-3.61-8-.06-.11-.26,0-.21.09,1,2.78,2.4,5.36,3.67,8,0,.1.19,0,.15-.09Z"/><path class="cls-1" d="M52.34,49.42a.05.05,0,0,0,0-.1.05.05,0,1,0,0,.1Z"/><path class="cls-1" d="M57.37,56.85c-1.53-2.66-3-5.33-4.62-8,0-.07-.15,0-.11.07,1.5,2.67,3.06,5.32,4.61,8,0,.08.17,0,.12-.07Z"/><path class="cls-1" d="M52.34,49.16c1.46,3.31,3.17,6.53,6,8.84.11.09.32,0,.22-.16-2.14-2.86-4.45-5.58-6-8.84-.08-.18-.35,0-.27.16Z"/><path class="cls-1" d="M51.4,47.33A32.14,32.14,0,0,0,57.08,57.4c.1.1.28,0,.2-.15a48.8,48.8,0,0,1-5.72-10c0-.1-.2-.06-.16,0Z"/><path class="cls-1" d="M63.2,51.56c.94,1.06,1.7,2.26,2.65,3.33S67.75,57,68.71,58c.59.64,1.54-.46.76-1l-.37-.25c-.23-.17-.47.06-.5.29l0,.33,1-.27c-1-1-2-2-3-3s-2.17-1.83-3.18-2.81c-.16-.16-.39.08-.25.25Z"/><path class="cls-1" d="M66.49,56.62a2.86,2.86,0,0,0,.73-.82.11.11,0,0,0-.15-.15,3,3,0,0,0-.79.76.15.15,0,1,0,.21.21Z"/><path class="cls-1" d="M66.27,56.47a6.72,6.72,0,0,0,1.4-.81c.14-.12,0-.33-.17-.29a6.55,6.55,0,0,0-1.47.68c-.29.15,0,.57.24.42Z"/><path class="cls-1" d="M65.88,55.86a9.19,9.19,0,0,0,1.53-1.59.25.25,0,0,0-.34-.33,9.09,9.09,0,0,0-1.55,1.55c-.22.25.12.6.36.37Z"/><path class="cls-1" d="M64.85,54.19A4.28,4.28,0,0,0,66.42,53a.16.16,0,0,0-.18-.24,4.39,4.39,0,0,0-1.7,1.06c-.22.19.07.53.31.4Z"/><path class="cls-1" d="M63.78,53.15a6.46,6.46,0,0,0,1.57-1.47.16.16,0,0,0-.18-.23,7.06,7.06,0,0,0-1.79,1.3c-.27.25.13.63.4.4Z"/><path class="cls-1" d="M62.83,51.74a9.76,9.76,0,0,0,1.4-1c.13-.12,0-.37-.17-.3a10,10,0,0,0-1.52.8.28.28,0,0,0,.29.48Z"/><path class="cls-1" d="M62.22,48.82a18.49,18.49,0,0,0,5.32,6.84c.13.09.24-.09.15-.2a55.37,55.37,0,0,1-5.19-6.81.16.16,0,0,0-.28.17Z"/><path class="cls-1" d="M66.9,59.66a2.24,2.24,0,0,0-.54.21c-.13.09-.26.2-.38.3a3.55,3.55,0,0,0-.86.87.27.27,0,0,0,.3.39,3.26,3.26,0,0,0,1-.57l.45-.36c.19-.17.19-.29.34-.48a.23.23,0,0,0-.28-.36Z"/><path class="cls-1" d="M63.59,60.94a8.09,8.09,0,0,0,2.68-1.28c.11-.11,0-.35-.14-.33a8.53,8.53,0,0,0-2.72,1.3c-.21.11,0,.41.18.31Z"/><path class="cls-1" d="M62.4,60.21a3.29,3.29,0,0,0,2.06-.45c.49-.31,1.18-.83,1.13-1.47a.17.17,0,0,0-.25-.14c-.47.24-.74.78-1.19,1.07a3.27,3.27,0,0,1-1.75.58.21.21,0,0,0,0,.41Z"/><path class="cls-1" d="M61.72,60a12.33,12.33,0,0,0,3.35-1.49.14.14,0,0,0-.1-.24,12.29,12.29,0,0,0-3.41,1.34c-.21.1-.06.47.16.39Z"/><path class="cls-1" d="M60.83,59.14a4.91,4.91,0,0,0,2.24-.67c.58-.34,1.32-.89,1.43-1.59a.15.15,0,0,0-.22-.17c-.53.31-.89.86-1.41,1.2a4.54,4.54,0,0,1-2,.71c-.33,0-.33.54,0,.52Z"/><path class="cls-1" d="M60.28,58.57a13.86,13.86,0,0,0,2-.57c.13,0,.14-.28,0-.27a13.85,13.85,0,0,0-2.11.43.21.21,0,0,0,.11.41Z"/><path class="cls-1" d="M59.56,58.52a23.33,23.33,0,0,0,2.67-1.83c.12-.1,0-.25-.15-.19a22.28,22.28,0,0,0-2.75,1.62c-.25.16,0,.55.23.4Z"/><path class="cls-1" d="M59.58,58A4.86,4.86,0,0,0,61,57c.12-.17-.08-.35-.25-.32a4.64,4.64,0,0,0-1.51.82c-.33.2,0,.72.3.52Z"/><path class="cls-1" d="M63.06,59a18.6,18.6,0,0,0,3.43,1.64c.19,0,.27-.2.13-.31a18.74,18.74,0,0,0-3.35-1.68c-.23-.11-.44.23-.21.35Z"/><path class="cls-1" d="M65.42,60a.05.05,0,0,0,0-.1.05.05,0,1,0,0,.1Z"/><path class="cls-1" d="M65.38,59.69c.62.56,1.21,1.18,1.88,1.69.08.06.17-.07.1-.14-.56-.6-1.23-1.13-1.84-1.68-.09-.08-.23,0-.14.13Z"/><path class="cls-1" d="M66.82,60.31c-.76-.9-1.52-1.8-2.31-2.68-.06-.07-.18,0-.13.1.73,1,1.48,1.86,2.23,2.78.12.14.32-.06.21-.2Z"/><path class="cls-1" d="M62.74,55.94a24,24,0,0,0,5.3,5,.09.09,0,0,0,.13-.13,24.05,24.05,0,0,0-5.23-5.09c-.17-.12-.31.12-.2.25Z"/><path class="cls-1" d="M71.45,56.35a76.89,76.89,0,0,1-5.65-5.91c-.14-.15-.35,0-.27.2,1.19,2.53,3.48,4.42,5.74,6,.14.09.31-.13.18-.24Z"/><path class="cls-1" d="M65.06,50.31A55,55,0,0,0,69.43,55a.19.19,0,0,0,.27-.28,54.83,54.83,0,0,0-4.48-4.54.11.11,0,0,0-.16.16Z"/><path class="cls-1" d="M70.05,54a11,11,0,0,0,1.83,2.08c.18.12.39-.12.29-.29a11,11,0,0,0-1.89-2c-.15-.15-.36.07-.23.23Z"/><path class="cls-1" d="M70.07,57.07a8.45,8.45,0,0,1-1.46-.6c-.43-.25-.79-.57-1.2-.85a.17.17,0,0,0-.24.19,2.72,2.72,0,0,0,2.9,1.57c.17,0,.13-.27,0-.31Z"/><path class="cls-1" d="M68.32,56.84a39.7,39.7,0,0,0-3.25-4.27.17.17,0,0,0-.27.21A38.4,38.4,0,0,0,68,57.12c.17.21.52-.06.37-.28Z"/><path class="cls-1" d="M64.94,52.7c1.13,1.4,2.26,2.79,3.42,4.16l.18-.18c-1.26-1.49-2.42-3.06-3.82-4.43-.14-.14-.41,0-.28.22C65.63,54,67,55.4,68.36,56.86c.11.12.28-.06.18-.18-1.13-1.39-2.3-2.75-3.46-4.11-.08-.09-.21,0-.14.13Z"/><path class="cls-1" d="M73.69,53.5a10.19,10.19,0,0,0,2.46.77.13.13,0,0,0,.07-.24,9.66,9.66,0,0,0-2.46-.78.13.13,0,0,0-.07.25Z"/><path class="cls-1" d="M73.31,52a10.59,10.59,0,0,0,2.49.84c.15,0,.18-.2.07-.27a10.61,10.61,0,0,0-2.45-1c-.25-.08-.35.3-.11.4Z"/><path class="cls-1" d="M77.33,48.41a8.4,8.4,0,0,0,1.45.7.14.14,0,0,0,.11-.25,8.54,8.54,0,0,0-1.5-.6c-.08,0-.15.11-.06.15Z"/><path class="cls-1" d="M78,47.82c.58.27,1.21.77,1.88.68a.21.21,0,0,0,.15-.35c-.47-.5-1.25-.52-1.88-.69-.21-.06-.36.26-.15.36Z"/><path class="cls-1" d="M79.63,47.11c.54.23,1.08.46,1.63.67.09,0,.15-.12.06-.15-.54-.24-1.08-.45-1.63-.65-.08,0-.13.1-.06.13Z"/><path class="cls-1" d="M81.49,46.31c-2.76-3.63-5.39-7.39-8.44-10.78-.08-.08-.22,0-.15.11,2.57,3.78,5.6,7.22,8.47,10.76,0,.06.17,0,.12-.09Z"/><path class="cls-1" d="M74.46,35.81A29.24,29.24,0,0,0,84.8,45.67a.13.13,0,0,0,.14-.23,39,39,0,0,1-10.32-9.72c-.07-.1-.22,0-.16.09Z"/><path class="cls-1" d="M79.14,44.73c-2-2.62-4-5.29-6.06-7.85-.06-.07-.19,0-.13.1,2,2.66,4,5.23,6.09,7.83,0,.07.15,0,.1-.08Z"/><path class="cls-1" d="M72.82,36.78c2.87,4.11,6.54,8.85,11.21,11,.12.05.25-.09.15-.19-1.78-1.73-3.89-3.11-5.71-4.83A45.23,45.23,0,0,1,73,36.67c-.08-.1-.26,0-.18.11Z"/><path class="cls-1" d="M80.06,47c-1.88-2.25-3.62-4.7-5.7-6.78-.2-.2-.58.07-.4.31,1.78,2.36,4,4.42,6,6.61.08.09.2,0,.13-.14Z"/><path class="cls-1" d="M73.43,40.33a.05.05,0,0,0,0-.1.05.05,0,0,0,0,.1Z"/><path class="cls-1" d="M80.79,46.7c-.65.39-1.29.78-1.93,1.19a.11.11,0,0,0,.11.19c.66-.38,1.31-.75,2-1.14.15-.09,0-.33-.14-.24Z"/><path class="cls-1" d="M78.25,48.49l1.22-.74c.08,0,0-.15-.06-.11l-1.25.7a.09.09,0,0,0,.09.15Z"/><path class="cls-1" d="M81.31,45.82a36.32,36.32,0,0,0-3.5,2.09.18.18,0,0,0,.18.3,36.47,36.47,0,0,0,3.58-1.94.26.26,0,0,0-.26-.45Z"/><path class="cls-1" d="M78.86,43.4c-1.31,1-2.69,2-3.91,3.13a.17.17,0,0,0,.21.27c1.4-.9,2.69-2,4-3,.21-.17-.07-.54-.29-.38Z"/><path class="cls-1" d="M73.41,40.56a.12.12,0,0,0,0-.24.12.12,0,0,0,0,.24Z"/><path class="cls-1" d="M75.7,39.66c1.38,1.59,2.74,3.19,4.15,4.76a22.11,22.11,0,0,0,4,4c.15.1.31-.09.24-.23a21.85,21.85,0,0,0-3.64-4.34c-1.43-1.54-2.91-3-4.37-4.54-.24-.24-.58.12-.37.37Z"/><path class="cls-1" d="M76.56,40.47c1.11,1.21,2.19,2.45,3.31,3.65A16.54,16.54,0,0,0,83,47.28a.23.23,0,0,0,.31-.31,16.78,16.78,0,0,0-3-3.36c-1.14-1.18-2.3-2.34-3.44-3.52-.24-.25-.61.12-.38.38Z"/><path class="cls-1" d="M78,41.74a55.38,55.38,0,0,0,5.31,5.82c.25.21.61-.14.37-.37a32.56,32.56,0,0,1-5.21-6.55L78,40.9a54.19,54.19,0,0,0,5.27,6.34l.49-.49a49.71,49.71,0,0,1-4.47-4.93c-.2-.25-.64.09-.45.35a43.73,43.73,0,0,0,4,5c.2.21.6-.08.42-.32l-.74-1c-.2-.27-.67,0-.46.27a4.51,4.51,0,0,0,2.4,1.7v-.6c-.46.17-.71.27-1.15.46l.36.61,1-.5a.38.38,0,0,0-.09-.68l-.93-.23v.74l.68-.28a.41.41,0,0,0,.24-.59,1.28,1.28,0,0,0-1.69-.61.41.41,0,0,0-.28.49,1.37,1.37,0,0,0,1.69,1c.36-.06.34-.54.1-.71l-2-1.44c-.39-.28-.75.36-.37.64s.67.49,1,.73l.27-.64a5.06,5.06,0,0,0-3-.2c-.26.07-.21.5.06.48a4.92,4.92,0,0,1,2.65.36c.33.14.75-.28.42-.55l-1.06-.82-.37.64,2,1.47.09-.71-.7-.45-.28.49.78.24.15-.54-.68.3a.39.39,0,0,0,.09.71l.94.21-.09-.68-1,.53c-.42.22,0,.8.36.61a8.86,8.86,0,0,0,1-.5.32.32,0,0,0-.08-.57,3.14,3.14,0,0,1-2.1-1.37l-.46.27c.24.33.49.65.74,1l.46-.26a44.68,44.68,0,0,0-4-5l-.4.41a51,51,0,0,1,4.33,4.94c.26.34.85,0,.59-.35a54.29,54.29,0,0,0-5.41-6.23.25.25,0,0,0-.36.36,32.24,32.24,0,0,1,5.2,6.55l.45-.26a56,56,0,0,0-5.29-5.93c-.27-.29-.69.14-.43.43Z"/><path class="cls-1" d="M79.57,45.64c-1.46,1.09-2.95,2.15-4.33,3.33-.11.09,0,.27.15.19,1.49-1,2.91-2.14,4.34-3.24.17-.12,0-.41-.16-.28Z"/><path class="cls-1" d="M62.67,40a101.7,101.7,0,0,0,5.56,9,.22.22,0,0,0,.38-.23,102.08,102.08,0,0,0-5.56-9c-.15-.24-.53,0-.38.22Z"/><path class="cls-1" d="M60.72,34.09c1.07,5.59,4.54,12.72,8.61,16.68a.4.4,0,0,0,.63-.48c-1.35-2.78-3.3-5.28-4.78-8s-2.6-5.64-4.1-8.34c-.11-.21-.4-.06-.36.15Z"/><path class="cls-1" d="M60.46,35.53a73.83,73.83,0,0,0,5.13,9.3c1.67,2.62,3.4,5.61,5.8,7.61a.43.43,0,0,0,.67-.52c-1.37-3-3.75-5.59-5.58-8.29S62.86,38,61,35.2a.33.33,0,0,0-.57.33Z"/><path class="cls-1" d="M62.38,38.53A94.05,94.05,0,0,0,71,50.73c.16.18.43,0,.33-.25a94.36,94.36,0,0,0-8.5-12.23c-.21-.28-.68,0-.48.28Z"/><path class="cls-1" d="M69.37,48.27a8.11,8.11,0,0,0,.74-1.71c0-.17-.2-.33-.32-.18a7.89,7.89,0,0,0-1,1.58c-.17.35.34.66.53.31Z"/><path class="cls-1" d="M68.37,46.26a6.71,6.71,0,0,0,1.41-1,.2.2,0,0,0-.2-.33,6.9,6.9,0,0,0-1.52.8c-.34.21,0,.75.31.54Z"/><path class="cls-1" d="M67.13,44.74a11.22,11.22,0,0,0,1.41-1c.09-.08,0-.26-.12-.22a11.36,11.36,0,0,0-1.49.83c-.21.13,0,.47.2.34Z"/><path class="cls-1" d="M66,44.33a8,8,0,0,0,1.61-1.47c.16-.24-.14-.45-.35-.35a7.78,7.78,0,0,0-1.75,1.33c-.35.29.15.77.49.49Z"/><path class="cls-1" d="M65,42.61a7,7,0,0,0,1.44-1,.27.27,0,0,0-.26-.44,7.49,7.49,0,0,0-1.51.85.33.33,0,0,0,.33.56Z"/><path class="cls-1" d="M64.56,40.73a5.5,5.5,0,0,0,.34-.5.18.18,0,0,0-.29-.21,4.17,4.17,0,0,0-.41.43c-.22.24.16.54.36.28Z"/><path class="cls-1" d="M62,37.08c.22-.1.45-.19.67-.31a.2.2,0,0,0-.16-.37,4.41,4.41,0,0,0-.7.23.25.25,0,1,0,.19.45Z"/><path class="cls-1" d="M60.16,35.06a12.47,12.47,0,0,0,2.71-1.64.26.26,0,0,0-.25-.42,12.29,12.29,0,0,0-2.73,1.6.27.27,0,0,0,.27.46Z"/><path class="cls-1" d="M59.8,34.09a48.69,48.69,0,0,0,5.72-3.93c.25-.2-.07-.58-.33-.43a48.5,48.5,0,0,0-5.72,3.8c-.33.25,0,.79.33.56Z"/><path class="cls-1" d="M86.57,39.47a56.78,56.78,0,0,0-4.13-4.08.1.1,0,0,0-.14.15,54.71,54.71,0,0,0,4.13,4.07.1.1,0,0,0,.14-.14Z"/><path class="cls-1" d="M81.29,34.61a30.36,30.36,0,0,0,6.79,6.88c.53.4,1.24-.51.71-.92-4.87-3.84-8-8.27-11.23-13.48a.38.38,0,0,0-.69.29c1.52,5.79,6.19,11,11.21,14.11l.59-1a29.93,29.93,0,0,1-7-6.18c-.2-.23-.6.08-.42.32Z"/><path class="cls-1" d="M86.87,36.58c-.73-.48-2-.26-2.05.76,0,.23.29.33.45.18.41-.4.86-.85,1.5-.7a.13.13,0,0,0,.1-.24Z"/><path class="cls-1" d="M84.2,34c-.64.07-1.29.55-1.09,1.25a.19.19,0,0,0,.34,0c.21-.34.4-.68.82-.78s.23-.55-.07-.52Z"/><path class="cls-1" d="M104.65,85.15c3.46,4.38,6.91,8.75,10.44,13.07.07.09.22,0,.15-.11-3.38-4.46-6.83-8.86-10.28-13.26-.17-.22-.48.09-.31.3Z"/><path class="cls-1" d="M102.44,80.31c4.74,7.56,9.53,15.06,14.6,22.4a.14.14,0,0,0,.24-.14C112.73,94.91,107.91,87.42,103,80c-.23-.36-.82,0-.58.35Z"/><path class="cls-1" d="M99.24,80.85A2.37,2.37,0,0,0,102,80c.08-.16-.06-.41-.26-.34a3.46,3.46,0,0,1-2.24.43.39.39,0,0,0-.21.75Z"/><path class="cls-1" d="M89.28,68.89a4.48,4.48,0,0,0,3.39-.16,3.44,3.44,0,0,0,2.22-2.5.3.3,0,0,0-.5-.29c-1.52,1.25-2.87,2.53-5,2.31-.37,0-.42.54-.08.64Z"/><path class="cls-1" d="M91.68,68.47a2.3,2.3,0,0,0,2.74-.86c.1-.22-.06-.51-.32-.43a5.06,5.06,0,0,1-2.32.5c-.46-.05-.51.66-.1.79Z"/><path class="cls-1" d="M92.28,69.68c1-.21,2.36-.84,2.61-1.94a.23.23,0,0,0-.34-.26c-.41.24-.72.59-1.12.86a3.9,3.9,0,0,1-1.36.57c-.51.1-.29.87.21.77Z"/><path class="cls-1" d="M93.17,69.66a5.11,5.11,0,0,0,1.37-.86c.16-.15,0-.36-.19-.33a5.69,5.69,0,0,0-1.52.61c-.38.19,0,.77.34.58Z"/><path class="cls-1" d="M93.55,70.05a4.64,4.64,0,0,0,.89-.37.22.22,0,0,0-.11-.41,4.34,4.34,0,0,0-.94.18c-.39.1-.22.73.16.6Z"/><path class="cls-1" d="M93.74,70.8a3.64,3.64,0,0,0,1.43-.27c.16-.08.09-.29,0-.34A3.44,3.44,0,0,0,93.74,70c-.5,0-.5.8,0,.78Z"/><path class="cls-1" d="M94.53,71.17a3.34,3.34,0,0,0,.76.3.23.23,0,0,0,.22-.38,3.59,3.59,0,0,0-.61-.56c-.38-.28-.81.42-.37.64Z"/><path class="cls-1" d="M94.77,71.13c.28.65.6,1.31.94,1.94.09.18.4.05.34-.15-.23-.67-.48-1.36-.76-2-.13-.29-.64-.08-.52.22Z"/><path class="cls-1" d="M96.57,74.27a.05.05,0,1,0,0-.1.05.05,0,0,0,0,.1Z"/><path class="cls-1" d="M90,65.29a11,11,0,0,0,1.5-2.12.21.21,0,0,0-.33-.26A11.29,11.29,0,0,0,89.63,65c-.13.22.2.48.36.28Z"/><path class="cls-1" d="M81.69,58.14c2,.18,4.67-.86,5.27-3a.41.41,0,0,0-.69-.4,14.35,14.35,0,0,1-2.07,1.82,7.85,7.85,0,0,1-2.6,1c-.38.06-.25.6.09.63Z"/><path class="cls-1" d="M83.82,57.74A7.82,7.82,0,0,0,86.25,59c.18,0,.35-.19.19-.33A7.86,7.86,0,0,0,84,57.43c-.19-.08-.29.21-.13.31Z"/><path class="cls-1" d="M85.09,58a3.3,3.3,0,0,1,.89.64,9.46,9.46,0,0,1,.59.91.19.19,0,0,0,.35,0,1.76,1.76,0,0,0-1.72-1.9.21.21,0,0,0-.11.39Z"/><path class="cls-1" d="M85.47,56.89a9.7,9.7,0,0,0,1.26,1.78c.12.14.3,0,.23-.18a9.41,9.41,0,0,0-1.09-1.83.23.23,0,0,0-.4.23Z"/><path class="cls-1" d="M86.45,57.1a4.84,4.84,0,0,0,.91,1.65.15.15,0,0,0,.25-.14A4.73,4.73,0,0,0,86.75,57c-.1-.13-.36-.06-.3.12Z"/><path class="cls-1" d="M87,57.26c0-.95,0-1.9-.07-2.85a.08.08,0,1,0-.15,0c0,1,0,1.9.07,2.85a.08.08,0,1,0,.15,0Z"/><path class="cls-1" d="M86.81,55.87a2.85,2.85,0,0,0,.85,3.74c.1.06.19-.07.12-.16A3.23,3.23,0,0,1,87,56c0-.11-.11-.21-.16-.1Z"/><path class="cls-1" d="M87,58.5a3.57,3.57,0,0,0-.26,4.58c.12.15.32,0,.29-.17a8.33,8.33,0,0,1,.3-4.23c.06-.18-.19-.31-.33-.18Z"/><path class="cls-1" d="M86.92,61.42a7.61,7.61,0,0,1-.39-2.21h-.45c-.16,2,1.53,4.18,2.93,5.37.13.12.38,0,.26-.2a27.71,27.71,0,0,1-1.54-2.57A27.68,27.68,0,0,0,86.5,59.1a.23.23,0,0,0-.39.23,7.78,7.78,0,0,1,.63,2.14.09.09,0,0,0,.18,0Z"/><path class="cls-1" d="M87.94,62.86c-.71-1.06-1.42-2.11-2.07-3.21l-.31.18a22,22,0,0,0,4.17,4.45c.16.13.46,0,.32-.24a22.41,22.41,0,0,0-4.24-4.46c-.18-.14-.34.14-.22.29.78,1,1.51,2,2.23,3.06.05.07.17,0,.12-.07Z"/><path class="cls-1" d="M86.35,59.94a.06.06,0,0,0,0-.11.06.06,0,0,0,0,.11Z"/><path class="cls-1" d="M80.29,53.68a3.21,3.21,0,0,0,3.79-.18,3,3,0,0,0,.9-3.4c-.12-.28-.51-.11-.53.15a3.3,3.3,0,0,1-1,2.47,2.83,2.83,0,0,1-2.91.33c-.37-.15-.58.43-.27.63Z"/><path class="cls-1" d="M83.71,51.32a7.91,7.91,0,0,1-4.83,3.11l.26,1A8.92,8.92,0,0,0,83,53.5c1-.73,2.31-1.79,2.53-3a.38.38,0,0,0-.55-.43c-1,.59-1.75,1.78-2.7,2.53a24.46,24.46,0,0,1-3.47,1.92c-.48.26-.15,1.09.38.9a9.21,9.21,0,0,0,5-3.83c.16-.25-.23-.46-.4-.23Z"/><path class="cls-1" d="M81.89,55.1c.24.38.48.76.73,1.14s.35.56.71.65a.22.22,0,0,0,.27-.2c.05-.37-.17-.62-.37-.92l-.74-1c-.26-.36-.85,0-.6.35Z"/><path class="cls-1" d="M82.6,54.24a12.19,12.19,0,0,0,.57,1.21c0,.08.19,0,.16-.06-.15-.43-.36-.84-.55-1.26,0-.12-.24,0-.18.11Z"/><path class="cls-1" d="M83,54.64a4.31,4.31,0,0,0,1.13.62.25.25,0,0,0,.19-.45,4.15,4.15,0,0,1-.95-1.38l-.16.09a4.8,4.8,0,0,0,.83,1.07.14.14,0,0,0,.21-.17,4.53,4.53,0,0,0-.9-1,.09.09,0,0,0-.14.11A4.13,4.13,0,0,1,84,55l.42-.17a4.11,4.11,0,0,0-1.09-.69.28.28,0,0,0-.28.48Z"/><path class="cls-1" d="M83.56,54.2l.52-.12c.14,0,.08-.26-.07-.23L83.5,54c-.14,0-.08.26.06.22Z"/><path class="cls-1" d="M83.5,54.48a.05.05,0,1,0,0-.1.05.05,0,0,0,0,.1Z"/><path class="cls-1" d="M81,54.11a3.37,3.37,0,0,0,2.52-2.89.21.21,0,0,0-.39-.1,4.33,4.33,0,0,1-2.27,2.48c-.31.12-.19.61.14.51Z"/><path class="cls-1" d="M81.44,49.6a.05.05,0,1,0,0-.1.05.05,0,0,0,0,.1Z"/><path class="cls-1" d="M80.17,22.46a2.84,2.84,0,0,1,.7-2c.08-.1,0-.28-.15-.19a2.41,2.41,0,0,0-1,2.21c0,.29.47.29.45,0Z"/><path class="cls-1" d="M80.27,24.92a12.41,12.41,0,0,0,2.24-3.12.17.17,0,0,0-.25-.19,12.5,12.5,0,0,0-2.38,3c-.17.23.21.53.39.3Z"/><path class="cls-1" d="M81.69,26.05a3,3,0,0,1,1.09-2.57c.12-.11,0-.28-.16-.21a2.63,2.63,0,0,0-1.39,2.91c0,.31.51.17.46-.13Z"/><path class="cls-1" d="M82,27.55a19.16,19.16,0,0,0,1.08-3.26c0-.24-.28-.41-.41-.17a20.8,20.8,0,0,0-1.22,3.28c-.12.35.43.49.55.15Z"/><path class="cls-1" d="M88.15,23.47l.62.55c.08.07.2-.05.12-.12l-.61-.57c-.09-.08-.22.06-.13.14Z"/><path class="cls-1" d="M89.69,24.34l2.48,2.53c.1.1.26-.06.16-.16l-2.39-2.62a.18.18,0,0,0-.25.25Z"/><path class="cls-1" d="M76.37,42.62c1.62,1.72,3.12,3.58,4.82,5.23a.49.49,0,0,0,.69-.7c-1.64-1.7-3.49-3.21-5.21-4.83a.21.21,0,0,0-.3.3Z"/><path class="cls-1" d="M80.65,45.65a7.88,7.88,0,0,0,.91,1.08c.22.19.59,0,.42-.33A7.8,7.8,0,0,0,81,45.26c-.23-.27-.6.12-.39.39Z"/><path class="cls-1" d="M77.29,49.24a14.12,14.12,0,0,0,2.42-1.15.19.19,0,0,0-.15-.34A13.29,13.29,0,0,0,77,48.81c-.29.13,0,.56.26.43Z"/><path class="cls-1" d="M88.71,41.26a25,25,0,0,0-2.36-2.78,16.33,16.33,0,0,0-2.59-2.6c-.21-.15-.48.14-.35.35a15.8,15.8,0,0,0,2.33,2.58,28.5,28.5,0,0,0,2.77,2.61c.1.08.3,0,.2-.16Z"/><path class="cls-1" d="M75.68,38.4c.36-.25.74-.48,1.09-.76.09-.08,0-.22-.13-.16a12.63,12.63,0,0,0-1.07.73.11.11,0,0,0,.11.19Z"/><path class="cls-1" d="M73.22,40.06A29.27,29.27,0,0,0,77,37.75c.16-.13,0-.34-.2-.26a28.72,28.72,0,0,0-3.71,2.36.12.12,0,0,0,.12.21Z"/><path class="cls-1" d="M72.85,38.7c.61-.31,1.23-.59,1.83-.9a5.34,5.34,0,0,0,1.6-.9c.13-.14,0-.31-.17-.29a5.34,5.34,0,0,0-1.64.81l-1.79,1c-.18.1,0,.37.17.28Z"/><path class="cls-1" d="M73,37.5l1.42-.76A3.61,3.61,0,0,0,75.68,36c.08-.11,0-.34-.13-.31a3.41,3.41,0,0,0-1.27.58l-1.47.86a.23.23,0,0,0,.23.4Z"/><path class="cls-1" d="M72.9,36.66a12.38,12.38,0,0,0,1.6-1.38c.1-.12,0-.31-.17-.22a12,12,0,0,0-1.68,1.35c-.18.15.07.39.25.25Z"/><path class="cls-1" d="M73.06,35.3a.08.08,0,1,0,0-.16.08.08,0,1,0,0,.16Z"/><path class="cls-1" d="M72.92,34.09l.29.53a.09.09,0,0,0,.15-.09L73.08,34c0-.11-.22,0-.16.09Z"/><path class="cls-1" d="M76.11,46c.32.35.59.71.94,1s.71.61,1.07.91c.53.44,1.29-.33.76-.75-.38-.31-.75-.61-1.14-.9s-.84-.51-1.27-.77a.3.3,0,0,0-.36.47Z"/><path class="cls-1" d="M76.48,44.83c.9.84,1.75,1.74,2.68,2.54a.5.5,0,0,0,.6.08.77.77,0,0,0,.18-.18.5.5,0,0,0-.08-.6c-.92-.83-1.92-1.56-2.87-2.36-.35-.29-.86.19-.51.52Z"/><path class="cls-1" d="M77,50.58a19.77,19.77,0,0,0,2.17-2.41c.09-.13-.09-.33-.23-.23a19.82,19.82,0,0,0-2.27,2.31c-.2.22.12.55.33.33Z"/><path class="cls-1" d="M83.87,47.91l.32-.19a.11.11,0,0,0-.09-.2l-.36.08c-.24,0-.09.44.13.31Z"/></svg>