<svg id="Layer_4" data-name="Layer 4" xmlns="http://www.w3.org/2000/svg" viewBox="0 0 145 145"><defs><style>.cls-1{fill:#5c5463;}</style></defs><title>confidence5</title><path class="cls-1" d="M38.09,56.13C30.15,65.06,26.45,80,32.18,91.07a.4.4,0,0,0,.73-.3c-3.26-12.46-2.77-23.91,5.26-34.58,0,0,0-.11-.08-.06Z"/><path class="cls-1" d="M33.31,96a22.58,22.58,0,0,0,4.19.17c.14,0,.19-.23,0-.26a22.84,22.84,0,0,0-4.22-.24.17.17,0,0,0,0,.33Z"/><path class="cls-1" d="M32.71,95.11A19.17,19.17,0,0,0,36.79,95a.14.14,0,0,0,0-.27,19.17,19.17,0,0,0-4.08-.07.21.21,0,0,0,0,.42Z"/><path class="cls-1" d="M32.11,94.55A16.12,16.12,0,0,0,36,94.43a.16.16,0,0,0,0-.31,16.21,16.21,0,0,0-3.93.16.14.14,0,0,0,0,.27Z"/><path class="cls-1" d="M30.77,92.58a33.4,33.4,0,0,0,5.38.21c.18,0,.26-.3.05-.34a32.82,32.82,0,0,0-5.43-.36c-.32,0-.32.47,0,.49Z"/><path class="cls-1" d="M30.61,91.45a23.16,23.16,0,0,0,5.13,0,.15.15,0,0,0,0-.3,23.12,23.12,0,0,0-5.13-.27c-.35,0-.34.52,0,.54Z"/><path class="cls-1" d="M30.16,89.3a20.57,20.57,0,0,0,4.7.15c.2,0,.17-.33,0-.38a21.1,21.1,0,0,0-4.7-.44c-.43,0-.43.64,0,.67Z"/><path class="cls-1" d="M31.21,87.72a20.3,20.3,0,0,0,3.89.19c.2,0,.28-.31,0-.37a20.75,20.75,0,0,0-3.94-.43c-.39,0-.39.58,0,.61Z"/><path class="cls-1" d="M30.67,85.35a21.74,21.74,0,0,0,4,.67c.3,0,.31-.39.06-.49a21.08,21.08,0,0,0-3.86-.84c-.43-.08-.62.58-.19.66Z"/><path class="cls-1" d="M30.66,83.45a16.2,16.2,0,0,0,3.83.62c.18,0,.28-.26.1-.35a15.94,15.94,0,0,0-3.74-1c-.44-.09-.64.59-.19.69Z"/><path class="cls-1" d="M31.26,81.8a17.35,17.35,0,0,0,2.94.49c.28,0,.29-.36.06-.45a16.74,16.74,0,0,0-2.81-.7c-.43-.09-.62.57-.19.66Z"/><path class="cls-1" d="M30.67,80.28a12.27,12.27,0,0,0,2.93.47c.19,0,.29-.28.1-.37a13,13,0,0,0-2.85-.76c-.43-.09-.61.57-.18.66Z"/><path class="cls-1" d="M31.28,78.45a18.43,18.43,0,0,0,2.93.63.19.19,0,0,0,.1-.36,17.87,17.87,0,0,0-2.86-.89.32.32,0,0,0-.17.62Z"/><path class="cls-1" d="M31.27,76.84a18.15,18.15,0,0,0,2.64.53c.33,0,.34-.44.07-.55a19.49,19.49,0,0,0-2.52-.68c-.45-.11-.65.6-.19.7Z"/><path class="cls-1" d="M29.87,74.21,32,75.28a5.39,5.39,0,0,0,1.74.72c.17,0,.24-.22.14-.32a5.83,5.83,0,0,0-1.72-1l-2-.95c-.3-.15-.56.29-.26.45Z"/><path class="cls-1" d="M31.43,73.64a12.57,12.57,0,0,0,2.26.84.24.24,0,0,0,.19-.44,12.24,12.24,0,0,0-2.29-1c-.36-.15-.52.44-.16.58Z"/><path class="cls-1" d="M31.43,72.16a11.41,11.41,0,0,0,2.32.35.19.19,0,0,0,0-.37,11.93,11.93,0,0,0-2.21-.56c-.38-.08-.55.51-.16.58Z"/><path class="cls-1" d="M33.46,70.86a.05.05,0,0,0,0-.1.05.05,0,1,0,0,.1Z"/><path class="cls-1" d="M32,72.66a46.39,46.39,0,0,0,2-5,.15.15,0,0,0-.27-.11,45.5,45.5,0,0,0-2.18,4.89.25.25,0,1,0,.46.19Z"/><path class="cls-1" d="M34.56,65.66c-.42,2.14-1,4.3-1.2,6.47,0,.17.24.2.29,0,.55-2.1.83-4.29,1.22-6.43,0-.2-.27-.29-.31-.08Z"/><path class="cls-1" d="M34,67.78c2.7-7,7.43-12.1,13.5-16.36a.17.17,0,0,0-.17-.29C40.86,54.6,36.18,60.9,33.68,67.69c-.07.2.25.29.32.09Z"/><path class="cls-1" d="M33.53,72.39a38.43,38.43,0,0,0,0,12.84.19.19,0,0,0,.36,0A55.26,55.26,0,0,1,34,72.52c.05-.31-.43-.45-.48-.13Z"/><path class="cls-1" d="M34.57,97.68a20.79,20.79,0,0,0,2.84-.48.22.22,0,0,0-.06-.42,20.61,20.61,0,0,0-2.91.42c-.31,0-.18.53.13.48Z"/><path class="cls-1" d="M36,99.74a18.39,18.39,0,0,0,3.47-.34.13.13,0,0,0,0-.25,18.93,18.93,0,0,0-3.44.27c-.2,0-.21.33,0,.32Z"/><path class="cls-1" d="M37.65,101.54a22.61,22.61,0,0,0,2.73-.33.11.11,0,0,0,0-.22,20.49,20.49,0,0,0-2.7.23c-.2,0-.21.34,0,.32Z"/><path class="cls-1" d="M39.31,103.65a31.24,31.24,0,0,0,4.06-1c.09,0,.09-.22,0-.2a30.38,30.38,0,0,0-4.06,1.08c-.07,0,0,.13,0,.12Z"/><path class="cls-1" d="M41.9,105.61a26.08,26.08,0,0,0,3.59-.77c.16-.06.15-.36-.05-.34a26.67,26.67,0,0,0-3.62.82.15.15,0,0,0,.08.29Z"/><path class="cls-1" d="M44.9,107.42a11.35,11.35,0,0,0,2.11-.7.14.14,0,0,0-.07-.25,12.08,12.08,0,0,0-2.14.58.19.19,0,0,0,.1.37Z"/><path class="cls-1" d="M90.09,103.88c-.08,1.55-.2,3.1-.23,4.65,0,.1.15.1.16,0,.12-1.55.15-3.1.21-4.65,0-.09-.13-.09-.14,0Z"/><path class="cls-1" d="M90.77,103.12a28.73,28.73,0,0,0,.19,3.94c0,.19.32.14.33,0a30.2,30.2,0,0,0-.41-3.89c0-.07-.12-.07-.11,0Z"/><path class="cls-1" d="M91.61,102.38a18.63,18.63,0,0,0,.13,2,4.94,4.94,0,0,0,.29,1.53.13.13,0,0,0,.24,0,4.8,4.8,0,0,0-.11-1.55,18.64,18.64,0,0,0-.38-2,.09.09,0,0,0-.17,0Z"/><path class="cls-1" d="M92.73,101.17a12.19,12.19,0,0,0,.54,4.08.15.15,0,0,0,.29,0,11.73,11.73,0,0,0-.67-4.06.08.08,0,0,0-.16,0Z"/><path class="cls-1" d="M93.52,100.13a7,7,0,0,0,.29,1.86,14.85,14.85,0,0,0,.52,2.09c.09.23.52.23.49-.07a13.89,13.89,0,0,0-.45-2,7,7,0,0,0-.62-1.93.12.12,0,0,0-.23.06Z"/><path class="cls-1" d="M95,98.53l.45,2.34a6.7,6.7,0,0,0,.53,2,.16.16,0,0,0,.29-.08,6.65,6.65,0,0,0-.34-2.07l-.54-2.32c-.06-.26-.44-.15-.39.11Z"/><path class="cls-1" d="M95.86,96.82a12.89,12.89,0,0,0,.68,4.15c.1.22.41.09.42-.11a13.05,13.05,0,0,0-.82-4.08c0-.15-.29-.13-.28,0Z"/><path class="cls-1" d="M96.37,95.54a12.24,12.24,0,0,1,.89,2.11,8.62,8.62,0,0,0,.38,1.83.19.19,0,0,0,.31,0,3.05,3.05,0,0,0-.13-2.12,4.69,4.69,0,0,0-1.19-2,.17.17,0,0,0-.26.21Z"/><path class="cls-1" d="M96.92,93.89a39,39,0,0,0,1.36,4.63.2.2,0,0,0,.38-.1,38,38,0,0,0-1.47-4.61.14.14,0,0,0-.27.08Z"/><path class="cls-1" d="M97.26,93.12q.36,1.17.75,2.34a8.28,8.28,0,0,0,.81,2c.08.13.34.1.32-.09A17.52,17.52,0,0,0,97.62,93c-.09-.22-.43-.13-.36.1Z"/><path class="cls-1" d="M97.76,91.81a20.39,20.39,0,0,0,1.66,4.48c.1.16.42.12.39-.1a20.36,20.36,0,0,0-1.65-4.49c-.1-.24-.49-.15-.4.11Z"/><path class="cls-1" d="M98.33,90a23.61,23.61,0,0,0,1.77,4.35.22.22,0,0,0,.4-.17,23.94,23.94,0,0,0-1.67-4.32c-.13-.3-.61-.17-.5.14Z"/><path class="cls-1" d="M98.89,89.28a25.24,25.24,0,0,0,1.8,3.74c.14.22.54.09.44-.18a25,25,0,0,0-1.95-3.73c-.11-.19-.37,0-.29.17Z"/><path class="cls-1" d="M99.27,87.69a20,20,0,0,0,.81,2,7.31,7.31,0,0,0,1,1.9c.19.21.46,0,.42-.25a6.48,6.48,0,0,0-.77-1.85,21.54,21.54,0,0,0-1-2c-.13-.22-.51-.08-.42.18Z"/><path class="cls-1" d="M99.42,86.48a9.6,9.6,0,0,1,1.25,2.06,13,13,0,0,0,.62,1.95.16.16,0,0,0,.29,0c.5-1.37-.83-3.39-1.85-4.21-.16-.13-.46,0-.31.24Z"/><path class="cls-1" d="M99.26,83.87a15.63,15.63,0,0,1,1.88,2.47c.5.8.8,1.73,1.34,2.5.1.15.39.11.37-.1-.17-2-1.82-3.94-3.23-5.23a.25.25,0,0,0-.36.36Z"/><path class="cls-1" d="M100.4,82.24A21.89,21.89,0,0,0,103.08,87c.12.13.34,0,.3-.18a11.35,11.35,0,0,0-1.14-2.32c-.47-.84-.95-1.67-1.44-2.51-.15-.26-.54,0-.4.24Z"/><path class="cls-1" d="M102.39,79.22a6.81,6.81,0,0,1,1.75,1.72c.42.59.62,1.31,1,1.89a.22.22,0,0,0,.4-.11c.06-1.62-1.64-3.23-2.89-4-.33-.2-.61.3-.3.51Z"/><path class="cls-1" d="M102.27,77.16a19.62,19.62,0,0,0,3,3.34c.16.12.33-.1.25-.25a20,20,0,0,0-2.85-3.52c-.25-.29-.67.14-.42.43Z"/><path class="cls-1" d="M102.09,74.93c.58.67,1.15,1.33,1.74,2a6.87,6.87,0,0,0,1.7,1.66.15.15,0,0,0,.21-.2,7.28,7.28,0,0,0-1.48-1.89c-.59-.65-1.19-1.29-1.79-1.94-.23-.25-.6.12-.38.38Z"/><path class="cls-1" d="M100.35,73.5h-.15c-.4,0-.4.66,0,.62l.15,0a.3.3,0,0,0,0-.59Z"/><path class="cls-1" d="M100.3,74.15c.43.5.85,1,1.28,1.49a6.16,6.16,0,0,0,1.28,1.27c.22.14.4-.12.32-.31a6.18,6.18,0,0,0-1.09-1.46c-.42-.51-.85-1-1.28-1.5-.3-.35-.81.16-.51.51Z"/><path class="cls-1" d="M100.25,71.5a16.19,16.19,0,0,0,2.59,2.1.16.16,0,0,0,.2-.25,16.52,16.52,0,0,0-2.59-2.12c-.15-.11-.34.14-.2.27Z"/><path class="cls-1" d="M100.21,69.45c.38.39.75.78,1.14,1.17a4.5,4.5,0,0,0,1.13,1,.18.18,0,0,0,.25-.25,4.75,4.75,0,0,0-1-1l-1.25-1c-.15-.12-.36.08-.22.22Z"/><path class="cls-1" d="M99.77,68.18a6.7,6.7,0,0,0,2.34,1.4c.1,0,.21-.09.15-.19A7,7,0,0,0,100,67.74c-.28-.18-.52.26-.26.44Z"/><path class="cls-1" d="M100.22,67.12a5,5,0,0,0,1,.41c.19,0,.39-.22.21-.36a5.19,5.19,0,0,0-.92-.52c-.32-.16-.59.33-.28.47Z"/><path class="cls-1" d="M98.39,64.7a25.16,25.16,0,0,1,2.43,13.74c0,.16.26.2.29,0a18.26,18.26,0,0,0-2.52-13.9.12.12,0,0,0-.2.12Z"/><path class="cls-1" d="M99.07,91.86a54,54,0,0,1-7.86,10.84c-.14.15.08.37.22.22.82-.83,1.66-1.66,2.45-2.52a.09.09,0,0,0-.13-.13,11.75,11.75,0,0,0-1.54,1.45c-.52.74-.55.82.24.11a19.36,19.36,0,0,0,2.16-2.63,52.26,52.26,0,0,0,4.58-7.27c0-.08-.08-.15-.12-.07Z"/><path class="cls-1" d="M97,93.34c-1.39,4.16-3.61,7.58-6,11.23-.08.11.1.25.19.14a59.26,59.26,0,0,0,7-9.88.11.11,0,0,0-.19-.11c-1.14,1.83-2.28,3.66-3.54,5.41a32,32,0,0,0-2.43,3.19c-.91,1.67.13.31.59-.31a32.17,32.17,0,0,0,4.71-9.56c.08-.25-.32-.36-.4-.11Z"/><path class="cls-1" d="M98.73,91c-.24.85-.49,1.7-.72,2.56a.09.09,0,0,0,.18,0c.28-.84.52-1.69.78-2.54,0-.15-.19-.22-.24-.07Z"/><path class="cls-1" d="M101.84,78.4a35.44,35.44,0,0,1-3.33,18.53l.94.4c.66-2.82,1.2-5.62,1.68-8.48a.21.21,0,0,0-.4-.11c-.84,2.76-1.6,5.5-2.27,8.31-.13.54.68,1,.94.4a33.1,33.1,0,0,0,2.94-19.12c0-.28-.53-.22-.5.07Z"/><path class="cls-1" d="M98.7,61.72c.3,1,.6,1.9.93,2.83.05.16.29.1.24-.06-.27-1-.57-1.91-.87-2.85-.06-.19-.36-.11-.3.08Z"/><path class="cls-1" d="M29,81.6a29.61,29.61,0,0,0,4.26.9c.26,0,.27-.35.05-.43a29.07,29.07,0,0,0-4.17-1c-.33-.07-.47.44-.14.51Z"/><path class="cls-1" d="M28.54,78.85a26.36,26.36,0,0,0,4.2,1.44c.2,0,.34-.23.15-.34a25.22,25.22,0,0,0-4.18-1.69c-.38-.14-.53.45-.17.59Z"/><path class="cls-1" d="M28.86,77.62a33.59,33.59,0,0,0,5,1.57c.24,0,.43-.29.18-.42A32.28,32.28,0,0,0,29,77c-.37-.12-.53.46-.16.59Z"/><path class="cls-1" d="M30.35,76.9a26.22,26.22,0,0,0,4.56,1.28c.21,0,.28-.29.11-.38a27,27,0,0,0-4.5-1.51.32.32,0,0,0-.17.61Z"/><path class="cls-1" d="M31.26,75.83a17.54,17.54,0,0,0,3.25,1c.29,0,.37-.41.14-.54a16.85,16.85,0,0,0-3.18-1.18c-.49-.16-.7.61-.21.77Z"/><path class="cls-1" d="M31.16,74a11.06,11.06,0,0,0,3.16,1.17.25.25,0,0,0,.18-.42,11.13,11.13,0,0,0-2.94-1.43c-.47-.2-.87.48-.4.68Z"/><path class="cls-1" d="M30.41,72.07l2.07,1a7.16,7.16,0,0,0,1.94.75c.24,0,.51-.26.27-.47a16.66,16.66,0,0,0-3.92-1.88c-.42-.18-.79.43-.36.62Z"/><path class="cls-1" d="M32.06,71.59l1.22.55a5.38,5.38,0,0,0,1.15.45c.26,0,.54-.29.29-.5a9.89,9.89,0,0,0-2.26-1.17c-.45-.22-.85.46-.4.67Z"/><path class="cls-1" d="M32.51,69.81a14.71,14.71,0,0,0,3.43,1.5c.19,0,.38-.2.21-.35a14.58,14.58,0,0,0-3.24-1.84c-.46-.24-.86.46-.4.69Z"/><path class="cls-1" d="M32.26,68c.67.49,1.33,1,2,1.47a3.66,3.66,0,0,0,1.77,1,.24.24,0,0,0,.23-.3c-.26-.63-.93-1-1.47-1.34-.71-.51-1.42-1-2.14-1.5-.41-.29-.78.38-.39.67Z"/><path class="cls-1" d="M32.27,66l1.57,1.51a6.34,6.34,0,0,0,1.53,1.31.25.25,0,0,0,.34-.34A6.58,6.58,0,0,0,34.33,67l-1.6-1.48c-.3-.28-.76.17-.46.46Z"/><path class="cls-1" d="M29.64,74.15a10.19,10.19,0,0,0,2.62,1,.55.55,0,0,0,.52-.14.55.55,0,0,0,.16-.38.52.52,0,0,0-.27-.46,10.36,10.36,0,0,0-2.64-1c-.53-.13-.9.64-.39.91Z"/><path class="cls-1" d="M29.68,70.2c1.16.58,2.32,1.18,3.52,1.66.58.23,1-.76.43-1-1.17-.55-2.4-1-3.61-1.43-.46-.17-.78.57-.34.8Z"/><path class="cls-1" d="M31,68.16l1.79,1a2.29,2.29,0,0,0,1.52.51.36.36,0,0,0,.2-.52c-.24-.5-.86-.65-1.34-.87s-1.17-.53-1.74-.8-.92.48-.43.73Z"/><path class="cls-1" d="M32,64.68a22.11,22.11,0,0,0,1.88,1.58c.47.38,1,1,1.63.87a.36.36,0,0,0,.25-.33c0-.67-.77-1-1.26-1.35a21.24,21.24,0,0,0-2-1.4.4.4,0,0,0-.49.63Z"/><path class="cls-1" d="M33,63.15a19.86,19.86,0,0,0,3.27,2.51.26.26,0,0,0,.32-.41,20.25,20.25,0,0,0-3.08-2.61c-.36-.28-.87.22-.51.51Z"/><path class="cls-1" d="M34.15,61.72c.58.51,1.17,1,1.77,1.49a8.26,8.26,0,0,0,1.74,1.25c.23.11.59-.14.39-.39a16.82,16.82,0,0,0-3.48-2.9c-.31-.23-.72.29-.42.55Z"/><path class="cls-1" d="M34.67,59.27c.55.55,1.17,1,1.77,1.56a8.35,8.35,0,0,0,1.79,1.28c.26.12.65-.15.44-.44A8.39,8.39,0,0,0,37,60.07c-.6-.49-1.2-1-1.85-1.44-.39-.27-.82.32-.49.64Z"/><path class="cls-1" d="M35.93,57.56a17.78,17.78,0,0,0,2.62,2.28c.34.22.63-.25.4-.52a17.45,17.45,0,0,0-2.51-2.27c-.36-.28-.85.18-.51.51Z"/><path class="cls-1" d="M37.51,56.12l1.41,1.36a7.18,7.18,0,0,0,1.4,1.19c.29.15.64-.16.46-.45a7.22,7.22,0,0,0-1.26-1.33l-1.44-1.33c-.38-.35-.94.2-.57.56Z"/><path class="cls-1" d="M38.63,54.26A14.4,14.4,0,0,0,40.83,56c.23.13.42-.17.27-.36a13.8,13.8,0,0,0-2-1.85c-.3-.26-.74.17-.43.43Z"/><path class="cls-1" d="M40.26,52.63a17.73,17.73,0,0,0,1.93,1.74c.15.12.39-.12.27-.28a16.57,16.57,0,0,0-1.74-1.92.33.33,0,0,0-.46.46Z"/><path class="cls-1" d="M42.06,51.88a13.71,13.71,0,0,0,1.55,1.59c.2.15.54,0,.38-.29a12.35,12.35,0,0,0-1.48-1.75c-.27-.31-.72.14-.45.45Z"/><path class="cls-1" d="M43.94,50A22.94,22.94,0,0,0,46,52.57a.24.24,0,0,0,.37-.29,22.31,22.31,0,0,0-1.85-2.6c-.27-.34-.86,0-.59.35Z"/><path class="cls-1" d="M46.57,49.82c.3.55.61,1.1,1,1.62a.18.18,0,0,0,.31-.18c-.26-.57-.55-1.13-.85-1.67a.24.24,0,0,0-.41.23Z"/><path class="cls-1" d="M47.72,47a20.8,20.8,0,0,0,1.56,2.66c.17.22.62.1.5-.21a21.26,21.26,0,0,0-1.44-2.81.36.36,0,0,0-.62.36Z"/><path class="cls-1" d="M52.11,43.62a17.35,17.35,0,0,0,1.12,2.88c.12.21.42.06.38-.16a18.3,18.3,0,0,0-1-2.86c-.12-.3-.61-.18-.5.14Z"/><path class="cls-1" d="M54.68,43c.35,1.18.64,2.43,1.1,3.58a.17.17,0,0,0,.32-.09c-.24-1.21-.68-2.41-1-3.6a.2.2,0,0,0-.38.11Z"/><path class="cls-1" d="M56.92,42.87c.45,1.84.81,3.73,1.44,5.51a.14.14,0,0,0,.27-.07c-.27-1.87-.83-3.72-1.28-5.55a.22.22,0,0,0-.43.11Z"/><path class="cls-1" d="M58.62,42.3a45.47,45.47,0,0,0,1,4.91c0,.17.34.15.32-.05a47.46,47.46,0,0,0-.85-5c-.06-.31-.54-.18-.48.14Z"/><path class="cls-1" d="M60.68,42.57c.3,1.24.55,2.51.93,3.73a.14.14,0,0,0,.27-.07c-.23-1.26-.58-2.51-.88-3.75,0-.21-.37-.12-.32.09Z"/><path class="cls-1" d="M63.06,42.42c.15,1,.25,2.11.48,3.14,0,.16.31.13.3,0-.07-1.07-.28-2.14-.43-3.2,0-.23-.38-.13-.35.1Z"/><path class="cls-1" d="M65.84,41.92c0,1.55,0,3.1.09,4.64a.15.15,0,0,0,.3,0c.1-1.54.09-3.09.09-4.64a.24.24,0,0,0-.48,0Z"/><path class="cls-1" d="M68.38,41.77a39.3,39.3,0,0,0-.2,4.19c0,.16.25.21.28,0a39.59,39.59,0,0,0,.41-4.23c0-.31-.47-.31-.49,0Z"/><path class="cls-1" d="M70,44.37a.05.05,0,1,0,0-.1.05.05,0,0,0,0,.1Z"/><path class="cls-1" d="M71.13,41.72c-.19,1.46-.45,2.93-.55,4.39a.14.14,0,0,0,.28,0c.29-1.42.44-2.88.64-4.32,0-.24-.33-.35-.37-.11Z"/><path class="cls-1" d="M72.93,42.68c-.15,1.24-.34,2.49-.38,3.74a.18.18,0,0,0,.35,0c.26-1.25.38-2.52.53-3.79,0-.32-.46-.31-.5,0Z"/><path class="cls-1" d="M76.44,42.75A48.06,48.06,0,0,0,75.09,48a.19.19,0,0,0,.36.1,47.51,47.51,0,0,0,1.61-5.21.32.32,0,0,0-.62-.17Z"/><path class="cls-1" d="M78.38,44a25.81,25.81,0,0,0-1.19,3.74c0,.25.33.47.46.19a26.36,26.36,0,0,0,1.24-3.8c.09-.32-.4-.45-.51-.13Z"/><path class="cls-1" d="M81.59,45.1c-.45,1.06-.92,2.12-1.28,3.22a.14.14,0,0,0,.26.11c.53-1,1-2,1.42-3.1.12-.27-.28-.5-.4-.23Z"/><path class="cls-1" d="M83.26,45.73A37.89,37.89,0,0,0,82,49.64c-.06.27.35.48.48.2a38.48,38.48,0,0,0,1.45-3.93c.14-.42-.52-.6-.67-.18Z"/><path class="cls-1" d="M71.16,43.62a13.47,13.47,0,0,0,2.9.88c.19,0,.25-.27.09-.35a13,13,0,0,0-2.9-.88c-.22-.06-.31.27-.09.35Z"/><path class="cls-1" d="M76.65,45.86c3.86,1.25,6.68,3.27,9.92,5.61.27.19.58-.23.35-.45-2.72-2.63-6.61-4.36-10.18-5.5-.21-.06-.3.27-.09.34Z"/><path class="cls-1" d="M94.52,61.12c3.79,5.56,5.82,11.5,7.31,18,.09.37.7.3.67-.09-.56-6.7-3.56-12.92-7.65-18.16-.15-.19-.46.05-.33.25Z"/><path class="cls-1" d="M97.06,66.3l1.69,0a4.38,4.38,0,0,0,1.49-.16.16.16,0,0,0,0-.31,4.64,4.64,0,0,0-1.49-.07l-1.69.07a.26.26,0,0,0,0,.52Z"/><path class="cls-1" d="M96.84,64.62a4.49,4.49,0,0,0,4-.39c.16-.12.08-.42-.15-.35a6.28,6.28,0,0,1-3.76.23.26.26,0,0,0-.14.51Z"/><path class="cls-1" d="M95.87,63.68a15.33,15.33,0,0,0,4-.71c.19-.08.06-.33-.1-.35a14.88,14.88,0,0,0-4,.48c-.33,0-.25.62.08.58Z"/><path class="cls-1" d="M95.41,62.06a7.93,7.93,0,0,0,2.75-.21c.17-.07.2-.34,0-.39a7.94,7.94,0,0,0-2.75.06c-.34,0-.36.54,0,.54Z"/><path class="cls-1" d="M97.09,58.46a44.36,44.36,0,0,0,2.44,4.16.23.23,0,0,0,.4-.24,43.35,43.35,0,0,0-2.31-4.23.31.31,0,0,0-.53.31Z"/><path class="cls-1" d="M100.71,78.88a51.22,51.22,0,0,1-1.92,13.71.15.15,0,0,0,.28.08,39.7,39.7,0,0,0,2.3-13.79.33.33,0,0,0-.66,0Z"/><path class="cls-1" d="M54.3,103.92l1.79-1.5a.05.05,0,0,0-.07-.08l-1.8,1.5c-.06,0,0,.12.08.08Z"/><path class="cls-1" d="M49.77,102.73a7.24,7.24,0,0,0,4.41-2.08c.08-.08,0-.2-.13-.13a7.75,7.75,0,0,1-4.28,2c-.1,0-.11.17,0,.16Z"/><path class="cls-1" d="M47.12,100.49a29.51,29.51,0,0,0,4.67-.95c.13-.05.12-.27,0-.26a28.94,28.94,0,0,0-4.68,1c-.12,0-.07.21,0,.19Z"/><path class="cls-1" d="M44.88,98.83c1.59-.33,3.23-.57,4.79-1a.13.13,0,0,0-.07-.25c-1.61.23-3.2.7-4.78,1.08-.15,0-.09.25.06.22Z"/><path class="cls-1" d="M44.08,97.09a27.73,27.73,0,0,0,4.83-.19c.15,0,.16-.28,0-.3a27.85,27.85,0,0,0-4.83.05c-.28,0-.28.45,0,.44Z"/><path class="cls-1" d="M42.29,95.26a44,44,0,0,0,5.13-.47c.14,0,.1-.26,0-.26a41.41,41.41,0,0,0-5.09.41c-.2,0-.2.33,0,.32Z"/><path class="cls-1" d="M41.39,93.37a17.37,17.37,0,0,0,2.5,0,9.36,9.36,0,0,0,2.18-.18c.15,0,.17-.29,0-.32a9.8,9.8,0,0,0-2.36,0,15.33,15.33,0,0,0-2.35.23c-.15,0-.09.22,0,.24Z"/><path class="cls-1" d="M40.19,90.47a22.45,22.45,0,0,0,4.1-.19c.24,0,.15-.37-.06-.4a22.76,22.76,0,0,0-4,.1c-.31,0-.32.5,0,.49Z"/><path class="cls-1" d="M39.14,86.61a28.33,28.33,0,0,0,4.19.42.19.19,0,0,0,.05-.37,29.92,29.92,0,0,0-4.24-.5c-.29,0-.28.42,0,.45Z"/><path class="cls-1" d="M38.25,83.29a18,18,0,0,0,4.69.27c.23,0,.19-.36,0-.41a17.51,17.51,0,0,0-4.69-.38c-.34,0-.32.48,0,.52Z"/><path class="cls-1" d="M38.32,80.52a17,17,0,0,0,3.67.61c.13,0,.21-.21.07-.28a16.92,16.92,0,0,0-3.58-.9c-.38-.08-.54.49-.16.57Z"/><path class="cls-1" d="M38.62,78.41a28.42,28.42,0,0,0,3.52.69c.25,0,.27-.34,0-.42a25,25,0,0,0-3.42-.81c-.35-.08-.5.46-.15.54Z"/><path class="cls-1" d="M38.33,75.84a18.55,18.55,0,0,0,4,1,.17.17,0,0,0,.08-.31,18.27,18.27,0,0,0-3.91-1.28.28.28,0,0,0-.15.54Z"/><path class="cls-1" d="M38.3,72a15.82,15.82,0,0,0,3.82,1.63c.2,0,.43-.22.23-.39a15.85,15.85,0,0,0-3.82-1.78c-.31-.12-.53.4-.23.54Z"/><path class="cls-1" d="M39.74,68.51a22.33,22.33,0,0,0,4,1.74.21.21,0,0,0,.16-.38A23.11,23.11,0,0,0,40.05,68c-.35-.16-.65.35-.31.51Z"/><path class="cls-1" d="M41.13,66.21a15.05,15.05,0,0,0,3,1.52.15.15,0,0,0,.14-.25,15.44,15.44,0,0,0-2.82-1.75.28.28,0,0,0-.28.48Z"/><path class="cls-1" d="M42.33,63.37a15.05,15.05,0,0,0,2.94,2c.18.08.27-.18.17-.3A15.24,15.24,0,0,0,42.6,62.9c-.28-.21-.55.26-.27.47Z"/><path class="cls-1" d="M45.46,61.65c.6.64,1.19,1.3,1.83,1.9.11.11.26,0,.17-.16-.56-.69-1.17-1.33-1.76-2-.15-.17-.39.08-.24.24Z"/><path class="cls-1" d="M46.16,59.75l1.57,1.51a7.54,7.54,0,0,0,1.54,1.28.18.18,0,0,0,.25-.25,7.24,7.24,0,0,0-1.36-1.46l-1.61-1.47c-.26-.24-.64.14-.39.39Z"/><path class="cls-1" d="M49.16,58.18l.94,1.32c.1.14.33,0,.23-.14L49.48,58c-.13-.21-.46,0-.32.19Z"/><path class="cls-1" d="M40.62,67.26a27.63,27.63,0,0,0-3,18.43c1,5.25,4,12,8.78,14.81a.29.29,0,0,0,.39-.4c-2.87-4.54-6.19-7.87-7.62-13.29A28.54,28.54,0,0,1,41,67.5c.13-.27-.26-.51-.4-.24Z"/><path class="cls-1" d="M39.15,83.46c1.59,5.83,4.47,12.45,9.33,16.32.32.26.93-.08.63-.49-3.74-5.24-7.32-9.74-9.29-16a.35.35,0,0,0-.67.19Z"/><path class="cls-1" d="M49.7,102.45c.62.53,1.28,1.43,2.11,1.63a.21.21,0,0,0,.24-.31c-.47-.73-1.52-1.06-2.23-1.48-.1-.06-.22.09-.12.16Z"/><path class="cls-1" d="M94.14,75.21c1.28,6.87,0,12.66-1.63,19.29a.35.35,0,0,0,.64.27c3.29-5.81,3.12-13.43,1.58-19.72-.1-.39-.67-.22-.59.16Z"/><path class="cls-1" d="M93.07,79.64c.38,7-1.88,12.72-5.7,18.42-.27.39.34.86.66.51,4.58-5.12,6.27-12.21,5.7-18.93,0-.42-.68-.43-.66,0Z"/><path class="cls-1" d="M89.55,97.36a37.19,37.19,0,0,0,5.07-11,.11.11,0,0,0-.21-.06,52.91,52.91,0,0,1-5.16,10.85c-.12.18.18.35.3.17Z"/><path class="cls-1" d="M92,85.32a36.79,36.79,0,0,0,3.73-2.1c.14-.1.06-.37-.12-.3a36.94,36.94,0,0,0-3.87,2c-.29.15,0,.59.26.44Z"/><path class="cls-1" d="M94.6,79.24c.74-.4,1.51-.78,2.23-1.22.13-.07,0-.25-.11-.19-.77.36-1.51.78-2.26,1.18-.15.08,0,.31.14.23Z"/><path class="cls-1" d="M93.34,82.07a15.68,15.68,0,0,0,3.62-1c.19-.08.09-.42-.11-.4a16,16,0,0,0-3.66.88.27.27,0,0,0,.15.52Z"/><path class="cls-1" d="M93.79,81.06A17.65,17.65,0,0,0,96,79.23a.24.24,0,0,0-.29-.38,16.77,16.77,0,0,0-2.33,1.79c-.3.24.12.66.42.42Z"/><path class="cls-1" d="M94.94,77.38a18,18,0,0,0,2.49-2.52c.1-.14-.1-.33-.24-.24A18,18,0,0,0,94.51,77c-.29.27.14.7.43.43Z"/><path class="cls-1" d="M94.8,75.61c.55-.81,1.07-1.6,1.54-2.46.11-.2-.18-.45-.34-.26a29.58,29.58,0,0,0-1.79,2.38c-.24.36.34.7.59.34Z"/><path class="cls-1" d="M93.81,70.79a20.31,20.31,0,0,1,1.12,8.29c0,.26.41.33.46.07a15.93,15.93,0,0,0-1-8.52c-.13-.35-.71-.2-.57.16Z"/><path class="cls-1" d="M92.57,87.53a9.29,9.29,0,0,0,1.49.06c.19,0,.25-.29,0-.34A9,9,0,0,0,92.57,87c-.34,0-.35.51,0,.53Z"/><path class="cls-1" d="M87.64,80.68a20.25,20.25,0,0,1-2.9,10.21.22.22,0,0,0,.37.22,16.53,16.53,0,0,0,3.16-10.43.32.32,0,0,0-.63,0Z"/><path class="cls-1" d="M47.13,91.94a19.19,19.19,0,0,0,2.08-.64.15.15,0,0,0-.08-.29,19.11,19.11,0,0,0-2.1.56.19.19,0,0,0,.1.37Z"/><path class="cls-1" d="M46.48,90.32a8.23,8.23,0,0,0,2.16-.38.24.24,0,0,0-.06-.46,8.93,8.93,0,0,0-2.18.23c-.34.06-.26.66.08.61Z"/><path class="cls-1" d="M45.35,89.17A9.58,9.58,0,0,0,47,88.63a.19.19,0,0,0-.09-.36,9.12,9.12,0,0,0-1.72.39.26.26,0,0,0,.14.51Z"/><path class="cls-1" d="M44.38,87.1a8.37,8.37,0,0,0,2-.09.2.2,0,0,0,0-.39,8.92,8.92,0,0,0-2-.09.29.29,0,0,0,0,.57Z"/><path class="cls-1" d="M44.23,85.63a6.92,6.92,0,0,0,2.45-.1.22.22,0,0,0,0-.42,6.92,6.92,0,0,0-2.45-.1.31.31,0,0,0,0,.62Z"/><path class="cls-1" d="M44.68,84c.4,0,.8.08,1.2.08a.2.2,0,0,0,0-.4,11.52,11.52,0,0,0-1.17-.23.28.28,0,1,0-.08.55Z"/><path class="cls-1" d="M44.08,81.93a.05.05,0,1,0,0-.1.05.05,0,0,0,0,.1Z"/><path class="cls-1" d="M43,80.29a.21.21,0,0,0,0-.41.21.21,0,0,0,0,.41Z"/><path class="cls-1" d="M45.29,82.71c.82,3.9,2.54,8,5.53,10.69.22.21.65-.07.45-.34-2.45-3.3-4.45-6.45-5.39-10.51-.09-.39-.67-.22-.59.16Z"/><path class="cls-1" d="M51.22,75.44a32.56,32.56,0,0,0,0,4.19c0,.21.36.3.4.06a35.39,35.39,0,0,0,.26-4.25c0-.4-.61-.4-.63,0Z"/><path class="cls-1" d="M51.78,83.88a11.85,11.85,0,0,0,1.27,4,7.07,7.07,0,0,0,2.49,2.84.17.17,0,0,0,.23-.23c-.6-1-1.5-1.9-2.12-3A14.79,14.79,0,0,1,52,83.82c0-.13-.24-.08-.21.06Z"/><path class="cls-1" d="M51.86,81.12a.14.14,0,0,0,0-.28.14.14,0,0,0,0,.28Z"/><path class="cls-1" d="M57,91.2a9.51,9.51,0,0,0,6.4,2.13.21.21,0,0,0,0-.42,13.24,13.24,0,0,1-6.16-2.12c-.25-.17-.47.23-.24.41Z"/><path class="cls-1" d="M80.39,76.15c.84,2.76.34,5.14-.55,7.8a.24.24,0,0,0,.43.18c1.55-2.37,1.49-5.52.66-8.13-.11-.34-.65-.2-.54.15Z"/><path class="cls-1" d="M79.66,85c-.14,2-1.25,3.35-2.62,4.69-.18.17,0,.4.24.31,1.88-.84,2.82-3,2.92-5,0-.36-.52-.35-.54,0Z"/><path class="cls-1" d="M76,91.15a26.76,26.76,0,0,0,2.39-1.36.15.15,0,0,0-.16-.26c-.82.37-1.61.89-2.4,1.34-.18.1,0,.38.17.28Z"/><path class="cls-1" d="M77.9,86.08a5.37,5.37,0,0,0,2.15,0,.19.19,0,0,0,0-.34,5.34,5.34,0,0,0-2.19-.3c-.39,0-.39.59,0,.62Z"/><path class="cls-1" d="M71.47,85.16A4.58,4.58,0,0,0,73.24,85a.24.24,0,0,0-.06-.43,4.5,4.5,0,0,0-1.71.09c-.33,0-.35.54,0,.53Z"/><path class="cls-1" d="M73.45,83.79c.19-.26.37-.52.54-.79s-.12-.31-.24-.18-.43.46-.64.7a.22.22,0,1,0,.34.27Z"/><path class="cls-1" d="M74.16,80.13c.06,0,.07-.1,0-.1a.05.05,0,0,0,0,.1Z"/><path class="cls-1" d="M74.84,79.27c-.21,1-.39,1.9-.53,2.86a.26.26,0,0,0,.51.14c.28-.93.5-1.86.71-2.81.1-.45-.59-.64-.69-.19Z"/><path class="cls-1" d="M58,79.88a3.18,3.18,0,0,0,1.11,0,.25.25,0,0,0,0-.48,3.44,3.44,0,0,0-1.11,0,.25.25,0,0,0,0,.5Z"/><path class="cls-1" d="M58.45,82.07a1.36,1.36,0,0,0,.72-.13.24.24,0,0,0,0-.42,1.36,1.36,0,0,0-.72-.13.34.34,0,0,0,0,.68Z"/><path class="cls-1" d="M58.9,83.42a5.34,5.34,0,0,0,1.27-.19.27.27,0,0,0-.07-.53,4.86,4.86,0,0,0-1.2.09c-.4,0-.4.67,0,.63Z"/><path class="cls-1" d="M58.3,79.34a7,7,0,0,0,2.86,6.48c.13.09.28-.11.17-.22a7.84,7.84,0,0,1-2.39-6.26c0-.42-.61-.41-.64,0Z"/><path class="cls-1" d="M60.81,85.15l1.8.72c.11,0,.19-.14.08-.19l-1.78-.78a.14.14,0,1,0-.1.25Z"/><path class="cls-1" d="M72.65,78.47a3.88,3.88,0,0,0,.86,1.87.2.2,0,0,0,.33-.14,3.92,3.92,0,0,0-.69-1.94.27.27,0,0,0-.5.21Z"/><path class="cls-1" d="M74.37,78.44l0,.45a.21.21,0,0,0,.42,0l0-.45c0-.31-.5-.31-.48,0Z"/><path class="cls-1" d="M55.66,90.62a18.64,18.64,0,0,0,2.08-.53c.13,0,.12-.28,0-.27a19.33,19.33,0,0,0-2.15.38c-.28.06-.16.48.11.42Z"/><path class="cls-1" d="M55.18,89.31l.45-.16a.09.09,0,0,0-.05-.18l-.45.15c-.12,0-.07.23,0,.19Z"/><path class="cls-1" d="M54.41,88.14q.53,0,1.05-.06a.22.22,0,0,0,0-.44l-1.05,0c-.36,0-.36.56,0,.55Z"/><path class="cls-1" d="M53.81,86.46a8.11,8.11,0,0,0,1.39-.08.17.17,0,0,0,0-.32A7.21,7.21,0,0,0,53.81,86a.24.24,0,0,0,0,.48Z"/><path class="cls-1" d="M52.91,84.54c.35,0,.7.08,1.05.1a.22.22,0,0,0,.06-.43L53,84a.26.26,0,1,0-.07.52Z"/><path class="cls-1" d="M50.74,82a14,14,0,0,0,2.77.54.23.23,0,0,0,.11-.42,14,14,0,0,0-2.73-.68c-.36-.08-.52.48-.15.56Z"/><path class="cls-1" d="M52.56,79.54l.75.27c.2.08.34-.25.14-.34l-.73-.32a.21.21,0,1,0-.16.39Z"/><path class="cls-1" d="M51.43,76.57a19,19,0,0,0,1.84,1,.17.17,0,0,0,.18-.3,20.07,20.07,0,0,0-1.75-1.13.27.27,0,0,0-.27.46Z"/><path class="cls-1" d="M52.12,73.54c.48.39,1,.79,1.45,1.16.16.13.35-.14.22-.28-.42-.43-.85-.85-1.28-1.26-.26-.26-.66.17-.39.38Z"/><path class="cls-1" d="M53.61,72.05a8.06,8.06,0,0,0,1.28,1.2.23.23,0,0,0,.31-.32A8.44,8.44,0,0,0,54,71.65c-.26-.25-.66.15-.4.4Z"/><path class="cls-1" d="M54.48,71.39c.5.29,1,.61,1.51.87a.12.12,0,0,0,.13-.21c-.48-.34-1-.63-1.48-.93a.16.16,0,0,0-.16.27Z"/><path class="cls-1" d="M57.8,76.4l.61.23c.18.07.28-.2.13-.29L58,76c-.26-.15-.47.29-.16.41Z"/><path class="cls-1" d="M59.3,74a9.34,9.34,0,0,0,1.36,1.63c.23.17.53,0,.4-.3a9,9,0,0,0-1.37-1.71c-.23-.27-.6.11-.39.38Z"/><path class="cls-1" d="M61.74,74.6a.05.05,0,0,0,0-.1.05.05,0,0,0,0,.1Z"/><path class="cls-1" d="M44,77.29a34.51,34.51,0,0,0,3.33,2c.16.07.36-.14.2-.26a34.7,34.7,0,0,0-3.29-2.18c-.25-.17-.49.24-.24.4Z"/><path class="cls-1" d="M44.07,74.84a25.22,25.22,0,0,0,4.12,1.91c.21.06.3-.22.14-.34a25.42,25.42,0,0,0-4-2c-.29-.14-.54.29-.25.43Z"/><path class="cls-1" d="M45.76,73.1a29.44,29.44,0,0,0,3,2.17c.12.06.25-.1.14-.19a29.48,29.48,0,0,0-3-2.35c-.22-.16-.43.21-.21.37Z"/><path class="cls-1" d="M45.27,75.89A26.85,26.85,0,0,0,46.85,70c0-.1-.16-.15-.2,0a26.73,26.73,0,0,0-1.74,5.84.19.19,0,0,0,.36.1Z"/><path class="cls-1" d="M48,68.62c1.51-3.6,4.27-5.78,7.48-7.78.14-.09,0-.34-.12-.28-3.62,1.2-6.22,4.6-7.61,8-.07.16.19.23.25.07Z"/><path class="cls-1" d="M79.14,95.53a14.12,14.12,0,0,0,2,1c.18.06.25-.19.12-.29a15.2,15.2,0,0,0-1.93-1.09c-.21-.11-.4.21-.19.33Z"/><path class="cls-1" d="M80.06,94.14a7.19,7.19,0,0,0,1.69.78.2.2,0,0,0,.15-.36,7,7,0,0,0-1.69-.77c-.21-.08-.34.25-.15.35Z"/><path class="cls-1" d="M81.38,93.15a8.09,8.09,0,0,0,2.15,1c.18,0,.36-.19.19-.33a8.4,8.4,0,0,0-2.13-1.09c-.24-.11-.46.24-.21.37Z"/><path class="cls-1" d="M82.3,91.15a7.34,7.34,0,0,0,2.16,1.18.17.17,0,0,0,.16-.28,7.46,7.46,0,0,0-2.09-1.29.23.23,0,0,0-.23.39Z"/><path class="cls-1" d="M83.27,89.06l1.26.68a4.18,4.18,0,0,0,1.19.52.2.2,0,0,0,.19-.32,3.89,3.89,0,0,0-1.1-.68l-1.28-.65c-.3-.15-.56.29-.26.45Z"/><path class="cls-1" d="M84.42,86.75a10,10,0,0,0,2.26.84.18.18,0,0,0,.14-.33,10,10,0,0,0-2.27-1c-.29-.11-.41.35-.13.47Z"/><path class="cls-1" d="M85.56,83.89a17.51,17.51,0,0,0,1.86.87c.16.07.25-.18.11-.27a17.57,17.57,0,0,0-1.77-.93c-.22-.11-.42.22-.2.33Z"/><path class="cls-1" d="M86.52,81.14c1-.55,2-1.11,3-1.69a.13.13,0,0,0-.13-.23c-1,.51-2,1-3,1.6a.18.18,0,0,0,.18.32Z"/><path class="cls-1" d="M88.89,76a30.84,30.84,0,0,0-3,2.33.18.18,0,0,0,.22.28,32.25,32.25,0,0,0,3-2.18c.25-.19,0-.62-.25-.43Z"/><path class="cls-1" d="M89.81,72.38a23.89,23.89,0,0,0-2.61,3c-.11.17.12.3.26.2a23.38,23.38,0,0,0,2.77-2.77c.25-.28-.16-.69-.42-.42Z"/><path class="cls-1" d="M89.54,70.92a36.55,36.55,0,0,0-2.64,3.54.14.14,0,0,0,.21.16,36.61,36.61,0,0,0,2.75-3.46c.13-.18-.18-.42-.32-.24Z"/><path class="cls-1" d="M88.67,70.05c-.77.87-1.57,1.73-2.29,2.64-.09.1.05.25.15.15.83-.82,1.59-1.7,2.37-2.56.14-.15-.09-.39-.23-.23Z"/><path class="cls-1" d="M93.75,70.47a21.34,21.34,0,0,1,1.81,9.91c0,.22.35.28.38.06a16.47,16.47,0,0,0-1.83-10.18c-.12-.24-.47,0-.36.21Z"/><path class="cls-1" d="M95.24,74.19c.05,1.44.1,2.89.17,4.34,0,.14.23.14.22,0,0-1.45-.07-2.9-.12-4.34,0-.18-.28-.18-.27,0Z"/><path class="cls-1" d="M95.27,79.51c-.89,3.34-1.78,6.69-2.54,10.07a.21.21,0,0,0,.4.11c1-3.31,1.93-6.65,2.82-10a.35.35,0,0,0-.68-.19Z"/><path class="cls-1" d="M70.18,74.36a2,2,0,0,0,.7.68c.09,0,.17,0,.15-.11a1.89,1.89,0,0,0-.49-.84.23.23,0,1,0-.36.27Z"/><path class="cls-1" d="M70.45,73.49l.32-.42H70.5a3.58,3.58,0,0,0,.78,1.23.13.13,0,0,0,.21-.12,3.51,3.51,0,0,0-.72-1.27.16.16,0,0,0-.27,0c-.08.16-.17.31-.26.46a.12.12,0,0,0,.21.12Z"/><path class="cls-1" d="M98.52,43.35c-1.15,1-2,2.42-3.08,3.52S93,48.87,92,50c-.08.08,0,.27.13.22a11.72,11.72,0,0,0,3.83-2.88,11.27,11.27,0,0,0,2.81-3.87c0-.12-.12-.19-.2-.11Z"/><path class="cls-1" d="M93.62,48.82l4.1-3.52c.26-.23,1.84-1.43,1.65-1.6s-1.55,1.27-1.8,1.52c-2.59,2.56-5.12,5.21-7.52,8a.15.15,0,0,0,.21.21,139.36,139.36,0,0,0,9.81-10.09.17.17,0,0,0-.23-.24c-2.1,1.89-4.25,3.74-6.37,5.6-.11.09,0,.25.15.16Z"/><path class="cls-1" d="M98.87,43.53c.23,1.26.82,3.13,2.15,3.65.09,0,.16-.08.12-.15-.32-.56-.87-1-1.23-1.55a6.1,6.1,0,0,1-.91-2c0-.08-.15-.05-.13,0Z"/><path class="cls-1" d="M98.53,43a13.38,13.38,0,0,0,1.62,2.48,10.72,10.72,0,0,0,1.7,2.09.28.28,0,1,0,.34-.43,9.56,9.56,0,0,1-1.73-2.2,10.57,10.57,0,0,1-1.38-2.1l-.36.21a15.58,15.58,0,0,1,1.69,1.85,13.49,13.49,0,0,0,1.39,1.8c.09.08.29,0,.27-.11-.21-1.61-1.83-3-3.09-3.88-.2-.13-.45.18-.26.34a11.56,11.56,0,0,1,1.64,2.14,8.26,8.26,0,0,1,1.42,2.26l.54-.15a10.77,10.77,0,0,0-1.47-2.15,14.84,14.84,0,0,0-2-2.36.18.18,0,0,0-.28.21Z"/><path class="cls-1" d="M99.21,45.46a14.49,14.49,0,0,0,1.55,1.94.13.13,0,0,0,.2-.15,18.14,18.14,0,0,0-1.56-1.94c-.09-.1-.28,0-.19.15Z"/><path class="cls-1" d="M86.94,61c2.75-2.52,5.51-5.06,8.15-7.7.08-.08,0-.18-.11-.12-2.84,2.45-5.57,5-8.3,7.57-.17.16.08.41.26.25Z"/><path class="cls-1" d="M92.78,55l-.6.3c-.06,0,0,.11,0,.09l.6-.3c.06,0,0-.12,0-.09Z"/><path class="cls-1" d="M88.26,58.71l-.68.75c-.09.1,0,.24.14.15,1.4-1.43,2.74-2.92,4-4.48.1-.13-.07-.31-.19-.18-1.39,1.43-2.69,2.95-3.94,4.51l.14.15.66-.78c.07-.08,0-.2-.12-.12Z"/><path class="cls-1" d="M101.38,48.18a51.35,51.35,0,0,0-4,4.59c-.1.15.13.32.25.19a49.26,49.26,0,0,0,4-4.59c.1-.13-.07-.32-.2-.19Z"/><path class="cls-1" d="M105.1,39a10,10,0,0,0-1.65,2.13.07.07,0,0,0,.11.08,10,10,0,0,0,1.7-2.08c.07-.1-.09-.22-.16-.13Z"/><path class="cls-1" d="M105.56,38.15c-.82,1.07-2,2-2.35,3.42,0,.11.1.24.21.16,1.17-.83,1.58-2.32,2.26-3.51,0-.08-.07-.14-.12-.07Z"/><path class="cls-1" d="M105.6,38.8c-.39.45-.82.87-1.19,1.33a4.31,4.31,0,0,0-.84,1.24.15.15,0,0,0,.22.16,3.92,3.92,0,0,0,1-1.12c.35-.48.65-1,1-1.5.06-.09-.08-.2-.15-.11Z"/><path class="cls-1" d="M105.84,39.16a11.5,11.5,0,0,0-2.12,2.64l.29.08c.07-.77.95-1.29,1.63-1.4l-.16-.28A7.24,7.24,0,0,0,104,42.28a.17.17,0,0,0,.26.21,7.28,7.28,0,0,0,1.52-2.09c.06-.12,0-.3-.18-.24a3.64,3.64,0,0,0-1.84,1.64c-.11.15.12.31.24.19A11.89,11.89,0,0,0,106,39.31a.12.12,0,0,0-.18-.15Z"/><path class="cls-1" d="M105.47,41.21l-.75.76c-.07.07,0,.19.1.13l2-1.47-.11-.14-.82,1,.15.12a5.17,5.17,0,0,0,.36-.59.08.08,0,0,0-.12-.09c-.15.18-.27.38-.41.58s.08.2.15.12l.82-1c.06-.07,0-.21-.11-.15l-2,1.5.12.12.74-.77a.08.08,0,0,0-.11-.11Z"/><path class="cls-1" d="M112.15,27.39a77,77,0,0,0-5,6c-.1.16.14.34.26.2a71.25,71.25,0,0,0,4.86-6.09c.08-.1-.09-.24-.17-.14Z"/><path class="cls-1" d="M112.74,26.79c-1.63,1.71-3.22,3.45-4.78,5.25-.09.1.06.26.16.15,1.64-1.71,3.22-3.46,4.77-5.25.09-.11-.06-.26-.15-.15Z"/><path class="cls-1" d="M120.55,32.58a21.32,21.32,0,0,0-3.55,3.3c-1.26,1.28-2.48,2.58-3.61,4a.19.19,0,0,0,.27.27c1.37-1.16,2.64-2.41,3.89-3.69a21.24,21.24,0,0,0,3.22-3.62.16.16,0,0,0-.22-.23Z"/><path class="cls-1" d="M108.14,38.44a14.72,14.72,0,0,0,3.21.52.18.18,0,0,0,.05-.36,14.49,14.49,0,0,0-3.14-.58c-.27,0-.4.37-.12.42Z"/><path class="cls-1" d="M109,38c.86.21,1.72.44,2.58.64a4.93,4.93,0,0,0,2.07.28.23.23,0,0,0,0-.42,5.12,5.12,0,0,0-2.09-.65c-.8-.18-1.62-.34-2.43-.51-.43-.09-.61.56-.18.66Z"/><path class="cls-1" d="M110.53,37.21a23.09,23.09,0,0,0,2.31.61,6.5,6.5,0,0,0,2.09.31.22.22,0,0,0,.12-.41,7.15,7.15,0,0,0-2.18-.66,21.86,21.86,0,0,0-2.26-.41c-.34,0-.36.46-.08.56Z"/><path class="cls-1" d="M112.17,36.21l2,.42a3.71,3.71,0,0,0,1.62.12.19.19,0,0,0,0-.35,4,4,0,0,0-1.59-.54l-1.85-.38c-.48-.09-.68.63-.2.73Z"/><path class="cls-1" d="M113.31,35.72a9.12,9.12,0,0,0,3,.16.16.16,0,0,0,0-.29,9.84,9.84,0,0,0-3.07-.45c-.37,0-.37.54,0,.58Z"/><path class="cls-1" d="M115,34.71a10.11,10.11,0,0,0,2.25.23.26.26,0,0,0,.07-.51,10.38,10.38,0,0,0-2.23-.36.32.32,0,1,0-.09.64Z"/><path class="cls-1" d="M117.56,34.16a9.45,9.45,0,0,0,2-.56.14.14,0,0,0-.07-.25,10,10,0,0,0-2,.36c-.29.07-.16.52.13.45Z"/><path class="cls-1" d="M107.91,39a14.73,14.73,0,0,0,1.77-1.28,13.24,13.24,0,0,0,1.81-1.52.36.36,0,0,0-.43-.56,11.15,11.15,0,0,0-1.75,1.32,16.34,16.34,0,0,0-1.79,1.54.32.32,0,0,0,.39.5Z"/><path class="cls-1" d="M107.19,39.49c.8-.7,1.61-1.38,2.36-2.13.14-.15-.06-.42-.23-.29-.86.65-1.66,1.37-2.47,2.08-.23.21.11.54.34.34Z"/><path class="cls-1" d="M83.74,59.48a4.18,4.18,0,0,0,1.71.66.28.28,0,0,0,.2-.47,4,4,0,0,0-1.48-.92c-.48-.23-.91.48-.43.73Z"/><path class="cls-1" d="M105.15,38.27c-.08.74-.09,1.48-.19,2.21s1,.75,1.08.14.24-1.4.37-2.1l-1.26-.17c-.09.86-.12,1.72-.16,2.58h1.34c-.11-1.17-.22-2.34-.32-3.51a.63.63,0,0,0-1.26,0l-.09,1c-.06.71,1,.83,1.23.16l.21-.77a.59.59,0,0,0-1-.57c-.92,1-1.94,2-2.91,3l1,.59a1.64,1.64,0,0,0,.07-1.07.38.38,0,0,0-.56-.23,1.76,1.76,0,0,0-.66,1,.6.6,0,0,0,1,.58c1-1,1.89-2.08,2.89-3.05l-1-.57-.29.75,1.23.17c0-.34.07-.68.1-1h-1.26l.24,3.51a.67.67,0,0,0,1.34,0c0-.86.1-1.72.1-2.58a.64.64,0,0,0-1.28,0c-.06.71-.13,1.42-.19,2.13h1.1c-.08-.73-.09-1.47-.16-2.21a.38.38,0,0,0-.75,0Z"/><path class="cls-1" d="M105.46,42.76a1.09,1.09,0,0,0-.13-.59.29.29,0,0,0-.5,0,1,1,0,0,0-.14.59c0,.5.8.5.77,0Z"/><path class="cls-1" d="M106.73,42a7.71,7.71,0,0,1,2-.64l-.11-.82a5,5,0,0,0-1.37.62,8.93,8.93,0,0,0-1.23.8c-.28.23,0,.64.33.57a9.68,9.68,0,0,0,1.38-.55,4.74,4.74,0,0,0,1.29-.75c.42-.36-.17-.91-.58-.59a7.52,7.52,0,0,1-1.86.87c-.29.12-.17.6.14.49Z"/><path class="cls-1" d="M52,112.28a10.55,10.55,0,0,0,1.9-1.28.06.06,0,0,0-.07-.09,11.47,11.47,0,0,0-1.91,1.22c-.09.07,0,.21.08.15Z"/><path class="cls-1" d="M56.36,109.79a24.43,24.43,0,0,0-3.3,3.6c-.08.13.1.24.21.16A23.76,23.76,0,0,0,56.54,110a.12.12,0,0,0-.18-.17Z"/><path class="cls-1" d="M57.32,110.63a21.5,21.5,0,0,0-2.77,3.89.1.1,0,0,0,.15.11,22,22,0,0,0,2.91-3.78c.12-.17-.16-.39-.29-.22Z"/><path class="cls-1" d="M58.84,111.66a19.47,19.47,0,0,0-1.43,2.85c0,.13.13.18.2.08a20,20,0,0,0,1.49-2.78c.09-.17-.17-.32-.26-.15Z"/><path class="cls-1" d="M60.88,112.15a19.64,19.64,0,0,0-.85,3.18c0,.07.11.1.14,0a19.64,19.64,0,0,0,.95-3.14.13.13,0,0,0-.24-.07Z"/><path class="cls-1" d="M62.55,112.48a28.34,28.34,0,0,0-.51,3.41.09.09,0,0,0,.17,0,31.33,31.33,0,0,0,.61-3.35c0-.18-.24-.25-.27-.08Z"/><path class="cls-1" d="M66.12,110.93a24.24,24.24,0,0,0-.27,3.7.11.11,0,0,0,.22,0,26,26,0,0,0,.41-3.73c0-.23-.33-.23-.36,0Z"/><path class="cls-1" d="M68.33,111c0,1,0,1.95,0,2.91a.12.12,0,1,0,.24,0c.09-1,0-1.94,0-2.91a.16.16,0,0,0-.32,0Z"/><path class="cls-1" d="M70.37,110.58a24.4,24.4,0,0,0,.4,3.41c0,.15.26.11.27,0a24,24,0,0,0-.33-3.37c0-.21-.36-.21-.34,0Z"/><path class="cls-1" d="M72.28,110.92a30.36,30.36,0,0,0,.3,3.17c0,.12.19.08.2,0a27.59,27.59,0,0,0-.14-3.14c0-.22-.37-.23-.36,0Z"/><path class="cls-1" d="M72.27,111.84a19.17,19.17,0,0,0,.17,2.84c0,.14.22.09.23,0a18.84,18.84,0,0,0-.06-2.81c0-.22-.35-.22-.34,0Z"/><path class="cls-1" d="M74.13,112.07a16,16,0,0,0,.21,1.94c0,.14.23.1.24,0a13.53,13.53,0,0,0,0-1.91c0-.28-.44-.28-.43,0Z"/><path class="cls-1" d="M61.33,114.32c2.51,0,5,.11,7.52.07.07,0,.07-.1,0-.11-2.51-.1-5-.1-7.52-.13a.09.09,0,0,0,0,.17Z"/><path class="cls-1" d="M73.26,113.64A59.38,59.38,0,0,0,91.71,104c.09-.08,0-.23-.12-.17a92.12,92.12,0,0,1-18.38,9.67c-.11,0-.07.22.05.18Z"/><path class="cls-1" d="M92.11,103c-1.41,1.27-2.89,2.51-4.19,3.9-.07.07,0,.21.11.14,1.52-1.16,2.91-2.51,4.32-3.8.17-.15-.08-.39-.24-.24Z"/><path class="cls-1" d="M75.9,111.7c-4,.27-8,.29-12,.83a.11.11,0,0,0,0,.22c4,0,8-.6,12-.9.1,0,.1-.16,0-.15Z"/><path class="cls-1" d="M87.18,106.94a31.91,31.91,0,0,1-13.08,6.4c-.08,0,0,.14,0,.13a28.48,28.48,0,0,0,13.25-6.33c.15-.12-.06-.32-.21-.2Z"/><path class="cls-1" d="M76,111.68a12.73,12.73,0,0,0-.29,2.52.13.13,0,0,0,.25,0,13,13,0,0,0,.39-2.5c0-.19-.32-.24-.35,0Z"/><path class="cls-1" d="M77.41,112.65c.08.23.15.45.24.67s.16.05.13,0-.14-.45-.21-.67-.2-.06-.16,0Z"/><path class="cls-1" d="M78.72,113.11a0,0,0,1,0,0-.07s0,.07,0,.07Z"/><path class="cls-1" d="M66.15,113.56a66.91,66.91,0,0,1-9.24-1.29.13.13,0,0,0-.07.26,28.81,28.81,0,0,0,9.31,1.4.19.19,0,0,0,0-.37Z"/><path class="cls-1" d="M87,107a.1.1,0,1,0,0-.21.1.1,0,0,0,0,.21Z"/><path class="cls-1" d="M87.78,106.53a16.73,16.73,0,0,0-.43,1.69.13.13,0,0,0,.26.07,16,16,0,0,0,.46-1.68.15.15,0,0,0-.29-.08Z"/><path class="cls-1" d="M89.12,106.35c0,.26-.07.52-.08.78a.12.12,0,0,0,.24,0c.06-.25.1-.51.14-.77a.15.15,0,1,0-.3,0Z"/><path class="cls-1" d="M59.75,43.66A32,32,0,0,1,81.64,45a.11.11,0,1,0,.09-.21,31.49,31.49,0,0,0-22-1.18s0,.09,0,.08Z"/><path class="cls-1" d="M66.72,43.41A26.12,26.12,0,0,1,77.6,45.12c.09,0,.16-.12.07-.17a19.86,19.86,0,0,0-11-1.8c-.17,0-.17.27,0,.26Z"/><path class="cls-1" d="M76,43.69c2.81,1,7.09,1.66,8.71,4.35a.14.14,0,0,0,.25-.11,3.92,3.92,0,0,0-2.59-2.44c-2-.85-4.2-1.4-6.29-2.09-.18-.06-.26.23-.08.29Z"/><path class="cls-1" d="M77.9,46.89A14,14,0,0,1,85,50.67c.07,0,.19,0,.13-.1a11,11,0,0,0-7.16-4c-.19,0-.28.26-.08.3Z"/><path class="cls-1" d="M84.07,46.66a5.13,5.13,0,0,0,1.11,1.07,6.07,6.07,0,0,0,1.3.88c.06,0,.17,0,.11-.12a6.65,6.65,0,0,0-1.16-1.15,5.21,5.21,0,0,0-1.24-.84c-.09,0-.17.08-.12.16Z"/><path class="cls-1" d="M88.84,48.78A38.39,38.39,0,0,0,85.16,52c-.09.1,0,.27.14.19A40.24,40.24,0,0,0,89.06,49c.16-.14-.07-.36-.22-.23Z"/><path class="cls-1" d="M87.87,48.15c-1.37,1.33-2.73,2.66-4,4.08a.11.11,0,0,0,.15.16c1.44-1.27,2.77-2.62,4.11-4,.17-.16-.09-.42-.26-.26Z"/><path class="cls-1" d="M86.21,46.34c-1,1.22-2,2.43-2.93,3.74-.07.1.09.22.17.13,1.07-1.18,2-2.44,3-3.7.1-.13-.12-.3-.22-.17Z"/><path class="cls-1" d="M84.22,49a0,0,0,1,0,0-.07s0,.07,0,.07Z"/><path class="cls-1" d="M78.28,47.48a8.74,8.74,0,0,1,5.26,1c.07,0,.13-.07.06-.11a7.91,7.91,0,0,0-5.34-1c-.06,0,0,.12,0,.11Z"/><path class="cls-1" d="M75.68,44.38a16.6,16.6,0,0,1,6,2.89c.15.11.3-.12.19-.25a9.44,9.44,0,0,0-6.14-2.91.14.14,0,0,0,0,.27Z"/><path class="cls-1" d="M95.67,61.63c.33.67.65,1.36,1,2,0,.08.16,0,.12-.07-.3-.69-.65-1.36-1-2,0-.1-.2,0-.15.09Z"/><path class="cls-1" d="M89.52,93.34c-1.07,1.27-2.17,2.51-3.14,3.87-.09.12.1.26.21.16,1.14-1.19,2.15-2.49,3.19-3.77.14-.18-.1-.43-.26-.26Z"/><path class="cls-1" d="M81.81,102.4a7.61,7.61,0,0,0,1.5.64.1.1,0,0,0,.08-.18,7.41,7.41,0,0,0-1.43-.73c-.18-.08-.33.18-.15.27Z"/><path class="cls-1" d="M83.31,101.59l1.12.33a.06.06,0,0,0,0-.12c-.37-.13-.74-.24-1.11-.35a.07.07,0,1,0,0,.14Z"/><path class="cls-1" d="M83.63,100.39c.56.16,1.12.33,1.69.45a.08.08,0,0,0,0-.16c-.55-.19-1.12-.32-1.68-.47a.09.09,0,0,0-.05.18Z"/><path class="cls-1" d="M87.44,98c-.94,1-1.89,1.93-2.78,2.94-.07.07,0,.18.1.11,1-.94,1.9-1.92,2.84-2.89.1-.11-.06-.27-.16-.16Z"/><path class="cls-1" d="M80,103.14,82.78,102s0-.1,0-.08L80,103c-.06,0,0,.12,0,.1Z"/><path class="cls-1" d="M92.53,54.28c.56.23,1.14.43,1.72.62s.84.4,1.24.09a.24.24,0,0,0,.06-.23c-.14-.47-.67-.49-1.09-.62-.58-.17-1.17-.34-1.76-.48a.32.32,0,0,0-.17.62Z"/><path class="cls-1" d="M94.14,52.79l1.06.51a1.61,1.61,0,0,0,.89.28.17.17,0,0,0,.15-.26,1.54,1.54,0,0,0-.76-.5l-1.08-.49c-.3-.14-.58.31-.26.46Z"/><path class="cls-1" d="M95.28,52c-2.64,2.54-5.39,5-7.79,7.78a.09.09,0,0,0,.12.12c2.84-2.32,5.39-5,8-7.56a.24.24,0,0,0-.34-.34Z"/><path class="cls-1" d="M89.09,58.2l1-1a0,0,0,1,0-.06-.06l-1,1s0,.09,0,.05Z"/><path class="cls-1" d="M98.66,48.17c-2.8,2.81-5.78,5.53-8.38,8.52a.24.24,0,0,0,.34.34c2.94-2.66,5.6-5.69,8.36-8.54.2-.21-.11-.53-.32-.32Z"/><path class="cls-1" d="M78.82,68.43c-.59.5-1.2,1-1.79,1.5-.06.06,0,.14.09.09.6-.49,1.19-1,1.79-1.51,0-.05,0-.13-.09-.08Z"/><path class="cls-1" d="M69,76.2a1.29,1.29,0,0,0,2.15,1.15c.09-.09,0-.29-.14-.23a1.14,1.14,0,0,1-1.64-.92.19.19,0,0,0-.37,0Z"/><path class="cls-1" d="M69.9,76.08a7,7,0,0,0,.61.92c.06.07.2,0,.16-.09a7.06,7.06,0,0,0-.54-1c-.09-.14-.32,0-.23.14Z"/><path class="cls-1" d="M106.63,31.66c-.89,1.88-.78,4.42-.9,6.46a.2.2,0,0,0,.39.05c.35-2,1-4.48.61-6.5a.06.06,0,0,0-.1,0Z"/><path class="cls-1" d="M113.61,36a9.74,9.74,0,0,0,2.44-.57c.18-.07.17-.37,0-.36a9.28,9.28,0,0,0-2.45.44c-.26.08-.23.52.06.49Z"/><path class="cls-1" d="M66.14,80.08c-.26-.15-.57-.37-.9-.61l-.17-.13.16-.19c2.68-3.2,5.37-6.39,8.1-9.54s5.46-6.31,8.27-9.39,5.63-6.16,8.38-9.29,5.47-6.3,8.15-9.5l.18-.21.22.2,5.34,5.12.31.29-.32.3-9.37,8.44c-3.13,2.81-6.3,5.55-9.45,8.33l-9.48,8.19Zm0-.1,9.3-8.61L84.69,63c3.09-2.75,6.16-5.55,9.27-8.26l9.36-8.17,0,.59-5.16-5.3.4,0c-2.8,3.09-5.58,6.2-8.31,9.35s-5.4,6.36-8.08,9.56S76.73,67,74,70.16s-5.56,6.22-8.37,9.3v-.33Z"/><path class="cls-1" d="M98.38,42.38c-.95,1-1.77,2.17-2.63,3.27a23.29,23.29,0,0,0-2.2,3.11.27.27,0,0,0,.43.33,24.36,24.36,0,0,0,2.44-2.92c.85-1.11,1.75-2.2,2.49-3.38a.34.34,0,0,0-.53-.41Z"/><path class="cls-1" d="M98.13,42.46c-2.44,2.72-4.52,5.8-6.77,8.69-2.51,3.23-5.29,6.27-7.62,9.63-.12.17.15.38.29.23,2.77-3,5.16-6.39,7.76-9.53,2.33-2.83,4.88-5.53,7-8.5.28-.4-.36-.89-.68-.52Z"/><path class="cls-1" d="M85.19,57.15c2-2.58,4.15-5.12,6-7.81.1-.14-.13-.32-.24-.19-2.15,2.47-4.09,5.13-6.09,7.71-.16.21.12.5.29.29Z"/><path class="cls-1" d="M97.48,42.51c-4.62,6.19-9.77,11.67-14.91,17.4a.28.28,0,0,0,.4.4c5.91-4.79,10.91-11.14,15-17.5.21-.33-.29-.6-.51-.3Z"/><path class="cls-1" d="M82.8,59.58c2.48-2.8,5-5.55,7.37-8.45.13-.15-.07-.37-.21-.22-2.59,2.69-5,5.55-7.48,8.35-.19.22.13.54.32.32Z"/><path class="cls-1" d="M97.46,42.27A164.48,164.48,0,0,0,80.72,63.39c-.12.18.14.37.29.22A165.67,165.67,0,0,0,98,42.67c.21-.31-.26-.67-.51-.4Z"/><path class="cls-1" d="M99.54,44.44c-3,3.07-5.94,6.19-8.71,9.48-.14.18.09.42.26.26,3.11-3,6.06-6.07,8.93-9.26a.34.34,0,0,0-.48-.48Z"/><path class="cls-1" d="M99.05,45.43c.58-.37,1.45-1.26.43-.31-.85.81-1.66,1.67-2.47,2.52-1.56,1.62-3.13,3.24-4.59,4.94a.21.21,0,0,0,.29.3,57.16,57.16,0,0,0,8-8.44c.09-.12-.09-.22-.19-.15-.48.37-1,.72-1.48,1-.07,0,0,.15.06.1Z"/><path class="cls-1" d="M84.9,58.76C81,63,77.07,67.19,73.4,71.61c-.11.14.07.33.2.2,4-4.13,7.71-8.53,11.52-12.83.14-.15-.08-.37-.22-.22Z"/><path class="cls-1" d="M72.38,71.71C75.61,68.37,79,65.15,82,61.55c.15-.19-.09-.44-.27-.27C78.26,64.4,75.21,68,72,71.37c-.21.23.13.57.34.34Z"/><path class="cls-1" d="M83.09,59.86c-1.61,1.76-3.27,3.49-4.81,5.3-.11.12.06.3.18.18,1.67-1.7,3.24-3.49,4.85-5.25.15-.15-.08-.38-.22-.23Z"/><path class="cls-1" d="M76.5,67.76C80.24,63.87,84,60,87.6,56a.17.17,0,0,0-.24-.24C83.45,59.45,79.77,63.4,76,67.3c-.3.3.17.77.46.46Z"/><path class="cls-1" d="M96,48.12c-4,4.11-8.19,8.08-11.94,12.43a.18.18,0,0,0,.26.26c4.24-3.87,8.09-8.16,12.08-12.28.26-.27-.15-.67-.4-.41Z"/><path class="cls-1" d="M88.08,56.12c2.77-3.18,5.57-6.33,8.29-9.55.07-.08,0-.19-.11-.12C93.45,49.6,90.72,52.81,88,56c-.08.08.05.21.12.12Z"/><path class="cls-1" d="M98,45.05C95,48.57,91.9,52,89.16,55.69c-.12.17.15.37.29.22,3.18-3.29,6-6.95,9-10.44.24-.29-.17-.71-.42-.42Z"/><path class="cls-1" d="M98.4,43.53a6.41,6.41,0,0,0,.87,1.13c.17.16.39,0,.31-.24a7.22,7.22,0,0,0-.73-1.15c-.2-.27-.64,0-.45.26Z"/><path class="cls-1" d="M101.08,44.21a15.34,15.34,0,0,0,2.34-2.29l2.42-2.59-.74-.75q-2.1,2.33-4.18,4.67c-.47.53.31,1.32.79.78,1.33-1.47,2.65-3,4-4.43l-.78-.77c-1.22,1.47-2.58,2.89-3.67,4.45l.9.53a7.59,7.59,0,0,0,.37-.82c.15-.38-.4-.64-.67-.38a3.52,3.52,0,0,0-.52.57c-.41.5.26,1.22.74.73,1.31-1.32,2.43-2.88,3.63-4.31.44-.53-.3-1.3-.78-.77l-4,4.42.79.78q2.07-2.34,4.13-4.7c.44-.51-.28-1.25-.74-.75-.8.88-1.61,1.74-2.41,2.62a15.25,15.25,0,0,0-2.12,2.5c-.18.31.19.73.51.51Z"/><path class="cls-1" d="M103.89,40c-.36.61-.73,1.21-1.06,1.83a.13.13,0,0,0,.23.14c.42-.57.8-1.17,1.18-1.76.15-.22-.21-.44-.35-.21Z"/><path class="cls-1" d="M112.33,26.46c-2.17,2.22-4.14,4.61-6.16,7l.81.8c2-2.58,4.18-5,6.27-7.54l-.72-.72c-1.88,2.23-3.8,4.44-5.65,6.69-.44.53.27,1.28.76.77,1.9-2,3.78-4,5.69-5.9l-.62-.63c-2.22,2.41-4.35,4.9-6.43,7.41-.4.48.26,1.16.69.69,2.08-2.27,4.31-4.49,6.54-6.64l-.38-.37a56.48,56.48,0,0,0-4.42,5.1c-.23.3.16.73.44.43a56.1,56.1,0,0,0,4.4-5.21c.18-.25-.21-.53-.42-.32-2.22,2.15-4.51,4.31-6.85,6.32L107,35c2.17-2.44,4.32-4.92,6.36-7.47.35-.44-.21-1-.62-.63-1.93,1.94-3.89,3.84-5.83,5.76l.76.77c1.9-2.22,3.74-4.49,5.61-6.74.41-.5-.29-1.22-.72-.72-2.11,2.49-4.16,5.05-6.36,7.46-.5.54.33,1.36.81.8,2-2.39,4.11-4.75,6-7.26.28-.38-.32-.83-.64-.5Z"/><path class="cls-1" d="M112,29.84a38.92,38.92,0,0,0-2.25,3.43c-.11.2.17.44.33.25a41,41,0,0,0,2.5-3.35c.24-.35-.33-.68-.58-.33Z"/><path class="cls-1" d="M108.67,35.71a.1.1,0,0,0,0-.19.1.1,0,0,0,0,.19Z"/><path class="cls-1" d="M106.82,37.7a67,67,0,0,0,4.64-4.9.16.16,0,0,0-.22-.22,67.08,67.08,0,0,0-4.79,4.75c-.23.24.14.61.37.37Z"/><path class="cls-1" d="M111.94,32.6c-.71.91-1.43,1.82-2.12,2.74-.07.09.08.2.15.12.74-.87,1.45-1.77,2.16-2.66.12-.14-.08-.34-.19-.2Z"/><path class="cls-1" d="M100.42,46.67c-.62.65-1.28,1.28-1.85,2a.17.17,0,0,0,.24.24c.69-.58,1.32-1.23,2-1.85.24-.23-.13-.6-.35-.36Z"/><path class="cls-1" d="M98.46,44.32a3.93,3.93,0,0,0,.32.8.15.15,0,0,0,.27-.08,4.12,4.12,0,0,0-.15-.84.23.23,0,0,0-.44.12Z"/><path class="cls-1" d="M99,45a6,6,0,0,1,0-1.12l-.57-.08a8.7,8.7,0,0,0,.09,2l.63-.08c-.08-.86-.15-1.71-.16-2.57a.35.35,0,0,0-.69,0v.71H99c0-.51-.13-1-.13-1.55h-.72l.14-.1a.37.37,0,0,0-.41.17,1.72,1.72,0,0,0-.33,1.21.34.34,0,0,0,.56.15,1.83,1.83,0,0,0,.45-1.17l-.47.35a.58.58,0,0,0,.77-.7c-.09-.47-.78-.27-.7.19s.1,1,.14,1.45a.35.35,0,0,0,.7,0v-.71h-.69c.12.86.16,1.71.21,2.57a.32.32,0,0,0,.64,0,8.73,8.73,0,0,0-.15-2c-.07-.36-.65-.21-.56.16A5.28,5.28,0,0,1,98.6,45,.19.19,0,0,0,99,45Z"/><path class="cls-1" d="M65.6,79.79l.16,0-.22-.22,0,.08a.46.46,0,0,0,.32.33l.33.07a.45.45,0,0,0,.34-.82.58.58,0,0,1-.15-.11l-.08.64a6.09,6.09,0,0,0,.81-1.19,3.71,3.71,0,0,0,.62-1.28c0-.35-.31-.77-.67-.51a3.53,3.53,0,0,0-.9,1.12,5.5,5.5,0,0,0-.74,1.34.53.53,0,0,0,.37.65.65.65,0,0,1,.29.11l.34-.82a1.81,1.81,0,0,0-.31-.09.46.46,0,0,0-.45.12l-.06.06.31-.08-.17,0a.3.3,0,0,0-.16.58Z"/><path class="cls-1" d="M66.49,79.41a26,26,0,0,0,3.9-4.85c.2-.32-.24-.62-.5-.39A26,26,0,0,0,65.7,78.8c-.33.48.39,1,.79.61Z"/><path class="cls-1" d="M67.65,77.49c1-.24,1.82-1.51,2.5-2.24a17.18,17.18,0,0,0,2.32-2.86c.13-.22-.14-.53-.37-.37a16.76,16.76,0,0,0-2.68,2.51c-.68.73-1.9,1.64-2.08,2.65a.26.26,0,0,0,.31.31Z"/><path class="cls-1" d="M71.78,72.58a15.42,15.42,0,0,1-3.33,3.32l.5.65a59.57,59.57,0,0,0,6.83-8.12c.14-.2-.15-.4-.32-.25A59.48,59.48,0,0,0,68.36,76a.41.41,0,1,0,.7.41A15.44,15.44,0,0,1,71.9,72.7c.07-.08-.05-.2-.12-.12Z"/><path class="cls-1" d="M76,68c-2.23,2.4-4.49,4.76-6.68,7.19l.6.6A148.63,148.63,0,0,0,80.81,62.68c.1-.15-.12-.3-.25-.19A146.23,146.23,0,0,0,69.32,75.23c-.35.41.23,1,.6.6,2.19-2.45,4.3-5,6.45-7.42.21-.25-.14-.61-.37-.37Z"/><path class="cls-1" d="M80.9,61.8c-2.62,3-5.29,5.84-7.84,8.85-.39.46.25,1.12.67.67,2-2.23,4.07-4.43,6.12-6.64,1-1.1,2-2.21,3-3.33.45-.49,2.62-2.44,2-2.86-1.22-.8-11.07,11.74-12.33,13.32-.11.13.07.32.19.19,3.85-4,7.9-7.67,11.54-11.84a.24.24,0,0,0-.35-.34c-2.14,2-4.18,4.13-6.18,6.28-1,1.08-2,2.16-3,3.26-.3.33-2.41,2.45-.81,1.46,2.2-1.37,4.12-4.21,5.86-6.13,2-2.24,4-4.5,5.94-6.84a.26.26,0,0,0-.36-.37c-4.56,3.84-8.31,8.79-12.34,13.17l.67.67c2.62-2.95,5.12-6,7.67-9,.3-.35-.19-.86-.5-.51Z"/><path class="cls-1" d="M79.2,65.18l-4.15,4.39c-.07.07,0,.19.12.11l4.16-4.37c.09-.08,0-.22-.13-.13Z"/><path class="cls-1" d="M66.33,80.24a6.3,6.3,0,0,0,1.7-1.3,12.55,12.55,0,0,0,1.61-1.65c.18-.25-.17-.54-.4-.4a12.39,12.39,0,0,0-1.73,1.35A6.43,6.43,0,0,0,66,79.81c-.11.2.08.53.33.43Z"/><path class="cls-1" d="M68.26,76.42a2.17,2.17,0,0,0,1.8,1.77.26.26,0,0,0,.13-.49,10.38,10.38,0,0,1-.88-.59,3.14,3.14,0,0,1-.62-.87c-.12-.25-.47-.07-.43.18Z"/><path class="cls-1" d="M69.59,76.24a12.25,12.25,0,0,0,1.25.76c.15.09.34-.13.19-.25-.39-.32-.8-.6-1.22-.89-.23-.15-.45.23-.22.38Z"/><path class="cls-1" d="M70.45,75.19a11.58,11.58,0,0,0,1.28,1.14c.17.12.34-.14.21-.28a10.89,10.89,0,0,0-1.22-1.13c-.18-.17-.45.1-.27.27Z"/><path class="cls-1" d="M71.57,74.89c.34.19.67.38,1,.55a.08.08,0,0,0,.08-.14l-1-.58c-.11-.06-.21.11-.1.17Z"/><path class="cls-1" d="M71.55,73.75a9.93,9.93,0,0,0,1.38,1.37c.13.09.31-.09.22-.23a10.43,10.43,0,0,0-1.32-1.42.2.2,0,0,0-.28.28Z"/><path class="cls-1" d="M72.66,73.71a5.53,5.53,0,0,0,1.06.53c.1,0,.18-.1.1-.17a4.69,4.69,0,0,0-1-.63.16.16,0,0,0-.16.27Z"/><path class="cls-1" d="M72.71,72.09c0,.78.56,1.93,1.48,1.92a.19.19,0,0,0,.13-.32c-.19-.22-.46-.37-.65-.59a1.81,1.81,0,0,1-.44-1c0-.33-.54-.34-.52,0Z"/><path class="cls-1" d="M73.45,71.9a13.41,13.41,0,0,0,1.25.88.12.12,0,0,0,.14-.18,12.82,12.82,0,0,0-1.24-1c-.15-.12-.3.15-.15.26Z"/><path class="cls-1" d="M74.26,71.15a5.76,5.76,0,0,0,1.44,1,.14.14,0,0,0,.16-.21,6.17,6.17,0,0,0-1.34-1.15c-.19-.14-.44.18-.26.33Z"/><path class="cls-1" d="M75.53,70.53a4.1,4.1,0,0,0,1,.53.21.21,0,0,0,.2-.35,4.19,4.19,0,0,0-.91-.65c-.3-.18-.57.29-.28.47Z"/><path class="cls-1" d="M75.9,68.72c.06.68.72,1.6,1.5,1.3.11,0,.17-.22,0-.29-.47-.23-1-.39-1-1,0-.31-.52-.31-.49,0Z"/><path class="cls-1" d="M76.42,68.17c0,.83.94,1.61,1.73,1.14a.18.18,0,0,0-.09-.33,1,1,0,0,1-1.17-.81.24.24,0,0,0-.47,0Z"/><path class="cls-1" d="M77.14,68a9.28,9.28,0,0,0,1.31,1,.23.23,0,0,0,.28-.37,9.3,9.3,0,0,0-1.2-1c-.27-.23-.66.17-.39.39Z"/><path class="cls-1" d="M77.92,67.49a5.52,5.52,0,0,0,.88.79.26.26,0,0,0,.35-.36,5.45,5.45,0,0,0-.79-.87c-.28-.29-.72.16-.44.44Z"/><path class="cls-1" d="M78.32,66.53a12.59,12.59,0,0,0,1.19.88.17.17,0,0,0,.21-.26,10.8,10.8,0,0,0-1.09-.94c-.22-.18-.53.14-.31.32Z"/><path class="cls-1" d="M79.18,65.45a5.06,5.06,0,0,0,1.47,1.1.14.14,0,0,0,.16-.21,4.61,4.61,0,0,0-1.32-1.2c-.21-.18-.52.12-.31.31Z"/><path class="cls-1" d="M80.16,64.88a8.12,8.12,0,0,0,1,.73.16.16,0,0,0,.2-.25,7,7,0,0,0-1-.83.22.22,0,1,0-.27.35Z"/><path class="cls-1" d="M80.69,63.37a9.11,9.11,0,0,0,.84.8c.14.11.35-.11.25-.25a9.11,9.11,0,0,0-.8-.84.21.21,0,0,0-.29.29Z"/><path class="cls-1" d="M81.44,62.1c.34.77,1.3,1.85,2.24,1.68.18,0,.17-.26,0-.35-.32-.22-.72-.29-1-.52a2.75,2.75,0,0,1-.84-1c-.13-.28-.52,0-.4.23Z"/><path class="cls-1" d="M82.44,61.65a2,2,0,0,0,1.8,1.12c.15,0,.14-.23,0-.3-.54-.35-1-.48-1.41-1.07a.25.25,0,0,0-.43.25Z"/><path class="cls-1" d="M83.28,60.56A6.67,6.67,0,0,0,84.92,62a.2.2,0,0,0,.27-.27,6.73,6.73,0,0,0-1.52-1.59c-.26-.25-.66.15-.39.4Z"/><path class="cls-1" d="M84.39,59.9a12.54,12.54,0,0,0,1.36,1.17c.17.11.33-.13.21-.27a14.58,14.58,0,0,0-1.31-1.17c-.18-.15-.45.11-.26.27Z"/><path class="cls-1" d="M85.55,59.14c.24.8,1.28,2,2.22,1.5a.17.17,0,0,0,0-.31c-.28-.18-.63-.22-.92-.4a1.65,1.65,0,0,1-.73-1,.3.3,0,0,0-.57.16Z"/><path class="cls-1" d="M86.91,58a9,9,0,0,0,1,1.12.21.21,0,0,0,.32-.26,9.43,9.43,0,0,0-1-1.21c-.21-.25-.57.11-.36.35Z"/><path class="cls-1" d="M87.81,56.58a12.66,12.66,0,0,0,1.62,1.49c.15.1.36-.11.25-.26a13.26,13.26,0,0,0-1.54-1.55c-.21-.21-.54.12-.33.32Z"/><path class="cls-1" d="M89.5,55.37a2,2,0,0,0,1.64,2c.15,0,.25-.22.13-.31a2.42,2.42,0,0,1-1.09-1.72c0-.44-.7-.44-.68,0Z"/><path class="cls-1" d="M90.58,54c.21.7.78,1.6,1.59,1.63a.28.28,0,0,0,.2-.48c-.18-.21-.43-.35-.62-.55a1.91,1.91,0,0,1-.44-.8.38.38,0,0,0-.73.2Z"/><path class="cls-1" d="M91.45,52.15A10,10,0,0,0,93,53.83c.23.15.45-.14.35-.35a9.49,9.49,0,0,0-1.45-1.78c-.28-.31-.73.14-.46.45Z"/><path class="cls-1" d="M92.44,50.86a12.1,12.1,0,0,0,2.14,1.63c.17.08.43-.11.29-.29a11.7,11.7,0,0,0-2-1.77c-.3-.24-.73.18-.42.43Z"/><path class="cls-1" d="M94.25,49.82a15.09,15.09,0,0,0,2.42,1.35.2.2,0,0,0,.19-.34,14.62,14.62,0,0,0-2.35-1.46.26.26,0,0,0-.26.45Z"/><path class="cls-1" d="M96,47.71a2.92,2.92,0,0,0,2.22,2c.25,0,.29-.31.12-.43a3.86,3.86,0,0,1-1.67-1.72c-.17-.41-.83-.23-.67.18Z"/><path class="cls-1" d="M97.62,46.67l1.16,1a3.62,3.62,0,0,0,1,.76c.2.07.33-.17.25-.33a3.68,3.68,0,0,0-.9-.95l-1.08-1c-.31-.28-.77.18-.46.46Z"/><path class="cls-1" d="M98.69,45.83l1.26,1a3.89,3.89,0,0,0,1.17.77.26.26,0,0,0,.29-.38,4,4,0,0,0-1-1l-1.19-1c-.37-.31-.92.23-.54.54Z"/><path class="cls-1" d="M100.05,44.67a2.82,2.82,0,0,0,2.33,1.65c.31,0,.31-.4.07-.5a3.14,3.14,0,0,1-1.76-1.52c-.21-.43-.84-.06-.64.37Z"/><path class="cls-1" d="M102.11,43.41a5.61,5.61,0,0,0,1.13.67.16.16,0,0,0,.18-.24,5.84,5.84,0,0,0-.93-.93.31.31,0,1,0-.38.5Z"/><path class="cls-1" d="M102.8,42a5.3,5.3,0,0,0,1.14.87c.22.1.49-.11.35-.35a5,5,0,0,0-1-1c-.34-.32-.85.21-.51.5Z"/><path class="cls-1" d="M109.16,38.78a4.76,4.76,0,0,0,3.93-.77c.16-.14,0-.43-.22-.36a7.48,7.48,0,0,1-3.64.64c-.28,0-.34.44-.07.49Z"/><path class="cls-1" d="M108.45,39.87a13,13,0,0,1-2.42,3.2,10.12,10.12,0,0,1-1.6,1.2,7.46,7.46,0,0,0-1.54,1.25l-.16.17-.17-.17c-.77-.73-1.75-1.26-2.57-1.93l-.47-.39.47-.54a24.87,24.87,0,0,1,2.76-2.86,17.81,17.81,0,0,1,3.33-2.28l.1.1a17.75,17.75,0,0,1-2.37,3.27,24.91,24.91,0,0,1-2.92,2.7v-.93c.7.81,1.24,1.77,2,2.53h-.33a7.86,7.86,0,0,0,1.29-1.52,9.52,9.52,0,0,1,1.24-1.57,12.49,12.49,0,0,1,3.26-2.34Z"/><path class="cls-1" d="M95.83,54.94a37.45,37.45,0,0,1-3.49,52.49,38.89,38.89,0,0,1-26.79,9.45,39.54,39.54,0,0,1-26.11-11A38,38,0,0,1,27.89,79.83,38.57,38.57,0,0,1,30.2,65.4,38,38,0,0,1,63.59,40.47a37.55,37.55,0,0,1,26.83,9.07l-.13.15A38.3,38.3,0,0,0,63.71,42a36,36,0,0,0-13.36,3.85,37.41,37.41,0,0,0-20.58,33.9,37.82,37.82,0,0,0,10.45,25.36,36.3,36.3,0,0,0,25.34,11.09,37,37,0,0,0,25.66-10,38.61,38.61,0,0,0,8.33-11.15,37.91,37.91,0,0,0,3.77-13.4A37.52,37.52,0,0,0,102,67.72a38.3,38.3,0,0,0-6.3-12.65Z"/><path class="cls-1" d="M90.84,60.22A30,30,0,0,1,97.66,82a30.43,30.43,0,0,1-10.53,20.5,31.74,31.74,0,0,1-21.72,7.21,32.32,32.32,0,0,1-21-8.92,30.78,30.78,0,0,1-9.38-21A31.46,31.46,0,0,1,36.85,68.1,30.71,30.71,0,0,1,52.27,50.78c.9-.39,1.79-.84,2.71-1.18s1.86-.67,2.82-.91a29.33,29.33,0,0,1,5.81-1,30.27,30.27,0,0,1,21.69,7l-.12.16a31.07,31.07,0,0,0-21.43-5.58A30.25,30.25,0,0,0,37,79.7,30.61,30.61,0,0,0,45.23,100a29.16,29.16,0,0,0,20.21,9A29.84,29.84,0,0,0,86,101.21a31.42,31.42,0,0,0,6.81-8.77,31,31,0,0,0,3.28-10.63,31.35,31.35,0,0,0-5.44-21.47Z"/><path class="cls-1" d="M85.56,65.21A23.1,23.1,0,0,1,82,97.13a24.23,24.23,0,0,1-16.47,5.28A24.76,24.76,0,0,1,49.7,95.66a23.72,23.72,0,0,1-1.6-32.42,23.13,23.13,0,0,1,7-5.57,24.65,24.65,0,0,1,8.5-2.58A23.1,23.1,0,0,1,80.15,59.8l-.09.13a23.67,23.67,0,0,0-16.34-3.67A23.14,23.14,0,0,0,43.9,79.78a23.55,23.55,0,0,0,6.38,15.3,22.33,22.33,0,0,0,15.28,6.85,22.91,22.91,0,0,0,15.65-5.75,24,24,0,0,0,5.26-6.55,23.43,23.43,0,0,0,2.63-8,23.14,23.14,0,0,0-.37-8.45,15.39,15.39,0,0,0-.57-2.06,16.71,16.71,0,0,0-.71-2,26.66,26.66,0,0,0-2-3.81Z"/><path class="cls-1" d="M79.18,68.73A15.84,15.84,0,0,1,83,80.23a16.65,16.65,0,0,1-1.63,6,16,16,0,0,1-3.8,5,16.83,16.83,0,0,1-11.5,4,17.14,17.14,0,0,1-11.18-4.7A16.38,16.38,0,0,1,65.12,62.36a16,16,0,0,1,11.51,3.82l-.07.07a16.42,16.42,0,0,0-11.37-3.11,16,16,0,0,0-9.92,27,15.43,15.43,0,0,0,10.8,4.74A15.77,15.77,0,0,0,77,90.58a16.32,16.32,0,0,0,5.23-10.41A16.61,16.61,0,0,0,79.1,68.79Z"/><path class="cls-1" d="M74.14,74a8.74,8.74,0,0,1,1.5,6.38,9,9,0,0,1-3.37,5.72,9.4,9.4,0,0,1-6.34,1.8,9.8,9.8,0,0,1-6-2.66,9,9,0,0,1-2.76-6,9.1,9.1,0,0,1,8-9.57,8.84,8.84,0,0,1,6.34,1.65l0,.06a9.19,9.19,0,0,0-6.21-1.13,8.86,8.86,0,0,0-5,14.73A8.34,8.34,0,0,0,66,87.68a8.54,8.54,0,0,0,5.93-2,9.15,9.15,0,0,0,3.19-5.33,9.34,9.34,0,0,0-1-6.24Z"/><path class="cls-1" d="M120.56,32.66c-.48.56-1,1.16-1.51,1.78l-1.63,1.94c-1.13,1.34-2.37,2.7-3.64,4l-.2.19h-.28c-1.19,0-2.39-.06-3.59-.15s-2.39-.18-3.59-.24l-.3,0v-.27c.07-1.19.06-2.39,0-3.59s-.11-2.39-.17-3.59v-.14l.13-.15q1.67-1.93,3.4-3.78l3.51-3.68,1.34-1.4,0,2c0,2.4,0,4.79-.15,7.19L113.3,32c1.3.05,2.6.17,3.83.3S119.49,32.6,120.56,32.66Zm-.14.06c-1.33.06-2.6.2-3.76.32s-2.26.24-3.36.29l-.61,0,0-.67c-.11-2.4-.19-4.79-.16-7.19l1.37.57-3.68,3.51c-1.24,1.15-2.5,2.29-3.78,3.4l.12-.29c-.07,1.2-.15,2.39-.17,3.59s0,2.4,0,3.59l-.28-.28c1.2-.06,2.39-.17,3.59-.24s2.4-.16,3.59-.15l-.47.2c1.13-1.13,2.28-2.16,3.54-3.22l2-1.65C119,34,119.7,33.36,120.42,32.72Z"/></svg>