<?xml version="1.0" encoding="utf-8"?>
<!-- Generator: Adobe Illustrator 22.1.0, SVG Export Plug-In . SVG Version: 6.00 Build 0)  -->
<svg version="1.1" id="Layer_4" xmlns="http://www.w3.org/2000/svg" xmlns:xlink="http://www.w3.org/1999/xlink" x="0px" y="0px"
	 viewBox="0 0 145 145" style="enable-background:new 0 0 145 145;" xml:space="preserve">
<style type="text/css">
	.st0{fill:#5C5463;}
</style>
<title>confidence3</title>
<path class="st0" d="M133.5,64.4l-30.1,11.9l-15.4,6c-5.2,2-10.4,3.9-15.6,5.8L72,88.2l-0.3-0.1l-15.3-6.2l-7.7-3.1l-7.7-3
	c-5.1-2-10.3-4-15.4-5.9c-5.1-1.9-10.3-3.8-15.5-5.7l-1.4-0.5l1.4-0.5l15.6-5.8l15.6-5.7l15.6-5.7l15.7-5.6l0.4-0.1l0.3,0.1
	c5.1,2,10.2,3.9,15.3,6l15.1,6.1l14.9,6.1L133.5,64.4z M133.3,64.4c-5.1-1.9-10.3-3.8-15.4-5.7l-15.2-5.5l-15-5.5
	c-5-1.8-9.9-3.7-14.9-5.6h0.7l-15.7,5.6l-15.7,5.5l-15.7,5.5l-15.8,5.3v-1c5.1,2,10.2,4.1,15.3,6.1s10.2,4,15.4,5.9l7.7,2.8l7.8,2.8
	l15.5,5.7h-0.6c5.1-1.9,10-3.8,15.1-5.7l15.2-5.4l15.5-5.4L133.3,64.4z"/>
<path class="st0" d="M36.4,73.8c0.3,2.9,0.5,5.8,0.7,8.7s0.3,5.8,0.5,8.7l-0.1-0.5c1.8,2.6,4,5,6.5,7c7.6,6.4,17.4,9.6,27.3,9
	c6.5-0.2,12.9-1.7,18.8-4.3c5.9-2.6,11-6.7,14.8-11.9l-0.1,0.4c0.1-2.7,0.2-5.4,0.3-8.1s0.3-5.4,0.4-8.1h0.2
	c0.2,2.7,0.3,5.4,0.4,8.1s0.2,5.4,0.3,8.1v0.2l-0.2,0.2c-3.7,5.8-9.1,10.3-15.4,12.9c-6.2,2.7-12.9,3.9-19.7,3.6
	c-6.7-0.3-13.2-1.6-19.5-4c-3.1-1.2-6.1-2.8-8.8-4.8c-2.8-2-5.1-4.5-7-7.4l-0.1-0.2v-0.3v-4.3v-4.3c0-2.9,0.1-5.8,0.3-8.7H36.4z"/>
<path class="st0" d="M72.6,59.7c9.6,2.3,20.8,5.2,29.1,10.8c10.6,7.1,3.5,20.2,6.8,30.2c0.1,0.4,0.8,0.4,0.8-0.1
	c-0.9-9.4,3.2-22.8-5-29.9c-3.4-3-8.1-4.7-12.3-6.2c-6.3-2.2-12.7-4.1-19.2-5.6C72.3,58.8,72,59.6,72.6,59.7z"/>
<path class="st0" d="M108.9,101.1c-0.7-0.3-1.5,0-1.9,0.7c0,0,0,0.1,0,0.1c-0.1,0.3,0.1,0.6,0.4,0.6c0.1,0,0.3,0,0.4-0.1
	c0.2-0.1,0.3-0.2,0.5-0.3c0.2-0.1,0.4-0.1,0.6-0.1c0.3-0.1,0.4-0.4,0.3-0.6C109.1,101.3,109,101.2,108.9,101.1z"/>
<path class="st0" d="M107.1,102.4c-0.4,0.5-0.5,1.1-0.2,1.7c0.3,0.6,0.8,1,1.4,1.2c0.9,0.3,1.3-1.1,0.4-1.4c-0.6-0.3-1-0.8-1.2-1.4
	c0-0.1-0.2-0.2-0.3-0.2C107.2,102.3,107.1,102.3,107.1,102.4z"/>
<path class="st0" d="M108.4,102.3c-0.2,0.4-0.1,0.9,0.2,1.2c0.1,0.1,0.2,0.1,0.4,0c0,0,0,0,0,0c0.2-0.4,0.2-0.8,0-1.2
	c0-0.2-0.2-0.2-0.4-0.2C108.5,102.2,108.4,102.3,108.4,102.3L108.4,102.3z"/>
<path class="st0" d="M108.7,101.9c0.3,0.2,0.7,0.4,0.9,0.7c0.2,0.3,0.3,0.6,0.3,1c0,1,1.4,1,1.5,0c0-0.7-0.2-1.4-0.6-1.9
	c-0.4-0.5-1-0.9-1.6-0.9C108.6,100.7,108.2,101.4,108.7,101.9L108.7,101.9z"/>
<path class="st0" d="M108.7,101.6c-0.1,0.6-0.1,1.3,0,1.9c-0.1,0.3,0.1,0.7,0.4,0.9c0.2,0.1,0.5,0.1,0.7,0c0.2-0.1,0.4-0.4,0.4-0.6
	c0.2-0.9-0.2-1.8-0.8-2.4c-0.2-0.1-0.4-0.1-0.5,0.1C108.8,101.5,108.8,101.5,108.7,101.6L108.7,101.6z"/>
<path class="st0" d="M110.1,104.1L110.1,104.1c0.1,0.2,0.3,0.2,0.4,0.1v-0.1c0.1-0.1,0.1-0.4,0-0.5s-0.4-0.1-0.5,0
	C109.9,103.7,109.9,103.9,110.1,104.1L110.1,104.1z"/>
<path class="st0" d="M106.3,120.9c0.3-2,0.5-4,0.4-6c-0.1-3-1.3-6.8,1.8-8.9c0.2-0.2,0.2-0.6,0-0.9c-0.2-0.1-0.4-0.2-0.6-0.1
	c-1.8,1-2.9,2.9-2.8,5c0,3.6,0.8,7.2,0.9,10.9C106,121,106.3,121.1,106.3,120.9z"/>
<path class="st0" d="M107.8,121.7c0.5-5.2-1-10.4,1.4-15.3c0.4-0.8-0.8-1.5-1.2-0.7c-2.6,4.6-1.7,11.1-0.4,16c0,0.1,0.1,0.1,0.2,0.1
	C107.8,121.8,107.8,121.8,107.8,121.7L107.8,121.7z"/>
<path class="st0" d="M109.6,121.6c0.1-0.4,0.1-0.9,0-1.3c0-0.4-0.3-0.6-0.4-1c0,0-0.1-0.1-0.1,0c0,0,0,0,0,0c0,0.2-0.1,0.5-0.2,0.7
	c0,0.2,0,0.4,0,0.6c0,0.4,0.1,0.8,0.2,1.1C109.2,121.9,109.6,121.8,109.6,121.6L109.6,121.6z"/>
<path class="st0" d="M109,118.4c1.2-4.1,1-8.9,1.1-13.2c0-1-1.4-1-1.5,0c-0.1,4.3-0.7,9,0.2,13.2C108.8,118.5,108.9,118.5,109,118.4
	C109,118.5,109,118.5,109,118.4z"/>
<path class="st0" d="M111.1,120.2c0.8-3.3,0.6-6.9,0.5-10.2c0-2,0.4-4.2-1.6-5.3c-0.8-0.5-1.6,0.8-0.7,1.3c1.6,0.9,0.9,6.6,0.9,8
	c-0.1,2.1,0.1,4.2,0.5,6.3c0,0.1,0.1,0.2,0.3,0.2C111,120.3,111.1,120.2,111.1,120.2z"/>
<path class="st0" d="M113.3,121.1c0.2-2.2-0.1-4.4,0.2-6.6c0.2-1.9,0.3-3.8,0.2-5.8c-0.1-1.9-0.2-4.2-2.6-4.1c-0.5,0-0.8,0.8-0.3,1
	c2.5,1.1,1.2,6.7,1.3,8.8S112.2,119.2,113.3,121.1L113.3,121.1L113.3,121.1z"/>
<path class="st0" d="M109.4,104.9c0.5,0.2,1,0,1.2-0.5c0-0.1,0.1-0.2,0.1-0.3c0-0.2-0.2-0.4-0.4-0.4c-0.1,0-0.1,0-0.2,0
	c-0.3,0.2-0.6,0.4-0.8,0.7C109.2,104.6,109.2,104.7,109.4,104.9C109.3,104.9,109.3,104.9,109.4,104.9L109.4,104.9z"/>
<path class="st0" d="M110.5,105.5c1.2,2.4,0.5,4.8,0.7,7.4c0.2,2.1,0.8,4.2,1.7,6.1c0,0,0.1,0.1,0.1,0.1c0,0,0,0,0.1-0.1
	c-0.7-3.2-0.4-6.6-0.4-9.8c0-1.7-0.2-3.2-1.8-4.1c-0.2-0.1-0.4,0-0.4,0.1C110.5,105.3,110.5,105.4,110.5,105.5L110.5,105.5z"/>
<path class="st0" d="M108.4,104.7c-1.9-0.6-3.2,1.8-3.5,3.4c-0.5,3,0,6,1.4,8.6c0.1,0.2,0.4,0.2,0.6,0.1c0.1-0.1,0.2-0.2,0.2-0.3
	c0-2.1-0.7-4.1-0.8-6.2c-0.2-1.1,0-2.2,0.4-3.2c0.4-0.8,1.2-1.1,1.9-1.7c0.1-0.2,0.1-0.4,0-0.6C108.5,104.8,108.5,104.7,108.4,104.7
	z"/>
<path class="st0" d="M107.4,115.5c0.8-1.6,1.4-3.2,1.8-4.9c0.3-1.4,0.9-3.3,0.4-4.7c-0.1-0.2-0.3-0.3-0.5-0.3
	c-0.1,0-0.2,0.1-0.2,0.2c-0.8,1.3-0.7,3-0.9,4.5c-0.3,1.7-0.6,3.4-0.9,5.1C107.1,115.5,107.3,115.7,107.4,115.5z"/>
<path class="st0" d="M108.5,104.9c-0.1,0.7-0.1,1.3,0,2c0.1,0.3,0.5,0.3,0.6,0c0.1-0.7,0.1-1.3,0-2c-0.1-0.2-0.2-0.3-0.4-0.2
	C108.6,104.7,108.5,104.8,108.5,104.9z"/>
<path class="st0" d="M107.6,118.4c0.6-1.9,1.1-3.9,1.4-5.8c0.4-1.7,0.6-3.5,0.6-5.3c0-0.3-0.3-0.5-0.6-0.5c-0.2,0-0.5,0.2-0.5,0.4
	c-0.5,1.7-0.8,3.5-0.9,5.3c-0.2,2-0.3,4-0.2,6C107.4,118.4,107.5,118.5,107.6,118.4C107.5,118.4,107.6,118.4,107.6,118.4
	L107.6,118.4z"/>
<path class="st0" d="M109.9,118.8c0.8-4,1.2-8.6-0.3-12.5c-0.2-0.5-1.1-0.5-1.1,0.2c0.3,4.1,1.2,8.1,1.1,12.3
	C109.7,118.9,109.9,118.9,109.9,118.8L109.9,118.8z"/>
<path class="st0" d="M109.4,121.4c-0.1-1.4-0.1-2.9-0.2-4.4c0.1-1.3,0-2.6-0.2-3.8c0-0.1-0.2-0.2-0.3-0.2c-0.1,0-0.1,0.1-0.2,0.2
	c-1,2.4,0,5.8,0.6,8.2C109.2,121.5,109.4,121.5,109.4,121.4L109.4,121.4z"/>
<path class="st0" d="M111.3,121.6c0.7-3,0.7-6-0.1-9c0-0.1-0.2-0.2-0.3-0.2c-0.1,0-0.2,0.1-0.2,0.2c-0.1,2.9,0.3,5.9,0.4,8.9
	C111.1,121.7,111.3,121.7,111.3,121.6L111.3,121.6z"/>
<path class="st0" d="M112.3,121.2c0.1-3,0.5-6.3-0.3-9.2c-0.1-0.3-0.5-0.3-0.6,0c-0.5,3,0.3,6.3,0.7,9.2
	C112.2,121.3,112.3,121.2,112.3,121.2L112.3,121.2z"/>
<path class="st0" d="M110,120.9v0.2h0.2h-0.1c0,0.1,0.1,0.2,0.1,0.1l0.1-0.1c0,0,0-0.1,0-0.1V121c0,0-0.1-0.1-0.1-0.1
	C110.1,120.9,110,120.9,110,120.9c0,0.1,0,0.1,0,0.2l0,0c0,0,0.1,0.1,0.1,0c0,0,0,0,0,0v-0.2C110.2,120.9,110.1,120.9,110,120.9
	L110,120.9z"/>
<path class="st0" d="M110.3,122.1c0.9-3.6,0.8-7.4-0.2-11c-0.1-0.1-0.2-0.2-0.3-0.1c-0.1,0-0.1,0.1-0.2,0.2
	c0.2,3.7,0.5,7.2,0.5,10.9c0,0.1,0,0.1,0.1,0.1C110.2,122.2,110.3,122.2,110.3,122.1L110.3,122.1z"/>
<path class="st0" d="M109.8,120c0.5-3.1,0.4-6.2-0.4-9.2c-0.1-0.3-0.6-0.3-0.6,0.1c0.3,3,0.6,6.1,0.7,9.1
	C109.5,120.1,109.7,120.1,109.8,120L109.8,120z"/>
<path class="st0" d="M110.4,120.9c0.2-2.1,0.3-5.2-1-7c-0.1-0.2-0.4-0.2-0.5-0.1c-0.1,0.1-0.2,0.2-0.2,0.3c0.1,1,0.3,2,0.6,3
	c0.3,1.2,0.5,2.5,0.6,3.8c0,0.1,0.1,0.2,0.2,0.2C110.3,121.1,110.4,121,110.4,120.9L110.4,120.9z"/>
<path class="st0" d="M110.5,121.9c0.3-2.7-0.2-5.4-1.5-7.9c-0.2-0.2-0.5-0.3-0.7-0.1c-0.2,0.1-0.3,0.3-0.2,0.5
	c0.2,1.3,0.8,2.5,1.1,3.7s0.6,2.5,0.8,3.8C110,122.2,110.4,122.1,110.5,121.9L110.5,121.9z"/>
<path class="st0" d="M110.2,120.7c-0.3-1.5-0.5-3-0.7-4.4c-0.1-1.3-0.4-2.6-0.9-3.8c-0.1-0.1-0.3-0.2-0.4-0.1
	c-0.1,0-0.1,0.1-0.1,0.2c-0.6,2.6,0.8,5.9,1.6,8.3c0,0.1,0.2,0.2,0.3,0.1C110.1,120.9,110.2,120.8,110.2,120.7z"/>
<path class="st0" d="M109.3,119.8c-0.5-1.2-0.8-2.5-1-3.8c-0.2-1.1-0.1-2.3-0.4-3.5c-0.1-0.2-0.3-0.3-0.5-0.3
	c-0.1,0-0.2,0.1-0.3,0.3c-0.7,2.5,0.6,5.4,1.7,7.5C109,120.4,109.4,120.1,109.3,119.8L109.3,119.8z"/>
<path class="st0" d="M108.4,121.1c0.2-1.6,0.2-3.3,0.3-4.9s0.5-3.3,0.5-4.9c0-0.5-0.7-0.7-1-0.3c-1.3,3.2-1.3,6.8-0.2,10.1
	c0,0.1,0.1,0.2,0.2,0.1S108.4,121.2,108.4,121.1L108.4,121.1z"/>
<path class="st0" d="M107.1,120.4c0.6-2.5,0.7-5.1,0.3-7.6c-0.1-0.2-0.3-0.4-0.5-0.3c-0.2,0-0.3,0.2-0.3,0.3
	c-0.5,2.5-0.4,5.1,0.1,7.6c0,0.1,0.2,0.2,0.3,0.2C107,120.6,107.1,120.5,107.1,120.4z"/>
<path class="st0" d="M111.9,120.1c0.3-3,0.6-7.3-1.2-10c-0.1-0.2-0.3-0.3-0.5-0.1c-0.1,0.1-0.2,0.2-0.2,0.3c0.1,1.5,0.3,2.9,0.7,4.3
	c0.3,1.8,0.5,3.6,0.7,5.5c0,0.2,0.2,0.3,0.3,0.2C111.8,120.3,111.9,120.2,111.9,120.1L111.9,120.1z"/>
<path class="st0" d="M103.6,75.8c-0.8,5-0.2,10.6,0.1,15.7c0,0.3,0.3,0.5,0.6,0.5c0.2,0,0.4-0.2,0.5-0.5c0-5.1,0.2-10.7-0.8-15.7
	c0-0.1-0.1-0.2-0.3-0.1C103.6,75.7,103.6,75.8,103.6,75.8z"/>
<path class="st0" d="M101.3,76.9c-0.8,5.8-0.2,11.9,0,17.7c0,0.9,1.4,0.9,1.4,0c-0.2-5.8,0.1-12-1-17.7
	C101.7,76.8,101.4,76.8,101.3,76.9L101.3,76.9z"/>
<path class="st0" d="M98.9,78.1c-0.7,6.3-0.7,12.7,0.2,19c0.1,0.8,1.4,0.9,1.3,0c-0.3-6.2-0.4-12.8-1.2-19
	C99.2,77.9,98.9,77.9,98.9,78.1z"/>
<path class="st0" d="M96.2,78.8c-0.5,6.7-0.3,13.4,0.4,20.1c0,0.3,0.3,0.6,0.6,0.6c0.3,0,0.6-0.3,0.6-0.6c0.2-6.7-0.1-13.5-1.1-20.2
	C96.6,78.5,96.2,78.6,96.2,78.8z"/>
<path class="st0" d="M93.4,79.9c-0.4,3.5,0.1,6.9,0.2,10.4s0.1,6.9,0.4,10.4c0.1,0.6,1,0.6,1,0c-0.3-3.7-0.9-7.5-1.1-11.2
	c-0.2-3.2,0.1-6.4-0.3-9.7C93.6,79.8,93.4,79.8,93.4,79.9L93.4,79.9z"/>
<path class="st0" d="M89.6,81.6c-0.2,3.5-0.1,7.1,0.2,10.6c0.2,3.6-0.1,7.1-0.2,10.6c0,0.9,1.5,0.9,1.4,0c-0.3-3.8-0.7-7.6-0.8-11.4
	c0.1-3.3-0.1-6.6-0.4-9.8C89.8,81.5,89.6,81.5,89.6,81.6L89.6,81.6z"/>
<path class="st0" d="M86,82.8c-0.2,3.6-0.1,7.3,0.2,10.9c0.1,3.6-0.2,7.3-0.1,10.9c0.1,0.3,0.4,0.4,0.6,0.4c0.2,0,0.3-0.2,0.4-0.4
	c-0.1-3.9-0.6-7.8-0.7-11.7c0.1-3.4,0-6.7-0.3-10.1C86.1,82.7,85.9,82.7,86,82.8L86,82.8z"/>
<path class="st0" d="M83.4,98.3c0.1,1.7-0.1,3.5,0.1,5.2l0.7-0.4l-0.3-0.2c-0.2-0.2-0.5-0.1-0.5,0.2c0,0.1,0,0.3,0,0.4
	c0,0.6,1,0.6,1,0c-0.1-1.8-0.7-3.5-0.9-5.2C83.6,98.2,83.4,98.2,83.4,98.3L83.4,98.3z"/>
<path class="st0" d="M82.8,84.6c-0.1,1.2-0.1,2.4,0,3.5c0,0.2,0.2,0.1,0.3,0c0.1-1.2,0.1-2.3,0-3.5c0-0.1-0.1-0.1-0.1-0.1
	C82.9,84.5,82.8,84.6,82.8,84.6L82.8,84.6z"/>
<path class="st0" d="M82.7,92.3l0.1,0.7c0,0.1,0.1,0.1,0.1,0l-0.1-0.7C82.8,92.2,82.7,92.2,82.7,92.3z"/>
<path class="st0" d="M83.3,98.7c0,1.2-0.2,2.4-0.2,3.6s0,2.4,0.1,3.6l1-0.4l-0.3-0.4c-0.1-0.1-0.3-0.2-0.4-0.1
	c-0.1,0.1-0.2,0.2-0.2,0.3l-0.1,0.6c-0.2,0.9,1.2,1,1.2,0.2c-0.1-1.2-0.2-2.4-0.3-3.6s-0.5-2.4-0.6-3.6
	C83.5,98.6,83.3,98.6,83.3,98.7L83.3,98.7z"/>
<path class="st0" d="M80.5,97.3c-0.2,1.7-0.3,3.3-0.3,5c0,1.2-0.3,2.3,0.5,3.3c0.1,0.1,0.2,0.1,0.3,0c0,0,0,0,0,0
	c0.8-1,0.3-2.6,0.2-3.8c-0.1-1.5-0.3-2.9-0.5-4.4C80.8,97.1,80.5,97.2,80.5,97.3L80.5,97.3z"/>
<path class="st0" d="M80,92.9c0,0.5,0,0.9,0,1.4c0,0.1,0.3,0.2,0.3,0c0-0.5,0-0.9-0.1-1.4c0-0.1-0.1-0.1-0.1-0.1
	C80,92.8,80,92.8,80,92.9L80,92.9z"/>
<path class="st0" d="M79.5,85c0,0.8-0.1,1.6-0.1,2.4c-0.1,0.7,0,1.4,0.3,2c0.1,0.2,0.5,0.3,0.6,0c0.2-0.7,0.2-1.4,0-2.1
	c-0.1-0.8-0.3-1.6-0.4-2.3C79.8,84.7,79.5,84.8,79.5,85L79.5,85z"/>
<path class="st0" d="M76.7,86.1c-0.5,1.4-0.5,2.9-0.1,4.4c0,0.1,0.1,0.2,0.2,0.1c0.1,0,0.1-0.1,0.1-0.1c0.4-1.4,0.4-3-0.1-4.4
	C76.8,86,76.8,86,76.7,86.1C76.7,86,76.7,86.1,76.7,86.1z"/>
<path class="st0" d="M76.6,97.1c-0.6,3.2-0.6,6.4-0.2,9.6c0,0.3,0.5,0.3,0.6,0c0.5-3.2,0.4-6.4-0.2-9.6C76.8,97,76.7,97,76.6,97.1
	C76.6,97,76.6,97.1,76.6,97.1z"/>
<path class="st0" d="M80.8,105.7c1.4,0.1,2.9-0.1,4.3-0.6c1.3-0.2,2.5-0.8,3.6-1.6c0.2-0.1,0.2-0.4,0-0.6c-0.1-0.1-0.2-0.1-0.3-0.1
	c-1.3,0.3-2.6,0.7-3.8,1.3c-1.3,0.3-2.6,0.8-3.8,1.3C80.6,105.5,80.7,105.7,80.8,105.7z"/>
<path class="st0" d="M104.7,75.1c-2.6,0.5-5,1.4-7.3,2.7c-0.3,0.2-0.4,0.6-0.2,0.9c0.1,0.2,0.4,0.3,0.7,0.3c2.5-0.6,5-1.7,7.1-3.1
	c0.2-0.1,0.2-0.3,0.1-0.5C105,75.1,104.9,75.1,104.7,75.1L104.7,75.1z"/>
<path class="st0" d="M104.3,76c-0.5,0.3-1,0.4-1.5,0.7s-0.9,0.4-1,0.9c0,0.2,0.1,0.3,0.2,0.4c0.5,0.1,0.9-0.2,1.3-0.5s0.9-0.6,1.4-1
	c0.2-0.1,0.2-0.3,0.1-0.5S104.5,75.8,104.3,76L104.3,76L104.3,76z"/>
<path class="st0" d="M104.3,76.7c-0.3,1-0.4,2-0.3,3c-0.1,1.5-0.3,2.9-0.6,4.3c-0.2,0.8,1.1,1.2,1.3,0.3c0.3-1.4,0.5-2.9,0.5-4.4
	c0-1.1,0.1-2.4-0.6-3.3C104.5,76.5,104.4,76.5,104.3,76.7C104.3,76.6,104.3,76.6,104.3,76.7L104.3,76.7z"/>
<path class="st0" d="M104.8,75.8c-0.3,1-0.4,2-0.3,3l1.1-0.4c-0.1-0.1-0.2-0.2-0.3-0.3c-0.1-0.1-0.4-0.1-0.5,0c0,0,0,0-0.1,0.1
	c-0.1,0.1-0.1,0.2-0.2,0.3c-0.2,0.3,0,0.7,0.3,0.8s0.7,0,0.8-0.3c0-0.1,0.1-0.2,0.1-0.3c0.1-1,0-2-0.3-3c-0.1-0.2-0.3-0.3-0.5-0.3
	C104.9,75.6,104.8,75.7,104.8,75.8z"/>
<path class="st0" d="M105.4,75.1c-0.2,0.5-0.5,1.3-0.2,1.8c0.1,0.2,0.3,0.2,0.5,0.1c0,0,0,0,0.1-0.1c0.4-0.5,0.2-1.3,0.1-1.9
	C105.9,74.8,105.5,74.9,105.4,75.1z"/>
<path class="st0" d="M104.9,75.5c-0.1,0.1-0.2,0.5-0.3,0.6c-0.1,0.1-0.1,0.2-0.1,0.3v0.1c0.1,0.2,0.3,0.3,0.5,0.2
	c0.1,0,0.2-0.1,0.2-0.2c0.1-0.2,0.1-0.5,0.2-0.7S105,75.2,104.9,75.5L104.9,75.5z"/>
<path class="st0" d="M105.1,75.5c-0.6,0.1-1.4,0.8-1.1,1.4c0.1,0.2,0.3,0.3,0.4,0.2c0.1,0,0.2-0.1,0.2-0.2c0.1-0.4,0.1-0.8,0.6-1
	c0.1,0,0.2-0.2,0.1-0.3C105.3,75.5,105.2,75.5,105.1,75.5L105.1,75.5z"/>
<path class="st0" d="M104,76.5c0,0.2,0.1,0.3,0.2,0.5c0,0.1,0.1,0.1,0.2,0.1s0.1-0.1,0.1-0.2l0,0c0-0.2-0.1-0.4-0.1-0.5
	S103.9,76.3,104,76.5z"/>
<path class="st0" d="M104.6,76.6c-0.6,4.1-1.1,8.2-1.3,12.3l0.9-0.7l-0.2-0.1c-0.1,0-0.3,0-0.4,0.1l-0.1,0.1
	c-0.9,0.9,1.1,1.9,1.2,0.5c0.4-4.1,0.6-8.1,0.6-12.2C105.3,76.3,104.6,76.2,104.6,76.6z"/>
<path class="st0" d="M105.4,76.8c-0.6,2.2-0.9,4.5-1,6.8c-0.4,2.6-0.5,5.2-0.4,7.8c0,0.6,0.9,0.8,1.1,0.1c0.5-2.5,0.7-4.9,0.7-7.4
	c0.3-2.4,0.3-4.9,0.1-7.3C105.8,76.6,105.4,76.6,105.4,76.8L105.4,76.8z"/>
<path class="st0" d="M104.7,86.2c-0.1,2-0.3,4-0.3,6l1-0.6l-0.3-0.1c-0.2-0.1-0.4,0-0.5,0.2c0,0,0,0,0,0.1l-0.1,0.3
	c-0.3,0.9,1.3,1.2,1.3,0.2c0-2-0.2-4-0.3-6c0-0.2-0.2-0.4-0.4-0.3C104.8,85.9,104.7,86,104.7,86.2z"/>
<path class="st0" d="M104.1,90.7c-0.7,1-1.5,1.9-2.4,2.8c-0.2,0.2-0.2,0.6,0,0.8s0.6,0.2,0.8,0c1-0.9,1.8-2,2.3-3.2
	c0.1-0.2,0.1-0.5-0.2-0.6S104.2,90.5,104.1,90.7z"/>
<path class="st0" d="M103.6,88.7C103.6,88.7,103.7,88.6,103.6,88.7c0.1-0.1,0-0.2,0-0.2S103.5,88.5,103.6,88.7
	C103.5,88.6,103.5,88.7,103.6,88.7L103.6,88.7z"/>
<path class="st0" d="M103.5,88.5c-0.5,0.4-0.5,1.2-0.6,1.8c-0.1,0.9-0.2,1.8-0.2,2.7c0,0.4,0.3,0.7,0.7,0.7s0.7-0.3,0.7-0.7
	c0.1-0.9,0.1-1.8,0-2.7c0.1-0.6-0.1-1.3-0.4-1.8C103.6,88.5,103.5,88.5,103.5,88.5C103.5,88.5,103.5,88.5,103.5,88.5L103.5,88.5z"/>
<path class="st0" d="M102.7,84c-0.3,1.6-0.5,3.3-0.3,4.9c-0.2,1.7,0,3.4,0.4,5c0.1,0.3,0.3,0.5,0.6,0.4c0.2,0,0.4-0.2,0.4-0.4
	c0.3-1.7,0.3-3.3,0-5c0-1.7-0.2-3.3-0.7-4.9c0-0.1-0.1-0.2-0.2-0.1C102.7,83.9,102.7,83.9,102.7,84L102.7,84z"/>
<path class="st0" d="M102.2,89.1c-0.1,1.5-0.3,3-0.3,4.4l1-0.6l-0.1-0.1c-0.1-0.1-0.3-0.2-0.4-0.1c0,0-0.1,0.1-0.1,0.1V93
	c-1.2,0.7,0.9,2,1,0.6s-0.1-3-0.2-4.4c0-0.2-0.2-0.5-0.5-0.4C102.5,88.7,102.3,88.9,102.2,89.1L102.2,89.1z"/>
<path class="st0" d="M102,81.1c-0.2,1.3-0.2,2.7,0,4c0,0.1,0.1,0.1,0.2,0.1c0.1,0,0.1-0.1,0.1-0.1c0.2-1.3,0.2-2.7-0.1-4
	c0-0.1-0.1-0.2-0.2-0.2C102,80.9,102,81,102,81.1L102,81.1z"/>
<path class="st0" d="M101.9,87.4c0,0.6-0.3,1.4,0.1,1.8c0.1,0.1,0.2,0.1,0.3,0c0,0,0,0,0,0c0.4-0.5,0.1-1.3,0.1-1.8
	c0-0.1-0.1-0.2-0.3-0.2C102,87.2,101.9,87.3,101.9,87.4z"/>
<path class="st0" d="M101.9,77.2c-0.6,1.7-0.5,3.6-0.6,5.4c-0.2,1.8-0.1,3.6,0.2,5.4c0,0.1,0.2,0.2,0.3,0.2c0.1,0,0.1-0.1,0.2-0.2
	c0.4-1.8,0.6-3.6,0.5-5.4c0-1.8,0.3-3.7-0.3-5.4c0-0.1-0.1-0.1-0.2-0.1C102,77.1,101.9,77.1,101.9,77.2z"/>
<path class="st0" d="M102.1,77.4c-0.3,3.6-0.9,7.3-0.5,10.9c0,0.3,0.5,0.4,0.6,0.1c0.7-3.6,0.4-7.4,0.4-11
	C102.6,77.1,102.1,77.1,102.1,77.4L102.1,77.4z"/>
<path class="st0" d="M100.7,89.5c0,1.2-0.1,2.4-0.1,3.7c-0.1,0.9,0,1.9,0.2,2.8c0.1,0.3,0.5,0.1,0.6-0.1c0.3-1,0.3-2,0.1-3
	c0-1.1-0.2-2.3-0.2-3.4c0-0.2-0.2-0.3-0.3-0.2C100.8,89.3,100.7,89.4,100.7,89.5L100.7,89.5z"/>
<path class="st0" d="M101.2,93.8c-0.5,1.9-1.8,3.5-3.5,4.3l0.6,0.8c0.2-0.1,0.3-0.3,0.5-0.5c0.1-0.1,0.1-0.4,0-0.5
	c-0.1-0.1-0.2-0.1-0.4-0.1c-0.2,0-0.4,0.1-0.6,0.2c-0.3,0.1-0.4,0.4-0.3,0.7c0.1,0.3,0.4,0.4,0.7,0.3c2.1-0.9,3.4-2.9,3.5-5.2
	c0-0.2-0.2-0.3-0.3-0.2C101.3,93.7,101.3,93.7,101.2,93.8L101.2,93.8z"/>
<path class="st0" d="M102.2,94.3c-0.4,0.3-0.8,0.6-1.2,1c-0.1,0.1,0,0.3,0.2,0.2c0.4-0.3,0.9-0.6,1.3-1
	C102.6,94.4,102.4,94.2,102.2,94.3L102.2,94.3z"/>
<path class="st0" d="M74,102.4c0,1.6-0.1,3.2,0,4.7c0,0.2,0.3,0.2,0.3,0c0-1.6-0.1-3.2-0.2-4.7C74.1,102.3,74.1,102.3,74,102.4
	C74,102.3,74,102.3,74,102.4C74,102.3,74,102.4,74,102.4L74,102.4z"/>
<path class="st0" d="M72.8,102c0,1-0.3,1.9-0.3,2.8c-0.1,0.7-0.1,1.5,0.2,2.2c0.1,0.1,0.2,0.2,0.4,0.1c0,0,0.1,0,0.1-0.1
	c0.2-0.7,0.3-1.5,0.2-2.2c0-1-0.3-1.9-0.3-2.8C73,101.9,72.9,101.9,72.8,102C72.8,101.9,72.8,102,72.8,102z"/>
<path class="st0" d="M70.9,103.2c-0.2,0.6-0.4,1.3-0.3,2c0,0.6-0.3,1.3,0.2,1.8c0.1,0.1,0.2,0.1,0.3,0c0.5-0.4,0.3-1,0.3-1.5
	c0.1-0.7,0-1.5-0.2-2.2C71.1,103.1,70.9,103.1,70.9,103.2L70.9,103.2z"/>
<path class="st0" d="M70,104.7c-0.1-0.1-0.2-0.3-0.3-0.5c0-0.1-0.1-0.1-0.2-0.1c-0.1,0-0.1,0.1-0.1,0.1c-0.2,0.5-0.3,1-0.4,1.6
	c-0.1,0.3-0.1,0.7,0.3,0.7c0.8,0.1,0.6-1.9,0.5-2.3l-0.2,0.2c0.1,0.1,0.3,0.2,0.4,0.4C69.9,104.8,70,104.8,70,104.7z"/>
<path class="st0" d="M74.2,104.2c-0.3,0.8-0.4,1.7-0.3,2.6c0,0.7,1.2,0.7,1.1,0c-0.1-0.9-0.3-1.8-0.6-2.6
	C74.4,104.1,74.2,104.1,74.2,104.2L74.2,104.2z"/>
<path class="st0" d="M66.4,105.9c-0.3,0-0.5,0-0.8,0c0,0-0.1,0.1-0.1,0.1c0,0,0,0,0.1,0.1c0.4,0.2,0.8,0.3,1.3,0.2
	c0.1,0,0.1-0.1,0.1-0.2c0,0,0-0.1-0.1-0.1c-0.4-0.2-0.8-0.2-1.3-0.1v0.2h0.8c0,0,0.1,0,0.1,0S66.5,105.9,66.4,105.9
	C66.5,105.9,66.5,105.9,66.4,105.9L66.4,105.9z"/>
<path class="st0" d="M72.1,93.7c0,0.9-0.1,1.8-0.1,2.7c0,0,0,0.1,0.1,0.1c0,0,0.1,0,0.1-0.1c0.1-0.9,0-1.8,0.1-2.7
	C72.2,93.7,72.2,93.6,72.1,93.7C72.1,93.6,72.1,93.7,72.1,93.7z"/>
<path class="st0" d="M72,97.8c-0.1,0.7-0.1,1.5-0.1,2.3c0,0.2,0.3,0.1,0.3,0c0.1-0.7,0.1-1.5,0-2.3C72.2,97.7,72.1,97.7,72,97.8
	C72,97.7,72,97.8,72,97.8L72,97.8z"/>
<path class="st0" d="M69.4,92.7c-0.1,1-0.1,2.1,0,3.1c0,0,0,0.1,0.1,0.1c0,0,0.1,0,0.1-0.1c0.1-1,0.2-2.1,0.1-3.1
	c0-0.1-0.1-0.1-0.1-0.1C69.4,92.6,69.4,92.7,69.4,92.7L69.4,92.7z"/>
<path class="st0" d="M69.4,97.5c0,0.7,0,1.4,0,2.1c0,0.1,0.2,0.1,0.2,0c0.1-0.7,0.1-1.4,0.1-2.1C69.6,97.4,69.4,97.4,69.4,97.5
	L69.4,97.5z"/>
<path class="st0" d="M69.2,100.7c-0.1,0.5-0.3,1-0.1,1.5c0.1,0.1,0.2,0.1,0.2,0c0,0,0,0,0,0c0.3-0.4,0.1-1,0.1-1.4
	C69.5,100.5,69.3,100.5,69.2,100.7L69.2,100.7z"/>
<path class="st0" d="M68.3,87.8c-0.1,0.7-0.1,1.4-0.1,2.2c0,0.2,0.3,0.2,0.3,0c0.1-0.7,0.2-1.5,0.1-2.2c0-0.1-0.1-0.1-0.2-0.1
	C68.4,87.6,68.3,87.7,68.3,87.8L68.3,87.8z"/>
<path class="st0" d="M37.2,75.5c0,0.3,0,0.7,0.1,1.1s0.2,0.9,0.3,1.3c0,0.1,0.1,0.1,0.1,0c0-0.4,0-0.9,0-1.3c0-0.4-0.1-0.8-0.2-1.2
	c0-0.1-0.1-0.1-0.2-0.1C37.2,75.3,37.2,75.4,37.2,75.5L37.2,75.5z"/>
<path class="st0" d="M37.8,79c-0.1,2-0.1,4,0,6c0,2.3,0,4.7,0.1,7h0.5c-0.2-2-0.3-4-0.5-6c0-0.1-0.2-0.1-0.2,0c0,2,0.1,4,0.1,6
	c0,0.1,0.2,0.2,0.3,0.2c0.1,0,0.2-0.1,0.2-0.2c0-2.3-0.1-4.7-0.2-7c0-2-0.1-4-0.3-6C38,78.9,37.9,78.9,37.8,79L37.8,79z"/>
<path class="st0" d="M39.7,75c0,0.9-0.2,1.9-0.2,2.9c0,0.8,0.1,1.7,0.3,2.5c0,0.1,0.2,0.1,0.2,0c0.1-0.9,0.2-1.8,0.2-2.7
	c0-0.9-0.2-1.8-0.2-2.7c0-0.1,0-0.2-0.1-0.2S39.7,74.9,39.7,75C39.7,75,39.7,75,39.7,75L39.7,75z"/>
<path class="st0" d="M39.9,82.6c-0.1,2.2-0.3,4.3-0.4,6.5c0,1.9-0.5,3.8-0.1,5.6c0,0.1,0.1,0.1,0.2,0.1c0,0,0.1,0,0.1-0.1
	c0.5-1.8,0.2-3.8,0.3-5.6c0.1-2.2,0-4.3,0.1-6.5C40.1,82.6,40,82.5,39.9,82.6C40,82.5,39.9,82.6,39.9,82.6z"/>
<path class="st0" d="M37.5,92c0.5,0.7,1.1,1.4,1.8,1.9c0.1,0.1,0.2,0,0.3-0.1c0-0.1,0-0.1,0-0.2c-0.5-0.7-1.1-1.3-1.9-1.8
	c-0.1,0-0.2,0-0.2,0C37.5,91.9,37.5,92,37.5,92z"/>
<path class="st0" d="M41.8,76.6c-0.1,0.8-0.1,1.7,0,2.6c0,0.1,0.2,0.2,0.3,0c0.1-0.9,0.2-1.7,0.2-2.6C42.2,76.4,41.8,76.4,41.8,76.6
	L41.8,76.6z"/>
<path class="st0" d="M41.6,83.7c-0.1,4.4-0.4,8.8-0.7,13.3l0.8-0.2l-0.2-0.3c-0.1-0.1-0.2-0.1-0.3-0.1c0,0-0.1,0-0.1,0.1l-0.2,0.3
	c-0.4,0.7,0.8,1,0.8,0.2c0-4.4-0.1-8.8,0-13.3C41.8,83.5,41.5,83.5,41.6,83.7L41.6,83.7z"/>
<path class="st0" d="M43.5,91.8c0,2.2-0.9,5.1-0.1,7.2c0,0.1,0.2,0.2,0.3,0.2c0.1,0,0.2-0.1,0.2-0.2c0.7-2.2-0.1-5-0.2-7.2
	c0-0.1,0-0.1-0.1-0.1S43.5,91.8,43.5,91.8z"/>
<path class="st0" d="M45.6,96.1c-0.1,1.2-0.6,2.7-0.1,3.9c0.1,0.2,0.3,0.3,0.4,0.1c0.6-1.2,0.2-2.7,0.1-4c0-0.1-0.1-0.2-0.3-0.2
	C45.7,95.9,45.6,96,45.6,96.1L45.6,96.1z"/>
<path class="st0" d="M46.1,100.3c0.1,0,0.1-0.1,0.1-0.2c0,0,0-0.1-0.1-0.1C46,100.1,46,100.2,46.1,100.3
	C46,100.3,46,100.3,46.1,100.3z"/>
<path class="st0" d="M47.9,91.2c-0.1,0.9-0.1,1.7,0.1,2.6c0,0.1,0.1,0.1,0.2,0.1c0.1,0,0.1-0.1,0.1-0.1c0.1-0.9,0.1-1.7,0-2.6
	C48.3,91,47.9,91,47.9,91.2L47.9,91.2z"/>
<path class="st0" d="M48.1,96.1c-0.1,0.7-0.1,1.5,0,2.3c0,0.1,0.1,0.1,0.2,0.1c0.1,0,0.1-0.1,0.1-0.1c0.1-0.7,0.1-1.5,0-2.3
	c0-0.1-0.1-0.2-0.2-0.1C48.1,95.9,48.1,96,48.1,96.1L48.1,96.1z"/>
<path class="st0" d="M48.1,99.8c0,0.4,0,0.9,0,1.3c0,0.3,0,0.7,0.2,1c0.1,0.1,0.2,0.1,0.3,0.1c0,0,0,0,0.1-0.1
	c0.1-0.3,0.2-0.7,0.1-1c0-0.4-0.1-0.9-0.2-1.3C48.5,99.5,48.1,99.5,48.1,99.8L48.1,99.8z"/>
<path class="st0" d="M57.2,97.3C57.3,97.3,57.3,97.3,57.2,97.3c0.1-0.1,0-0.1,0-0.1l0,0C57.2,97.2,57.2,97.2,57.2,97.3
	C57.2,97.3,57.2,97.3,57.2,97.3z"/>
<path class="st0" d="M57,100.2c-0.1,0.7-0.1,1.3,0,2c0,0.1,0.1,0.2,0.2,0.1c0.1,0,0.1-0.1,0.1-0.1c0.1-0.7,0.1-1.3,0-2
	c0-0.1-0.1-0.2-0.3-0.2C57,100,56.9,100.1,57,100.2L57,100.2z"/>
<path class="st0" d="M57.3,104.9c0.1,0.1,0.2,0.2,0.3,0.3c0.1,0.1,0.3-0.1,0.2-0.2c-0.1-0.1-0.2-0.2-0.3-0.3c-0.1-0.1-0.2,0-0.2,0
	C57.2,104.8,57.2,104.9,57.3,104.9z"/>
<path class="st0" d="M63.4,99.3v-1.6c0-0.1-0.1-0.1-0.1-0.1c0,0-0.1,0-0.1,0.1c-0.1,1-0.1,1.9,0,2.9c0,0.1,0.2,0.1,0.3,0
	c0.1-1,0-1.9-0.1-2.9h-0.2L63.4,99.3C63.3,99.3,63.3,99.3,63.4,99.3C63.4,99.3,63.4,99.3,63.4,99.3C63.4,99.3,63.4,99.3,63.4,99.3
	L63.4,99.3z"/>
<path class="st0" d="M77.3,84.3c8.7-3.3,17.4-6.6,26-9.9c0.3-0.1,0.2-0.6-0.1-0.5c-8.6,3.4-17.2,6.9-25.9,10.2
	C77.2,84.2,77.3,84.3,77.3,84.3L77.3,84.3z"/>
<path class="st0" d="M69.1,85.3c8.3-2.4,16.5-6.1,24.5-9.3c0.2-0.1,0.1-0.4-0.1-0.3c-8.1,3-16.7,5.7-24.5,9.4
	C68.8,85.1,69,85.3,69.1,85.3z"/>
<path class="st0" d="M66.4,84.6c3.9-0.9,8.1-3.4,11.7-5.2c0.2-0.1,0-0.4-0.2-0.3c-3.8,1.5-8.3,3-11.6,5.3c-0.1,0-0.1,0.1,0,0.2
	C66.3,84.6,66.4,84.6,66.4,84.6z"/>
<path class="st0" d="M63.2,84.4c4.8-2.1,9.6-4.3,14.4-6.6c0.1-0.1,0-0.2-0.1-0.2c-4.8,2.1-9.6,4.3-14.4,6.6
	C63,84.3,63.1,84.5,63.2,84.4z"/>
<path class="st0" d="M63.5,83.2l1.5-0.7c0.1,0,0-0.2-0.1-0.1l-1.5,0.7C63.4,83.1,63.5,83.3,63.5,83.2L63.5,83.2z"/>
<path class="st0" d="M129.9,64.3c-6.6,2.1-13,4.5-19.5,6.6c-0.2,0-0.1,0.3,0.1,0.2c6.5-2.2,13.1-4.1,19.6-6.5
	C130.2,64.6,130.1,64.2,129.9,64.3L129.9,64.3z"/>
<path class="st0" d="M124.1,63.3c-5.5,2.3-11.2,4.1-17.1,5.6c-0.2,0-0.1,0.4,0.1,0.3c5.9-1.2,11.7-3,17.2-5.6
	C124.4,63.5,124.2,63.2,124.1,63.3L124.1,63.3z"/>
<path class="st0" d="M119.6,59.7c-4.4,2.6-9,4.7-13.7,6.5c-0.1,0-0.2,0.1-0.1,0.2c0,0.1,0.1,0.2,0.2,0.1l0,0c5-1.2,9.7-3.4,13.9-6.5
	C120.1,59.8,119.8,59.6,119.6,59.7L119.6,59.7z"/>
<path class="st0" d="M115.8,59.1c-1.9,0.9-3.9,1.8-5.8,2.7c-1.6,0.8-4.2,1.4-5.3,2.8c0.1-0.1,0-0.3-0.1-0.2l-0.3,0.2
	c-0.1,0.1,0,0.4,0.1,0.3c3.9-1.7,7.8-3.6,11.6-5.5C116.2,59.3,116,59,115.8,59.1z"/>
<path class="st0" d="M112.7,58.6c-3.2,1.4-6.8,2.6-9.7,4.5c0,0-0.1,0.1,0,0.2c0,0,0.1,0,0.1,0c3.4-1,6.7-2.9,9.8-4.3
	C113.1,58.8,112.9,58.5,112.7,58.6z"/>
<path class="st0" d="M108.4,58c-1.3,0.6-2.7,1.2-3.9,1.9c-0.1,0.1,0,0.3,0.1,0.3c1.3-0.5,2.7-1.3,4-1.9
	C108.8,58.2,108.7,57.9,108.4,58L108.4,58z"/>
<path class="st0" d="M122.9,60.9c-0.6,0.2-1.2,0.4-1.7,0.6c-0.5,0.2-0.9,0.4-1.3,0.8c-0.1,0.1-0.1,0.3,0,0.4c0,0,0.1,0.1,0.2,0.1
	c0.5-0.1,1-0.2,1.5-0.5c0.6-0.2,1.1-0.5,1.7-0.8c0.2-0.1,0.2-0.3,0.1-0.5C123.2,60.9,123.1,60.9,122.9,60.9z"/>
<path class="st0" d="M124.8,62.3c-0.2,0.1-0.4,0.2-0.6,0.3c-0.2,0.2,0,0.5,0.3,0.4c0.2-0.1,0.4-0.1,0.6-0.3
	C125.4,62.6,125.1,62.1,124.8,62.3z"/>
<path class="st0" d="M114.9,57.7c1.9,1.3,3.9,2.5,5.9,3.5c0.1,0,0.2,0,0.2-0.1c0-0.1,0-0.1-0.1-0.2c-1.9-1.3-3.9-2.5-5.9-3.5
	c-0.1,0-0.2,0-0.2,0.1S114.8,57.6,114.9,57.7L114.9,57.7L114.9,57.7z"/>
<path class="st0" d="M119,59.9c2.2,0.9,4.4,2,6.6,2.6c0.1,0,0.2-0.1,0.2-0.2c0-0.1,0-0.1-0.1-0.2c-2.1-1.1-4.4-1.8-6.7-2.7
	C118.9,59.4,118.8,59.8,119,59.9z"/>
<path class="st0" d="M126.6,63.3c0.1,0,0.1-0.1,0.1-0.1c0,0,0-0.1-0.1-0.1C126.5,63.1,126.5,63.2,126.6,63.3
	C126.5,63.3,126.5,63.3,126.6,63.3z"/>
<path class="st0" d="M115.3,58.2c-2,0.9-4,1.7-5.9,2.8c-0.2,0.1-0.1,0.5,0.2,0.4c2.1-0.7,4-1.7,6-2.6
	C115.9,58.5,115.5,58,115.3,58.2L115.3,58.2z"/>
<path class="st0" d="M112.1,57.5l-0.7,0.3c-0.1,0,0,0.2,0,0.2l0.7-0.3C112.3,57.7,112.2,57.5,112.1,57.5L112.1,57.5z"/>
<path class="st0" d="M110.5,56.8c-1.3,0.5-2.5,1-3.8,1.6c-0.1,0.1,0,0.3,0.1,0.2c1.3-0.5,2.6-1.1,3.8-1.6
	C110.8,57,110.6,56.7,110.5,56.8z"/>
<path class="st0" d="M109.3,55.2c-2.8,1-5.6,2.2-8.3,3.5c-0.1,0.1-0.1,0.2-0.1,0.3c0.1,0.1,0.2,0.1,0.3,0.1c2.8-1,5.6-2.2,8.2-3.6
	C109.6,55.5,109.5,55.1,109.3,55.2z"/>
<path class="st0" d="M106.6,54.3c-5.9,1.8-11.9,4.8-17.4,7.6c-0.2,0.1-0.1,0.4,0.2,0.3c5.8-2.2,12-4.6,17.4-7.7c0.1,0,0.1-0.1,0-0.2
	C106.7,54.3,106.7,54.3,106.6,54.3z"/>
<path class="st0" d="M102.7,52.9c-4.4,1.7-8.9,3.4-13.3,5.3c-0.2,0.1-0.1,0.5,0.2,0.4c4.5-1.6,8.9-3.5,13.2-5.4
	C103,53.2,102.9,52.8,102.7,52.9z"/>
<path class="st0" d="M100.2,51.3c-3.7,1.4-7.4,2.9-11,4.6c-0.2,0.1-0.1,0.4,0.2,0.3c3.8-1.3,7.5-2.8,11.1-4.4
	C100.8,51.7,100.6,51.2,100.2,51.3L100.2,51.3z"/>
<path class="st0" d="M74.7,41.8c-8.2,3-16.3,5.8-24.7,8.1c-0.2,0-0.1,0.3,0.1,0.3c8.6-1.6,16.9-4.3,24.8-8
	C75,42,74.9,41.7,74.7,41.8L74.7,41.8z"/>
<path class="st0" d="M76.4,42.8C66.2,46.3,56.2,50.4,46.5,55c-0.2,0.1,0,0.3,0.1,0.3c10.2-3.5,20.2-7.6,30-12.2
	c0.1-0.1,0.1-0.2,0-0.3C76.6,42.8,76.5,42.7,76.4,42.8L76.4,42.8z"/>
<path class="st0" d="M80.6,43.7c-10.1,3.2-20.1,7.6-29.9,11.8c-0.2,0.1,0,0.4,0.1,0.3c10-3.6,20.3-7.1,29.9-11.7
	C80.9,44,80.8,43.6,80.6,43.7z"/>
<path class="st0" d="M81.6,44.8c-9.3,3.4-18.5,7.7-27.5,11.9c-0.3,0.1-0.1,0.6,0.2,0.5c9.2-3.8,18.6-7.5,27.5-12
	C82,45.1,81.9,44.7,81.6,44.8L81.6,44.8z"/>
<path class="st0" d="M85.3,46.1C80.2,48.4,75.1,50.6,70,53c-0.2,0.1,0,0.4,0.1,0.3c5.2-2.1,10.3-4.5,15.4-6.7
	C85.8,46.5,85.5,46,85.3,46.1L85.3,46.1z"/>
<path class="st0" d="M88.5,47.9c-4.7,2-9.4,3.9-14,6.1c-0.2,0.1-0.1,0.4,0.1,0.3c4.8-1.8,9.4-3.9,14.1-6
	C89.1,48.2,88.8,47.7,88.5,47.9L88.5,47.9z"/>
<path class="st0" d="M91.8,49.1c-3,1-5.8,2.2-8.6,3.7C83,52.8,83,52.9,83,53c0,0.1,0.2,0.2,0.3,0.1c3-1,5.9-2.2,8.7-3.6
	c0.1-0.1,0.2-0.2,0.1-0.3C92.1,49.1,91.9,49,91.8,49.1L91.8,49.1z"/>
<path class="st0" d="M57.2,64.4c4.9-2.2,9.9-4.4,14.8-6.6c0.1,0,0-0.2-0.1-0.2c-5,2.2-9.8,4.4-14.8,6.6C56.9,64.3,57,64.5,57.2,64.4
	L57.2,64.4z"/>
<path class="st0" d="M51.8,49.8C41.2,53.4,30.5,56.7,20,60.6c-0.1,0-0.1,0.1-0.1,0.1c0,0,0.1,0.1,0.1,0.1
	c10.7-3.3,21.2-7.2,31.8-10.8C51.9,50,51.9,49.8,51.8,49.8L51.8,49.8z"/>
<path class="st0" d="M17.4,64.5c11.4-5.1,23-9.1,34.8-13c0.1,0,0.1-0.1,0.1-0.2c0-0.1-0.1-0.1-0.1-0.1c-12,3.3-23.6,7.7-34.8,13.1
	C17.2,64.4,17.3,64.6,17.4,64.5z"/>
<path class="st0" d="M29,62.4C37.5,59,46,55.8,54.3,52c0.2-0.1,0.1-0.5-0.2-0.4c-8.5,3.1-16.9,6.7-25.2,10.1
	C28.5,61.9,28.6,62.6,29,62.4L29,62.4z"/>
<path class="st0" d="M39.4,61.1c6.6-2.9,13.3-5.6,19.8-8.8c0.2-0.1,0-0.4-0.1-0.3c-6.7,2.7-13.3,5.7-20,8.6
	C38.7,60.7,39.1,61.2,39.4,61.1L39.4,61.1z"/>
<path class="st0" d="M40.7,64.1c6.8-3.1,13.6-6.3,20.3-9.8c0.2-0.1,0-0.5-0.2-0.4c-6.9,3-13.6,6.3-20.4,9.6
	C40,63.8,40.4,64.3,40.7,64.1z"/>
<path class="st0" d="M46.5,65.2c7.2-3.2,14.4-6.4,21.4-9.9c0.2-0.1,0-0.3-0.1-0.3c-7.3,3-14.4,6.4-21.6,9.8
	C45.9,64.9,46.2,65.4,46.5,65.2z"/>
<path class="st0" d="M52.6,68.6C60,65.8,67.3,63,74.7,60c0.2-0.1,0.1-0.3-0.1-0.3c-7.4,2.8-14.7,5.7-22.1,8.6
	C52.3,68.4,52.4,68.7,52.6,68.6L52.6,68.6z"/>
<path class="st0" d="M55.1,70.3c8.6-4,17.2-8,25.8-12c0.1,0,0-0.2-0.1-0.1C72.1,62,63.5,66,54.9,70C54.7,70.1,54.9,70.4,55.1,70.3
	L55.1,70.3z"/>
<path class="st0" d="M56.3,74.5c10.2-4.8,20.5-9.3,30.4-14.6c0.3-0.1,0-0.5-0.2-0.4C76.2,64,66.2,69.2,56.1,74.2
	C55.8,74.3,56.1,74.6,56.3,74.5z"/>
<path class="st0" d="M68.8,73.1c6.2-2.8,12.4-5.5,18.4-8.6c0.1-0.1,0-0.2-0.1-0.2C80.8,67,74.7,70,68.6,72.9
	C68.4,72.9,68.6,73.2,68.8,73.1z"/>
<path class="st0" d="M77.8,73.4c4.1-2,8.4-3.8,12.3-6.1c0.1-0.1,0-0.3-0.1-0.2c-4.3,1.7-8.3,4-12.4,6C77.4,73.2,77.6,73.4,77.8,73.4
	L77.8,73.4z"/>
<path class="st0" d="M16.3,65.1c8.5-2.7,17-5.3,25.3-8.5c0.3-0.1,0.2-0.5-0.1-0.4c-8.5,2.5-17,5.5-25.4,8.4
	C15.8,64.7,16,65.2,16.3,65.1z"/>
<path class="st0" d="M28.9,65.3c3.9-1.4,7.9-2.6,11.6-4.3c0.4-0.2,0-0.7-0.3-0.5l-0.6,0.3c-0.1,0.1-0.1,0.2,0,0.3
	c0,0,0.1,0.1,0.1,0.1l0.7-0.1l-0.1-0.6c-3.9,1.2-7.7,2.8-11.5,4.3C28.3,64.8,28.5,65.4,28.9,65.3z"/>
<path class="st0" d="M130.5,64c-0.6-0.4-1.2-0.8-1.9-1c-0.1,0-0.2,0-0.3,0.2c0,0.1,0,0.1,0.1,0.2c0.5,0.5,1.1,0.9,1.7,1.2
	c0.2,0.1,0.4,0,0.5-0.1C130.7,64.3,130.7,64.1,130.5,64L130.5,64L130.5,64z"/>
<path class="st0" d="M126.7,63.3c1.4,0.7,2.8,1.3,4.3,1.6c0.1,0,0.3-0.1,0.3-0.2c0-0.1,0-0.2-0.1-0.3c-1.4-0.7-2.8-1.3-4.3-1.6
	C126.6,62.7,126.4,63.1,126.7,63.3L126.7,63.3z"/>
<path class="st0" d="M131.2,64.3c-0.2-0.1-0.4-0.2-0.6-0.3c-0.2-0.1-0.5,0-0.6,0.2c-0.1,0.2-0.1,0.4,0.1,0.5l0.4,0.4l0.5-0.8
	c-1-0.2-2-0.3-3-0.2c-0.4,0-0.6,0.3-0.6,0.7c0,0.4,0.3,0.6,0.6,0.6c0.6,0,1-0.4,1-1c0-0.1,0-0.1,0-0.2c-0.1-0.3-0.3-0.4-0.6-0.4
	c-0.1,0-0.2,0.1-0.2,0.1c-0.1,0.1-0.1,0.1,0,0.1l-0.2,1.3c1,0.1,2,0,3-0.2c0.3-0.1,0.4-0.4,0.3-0.6c0-0.1-0.1-0.2-0.2-0.3l-0.4-0.3
	l-0.2,0.8c0.2,0,0.4,0,0.6,0c0.1,0,0.3,0,0.3-0.2C131.4,64.5,131.3,64.3,131.2,64.3L131.2,64.3L131.2,64.3z"/>
<path class="st0" d="M127.3,63.4c-0.2-0.1-0.5-0.1-0.6,0.1c0,0.1-0.1,0.1-0.1,0.2c0,0.5,0.4,0.6,0.8,0.4c0.1,0,0.2-0.2,0.2-0.3
	c0-0.1-0.1-0.1-0.1-0.1c-0.3-0.2-0.1-0.1-0.2,0l-0.3,0.2h0.1C127.4,64,127.5,63.6,127.3,63.4L127.3,63.4z"/>
<path class="st0" d="M13.2,64.5c2.4-0.8,4.5-2,6.8-3c2.1-0.7,4.2-1.5,6.2-2.5c0.3-0.2,0.1-0.6-0.2-0.6c-2.3,0.5-4.6,1.3-6.7,2.4
	c-2.2,0.9-4.3,2-6.2,3.3C12.9,64.3,13,64.6,13.2,64.5L13.2,64.5z"/>
<path class="st0" d="M15.4,65.6c3.5-1.2,6.9-2.9,10-4.9c0.1-0.1,0.2-0.3,0.1-0.4c-0.1-0.1-0.2-0.1-0.3-0.1c-1.7,0.5-3.3,1.2-4.8,2.1
	c-1.8,0.8-3.6,1.7-5.3,2.7C14.7,65.1,15,65.7,15.4,65.6L15.4,65.6z"/>
<path class="st0" d="M17.8,66.4c4.1-1.3,8.1-3.1,12.2-4.5c0.1,0,0.2-0.2,0.2-0.3c0-0.1-0.2-0.2-0.3-0.2l0,0
	c-4.3,0.7-8.5,2.3-12.2,4.7C17.5,66.2,17.6,66.5,17.8,66.4z"/>
<path class="st0" d="M20.2,67.5c5.6-1.7,11.3-5,16.4-7.8c0.2-0.1,0-0.4-0.1-0.3c-5.4,2.2-11.5,4.5-16.4,7.8
	C20,67.3,20.1,67.6,20.2,67.5z"/>
<path class="st0" d="M25.3,69.5c7-2.6,13.9-5.5,20.7-8.5c0.1-0.1,0-0.3-0.1-0.3c-7,2.7-14,5.5-20.8,8.5C24.9,69.3,25,69.6,25.3,69.5
	L25.3,69.5z"/>
<path class="st0" d="M28.4,70.4c7.5-3.1,15-6.7,22.2-10.4c0.2-0.1,0-0.3-0.2-0.3C43,63,35.5,66.5,28.3,70.3
	C28.2,70.3,28.3,70.4,28.4,70.4z"/>
<path class="st0" d="M32.2,71.7c7.1-3.3,14.2-6.7,21.1-10.4c0.2-0.1,0-0.4-0.2-0.3c-7.1,3.2-14.1,6.8-21,10.5
	C32.1,71.5,32.2,71.7,32.2,71.7L32.2,71.7z"/>
<path class="st0" d="M37.5,72.3c6.2-3.1,12.5-6.1,18.5-9.5c0.1-0.1,0-0.3-0.1-0.2c-6.3,3-12.3,6.3-18.4,9.5
	C37.3,72.2,37.4,72.4,37.5,72.3L37.5,72.3z"/>
<path class="st0" d="M43.5,71.5c6.1-2.8,12.3-5.6,18.3-8.8c0.2-0.1,0-0.3-0.1-0.2c-6.2,2.7-12.2,5.8-18.3,8.8
	C43.3,71.4,43.4,71.6,43.5,71.5z"/>
<path class="st0" d="M51.3,71.4c2.4-0.9,4.8-1.8,7.1-2.7c0.3-0.1,0.2-0.6-0.1-0.4c-2.4,0.8-4.8,1.8-7.1,2.6
	C50.8,71,51,71.6,51.3,71.4z"/>
<path class="st0" d="M42.2,61l2.4-0.8c0.1,0,0-0.2,0-0.1l-2.4,0.8C42.1,60.9,42.2,61,42.2,61L42.2,61z"/>
<path class="st0" d="M53.3,77.4c5,2.3,10,4.7,15,6.9c0.1,0,0.2-0.1,0.1-0.2C63.4,81.9,58.4,79.6,53.3,77.4
	C53.3,77.3,53.2,77.4,53.3,77.4L53.3,77.4z"/>
<path class="st0" d="M50.8,75.4c6.7,3,13.4,5.8,20.2,8.6c0.2,0.1,0.3-0.3,0.2-0.4c-6.7-2.9-13.5-5.8-20.3-8.4
	C50.8,75.3,50.8,75.3,50.8,75.4C50.8,75.4,50.8,75.4,50.8,75.4z"/>
<path class="st0" d="M52.7,75.8c6.9,3.3,13.7,6.8,20.7,9.7c0.2,0.1,0.3-0.2,0.1-0.3c-6.7-3.6-13.8-6.4-20.7-9.6
	C52.7,75.6,52.6,75.8,52.7,75.8z"/>
<path class="st0" d="M63.8,79c3.9,1.9,7.9,4.1,12,5.4c0.2,0.1,0.3-0.2,0.1-0.3c-3.8-2.2-8-3.7-12-5.3C63.8,78.8,63.7,79,63.8,79
	L63.8,79z"/>
<path class="st0" d="M77.4,77.5c2.6,1.3,5.2,3,8.1,3.9c0.3,0.1,0.4-0.3,0.2-0.4c-2.4-1.6-5.4-2.5-8.1-3.7
	C77.4,77.1,77.3,77.4,77.4,77.5z"/>
<path class="st0" d="M77.7,82.2c0.9,0.5,1.8,0.8,2.8,1c0.2,0,0.3-0.3,0.1-0.4c-0.9-0.4-1.8-0.8-2.8-0.9
	C77.6,81.9,77.5,82.1,77.7,82.2L77.7,82.2z"/>
<path class="st0" d="M128.3,64.1c-1.3,0.4-2.6,0.9-3.8,1.5c-0.3,0.2-0.1,0.6,0.2,0.5c1.3-0.3,2.6-0.7,3.8-1.3
	C129,64.6,128.8,63.9,128.3,64.1z"/>
<path class="st0" d="M37.5,77.8c0-0.5,0.1-1,0.1-1.6s0-1,0-1.6s-0.8-0.5-0.8,0s0.1,1,0.1,1.6s0.2,1,0.3,1.6
	C37.2,78,37.5,78,37.5,77.8L37.5,77.8z"/>
<path class="st0" d="M38.6,78c0.1-1,0.1-2.1,0.3-3.1c0.1-0.5-0.9-0.5-0.8,0c0.1,1,0.1,2.1,0.3,3.1c0,0.1,0.1,0.2,0.2,0.2
	C38.5,78.2,38.6,78.1,38.6,78z"/>
<path class="st0" d="M37.1,77.3c0.1-1.2,0.3-2.4,0.3-3.6c0-0.2-0.2-0.4-0.4-0.4c-0.1,0-0.2,0.1-0.3,0.2c-0.1,0.1-0.1,0.2-0.2,0.3
	c-0.1,0.1,0,0.2,0.1,0.3c0,0,0.1,0,0.2,0l0.4-0.1l-0.5-0.3c0,1.2,0,2.4,0.2,3.6c0,0.1,0.1,0.2,0.2,0.2
	C37.1,77.5,37.1,77.4,37.1,77.3z"/>
<path class="st0" d="M36.9,78c0-0.8,0-1.6-0.1-2.4c0-0.6,0.1-1.2-0.4-1.6c-0.1-0.1-0.2-0.1-0.3,0c0,0,0,0,0,0
	c-0.3,0.5-0.1,1.2,0,1.7c0.1,0.8,0.3,1.5,0.4,2.3C36.6,78.2,37,78.2,36.9,78L36.9,78z"/>
<path class="st0" d="M37.9,78.9c0.1-1.4,0.2-2.8,0.2-4.2c0-0.2-0.2-0.3-0.4-0.3c-0.1,0-0.2,0.1-0.3,0.3c0,1.4,0.1,2.8,0.2,4.2
	C37.7,79,37.8,79,37.9,78.9C37.9,79,37.9,78.9,37.9,78.9z"/>
<path class="st0" d="M39.3,81.1c0.1-1.1,0.2-2.2,0.3-3.3c0.1-1,0.1-1.9-0.2-2.9c0-0.1-0.1-0.2-0.3-0.1c-0.1,0-0.1,0.1-0.1,0.1
	c-0.3,0.9-0.3,1.9-0.2,2.9c0,1.1,0.2,2.2,0.3,3.3C39.1,81.2,39.2,81.2,39.3,81.1C39.3,81.2,39.3,81.1,39.3,81.1z"/>
<path class="st0" d="M41.3,83.1c0.1-2.4,0.5-4.8,0.2-7.1c0-0.2-0.2-0.3-0.4-0.2c-0.1,0-0.2,0.1-0.2,0.2c-0.3,2.4,0.2,4.8,0.2,7.1
	C41.2,83.2,41.2,83.2,41.3,83.1C41.3,83.2,41.4,83.2,41.3,83.1z"/>
<path class="st0" d="M42.9,81.9c0.1-0.9,0.2-1.7,0.3-2.6s0-1.7,0.1-2.6c0-0.7-1.1-0.5-0.9,0.1c0.1,0.2,0.1,0.3,0.2,0.4
	c0.1,0.1,0.2,0.2,0.4,0.1c0,0,0.1-0.1,0.1-0.1c0.1-0.1,0.1-0.3,0.2-0.4c0.2-0.6-0.9-0.8-0.9-0.1c0,0.8,0.1,1.7,0.1,2.6
	s0.2,1.7,0.3,2.6c0,0.1,0,0.1,0.1,0.1S42.9,81.9,42.9,81.9z"/>
<path class="st0" d="M44.5,81.7c0-0.8,0.2-1.6,0.3-2.4c0.2-0.7,0.2-1.4,0-2.1c-0.1-0.2-0.3-0.3-0.5-0.3c-0.1,0-0.2,0.1-0.3,0.3
	c-0.2,0.7-0.2,1.4,0,2.1c0.1,0.8,0.2,1.6,0.3,2.4C44.3,81.8,44.4,81.8,44.5,81.7C44.5,81.8,44.5,81.8,44.5,81.7L44.5,81.7z"/>
<path class="st0" d="M45.9,81.9c0.1-0.7,0.4-1.3,0.5-2s0.2-1.3,0.2-1.9s-0.9-0.6-0.9,0c-0.1,0.7-0.1,1.3-0.1,2c0,0.7,0.2,1.3,0.1,2
	C45.7,82.1,45.9,82.1,45.9,81.9L45.9,81.9z"/>
<path class="st0" d="M47.2,82.8c0.1-0.7,0.3-1.5,0.4-2.2c0.2-0.7,0.2-1.5,0-2.3c0-0.1-0.2-0.2-0.4-0.2c-0.1,0-0.1,0.1-0.1,0.1
	c-0.3,0.6-0.4,1.3-0.3,2c0,0.8,0.1,1.7,0.1,2.5C47,82.9,47.2,82.9,47.2,82.8L47.2,82.8z"/>
<path class="st0" d="M48.7,82.5c0-0.6,0.2-1.2,0.2-1.9c0.1-0.5,0.1-1.1-0.1-1.7c0-0.1-0.1-0.2-0.2-0.2c-0.1,0-0.1,0.1-0.2,0.2
	c-0.1,0.5-0.2,1.1-0.1,1.6c0,0.6,0.1,1.2,0.2,1.9C48.5,82.6,48.6,82.6,48.7,82.5C48.7,82.6,48.7,82.5,48.7,82.5L48.7,82.5z"/>
<path class="st0" d="M49.6,81.3c0-0.7,0.1-1.3,0.1-2c0-0.1-0.1-0.1-0.2-0.1c-0.1,0-0.1,0.1-0.1,0.1c0,0.7,0,1.4,0.1,2
	C49.5,81.3,49.5,81.3,49.6,81.3C49.6,81.3,49.6,81.3,49.6,81.3z"/>
<path class="st0" d="M51.5,80.6c0-0.3-0.1-0.6-0.1-1c0-0.1-0.2-0.1-0.1,0c0,0.3,0.1,0.6,0.1,1C51.3,80.7,51.3,80.7,51.5,80.6
	C51.4,80.7,51.4,80.7,51.5,80.6C51.5,80.6,51.5,80.6,51.5,80.6z"/>
<path class="st0" d="M53.1,81.1c0-0.2,0-0.3,0-0.5s-0.2-0.1-0.2,0s0,0.3,0,0.5c0,0,0,0.1,0.1,0.1C53,81.2,53,81.1,53.1,81.1
	L53.1,81.1z"/>
<path class="st0" d="M54,82.8c0.1-0.6,0.6-1.5,0.4-2.1c0-0.1-0.2-0.2-0.3-0.1c-0.4,0.5-0.2,1.5-0.3,2.1C53.8,82.9,54,82.9,54,82.8
	L54,82.8z"/>
<path class="st0" d="M55.1,83.8c0.2-0.7,0.3-1.4,0.4-2.1c0-0.2-0.3-0.3-0.4,0c-0.1,0.7-0.2,1.4-0.2,2C55,83.9,55.2,83.9,55.1,83.8
	L55.1,83.8z"/>
<path class="st0" d="M56.7,85.3c0.1-1,0.3-2,0.4-3c0-0.4-0.5-0.4-0.6,0c-0.1,1,0.1,2,0,3C56.5,85.4,56.6,85.4,56.7,85.3L56.7,85.3z"
	/>
<path class="st0" d="M59.7,86.2c0.2-0.4,0.3-0.8,0.4-1.2c0.1-0.4,0.1-0.9,0.2-1.3c0-0.1-0.1-0.3-0.2-0.3c-0.1-0.1-0.2-0.1-0.3,0
	c-0.1,0-0.2,0.1-0.3,0.3c-0.1,0.4-0.1,0.9-0.2,1.3c0,0.4,0,0.9,0.1,1.3C59.4,86.3,59.7,86.3,59.7,86.2L59.7,86.2z"/>
<path class="st0" d="M61.6,87.1c0-0.6,0.2-1.2,0.2-1.8c0.1-0.5,0-1-0.1-1.5c-0.1-0.1-0.2-0.2-0.4-0.1c0,0-0.1,0.1-0.1,0.1
	c-0.2,0.5-0.2,1-0.1,1.5c0,0.6,0.2,1.2,0.2,1.8c0,0.1,0.1,0.2,0.1,0.2C61.5,87.2,61.6,87.1,61.6,87.1C61.6,87.1,61.6,87.1,61.6,87.1
	z"/>
<path class="st0" d="M62.8,86.7c0.1-0.8,0.3-1.7,0.4-2.5c0-0.2-0.2-0.3-0.3-0.3s-0.3,0.2-0.3,0.3c0,0.8,0,1.7,0.1,2.5
	C62.6,86.9,62.8,86.9,62.8,86.7z"/>
<path class="st0" d="M64.7,89c0.2-1.2,0.5-2.4,0.5-3.7c0-0.5-0.8-0.7-0.9-0.1c-0.1,1.2-0.1,2.5-0.1,3.7C64.2,89.2,64.6,89.3,64.7,89
	z"/>
<path class="st0" d="M66,89.9c0.2-0.8,0.4-1.6,0.5-2.3c0.2-0.6,0.2-1.2,0-1.8c-0.1-0.1-0.3-0.1-0.4,0c0,0,0,0,0,0
	c-0.3,0.5-0.4,1.1-0.4,1.7c-0.1,0.8,0,1.6,0,2.4C65.7,90.1,66,90.2,66,89.9L66,89.9z"/>
<path class="st0" d="M68.4,90.3c0.2-0.8,0.5-1.5,0.7-2.3c0.2-0.6,0.3-1.3,0.2-2c-0.1-0.2-0.3-0.3-0.4-0.2c-0.1,0-0.1,0.1-0.2,0.1
	c-0.3,0.6-0.5,1.3-0.5,2c-0.1,0.8-0.1,1.5-0.2,2.3C68,90.4,68.4,90.4,68.4,90.3L68.4,90.3z"/>
<path class="st0" d="M102.2,78.4c-1.5,1.1-3,2.2-4.5,3.3c-0.1,0.1,0,0.3,0.1,0.2c1.5-1.1,3-2.2,4.5-3.3
	C102.4,78.5,102.3,78.3,102.2,78.4z"/>
<path class="st0" d="M84,87.6c0.1-0.7,0.3-1.4,0.4-2c0.2-0.5,0.2-1.1,0.1-1.7c0-0.2-0.2-0.3-0.4-0.2c-0.1,0-0.1,0.1-0.2,0.1
	c-0.3,0.5-0.4,1.1-0.3,1.7c0,0.7-0.1,1.4-0.2,2.1C83.5,87.8,84,87.9,84,87.6L84,87.6z"/>
<path class="st0" d="M82,87.2c0-0.6,0.1-1.1,0.1-1.7c0.1-0.5,0.1-1-0.1-1.4c-0.1-0.2-0.3-0.2-0.5-0.1c0,0-0.1,0.1-0.1,0.1
	c-0.2,0.4-0.3,1-0.2,1.4c0,0.6,0.1,1.1,0.1,1.7c0,0.2,0.2,0.3,0.4,0.3C81.9,87.6,82,87.4,82,87.2L82,87.2z"/>
<path class="st0" d="M86.4,86.6c0.2-1.4,0.4-2.9,0.5-4.3l-1,0.1c0,0.2,0.1,0.5,0.2,0.7c0.1,0.2,0.4,0.4,0.6,0.1
	c0.1-0.2,0.2-0.5,0.2-0.8c0-0.3-0.2-0.5-0.4-0.6s-0.5,0.2-0.6,0.4l0,0c-0.1,1.5-0.1,2.9-0.1,4.3C85.8,86.9,86.3,86.9,86.4,86.6
	L86.4,86.6z"/>
<path class="st0" d="M90,84.7c0.1-0.9,0.3-1.8,0.3-2.8c0-0.3-0.3-0.6-0.6-0.6c-0.3,0-0.6,0.3-0.6,0.6c0,0.3,0,0.6,0.1,0.8
	c0.1,0.2,0.4,0.4,0.6,0.2c0.2-0.3,0.4-0.5,0.4-0.8L89,81.9c0,0.9,0.2,1.8,0.3,2.8c0,0.2,0.2,0.4,0.4,0.4S90,84.9,90,84.7z"/>
<path class="st0" d="M87.3,82.6c-0.1,1,0,1.9,0.2,2.9c0.1,0.8,1.3,0.6,1-0.1c0-0.2-0.2-0.4-0.3-0.5c-0.1-0.1-0.3-0.1-0.5,0
	c-0.1,0.1-0.2,0.3-0.2,0.5h1c-0.1-1-0.3-1.9-0.7-2.8c-0.1-0.1-0.3-0.2-0.4-0.1C87.3,82.4,87.2,82.5,87.3,82.6L87.3,82.6z"/>
<path class="st0" d="M85.1,83.1c-0.1,1-0.1,2,0,3c0,0.3,0.2,0.5,0.5,0.5s0.5-0.2,0.5-0.5c0-1-0.1-2-0.3-3
	C85.8,82.7,85.1,82.7,85.1,83.1L85.1,83.1z"/>
<path class="st0" d="M88.9,82.3c0.2,1,0.3,2,0.5,3c0.1,0.3,0.4,0.4,0.7,0.2c0.2-0.1,0.3-0.2,0.3-0.4c0-0.5-0.1-1-0.2-1.5
	c-0.1-0.2-0.2-0.3-0.4-0.2c-0.1,0-0.2,0.1-0.2,0.2c-0.1,0.5-0.2,1-0.3,1.5l1-0.1c-0.2-1-0.5-1.9-0.8-2.9
	C89.5,81.7,88.8,81.9,88.9,82.3L88.9,82.3z"/>
<path class="st0" d="M90.4,80.3c0.1,1.3,0.1,2.7,0.2,4c0.1,0.8,1.2,0.6,1-0.1c0-0.2-0.1-0.4-0.3-0.6c-0.1-0.1-0.3-0.1-0.4-0.1
	c0,0,0,0-0.1,0.1c-0.1,0.2-0.2,0.4-0.3,0.6l1,0.1c-0.1-1.3-0.3-2.7-0.4-4C91.2,79.8,90.3,79.8,90.4,80.3z"/>
<path class="st0" d="M91.2,81.3c0,1.1,0,2.1,0.2,3.2c0.1,0.6,1.1,0.6,1,0s-0.1-1.3-0.3-2c0-0.1-0.2-0.2-0.3-0.2
	c-0.1,0-0.1,0.1-0.2,0.2c-0.1,0.7-0.2,1.3-0.3,2h1c-0.1-1.1-0.2-2.2-0.5-3.3c0-0.2-0.2-0.3-0.4-0.3C91.3,80.9,91.2,81.1,91.2,81.3z"
	/>
<path class="st0" d="M92.3,80.6l0.3,2c0,0.6,0.1,1.1,0.3,1.6c0.1,0.2,0.3,0.2,0.5,0.1c0.1,0,0.1-0.1,0.1-0.2c0.1-0.6,0-1.1-0.1-1.7
	l-0.3-2C92.9,80.1,92.2,80.2,92.3,80.6z"/>
<path class="st0" d="M93.7,80.3l0.3,1.7c0.1,0.5,0,0.9,0.4,1.2c0.1,0.1,0.3,0,0.4-0.1c0.3-0.4,0.1-0.8,0-1.3l-0.3-1.6
	C94.4,79.6,93.6,79.8,93.7,80.3L93.7,80.3z"/>
<path class="st0" d="M95,79.9c0.1,0.5,0.1,1,0.2,1.5c0,0.4,0.1,0.8,0.2,1.3c0.1,0.2,0.3,0.3,0.5,0.3c0.2-0.1,0.3-0.3,0.3-0.5v-0.3
	c0-0.1-0.1-0.3-0.3-0.3c-0.1,0-0.2,0-0.2,0.1l-0.2,0.2l0.7,0.3c0-0.5-0.1-0.9-0.3-1.3c-0.1-0.5-0.2-1-0.3-1.4
	C95.6,79.3,95,79.5,95,79.9L95,79.9z"/>
<path class="st0" d="M96.8,78.7c0.1,0.8,0.2,1.7,0.3,2.5c0,0.2,0.1,0.4,0.4,0.5c0.1,0.1,0.3,0.1,0.4,0c0.2-0.1,0.3-0.3,0.2-0.6
	c-0.2-0.8-0.4-1.7-0.5-2.6C97.5,78,96.7,78.3,96.8,78.7L96.8,78.7z"/>
<path class="st0" d="M98,78.6c0.2,0.5,0.3,1,0.5,1.5s0.1,0.7,0.6,0.9c0.1,0,0.2,0,0.3-0.1c0.2-0.4,0-0.7-0.1-1.1s-0.3-0.9-0.5-1.4
	S97.9,78.1,98,78.6z"/>
<path class="st0" d="M100.1,77.8c0.1,0.8,0.4,1.5,0.7,2.3c0.1,0.1,0.3,0.2,0.4,0.1c0.1,0,0.1-0.1,0.1-0.2c0-0.8-0.2-1.6-0.5-2.3
	c-0.1-0.2-0.3-0.3-0.5-0.3C100.1,77.3,100,77.6,100.1,77.8z"/>
<path class="st0" d="M103,77.2c-0.1,0.6-0.1,1.2-0.1,1.8c0,0.2,0.3,0.2,0.4,0c0.2-0.6,0.2-1.2,0.3-1.8C103.6,76.8,103,76.8,103,77.2
	z"/>
<path class="st0" d="M102.9,77.8c-2,2.2-4.3,4-6.9,5.4c-0.1,0.1,0,0.2,0.1,0.2c2.6-1.4,5-3.2,6.9-5.5
	C103.1,77.8,103,77.7,102.9,77.8L102.9,77.8z"/>
<path class="st0" d="M92.1,85.6c0,1.7-0.3,3.7,0.1,5.4c0,0.1,0.1,0.2,0.3,0.1c0.1,0,0.1-0.1,0.1-0.1c0.3-1.8,0.3-3.6,0.1-5.4
	c0-0.1-0.2-0.2-0.3-0.2C92.2,85.5,92.2,85.5,92.1,85.6z"/>
<path class="st0" d="M90.5,86.4c-0.3,1.5-0.3,3,0,4.5c0,0.1,0.2,0.2,0.3,0.2c0.1,0,0.1-0.1,0.2-0.2c0.3-1.5,0.3-3,0-4.5
	c0-0.1-0.1-0.2-0.3-0.2C90.6,86.2,90.5,86.3,90.5,86.4L90.5,86.4z"/>
<path class="st0" d="M87.3,88.1c0,1,0.1,2,0.3,3c0.1,0.2,0.3,0.2,0.4,0c0-1,0-2-0.3-3C87.8,87.9,87.3,87.8,87.3,88.1z"/>
<path class="st0" d="M97.4,82.8c0,0.7,0,1.4,0.1,2.1c0,0.1,0.1,0.2,0.2,0.1c0.1,0,0.1-0.1,0.1-0.1c0.1-0.7,0.1-1.4,0.1-2.1
	c0-0.2-0.1-0.3-0.3-0.3S97.4,82.7,97.4,82.8L97.4,82.8z"/>
<path class="st0" d="M70.2,92h1.1c0,0,0.1,0,0.1-0.1c0,0,0-0.1-0.1-0.1h-1.1C70.2,91.9,70.2,91.9,70.2,92C70.1,92,70.2,92,70.2,92
	C70.2,92,70.2,92,70.2,92L70.2,92z"/>
<path class="st0" d="M69.9,92.5l-4.2-0.3c-0.1,0-0.1,0.1,0,0.1l4.2,0.3C70,92.6,70,92.5,69.9,92.5z"/>
<path class="st0" d="M70.2,90.5c0.3-1.2,0.4-2.4,0.3-3.7c0-0.2-0.3-0.3-0.3,0c-0.3,1.2-0.4,2.4-0.3,3.7c0,0.1,0.1,0.2,0.2,0.2
	S70.2,90.6,70.2,90.5z"/>
<path class="st0" d="M71.5,89.8c0.2-0.8,0.5-1.5,0.6-2.3c0-0.3-0.3-0.4-0.4-0.1c-0.2,0.8-0.3,1.6-0.4,2.4
	C71.3,89.8,71.4,89.9,71.5,89.8L71.5,89.8z"/>
<path class="st0" d="M71.9,90.4c0.3-0.3,0.2-0.9,0.2-1.3c0.1-0.5,0-1-0.1-1.5c0-0.1-0.1-0.1-0.2-0.1c0,0,0,0-0.1,0.1
	c-0.2,0.5-0.2,1-0.1,1.5c0,0.4-0.1,1,0.2,1.3C71.8,90.4,71.8,90.4,71.9,90.4z"/>
<path class="st0" d="M73.1,90.2L73,90.6l0.3,0.1c0.2-1.2,0.3-2.4,0.3-3.6c0-0.2-0.2-0.3-0.3-0.2c-0.1,0-0.2,0.1-0.2,0.2
	c-0.2,1.2-0.2,2.4-0.1,3.6c0,0.1,0,0.2,0.1,0.2c0.1,0,0.2,0,0.2-0.1c0,0,0-0.1,0-0.1v-0.4C73.3,90.1,73.1,90.1,73.1,90.2L73.1,90.2z
	"/>
<path class="st0" d="M74.9,90.2c0.1-0.6,0.2-1.2,0.3-1.9c0.1-0.7,0.1-1.3,0-2c0-0.1-0.2-0.2-0.3-0.2c-0.1,0-0.1,0.1-0.2,0.2
	c-0.1,0.6-0.2,1.2-0.1,1.8c0,0.7,0.1,1.3,0.2,2C74.8,90.2,74.9,90.3,74.9,90.2L74.9,90.2z"/>
<path class="st0" d="M77.7,89.9c0.3-1.3,0.4-2.6,0.3-3.9c0-0.2-0.1-0.3-0.3-0.3c-0.2,0-0.3,0.1-0.3,0.3c-0.1,1.3-0.1,2.6,0.1,3.9
	c0,0,0,0.1,0.1,0.1S77.7,90,77.7,89.9L77.7,89.9z"/>
<path class="st0" d="M79.5,88.9c-0.2-0.6-0.4-1.3-0.4-2c0-0.5,0.1-1.1,0.2-1.6c0-0.3-0.4-0.4-0.6-0.2c-0.3,0.6-0.4,1.3-0.3,2
	c0.1,0.7,0.4,1.3,0.9,1.8C79.4,89,79.4,89,79.5,88.9C79.5,89,79.5,88.9,79.5,88.9L79.5,88.9z"/>
<path class="st0" d="M82,87.4c0.3-0.3,0.5-0.7,0.5-1.1c0.2-0.5,0.3-0.9,0.3-1.4c0-0.1-0.1-0.2-0.2-0.2c-0.1,0-0.1,0-0.2,0.1
	c-0.2,0.4-0.4,0.9-0.5,1.4c-0.2,0.4-0.2,0.8-0.1,1.3C81.9,87.4,81.9,87.4,82,87.4C82,87.4,82,87.4,82,87.4L82,87.4z"/>
<path class="st0" d="M66.5,94.3c12.7,0.5,25.2-3.3,35.3-11c0.3-0.3,0-0.8-0.3-0.6C91.2,90.1,79,94.1,66.5,94.3
	C66.4,94.2,66.4,94.3,66.5,94.3C66.4,94.3,66.4,94.4,66.5,94.3L66.5,94.3z"/>
<path class="st0" d="M45.1,87.1c-2.8-1.7-6-3.7-7.9-6.4c-0.2-0.3-0.5-0.3-0.8-0.2s-0.3,0.5-0.2,0.8c0,0.1,0.1,0.1,0.2,0.2
	c2.9,2.1,5.3,4.3,8.6,5.8c0.1,0,0.1,0,0.2-0.1C45.2,87.2,45.2,87.1,45.1,87.1C45.1,87.1,45.1,87.1,45.1,87.1z"/>
<path class="st0" d="M102.8,81.6c0,4.1-0.4,8.4,0.5,12.4c0.1,0.4,0.6,0.2,0.6-0.1c0.5-4.1-0.2-8.3-0.5-12.4c0-0.2-0.2-0.3-0.3-0.2
	C102.9,81.4,102.8,81.5,102.8,81.6z"/>
<path class="st0" d="M101.5,79.5c0.1,1.9,0.3,3.8,0.7,5.8l1.1-0.6c-0.3-0.2-0.6-0.3-1-0.2c-0.3,0-0.5,0.2-0.5,0.5c0,0,0,0.1,0,0.1
	c0.1,0.3,0.2,0.6,0.5,0.8c0.3,0.3,0.8,0.3,1,0c0.2-0.2,0.2-0.5,0.2-0.7c-0.2-1.9-0.6-3.8-1-5.7c-0.1-0.3-0.4-0.5-0.7-0.4
	C101.6,79.1,101.5,79.3,101.5,79.5L101.5,79.5z"/>
<path class="st0" d="M102.7,78c-0.1,1-0.2,1.9-0.1,2.9c0,0.8-0.2,1.7,0.4,2.3c0.1,0.1,0.4,0.1,0.5,0c0.6-0.6,0.3-1.5,0.3-2.3
	c0-1-0.1-2-0.2-2.9c-0.1-0.2-0.3-0.4-0.5-0.3C102.8,77.7,102.7,77.8,102.7,78z"/>
<path class="st0" d="M83,88.2c8.1-1.3,15.8-4.4,22.5-9.2c0.7-0.5,0.1-1.7-0.7-1.2c-6.8,4.3-14.2,7.6-21.9,10c-0.1,0-0.2,0.2-0.1,0.3
	C82.8,88.2,82.9,88.2,83,88.2L83,88.2z"/>
<path class="st0" d="M102.6,83.6c-1.8,1-3.5,2.1-5.1,3.4c-1.2,0.8-2.9,1.5-3.4,2.9c0,0.2,0.1,0.4,0.2,0.4c0,0,0.1,0,0.1,0
	c1.6,0,3.1-1.6,4.3-2.5c1.6-1,3.1-2.2,4.5-3.4c0.2-0.2,0.2-0.5,0-0.7C103.1,83.5,102.8,83.5,102.6,83.6z"/>
<path class="st0" d="M102.9,87.6c-3.2,1.7-6.3,3.4-9.7,4.8c-0.3,0.1-0.1,0.5,0.2,0.5c3.6-0.7,7-2.4,9.8-4.9
	C103.6,87.8,103.2,87.4,102.9,87.6L102.9,87.6z"/>
<path class="st0" d="M101,91.2c-0.8,0.6-1.6,1.1-2.4,1.8c-0.2,0.1,0,0.4,0.2,0.3c0.8-0.5,1.6-1.1,2.4-1.7
	C101.4,91.4,101.2,91.1,101,91.2z"/>
<path class="st0" d="M41.4,81.9c-1.5-1.2-2.8-2.7-4.5-3.6c-0.4-0.2-0.8,0.3-0.4,0.6c1.4,1.4,3.3,2,4.9,3.1
	C41.4,82,41.5,81.9,41.4,81.9z"/>
<path class="st0" d="M41.7,80c-1-0.8-1.9-1.8-2.9-2.6c-0.7-0.8-1.6-1.4-2.6-1.8c-0.1,0-0.2,0.1-0.3,0.2c0,0.1,0,0.1,0,0.1
	c0.7,0.9,1.5,1.6,2.4,2.1c1.1,0.8,2.2,1.4,3.3,2.2C41.7,80.3,41.8,80.1,41.7,80L41.7,80z"/>
</svg>
