<svg xmlns="http://www.w3.org/2000/svg" viewBox="0 0 66.85 53.44"><defs><style>.cls-1{fill:#8a859e;}.cls-2{fill:#3d3a44;}.cls-3{fill:none;}</style></defs><title>logo</title><g id="Layer_2" data-name="Layer 2"><g id="Layer_1-2" data-name="Layer 1"><path class="cls-1" d="M14.62,53.43H0v-1l5.4-2.54,18.84-44L22.89,2.57h7.47L49.91,50l5.72,2.3v1.11H36.16V52.32L42.44,50,36,34.68H15.26L9,49.94l5.64,2.3ZM35,31.74l-9.06-22-9.46,22Z"/><path class="cls-2" d="M48,2.49l-2,1a9.88,9.88,0,0,1,1-1.3A1.1,1.1,0,0,1,48.49,2l-1.57.4,0,.15,1-.09Z"/><path class="cls-3" d="M50,45.9h-.1l-1.22,4c1,.15,1.2-.14.94-1.12a2.65,2.65,0,0,1,0-1C49.73,47.13,49.86,46.52,50,45.9Z"/><path class="cls-3" d="M46.18,45.46l.15.06L48,42l.12,0-.32,3.18.24,0c.15-1.72.31-3.43.46-5.15l-.21,0Z"/><path class="cls-3" d="M50.53,5.61c.3-.83.16-1.1-.75-1.66C49.5,4.7,50.16,5,50.53,5.61Z"/><path class="cls-3" d="M50.16,39.4a.4.4,0,0,0-.11.28q.06,3,.14,5.93a3,3,0,0,0,.15,1.44,3,3,0,0,1,.17,2.68L52,50c0-.28-.06-.46-.08-.65-.16-1.55-.78-3.06-.39-4.68a13.1,13.1,0,0,0,.23-2.18c0-.23,0-.58-.15-.69A3.67,3.67,0,0,1,50.16,39.4Z"/><path class="cls-3" d="M40.82,34.77c.1.42.15.84.22,1.26l0,.13h0L41,36l-1-3.67c-.27-1-.52-2-.77-3l-.18,0a1.53,1.53,0,0,0,0,.37c.2.85.4,1.7.61,2.55,1.22,4.87,2.43,9.73,3.67,14.59A8.25,8.25,0,0,0,44,48.38c.25-1.19-3.92-18.4-4.57-19.17C39.93,31.16,40.38,33,40.82,34.77Z"/><path class="cls-3" d="M50.81,7.27l-.21.12L49.43,6c-.31,1.36.64,2.37,2.6,2.59.66-.89,0-1.68-1.38-2.32Z"/><path class="cls-3" d="M42.21,28.47l0,.35-1.25.11c-.79.05-.89.17-.71.91.45,1.89.92,3.78,1.38,5.67.26,1.08.5,2.17.76,3.25a1.21,1.21,0,0,0,.13-.65c0-1.86-.07-3.71,0-5.56.1-2.17.29-4.33.5-6.5a18.18,18.18,0,0,1,1-4.92,8.29,8.29,0,0,0-.08-5.62l-.23-.09A25.83,25.83,0,0,0,42,19.32a17.21,17.21,0,0,1-1,3.24,12,12,0,0,0-1,2.46,27.87,27.87,0,0,0-.25,3.56c.6-.09,1.18-.21,1.77-.26A3,3,0,0,1,42.21,28.47Z"/><path class="cls-3" d="M44.7,14.77c.47,1,1,1.91,1.51,2.86l.53,1.21c-1.12-.52-1.5-1.53-2.21-2.3l2.22,6.74-.22.08-1.76-2.67a8.9,8.9,0,0,0,1.93,3.46l-.18.13-2.3-2.71a2,2,0,0,0,.11,2.72c1.13,1.5,2.35,1,3.69.43-.77.55-1.58,1.27-2.38,1.24s-1.53-.81-2.35-1.29v7.6l.17.11,7.25-9.75.13.08-5.21,8.51.24.15,5.86-8.59a2.45,2.45,0,0,1-.09.37C50.4,25.54,49.27,28,47.91,30.3c-1.62,2.77-2.31,5.86-3.45,8.79l.17.1,4.54-6.6.15.1c-1.49,2.47-3,4.93-4.46,7.4a2.57,2.57,0,0,0-.39,1.08c-.14,1.26-.21,2.53-.32,3.94,1.47-3,3-5.91,4.24-8.87s2.37-6.06,3.55-9.09l.1,0-2.25,9.22c1-.48,1.8-1,2.67-1.29a.7.7,0,0,0,.55-.79c0-2.28-.09-4.57,0-6.84a19.91,19.91,0,0,0-.94-6.33,1.18,1.18,0,0,0-1.66-.83l-.79.27.57-1.17a8.7,8.7,0,0,1-4-1.81c-.14-.94-.29-1.88-.43-2.83.69.86,1.24,1.77,1.83,2.64a1.11,1.11,0,0,0,.72.49,16,16,0,0,0,2-.12l-4.44-3.55L46,14l2,1.27.15-.2-.82-.59.1-.14,2.78,1.48,0-.09-2-2.23c1-.75,1.52-.58,2.46.73l.31-.35.45,2.22.14,0,.45-2.18-.57.44c.07-.41.11-.66.15-.91.11-.65,0-1.12-.77-1.29s-1.66-.57-2.51-.73A4.53,4.53,0,0,1,45.1,9.5a2.05,2.05,0,0,1-.18-.43l-.19.19c.21.69.4,1.39.62,2.08a2,2,0,0,1-.72,2.44A2.92,2.92,0,0,0,44.7,14.77Z"/><path class="cls-3" d="M62.37,2.14,62.85,2c-.41-.29-.7-.35-.71.26,0,.43,0,.86,0,1.27l.62-.93h0Z"/><path class="cls-3" d="M49.78,1.79A1.47,1.47,0,0,0,48.6.43C47.85.3,47,.15,46.4,1,47.74.18,48.81.57,49.78,1.79Z"/><path class="cls-3" d="M64.34,6.05c0,.41,0,.83,0,1.25v3.29h1.81c-.18-.52-.36-1-.5-1.47-.34-1.13-.66-2.27-1-3.41C64.53,5.82,64.35,5.93,64.34,6.05Z"/><path class="cls-3" d="M40.39,18.22c-.36,1.22-.77,2.43-1.07,3.67s-.24,2.6-1.19,3.68c-.79.89-.73,1.26,0,2.13a3.65,3.65,0,0,0,1.52-3.11c0-.12.11-.26.16-.4.46-1.34,1-2.66,1.36-4a16.85,16.85,0,0,1,.5-2.33,24.28,24.28,0,0,0,1.69-5,10.59,10.59,0,0,1,.49-1.36l.18.07-.17,2.73.75-.54c1.11-1.56.2-3-.18-4.47A2.83,2.83,0,0,0,42,12a41.13,41.13,0,0,1-.93,4.49,4.6,4.6,0,0,1-.5,1l0,0C40.54,17.72,40.46,18,40.39,18.22Z"/><path class="cls-3" d="M38,24.21c0-.1-.26-.24-.33-.21a.56.56,0,0,0-.28.35c0,.4.12.79.21,1.32A1,1,0,0,0,38,24.21Z"/><path class="cls-3" d="M59.58,9.23c1.09-.29,1.16-.75.36-1.95Z"/><path class="cls-3" d="M64,10.56V6.28l-.11,0-1.36,4.57Z"/><path class="cls-3" d="M66,11.17a4.91,4.91,0,0,0-3.3,0A3.62,3.62,0,0,0,66,11.17Z"/><path class="cls-3" d="M61.74,2.16,60.28,5.28l.17.16c.45-.28,1.16-.47,1.28-.85a10.08,10.08,0,0,0,.17-2.41Z"/><path class="cls-3" d="M62.53.64,62.34.52l-.62,1.1C62.71,1.64,62.48,1.06,62.53.64Z"/><path class="cls-3" d="M49.14,1.63A1.63,1.63,0,0,0,47.47.89c-.7.14-1,.36-1.19.93A2.45,2.45,0,0,1,49.14,1.63Z"/><path class="cls-3" d="M59.3,7.49c-.16.26-.36.58-.61.66a10.27,10.27,0,0,1-4.5.67,11.42,11.42,0,0,0-2.1.08l-3.44.19.51-3.25c-.77.54-.54,1.3-.72,1.92-.11.4-.07.88-.64.92a1,1,0,0,1-1.1-.79,3.71,3.71,0,0,0-.23-.48L45.25,9.05a7.7,7.7,0,0,0,1.91,1.53,47.3,47.3,0,0,0,4.69,1.28,2.82,2.82,0,0,1,1.59-2.51,5,5,0,0,1,0,.52c-.07.75.15,1,.85.83,1.55-.41,3.08-.88,4.62-1.33a.43.43,0,0,0,.24-.24c.23-.79.45-1.59.67-2.39A2.57,2.57,0,0,0,59.3,7.49Z"/><path class="cls-3" d="M58.45,12.57l.32.07.4-2.26-.11,0Z"/><path class="cls-3" d="M46.35,5.5a4,4,0,0,0,1,2.73c.31.45.75.27.85-.28s.16-1.19.24-1.76A8.53,8.53,0,0,1,47.29,6c-.18-.06-.3-.28-.45-.43.17-.15.34-.42.5-.42.58,0,1.15.13,1.85.21.48-.42.34-1.16.27-1.79,0-.27-.59-.49-1-.77l-.18.36-1,.08.6-.75,0,0c.4.12.8.25,1.2.35a3.07,3.07,0,0,0,.53.06c-.06-.18-.06-.41-.17-.54a2.3,2.3,0,0,0-3.11-.25c-.55.34-1.12.66-.92,1.48l.26,0c.18.48.37.91.51,1.36A1.54,1.54,0,0,1,46.35,5.5Z"/><path class="cls-3" d="M62.2,12.82H59C60.11,13.89,61,13.91,62.2,12.82Z"/><path class="cls-3" d="M60.69,8l.66-2C59.83,6.4,59.78,6.54,60.69,8Z"/><path d="M64.64,5.71h0v0Z"/><path class="cls-2" d="M66.85,11.14a2.71,2.71,0,0,1-.45-.65c-.31-.84-.55-1.71-.85-2.55s-.61-1.49-.91-2.24h0c.33,1.14.65,2.28,1,3.41.14.48.32,1,.5,1.47H64.32V7.3c0-.42,0-.84,0-1.25,0-.12.19-.23.3-.34v0h0c-.07-.56-.13-1.11-.2-1.74l-2.27.5c.14-.42.24-.71.33-1s.17-.59.25-.89h0l-.62.93c0-.41,0-.84,0-1.27,0-.61.3-.55.71-.26l-.48.18.38.43h0c.81-.2,1.38-1.09.92-1.53s-1-.77-1.33-.67-.65.76-.87,1.23-.25,1-.45,1.49c-.57,1.31-1.17,2.6-1.81,3.88a2,2,0,0,1-.84,1,11.06,11.06,0,0,1-6,.52c.33-1.09-.3-1.69-1.07-2.21a.78.78,0,0,1-.41-.82,1.62,1.62,0,0,0-.35-1.12,1.57,1.57,0,0,1-.42-1.65A2.34,2.34,0,0,0,48.59,0c-1-.25-3,.71-3.23,1.57a2.1,2.1,0,0,0,0,.44C45.27,3,45.19,4,45.12,5l.42-.37c.14.87.28,1.66.38,2.47,0,.16-.11.34-.17.51a2.65,2.65,0,0,1-.49-.2c-.76-.51-.68-1.25-.5-2-1.47,1.29.37,2,.77,3.09l-1.69.77c-.75.36-1.55.66-1.76,1.6-.5,2.22-1.14,4.44-1.63,6.66h.27a4.2,4.2,0,0,0,.38-1A42.1,42.1,0,0,0,42.16,12a2.6,2.6,0,0,1,2.31-2.55,25.61,25.61,0,0,1,0,5.43,4,4,0,0,0,.84-3.53c-.31-1-.41-1.39-.62-2.08h0c.06.14,1,1.11,1.07,1.24.77,1.2,1.74,1.43,3.09,1.69a5.84,5.84,0,0,1,2,.63c.75.41.73.59.62,1.23,0,.26.07-.4,0,0,.26-.2.35,0,.52-.11-.16.77-1.87,2.07-4.42-2,.63,1.52.06,3,2.65,3.81l0,.09c-.93-.49-2.73-.31-5.18-4.86.08-1.7-.26,1.12-.3,1.17s.38,1,.38,1l-.14.19c1.47,1.18,4.13,5.52,5.66,5.52.46-.34.83-2.18.16-2.21-.25,0,1.08-.72-2.43-1.83a7.17,7.17,0,0,1-3.25-1.67c.15.95-2.18,1.31,1.59,5.71,1.42.54,2,.22,3.47.57a6.25,6.25,0,0,1-1.87,1.46c.35-.12,1.87-.48,2.09-.56a1.18,1.18,0,0,1,1.66.83A19.91,19.91,0,0,1,53,27.47c-.11,2.27,0,4.56,0,6.84a.7.7,0,0,1-.55.79c-.87.34-1.69.81-2.67,1.29L52,27.17l-.1,0c-1.18,3-2.26,6.11-3.55,9.09s-2.77,5.83-4.24,8.87c.11-1.41.18-2.68.32-3.94a2.57,2.57,0,0,1,.39-1.08c1.47-2.47,3-4.93,4.46-7.4l-.15-.1c-1.51,2.2-1.48,1.83-3,4l-.17-.1a29.58,29.58,0,0,1,3-6c1.36-2.31,2-10.7,2.06-10.9,0,0-5.14,9.48-7.56,12.73l-.17-.11v-7.6c.82.48.82,1.11,1.59,1.13s1.61-1.33,2.38-1.89c-1.34.54-2.25-1.84-2.49-3.22l1.76,2.67.22-.08-2.22-6.74c.71.77,1.09,1.78,2.21,2.3-.21-.48.35-1.68.19-2.05-.51-.95-1.76-1-2.23-2a6.18,6.18,0,0,1-.11-1.43c-.11.94-.47.8-.72,1L44,11.59l-.18-.07a10.59,10.59,0,0,0-.49,1.36,24.28,24.28,0,0,1-1.69,5,16.85,16.85,0,0,0-.5,2.33c-.41,1.35-.9,2.67-1.36,4,0,.14-.18.28-.16.4a3.65,3.65,0,0,1-1.52,3.11c-.74-.87-.8-1.24,0-2.13.95-1.08.87-2.43,1.19-3.68s.81-2.41,1.17-3.63c.08-.25.16-.52.23-.76a.45.45,0,0,0-.12,0h-.15a.64.64,0,0,0-.16.33c-.39,1.17-.8,2.34-1.1,3.54s-.4,2.18-.6,3.28l-1-1.18-.32.14a5.27,5.27,0,0,0,1.26,5.22c-.66.73-1.89.1-2.41,1.3l2.47-.41c.12.32.25.6.33.9,1,3.82,2,7.65,3,11.46.39,1.5.84,3,.11,4.49a20.85,20.85,0,0,1-1.29,2.37c-.31.48-.2.71.23.93.13.06.31.07.4.17a1,1,0,0,1,.27.51c0,.08-.26.24-.41.26-.41,0-.26.53-.73.53L40,53.38h.17c5.2.07,10.4,0,15.6,0l.15,0v-2.6H54.35c-.07-1.6-1.35-.48-2-1.06-.19-1-.42-2.08-.61-3.18a6.22,6.22,0,0,1,0-1.22,25.74,25.74,0,0,1,1-5.13,13.46,13.46,0,0,1,1.91-4.69,1.85,1.85,0,0,0,.23-1.23c-.52-3.2-1-6.39-1.65-9.57a12.34,12.34,0,0,0-1.48-4.78,1.37,1.37,0,0,1-.2-.9c.31-1.95.66-3.9,1-5.84a2,2,0,0,1,1.31-1.71c.88-.28,1.78-.49,2.67-.75L59,10c-.36,1.07-.68,2-1,2.91a.67.67,0,0,0,.19.58,4.3,4.3,0,0,0,4.05-.07c.16-.13.35-.45.29-.57a5.4,5.4,0,0,0-.67-.92l.11.55h-2.9c.13-.89.24-1.7.4-2.51,0-.14.25-.25.41-.35s.53-.32.85-.51l.48,1.13a1.92,1.92,0,0,0-.1-.69,2.3,2.3,0,0,1,0-2c.18-.45.3-.93.48-1.37a1.06,1.06,0,0,1,.44-.53c.63-.29,1.28-.52,2-.82l-2,6.48C63,12.1,66.27,12,66.85,11.14ZM37.67,24c.07,0,.28.11.33.21a1,1,0,0,1-.4,1.46c-.09-.53-.18-.92-.21-1.32A.56.56,0,0,1,37.67,24Zm2.25,1a12,12,0,0,1,1-2.46,17.21,17.21,0,0,0,1-3.24,25.83,25.83,0,0,1,1.64-3.9l.23.09A8.29,8.29,0,0,1,44,21.13a18.18,18.18,0,0,0-1,4.92c-.21,2.17-.4,4.33-.5,6.5-.08,1.85,0,3.7,0,5.56a1.21,1.21,0,0,1-.13.65c-.26-1.08-.5-2.17-.76-3.25-.46-1.89-.93-3.78-1.38-5.67-.18-.74-.08-.86.71-.91l1.25-.11,0-.35a3,3,0,0,0-.77-.15c-.59.05-1.17.17-1.77.26A27.87,27.87,0,0,1,39.92,25Zm3.95,23.6a10,10,0,0,1-.52-1.69c-1.24-4.86-2.45-9.72-3.67-14.59-.21-.85-.41-1.7-.61-2.55a1.53,1.53,0,0,1,0-.37l.18,0c.25,1,.48,2,.77,3,1.34,4.41,2.75,15.61,4,16.57-.07-.42-1.27-8.52-1.35-8.93-.58-3-3.25-12.84-3.23-10.79C40.1,30,44.12,47.42,43.87,48.62ZM48,45.19l-.24,0L48.12,42,48,42l-1.67,3.57-.15-.06L48.29,40l.21,0C48.35,41.76,48.19,43.47,48,45.19Zm1.56,3.54c.26,1,0,1.27-.94,1.12l1.22-4H50c-.12.62-.25,1.23-.35,1.86A2.65,2.65,0,0,0,49.6,48.73Zm1.91-6.17a10.59,10.59,0,0,1-.18,2c-.4,1.62.27,3.17.43,4.73,0,.19.19.43.22.71l-1.47-.23a3,3,0,0,0-.17-2.68,3,3,0,0,1-.15-1.44q-.07-3-.14-5.93a.4.4,0,0,1,.11-.28,3,3,0,0,0,1.18,2.17C51.48,41.67,51.52,42.33,51.51,42.56ZM52,8.63c-2-.22-2.91-1.23-2.6-2.59L50.6,7.39l.21-.12-.16-1C52.08,7,52.69,7.74,52,8.63Zm-1.5-3c-.37-.58-1-.91-.75-1.66C50.69,4.51,50.83,4.78,50.53,5.61ZM45.78,3.5l-.26,0c-.2-.82.37-1.14.92-1.48a2.3,2.3,0,0,1,3.11.25c.11.13.11.36.17.54a3.07,3.07,0,0,1-.53-.06c-.4-.1-.8-.23-1.2-.35l0,0-.6.75,1-.08.18-.36c.37.28.93.5,1,.77.07.63.21,1.37-.27,1.79-.7-.08-1.27-.19-1.85-.21-.16,0-.33.27-.5.42.15.15.27.37.45.43a8.53,8.53,0,0,0,1.11.19c-.08.57-.14,1.16-.24,1.76s-.54.73-.85.28a4,4,0,0,1-1-2.73,1.54,1.54,0,0,0-.06-.64C46.15,4.41,46,4,45.78,3.5ZM62.2,12.82c-1.24,1.09-2.09,1.07-3.21,0Zm-3.43-.18-.32-.07.61-2.23.11,0Zm.34-3.51a.43.43,0,0,1-.24.24c-1.54.45-3.07.92-4.62,1.33-.7.18-.92-.08-.85-.83a5,5,0,0,0,0-.52,2.82,2.82,0,0,0-1.59,2.51,47.3,47.3,0,0,1-4.69-1.28,7.7,7.7,0,0,1-1.91-1.53l1.22-1.64a3.71,3.71,0,0,1,.23.48,1,1,0,0,0,1.1.79c.57,0,.53-.52.64-.92.18-.62,0-1.38.72-1.92l-.51,3.25,3.44-.19a13.27,13.27,0,0,1,2.27.17,10,10,0,0,0,4.45-.81c.25-.08.33-.51.49-.77a2.57,2.57,0,0,1,.48-.75C59.56,7.54,59.34,8.34,59.11,9.13Zm.47.1.36-1.95C60.74,8.48,60.67,8.94,59.58,9.23ZM60.69,8c-.91-1.44-.86-1.58.66-2Zm1-3.39c-.12.38-.83.57-1.28.85l-.17-.16,1.46-3.12.16,0A10.08,10.08,0,0,1,61.73,4.59Zm0-3,.62-1.1.19.12C62.48,1.06,62.71,1.64,61.72,1.62ZM66,11.17a3.62,3.62,0,0,1-3.3,0A4.91,4.91,0,0,1,66,11.17ZM64,6.28v4.28l-1.47.26,1.36-4.57Z"/><path d="M41.08,36.16,41,36l0,.14Z"/><polygon points="40.6 17.49 40.6 17.49 40.6 17.5 40.6 17.49"/><path d="M62.75,2.56h0Z"/><polygon class="cls-2" points="47.96 53.44 36.16 53.44 36.16 52.24 42.79 49.79 49.21 50.31 47.96 53.44"/></g></g></svg>