<svg id="Layer_2" data-name="Layer 2" xmlns="http://www.w3.org/2000/svg" viewBox="0 0 50 50"><defs><style>.cls-1{fill:#5a5562;}</style></defs><title>marker</title><path class="cls-1" d="M25,42.56l-.7-.68c-.47-.46-11.5-11.3-11.5-22.24a12.2,12.2,0,0,1,24.4,0c0,10.84-11,21.78-11.5,22.24ZM25,9.44a10.21,10.21,0,0,0-10.2,10.2c0,8.59,7.79,17.53,10.2,20.08,2.4-2.57,10.2-11.58,10.2-20.08A10.21,10.21,0,0,0,25,9.44Zm0,14.23a4.43,4.43,0,1,1,4.43-4.42A4.43,4.43,0,0,1,25,23.67Zm0-6.85a2.43,2.43,0,1,0,2.43,2.43A2.43,2.43,0,0,0,25,16.82Z"/></svg>