<svg id="Layer_2" data-name="Layer 2" xmlns="http://www.w3.org/2000/svg" viewBox="0 0 50 50"><defs><style>.cls-1{fill:#5a5562;}</style></defs><title>phone</title><path class="cls-1" d="M11.15,18.57a.92.92,0,0,1-.66,1.56.88.88,0,0,1-.65-.27,6.81,6.81,0,0,1,0-9.76.93.93,0,0,1,1.31,0,.91.91,0,0,1,0,1.29,5,5,0,0,0,0,7.18Zm2.7-6.69a.91.91,0,0,0-.27-.65.94.94,0,0,0-1.32,0,5.15,5.15,0,0,0,0,7.35,1,1,0,0,0,.66.26,1,1,0,0,0,.66-.26,1,1,0,0,0,.27-.65.91.91,0,0,0-.27-.65,3.31,3.31,0,0,1,0-4.76A.91.91,0,0,0,13.85,11.88ZM41,10.1a.93.93,0,0,0-1.31,0,.91.91,0,0,0-.27.64.88.88,0,0,0,.27.65,5,5,0,0,1,0,7.18.91.91,0,0,0,0,1.29.94.94,0,0,0,.66.27.89.89,0,0,0,.65-.27,6.81,6.81,0,0,0,0-9.76ZM38.6,11.39h0a.94.94,0,0,0-1.31,0,.91.91,0,0,0,0,1.29,3.31,3.31,0,0,1,0,4.76A.92.92,0,0,0,37.94,19a1,1,0,0,0,.66-.27,5.14,5.14,0,0,0,0-7.34ZM35.43,10V40a3,3,0,0,1-3,3h-14a3,3,0,0,1-3-3V10a3,3,0,0,1,3-3h14A3,3,0,0,1,35.43,10Zm-18,0v1h16V10a1,1,0,0,0-1-1h-14A1,1,0,0,0,17.43,10Zm0,3V35h16V13Zm16,27V37h-16v3a1,1,0,0,0,1,1h14A1,1,0,0,0,33.43,40Zm-6-1a2,2,0,1,0-2,2A2,2,0,0,0,27.43,39Z"/></svg>